G04*
G04 #@! TF.GenerationSoftware,Altium Limited,Altium Designer,25.4.2 (15)*
G04*
G04 Layer_Color=16711935*
%FSLAX44Y44*%
%MOMM*%
G71*
G04*
G04 #@! TF.SameCoordinates,8C631885-24FB-4105-B1F4-A81627B1BDD2*
G04*
G04*
G04 #@! TF.FilePolarity,Negative*
G04*
G01*
G75*
G04:AMPARAMS|DCode=33|XSize=0.87mm|YSize=1.14mm|CornerRadius=0.165mm|HoleSize=0mm|Usage=FLASHONLY|Rotation=90.000|XOffset=0mm|YOffset=0mm|HoleType=Round|Shape=RoundedRectangle|*
%AMROUNDEDRECTD33*
21,1,0.8700,0.8100,0,0,90.0*
21,1,0.5400,1.1400,0,0,90.0*
1,1,0.3300,0.4050,0.2700*
1,1,0.3300,0.4050,-0.2700*
1,1,0.3300,-0.4050,-0.2700*
1,1,0.3300,-0.4050,0.2700*
%
%ADD33ROUNDEDRECTD33*%
G04:AMPARAMS|DCode=40|XSize=0.7mm|YSize=0.75mm|CornerRadius=0.1438mm|HoleSize=0mm|Usage=FLASHONLY|Rotation=270.000|XOffset=0mm|YOffset=0mm|HoleType=Round|Shape=RoundedRectangle|*
%AMROUNDEDRECTD40*
21,1,0.7000,0.4625,0,0,270.0*
21,1,0.4125,0.7500,0,0,270.0*
1,1,0.2875,-0.2313,-0.2063*
1,1,0.2875,-0.2313,0.2063*
1,1,0.2875,0.2313,0.2063*
1,1,0.2875,0.2313,-0.2063*
%
%ADD40ROUNDEDRECTD40*%
G04:AMPARAMS|DCode=41|XSize=0.7mm|YSize=0.75mm|CornerRadius=0.1438mm|HoleSize=0mm|Usage=FLASHONLY|Rotation=0.000|XOffset=0mm|YOffset=0mm|HoleType=Round|Shape=RoundedRectangle|*
%AMROUNDEDRECTD41*
21,1,0.7000,0.4625,0,0,0.0*
21,1,0.4125,0.7500,0,0,0.0*
1,1,0.2875,0.2063,-0.2313*
1,1,0.2875,-0.2063,-0.2313*
1,1,0.2875,-0.2063,0.2313*
1,1,0.2875,0.2063,0.2313*
%
%ADD41ROUNDEDRECTD41*%
G04:AMPARAMS|DCode=44|XSize=1.2mm|YSize=0.7mm|CornerRadius=0.1438mm|HoleSize=0mm|Usage=FLASHONLY|Rotation=0.000|XOffset=0mm|YOffset=0mm|HoleType=Round|Shape=RoundedRectangle|*
%AMROUNDEDRECTD44*
21,1,1.2000,0.4125,0,0,0.0*
21,1,0.9125,0.7000,0,0,0.0*
1,1,0.2875,0.4563,-0.2063*
1,1,0.2875,-0.4563,-0.2063*
1,1,0.2875,-0.4563,0.2063*
1,1,0.2875,0.4563,0.2063*
%
%ADD44ROUNDEDRECTD44*%
G04:AMPARAMS|DCode=54|XSize=0.9mm|YSize=1.7mm|CornerRadius=0.45mm|HoleSize=0mm|Usage=FLASHONLY|Rotation=180.000|XOffset=0mm|YOffset=0mm|HoleType=Round|Shape=RoundedRectangle|*
%AMROUNDEDRECTD54*
21,1,0.9000,0.8000,0,0,180.0*
21,1,0.0000,1.7000,0,0,180.0*
1,1,0.9000,0.0000,0.4000*
1,1,0.9000,0.0000,0.4000*
1,1,0.9000,0.0000,-0.4000*
1,1,0.9000,0.0000,-0.4000*
%
%ADD54ROUNDEDRECTD54*%
G04:AMPARAMS|DCode=55|XSize=0.9mm|YSize=2.4mm|CornerRadius=0.45mm|HoleSize=0mm|Usage=FLASHONLY|Rotation=180.000|XOffset=0mm|YOffset=0mm|HoleType=Round|Shape=RoundedRectangle|*
%AMROUNDEDRECTD55*
21,1,0.9000,1.5000,0,0,180.0*
21,1,0.0000,2.4000,0,0,180.0*
1,1,0.9000,0.0000,0.7500*
1,1,0.9000,0.0000,0.7500*
1,1,0.9000,0.0000,-0.7500*
1,1,0.9000,0.0000,-0.7500*
%
%ADD55ROUNDEDRECTD55*%
%ADD56C,0.6500*%
%ADD57C,0.7032*%
%ADD79R,0.2540X1.7272*%
%ADD80R,1.7272X0.2540*%
%ADD81R,0.8538X1.7272*%
G04:AMPARAMS|DCode=82|XSize=0.69mm|YSize=0.55mm|CornerRadius=0.15mm|HoleSize=0mm|Usage=FLASHONLY|Rotation=180.000|XOffset=0mm|YOffset=0mm|HoleType=Round|Shape=RoundedRectangle|*
%AMROUNDEDRECTD82*
21,1,0.6900,0.2500,0,0,180.0*
21,1,0.3900,0.5500,0,0,180.0*
1,1,0.3000,-0.1950,0.1250*
1,1,0.3000,0.1950,0.1250*
1,1,0.3000,0.1950,-0.1250*
1,1,0.3000,-0.1950,-0.1250*
%
%ADD82ROUNDEDRECTD82*%
G04:AMPARAMS|DCode=83|XSize=1.9mm|YSize=1.1mm|CornerRadius=0.175mm|HoleSize=0mm|Usage=FLASHONLY|Rotation=0.000|XOffset=0mm|YOffset=0mm|HoleType=Round|Shape=RoundedRectangle|*
%AMROUNDEDRECTD83*
21,1,1.9000,0.7500,0,0,0.0*
21,1,1.5500,1.1000,0,0,0.0*
1,1,0.3500,0.7750,-0.3750*
1,1,0.3500,-0.7750,-0.3750*
1,1,0.3500,-0.7750,0.3750*
1,1,0.3500,0.7750,0.3750*
%
%ADD83ROUNDEDRECTD83*%
G04:AMPARAMS|DCode=84|XSize=1.15mm|YSize=0.75mm|CornerRadius=0.15mm|HoleSize=0mm|Usage=FLASHONLY|Rotation=270.000|XOffset=0mm|YOffset=0mm|HoleType=Round|Shape=RoundedRectangle|*
%AMROUNDEDRECTD84*
21,1,1.1500,0.4500,0,0,270.0*
21,1,0.8500,0.7500,0,0,270.0*
1,1,0.3000,-0.2250,-0.4250*
1,1,0.3000,-0.2250,0.4250*
1,1,0.3000,0.2250,0.4250*
1,1,0.3000,0.2250,-0.4250*
%
%ADD84ROUNDEDRECTD84*%
G04:AMPARAMS|DCode=85|XSize=0.75mm|YSize=1.6mm|CornerRadius=0.15mm|HoleSize=0mm|Usage=FLASHONLY|Rotation=270.000|XOffset=0mm|YOffset=0mm|HoleType=Round|Shape=RoundedRectangle|*
%AMROUNDEDRECTD85*
21,1,0.7500,1.3000,0,0,270.0*
21,1,0.4500,1.6000,0,0,270.0*
1,1,0.3000,-0.6500,-0.2250*
1,1,0.3000,-0.6500,0.2250*
1,1,0.3000,0.6500,0.2250*
1,1,0.3000,0.6500,-0.2250*
%
%ADD85ROUNDEDRECTD85*%
G04:AMPARAMS|DCode=86|XSize=1.15mm|YSize=1.5mm|CornerRadius=0.1mm|HoleSize=0mm|Usage=FLASHONLY|Rotation=90.000|XOffset=0mm|YOffset=0mm|HoleType=Round|Shape=RoundedRectangle|*
%AMROUNDEDRECTD86*
21,1,1.1500,1.3000,0,0,90.0*
21,1,0.9500,1.5000,0,0,90.0*
1,1,0.2000,0.6500,0.4750*
1,1,0.2000,0.6500,-0.4750*
1,1,0.2000,-0.6500,-0.4750*
1,1,0.2000,-0.6500,0.4750*
%
%ADD86ROUNDEDRECTD86*%
%ADD87C,2.0000*%
G36*
X-57049Y-102193D02*
X-57016Y-102194D01*
X-55937Y-102336D01*
X-55904Y-102344D01*
X-55871Y-102349D01*
X-54820Y-102631D01*
X-54789Y-102642D01*
X-54757Y-102652D01*
X-53752Y-103068D01*
X-53723Y-103084D01*
X-53692Y-103098D01*
X-52750Y-103642D01*
X-52722Y-103661D01*
X-52694Y-103679D01*
X-51831Y-104341D01*
X-51807Y-104364D01*
X-51781Y-104385D01*
X-51012Y-105155D01*
X-50990Y-105181D01*
X-50967Y-105205D01*
X-50305Y-106068D01*
X-50288Y-106096D01*
X-50268Y-106124D01*
X-49724Y-107066D01*
X-49710Y-107097D01*
X-49694Y-107126D01*
X-49278Y-108131D01*
X-49268Y-108163D01*
X-49257Y-108194D01*
X-48975Y-109245D01*
X-48970Y-109278D01*
X-48962Y-109311D01*
X-48820Y-110389D01*
X-48819Y-110423D01*
X-48816Y-110456D01*
Y-111000D01*
Y-111544D01*
X-48819Y-111577D01*
X-48820Y-111611D01*
X-48962Y-112689D01*
X-48970Y-112722D01*
X-48975Y-112755D01*
X-49257Y-113806D01*
X-49268Y-113837D01*
X-49278Y-113869D01*
X-49694Y-114874D01*
X-49710Y-114904D01*
X-49724Y-114934D01*
X-50268Y-115876D01*
X-50288Y-115904D01*
X-50305Y-115932D01*
X-50967Y-116795D01*
X-50990Y-116819D01*
X-51012Y-116845D01*
X-51781Y-117615D01*
X-51807Y-117636D01*
X-51831Y-117659D01*
X-52694Y-118321D01*
X-52723Y-118339D01*
X-52750Y-118358D01*
X-53692Y-118902D01*
X-53723Y-118916D01*
X-53752Y-118932D01*
X-54757Y-119348D01*
X-54789Y-119358D01*
X-54820Y-119369D01*
X-55871Y-119651D01*
X-55904Y-119656D01*
X-55937Y-119664D01*
X-57016Y-119806D01*
X-57049Y-119807D01*
X-57082Y-119810D01*
X-57748D01*
X-57847Y-119801D01*
X-57943Y-119772D01*
X-58168Y-119678D01*
X-58256Y-119631D01*
X-58291Y-119603D01*
X-58334Y-119568D01*
X-58506Y-119396D01*
X-58541Y-119353D01*
X-58569Y-119318D01*
X-58616Y-119230D01*
X-58710Y-119005D01*
X-58739Y-118909D01*
X-58748Y-118810D01*
Y-118688D01*
Y-103312D01*
Y-103190D01*
X-58739Y-103091D01*
X-58710Y-102995D01*
X-58616Y-102770D01*
X-58569Y-102682D01*
X-58541Y-102647D01*
X-58506Y-102604D01*
X-58334Y-102432D01*
X-58291Y-102397D01*
X-58256Y-102369D01*
X-58168Y-102322D01*
X-57943Y-102228D01*
X-57847Y-102199D01*
X-57748Y-102190D01*
X-57082D01*
X-57049Y-102193D01*
D02*
G37*
G36*
X-60153Y-102199D02*
X-60057Y-102228D01*
X-59832Y-102322D01*
X-59744Y-102369D01*
X-59709Y-102397D01*
X-59666Y-102432D01*
X-59494Y-102604D01*
X-59459Y-102647D01*
X-59431Y-102682D01*
X-59384Y-102770D01*
X-59290Y-102995D01*
X-59261Y-103091D01*
X-59251Y-103190D01*
Y-103312D01*
Y-118688D01*
Y-118810D01*
X-59261Y-118909D01*
X-59290Y-119005D01*
X-59384Y-119230D01*
X-59431Y-119318D01*
X-59459Y-119353D01*
X-59494Y-119396D01*
X-59666Y-119568D01*
X-59709Y-119603D01*
X-59744Y-119631D01*
X-59832Y-119678D01*
X-60057Y-119772D01*
X-60153Y-119801D01*
X-60252Y-119810D01*
X-60918D01*
X-60951Y-119807D01*
X-60985Y-119806D01*
X-62063Y-119664D01*
X-62096Y-119656D01*
X-62129Y-119651D01*
X-63180Y-119369D01*
X-63211Y-119358D01*
X-63243Y-119348D01*
X-64248Y-118932D01*
X-64277Y-118916D01*
X-64308Y-118902D01*
X-65250Y-118358D01*
X-65277Y-118339D01*
X-65306Y-118321D01*
X-66169Y-117659D01*
X-66193Y-117636D01*
X-66219Y-117615D01*
X-66989Y-116845D01*
X-67010Y-116819D01*
X-67032Y-116795D01*
X-67695Y-115932D01*
X-67712Y-115904D01*
X-67732Y-115876D01*
X-68276Y-114934D01*
X-68290Y-114904D01*
X-68306Y-114874D01*
X-68722Y-113869D01*
X-68732Y-113837D01*
X-68743Y-113806D01*
X-69025Y-112755D01*
X-69030Y-112722D01*
X-69038Y-112689D01*
X-69180Y-111611D01*
X-69181Y-111577D01*
X-69184Y-111544D01*
Y-111000D01*
Y-110456D01*
X-69181Y-110423D01*
X-69180Y-110389D01*
X-69038Y-109311D01*
X-69030Y-109278D01*
X-69025Y-109245D01*
X-68743Y-108194D01*
X-68732Y-108163D01*
X-68722Y-108131D01*
X-68306Y-107126D01*
X-68290Y-107097D01*
X-68276Y-107066D01*
X-67732Y-106124D01*
X-67712Y-106096D01*
X-67695Y-106068D01*
X-67032Y-105205D01*
X-67010Y-105181D01*
X-66989Y-105155D01*
X-66219Y-104385D01*
X-66193Y-104364D01*
X-66169Y-104341D01*
X-65306Y-103679D01*
X-65278Y-103661D01*
X-65250Y-103642D01*
X-64308Y-103098D01*
X-64278Y-103084D01*
X-64248Y-103068D01*
X-63243Y-102652D01*
X-63211Y-102642D01*
X-63180Y-102631D01*
X-62129Y-102349D01*
X-62096Y-102344D01*
X-62063Y-102336D01*
X-60985Y-102194D01*
X-60951Y-102193D01*
X-60918Y-102190D01*
X-60252D01*
X-60153Y-102199D01*
D02*
G37*
G36*
X-57049Y-134193D02*
X-57015Y-134194D01*
X-55937Y-134336D01*
X-55904Y-134344D01*
X-55871Y-134349D01*
X-54820Y-134630D01*
X-54789Y-134642D01*
X-54757Y-134652D01*
X-53752Y-135068D01*
X-53723Y-135084D01*
X-53692Y-135098D01*
X-52750Y-135642D01*
X-52723Y-135661D01*
X-52694Y-135679D01*
X-51831Y-136341D01*
X-51807Y-136364D01*
X-51781Y-136385D01*
X-51012Y-137155D01*
X-50990Y-137181D01*
X-50967Y-137205D01*
X-50305Y-138068D01*
X-50288Y-138096D01*
X-50268Y-138124D01*
X-49724Y-139066D01*
X-49710Y-139096D01*
X-49694Y-139126D01*
X-49278Y-140131D01*
X-49268Y-140163D01*
X-49257Y-140194D01*
X-48975Y-141245D01*
X-48970Y-141278D01*
X-48962Y-141311D01*
X-48820Y-142389D01*
X-48819Y-142423D01*
X-48816Y-142456D01*
Y-143000D01*
Y-143544D01*
X-48819Y-143577D01*
X-48820Y-143611D01*
X-48962Y-144689D01*
X-48970Y-144722D01*
X-48975Y-144755D01*
X-49257Y-145806D01*
X-49268Y-145837D01*
X-49278Y-145869D01*
X-49694Y-146874D01*
X-49710Y-146903D01*
X-49724Y-146934D01*
X-50268Y-147876D01*
X-50287Y-147903D01*
X-50305Y-147932D01*
X-50967Y-148795D01*
X-50990Y-148819D01*
X-51012Y-148845D01*
X-51781Y-149615D01*
X-51807Y-149636D01*
X-51831Y-149659D01*
X-52694Y-150321D01*
X-52722Y-150338D01*
X-52750Y-150358D01*
X-53692Y-150902D01*
X-53723Y-150916D01*
X-53752Y-150932D01*
X-54757Y-151348D01*
X-54789Y-151358D01*
X-54820Y-151369D01*
X-55871Y-151651D01*
X-55904Y-151657D01*
X-55937Y-151664D01*
X-57016Y-151806D01*
X-57049Y-151807D01*
X-57082Y-151811D01*
X-57748D01*
X-57847Y-151801D01*
X-57943Y-151772D01*
X-58168Y-151678D01*
X-58256Y-151631D01*
X-58291Y-151603D01*
X-58334Y-151568D01*
X-58506Y-151396D01*
X-58541Y-151353D01*
X-58569Y-151318D01*
X-58616Y-151230D01*
X-58710Y-151005D01*
X-58739Y-150909D01*
X-58748Y-150810D01*
Y-150688D01*
Y-135312D01*
Y-135190D01*
X-58739Y-135091D01*
X-58710Y-134995D01*
X-58616Y-134770D01*
X-58569Y-134682D01*
X-58541Y-134647D01*
X-58506Y-134604D01*
X-58334Y-134432D01*
X-58291Y-134397D01*
X-58256Y-134369D01*
X-58168Y-134321D01*
X-57943Y-134228D01*
X-57847Y-134199D01*
X-57748Y-134190D01*
X-57082D01*
X-57049Y-134193D01*
D02*
G37*
G36*
X-60153Y-134199D02*
X-60057Y-134228D01*
X-59832Y-134321D01*
X-59744Y-134369D01*
X-59709Y-134397D01*
X-59666Y-134432D01*
X-59494Y-134604D01*
X-59459Y-134647D01*
X-59431Y-134682D01*
X-59384Y-134770D01*
X-59290Y-134995D01*
X-59261Y-135091D01*
X-59251Y-135190D01*
Y-135312D01*
Y-150688D01*
Y-150810D01*
X-59261Y-150909D01*
X-59290Y-151005D01*
X-59384Y-151230D01*
X-59431Y-151318D01*
X-59459Y-151353D01*
X-59494Y-151396D01*
X-59666Y-151568D01*
X-59709Y-151603D01*
X-59744Y-151631D01*
X-59832Y-151678D01*
X-60057Y-151772D01*
X-60153Y-151801D01*
X-60252Y-151811D01*
X-60918D01*
X-60951Y-151807D01*
X-60985Y-151806D01*
X-62063Y-151664D01*
X-62096Y-151657D01*
X-62129Y-151651D01*
X-63180Y-151369D01*
X-63211Y-151358D01*
X-63243Y-151348D01*
X-64248Y-150932D01*
X-64278Y-150916D01*
X-64308Y-150902D01*
X-65250Y-150358D01*
X-65278Y-150338D01*
X-65306Y-150321D01*
X-66169Y-149659D01*
X-66193Y-149636D01*
X-66219Y-149615D01*
X-66989Y-148845D01*
X-67010Y-148819D01*
X-67033Y-148795D01*
X-67695Y-147932D01*
X-67712Y-147903D01*
X-67732Y-147876D01*
X-68276Y-146934D01*
X-68290Y-146903D01*
X-68306Y-146874D01*
X-68722Y-145869D01*
X-68732Y-145837D01*
X-68743Y-145806D01*
X-69025Y-144755D01*
X-69030Y-144722D01*
X-69038Y-144689D01*
X-69180Y-143611D01*
X-69181Y-143577D01*
X-69184Y-143544D01*
Y-143000D01*
Y-142456D01*
X-69181Y-142423D01*
X-69180Y-142389D01*
X-69038Y-141311D01*
X-69030Y-141278D01*
X-69025Y-141245D01*
X-68743Y-140194D01*
X-68732Y-140163D01*
X-68722Y-140131D01*
X-68306Y-139126D01*
X-68290Y-139096D01*
X-68276Y-139066D01*
X-67732Y-138124D01*
X-67712Y-138096D01*
X-67695Y-138068D01*
X-67033Y-137205D01*
X-67010Y-137181D01*
X-66989Y-137155D01*
X-66219Y-136385D01*
X-66193Y-136364D01*
X-66169Y-136341D01*
X-65306Y-135679D01*
X-65277Y-135661D01*
X-65250Y-135642D01*
X-64308Y-135098D01*
X-64277Y-135084D01*
X-64248Y-135068D01*
X-63243Y-134652D01*
X-63211Y-134642D01*
X-63180Y-134630D01*
X-62129Y-134349D01*
X-62096Y-134344D01*
X-62063Y-134336D01*
X-60985Y-134194D01*
X-60951Y-134193D01*
X-60918Y-134190D01*
X-60252D01*
X-60153Y-134199D01*
D02*
G37*
G36*
X58743Y-318241D02*
X58777Y-318242D01*
X59855Y-318384D01*
X59888Y-318392D01*
X59921Y-318397D01*
X60972Y-318679D01*
X61003Y-318690D01*
X61035Y-318700D01*
X62040Y-319116D01*
X62069Y-319132D01*
X62100Y-319146D01*
X63042Y-319690D01*
X63070Y-319709D01*
X63098Y-319727D01*
X63961Y-320390D01*
X63985Y-320412D01*
X64011Y-320434D01*
X64781Y-321203D01*
X64802Y-321229D01*
X64825Y-321253D01*
X65487Y-322116D01*
X65504Y-322144D01*
X65524Y-322172D01*
X66068Y-323114D01*
X66082Y-323144D01*
X66098Y-323174D01*
X66514Y-324179D01*
X66524Y-324211D01*
X66535Y-324242D01*
X66817Y-325293D01*
X66822Y-325326D01*
X66830Y-325359D01*
X66972Y-326437D01*
X66973Y-326471D01*
X66976Y-326504D01*
Y-327048D01*
Y-327170D01*
X66967Y-327269D01*
X66938Y-327365D01*
X66844Y-327590D01*
X66797Y-327678D01*
X66769Y-327713D01*
X66734Y-327756D01*
X66562Y-327928D01*
X66519Y-327963D01*
X66484Y-327991D01*
X66396Y-328038D01*
X66171Y-328132D01*
X66075Y-328161D01*
X65976Y-328171D01*
X50356D01*
X50257Y-328161D01*
X50161Y-328132D01*
X49936Y-328038D01*
X49848Y-327991D01*
X49813Y-327963D01*
X49770Y-327928D01*
X49598Y-327756D01*
X49563Y-327713D01*
X49535Y-327678D01*
X49488Y-327590D01*
X49394Y-327365D01*
X49365Y-327269D01*
X49356Y-327170D01*
Y-327048D01*
Y-326504D01*
X49359Y-326471D01*
X49360Y-326437D01*
X49502Y-325359D01*
X49510Y-325326D01*
X49515Y-325293D01*
X49797Y-324242D01*
X49808Y-324211D01*
X49818Y-324179D01*
X50234Y-323174D01*
X50250Y-323145D01*
X50264Y-323114D01*
X50808Y-322172D01*
X50827Y-322145D01*
X50845Y-322116D01*
X51507Y-321253D01*
X51530Y-321229D01*
X51551Y-321203D01*
X52321Y-320434D01*
X52347Y-320412D01*
X52371Y-320390D01*
X53234Y-319727D01*
X53262Y-319710D01*
X53290Y-319690D01*
X54232Y-319146D01*
X54262Y-319132D01*
X54292Y-319116D01*
X55297Y-318700D01*
X55329Y-318690D01*
X55360Y-318679D01*
X56411Y-318397D01*
X56444Y-318392D01*
X56477Y-318384D01*
X57555Y-318242D01*
X57589Y-318241D01*
X57622Y-318238D01*
X58710D01*
X58743Y-318241D01*
D02*
G37*
G36*
X66075Y-328683D02*
X66171Y-328712D01*
X66396Y-328806D01*
X66484Y-328853D01*
X66519Y-328881D01*
X66562Y-328916D01*
X66734Y-329088D01*
X66769Y-329131D01*
X66797Y-329166D01*
X66845Y-329254D01*
X66938Y-329479D01*
X66967Y-329575D01*
X66976Y-329674D01*
Y-329796D01*
Y-330340D01*
X66973Y-330373D01*
X66972Y-330406D01*
X66830Y-331485D01*
X66823Y-331518D01*
X66817Y-331551D01*
X66536Y-332602D01*
X66524Y-332633D01*
X66514Y-332665D01*
X66098Y-333670D01*
X66082Y-333699D01*
X66068Y-333730D01*
X65524Y-334672D01*
X65504Y-334700D01*
X65487Y-334728D01*
X64825Y-335591D01*
X64802Y-335615D01*
X64781Y-335641D01*
X64011Y-336410D01*
X63985Y-336432D01*
X63961Y-336455D01*
X63098Y-337117D01*
X63070Y-337135D01*
X63042Y-337154D01*
X62100Y-337698D01*
X62070Y-337712D01*
X62040Y-337728D01*
X61035Y-338144D01*
X61003Y-338154D01*
X60972Y-338165D01*
X59921Y-338447D01*
X59888Y-338452D01*
X59855Y-338460D01*
X58777Y-338602D01*
X58743Y-338603D01*
X58710Y-338606D01*
X57622D01*
X57589Y-338603D01*
X57555Y-338602D01*
X56477Y-338460D01*
X56444Y-338452D01*
X56411Y-338447D01*
X55360Y-338165D01*
X55329Y-338154D01*
X55297Y-338144D01*
X54292Y-337728D01*
X54262Y-337712D01*
X54232Y-337698D01*
X53290Y-337154D01*
X53262Y-337134D01*
X53234Y-337117D01*
X52371Y-336455D01*
X52347Y-336432D01*
X52321Y-336410D01*
X51551Y-335641D01*
X51530Y-335615D01*
X51507Y-335591D01*
X50845Y-334728D01*
X50827Y-334699D01*
X50808Y-334672D01*
X50264Y-333730D01*
X50250Y-333699D01*
X50234Y-333670D01*
X49818Y-332665D01*
X49808Y-332633D01*
X49797Y-332602D01*
X49515Y-331551D01*
X49510Y-331518D01*
X49502Y-331485D01*
X49360Y-330407D01*
X49359Y-330373D01*
X49356Y-330340D01*
Y-329796D01*
Y-329674D01*
X49365Y-329575D01*
X49394Y-329479D01*
X49488Y-329254D01*
X49535Y-329166D01*
X49563Y-329131D01*
X49598Y-329088D01*
X49770Y-328916D01*
X49813Y-328881D01*
X49848Y-328853D01*
X49936Y-328806D01*
X50161Y-328712D01*
X50257Y-328683D01*
X50356Y-328674D01*
X65976D01*
X66075Y-328683D01*
D02*
G37*
G36*
X-74091Y321739D02*
X-73995Y321710D01*
X-73770Y321617D01*
X-73682Y321569D01*
X-73647Y321541D01*
X-73604Y321506D01*
X-73432Y321334D01*
X-73397Y321291D01*
X-73369Y321256D01*
X-73322Y321168D01*
X-73228Y320943D01*
X-73199Y320847D01*
X-73190Y320748D01*
Y320626D01*
Y320082D01*
X-73193Y320049D01*
X-73194Y320015D01*
X-73336Y318937D01*
X-73344Y318904D01*
X-73349Y318871D01*
X-73631Y317820D01*
X-73642Y317789D01*
X-73652Y317757D01*
X-74068Y316752D01*
X-74084Y316723D01*
X-74098Y316692D01*
X-74642Y315750D01*
X-74661Y315723D01*
X-74679Y315694D01*
X-75341Y314831D01*
X-75364Y314807D01*
X-75385Y314781D01*
X-76155Y314011D01*
X-76181Y313990D01*
X-76205Y313967D01*
X-77068Y313305D01*
X-77096Y313288D01*
X-77124Y313268D01*
X-78066Y312724D01*
X-78096Y312710D01*
X-78126Y312694D01*
X-79131Y312278D01*
X-79163Y312268D01*
X-79194Y312257D01*
X-80245Y311975D01*
X-80278Y311970D01*
X-80311Y311962D01*
X-81389Y311820D01*
X-81423Y311819D01*
X-81456Y311816D01*
X-82544D01*
X-82577Y311819D01*
X-82611Y311820D01*
X-83689Y311962D01*
X-83722Y311970D01*
X-83755Y311975D01*
X-84806Y312257D01*
X-84837Y312268D01*
X-84869Y312278D01*
X-85874Y312694D01*
X-85904Y312710D01*
X-85934Y312724D01*
X-86876Y313268D01*
X-86904Y313288D01*
X-86932Y313305D01*
X-87795Y313967D01*
X-87819Y313990D01*
X-87845Y314011D01*
X-88615Y314781D01*
X-88636Y314807D01*
X-88659Y314831D01*
X-89321Y315694D01*
X-89339Y315722D01*
X-89358Y315750D01*
X-89902Y316692D01*
X-89916Y316723D01*
X-89932Y316752D01*
X-90348Y317757D01*
X-90358Y317789D01*
X-90370Y317820D01*
X-90651Y318871D01*
X-90656Y318904D01*
X-90664Y318937D01*
X-90806Y320015D01*
X-90807Y320049D01*
X-90810Y320082D01*
Y320626D01*
Y320748D01*
X-90801Y320847D01*
X-90772Y320943D01*
X-90679Y321168D01*
X-90631Y321256D01*
X-90603Y321291D01*
X-90568Y321334D01*
X-90396Y321506D01*
X-90353Y321541D01*
X-90318Y321569D01*
X-90230Y321617D01*
X-90005Y321710D01*
X-89909Y321739D01*
X-89810Y321749D01*
X-74190D01*
X-74091Y321739D01*
D02*
G37*
G36*
X-4069Y62097D02*
X-3973Y62068D01*
X-3809Y62001D01*
X-3721Y61953D01*
X-3661Y61904D01*
X-3644Y61890D01*
X-3519Y61765D01*
X-3477Y61715D01*
X-3455Y61687D01*
X-3408Y61599D01*
X-3340Y61436D01*
X-3311Y61340D01*
X-3301Y61240D01*
D01*
Y61240D01*
Y61152D01*
Y45658D01*
Y45544D01*
Y45544D01*
D01*
X-3311Y45444D01*
X-3340Y45349D01*
X-3427Y45139D01*
X-3452Y45092D01*
X-3474Y45051D01*
X-3538Y44973D01*
X-3698Y44813D01*
X-3748Y44772D01*
X-3776Y44749D01*
X-3864Y44702D01*
X-4074Y44615D01*
X-4169Y44586D01*
X-4269Y44576D01*
D01*
X-4269D01*
X-7645D01*
X-7645D01*
X-7645D01*
X-7744Y44586D01*
X-7802Y44604D01*
X-7840Y44615D01*
X-7840Y44615D01*
D01*
X-8062Y44707D01*
X-8062D01*
X-8062Y44707D01*
X-8062D01*
X-8069Y44711D01*
X-8151Y44755D01*
X-8228Y44818D01*
X-8398Y44988D01*
X-8439Y45038D01*
X-8462Y45066D01*
X-8509Y45154D01*
X-8601Y45377D01*
X-8630Y45472D01*
X-8640Y45572D01*
D01*
Y45572D01*
Y45692D01*
Y61152D01*
Y61240D01*
Y61240D01*
D01*
X-8630Y61340D01*
X-8601Y61436D01*
X-8533Y61599D01*
X-8486Y61687D01*
X-8437Y61748D01*
X-8423Y61765D01*
X-8298Y61890D01*
X-8248Y61931D01*
X-8220Y61953D01*
X-8132Y62001D01*
X-7969Y62068D01*
X-7873Y62097D01*
X-7773Y62107D01*
D01*
X-7773D01*
X-4168D01*
X-4168D01*
D01*
X-4069Y62097D01*
D02*
G37*
G36*
X-1132Y62088D02*
X-1098Y62085D01*
X-1065Y62084D01*
X14Y61942D01*
X46Y61934D01*
X79Y61929D01*
X1130Y61647D01*
X1161Y61635D01*
X1193Y61626D01*
X2199Y61209D01*
X2228Y61194D01*
X2258Y61180D01*
X3201Y60636D01*
X3228Y60616D01*
X3256Y60599D01*
X4119Y59936D01*
X4144Y59913D01*
X4169Y59892D01*
X4939Y59123D01*
X4960Y59097D01*
X4983Y59073D01*
X5645Y58210D01*
X5663Y58181D01*
X5682Y58154D01*
X6226Y57212D01*
X6240Y57181D01*
X6256Y57152D01*
X6672Y56147D01*
X6682Y56115D01*
X6694Y56083D01*
X6975Y55033D01*
X6981Y55000D01*
X6988Y54967D01*
X7130Y53888D01*
X7131Y53855D01*
X7135Y53822D01*
Y53278D01*
Y52734D01*
X7131Y52700D01*
X7130Y52667D01*
X6988Y51588D01*
X6981Y51556D01*
X6975Y51523D01*
X6694Y50472D01*
X6682Y50441D01*
X6672Y50409D01*
X6256Y49404D01*
X6240Y49374D01*
X6226Y49344D01*
X5682Y48401D01*
X5663Y48374D01*
X5645Y48346D01*
X4983Y47483D01*
X4960Y47458D01*
X4939Y47432D01*
X4169Y46663D01*
X4144Y46642D01*
X4119Y46619D01*
X3256Y45957D01*
X3228Y45939D01*
X3201Y45920D01*
X2258Y45376D01*
X2228Y45362D01*
X2199Y45346D01*
X1193Y44930D01*
X1161Y44920D01*
X1130Y44908D01*
X79Y44627D01*
X46Y44621D01*
X14Y44614D01*
X-1065Y44472D01*
X-1098Y44471D01*
X-1132Y44467D01*
X-1676D01*
X-1676D01*
X-1676D01*
X-1798Y44467D01*
X-1837Y44471D01*
X-1897Y44477D01*
X-1897Y44477D01*
X-1897D01*
X-1918Y44483D01*
X-1993Y44506D01*
X-2218Y44599D01*
X-2306Y44646D01*
X-2341Y44675D01*
X-2383Y44710D01*
X-2555Y44882D01*
X-2590Y44925D01*
X-2619Y44959D01*
X-2666Y45048D01*
X-2759Y45273D01*
X-2788Y45368D01*
X-2798Y45468D01*
Y45590D01*
Y60966D01*
Y61087D01*
X-2788Y61187D01*
X-2759Y61283D01*
X-2666Y61508D01*
X-2619Y61596D01*
X-2590Y61631D01*
X-2555Y61673D01*
X-2383Y61845D01*
X-2341Y61880D01*
X-2306Y61909D01*
X-2218Y61956D01*
X-1993Y62049D01*
X-1897Y62078D01*
X-1797Y62088D01*
X-1676D01*
D01*
X-1676D01*
X-1132Y62088D01*
D02*
G37*
G36*
X-10324Y61962D02*
X-10202D01*
X-10103Y61952D01*
X-10007Y61923D01*
X-9782Y61830D01*
X-9694Y61783D01*
X-9659Y61754D01*
X-9617Y61719D01*
X-9445Y61547D01*
X-9410Y61505D01*
X-9381Y61470D01*
X-9334Y61382D01*
X-9241Y61157D01*
X-9212Y61061D01*
X-9202Y60961D01*
Y60840D01*
Y45464D01*
Y45342D01*
X-9212Y45242D01*
X-9241Y45147D01*
X-9334Y44922D01*
X-9381Y44833D01*
X-9410Y44799D01*
X-9445Y44756D01*
X-9617Y44584D01*
X-9659Y44549D01*
X-9694Y44521D01*
X-9782Y44473D01*
X-10007Y44380D01*
X-10007D01*
X-10007Y44380D01*
X-10083Y44357D01*
X-10103Y44351D01*
X-10103D01*
X-10103Y44351D01*
X-10163Y44345D01*
X-10202Y44341D01*
X-10203D01*
X-10203D01*
X-10324Y44341D01*
X-10868D01*
X-10901Y44345D01*
X-10935Y44346D01*
X-12014Y44488D01*
X-12046Y44495D01*
X-12079Y44501D01*
X-13130Y44782D01*
X-13161Y44794D01*
X-13193Y44804D01*
X-14198Y45220D01*
X-14228Y45236D01*
X-14258Y45250D01*
X-15201Y45794D01*
X-15228Y45813D01*
X-15256Y45831D01*
X-16119Y46493D01*
X-16144Y46516D01*
X-16170Y46537D01*
X-16939Y47306D01*
X-16960Y47332D01*
X-16983Y47357D01*
X-17645Y48220D01*
X-17663Y48248D01*
X-17682Y48275D01*
X-18226Y49218D01*
X-18240Y49248D01*
X-18256Y49278D01*
X-18672Y50283D01*
X-18682Y50315D01*
X-18694Y50346D01*
X-18975Y51397D01*
X-18981Y51430D01*
X-18988Y51462D01*
X-19130Y52541D01*
X-19131Y52575D01*
X-19135Y52608D01*
Y53152D01*
Y53696D01*
X-19131Y53729D01*
X-19130Y53762D01*
X-18988Y54841D01*
X-18981Y54874D01*
X-18975Y54907D01*
X-18694Y55957D01*
X-18682Y55989D01*
X-18672Y56021D01*
X-18256Y57026D01*
X-18240Y57055D01*
X-18226Y57086D01*
X-17682Y58028D01*
X-17663Y58055D01*
X-17645Y58084D01*
X-16983Y58947D01*
X-16960Y58971D01*
X-16939Y58997D01*
X-16170Y59766D01*
X-16144Y59788D01*
X-16119Y59810D01*
X-15256Y60473D01*
X-15228Y60490D01*
X-15201Y60510D01*
X-14258Y61054D01*
X-14228Y61068D01*
X-14198Y61083D01*
X-13193Y61500D01*
X-13161Y61509D01*
X-13130Y61521D01*
X-12079Y61803D01*
X-12046Y61808D01*
X-12014Y61816D01*
X-10935Y61958D01*
X-10901Y61959D01*
X-10868Y61962D01*
X-10324Y61962D01*
D02*
G37*
G36*
X-81423Y332181D02*
X-81389Y332180D01*
X-80311Y332038D01*
X-80278Y332030D01*
X-80245Y332025D01*
X-79194Y331743D01*
X-79163Y331732D01*
X-79131Y331722D01*
X-78126Y331306D01*
X-78096Y331290D01*
X-78066Y331276D01*
X-77124Y330732D01*
X-77096Y330712D01*
X-77068Y330695D01*
X-76205Y330033D01*
X-76181Y330010D01*
X-76155Y329989D01*
X-75385Y329219D01*
X-75364Y329193D01*
X-75341Y329169D01*
X-74679Y328306D01*
X-74661Y328277D01*
X-74642Y328250D01*
X-74098Y327308D01*
X-74084Y327277D01*
X-74068Y327248D01*
X-73652Y326243D01*
X-73642Y326211D01*
X-73630Y326180D01*
X-73349Y325129D01*
X-73344Y325096D01*
X-73336Y325063D01*
X-73194Y323984D01*
X-73193Y323951D01*
X-73190Y323918D01*
Y323374D01*
Y323252D01*
X-73199Y323153D01*
X-73228Y323057D01*
X-73321Y322832D01*
X-73369Y322744D01*
X-73397Y322709D01*
X-73432Y322666D01*
X-73604Y322494D01*
X-73647Y322459D01*
X-73682Y322431D01*
X-73770Y322383D01*
X-73995Y322290D01*
X-74091Y322261D01*
X-74190Y322252D01*
X-89810D01*
X-89909Y322261D01*
X-90005Y322290D01*
X-90230Y322383D01*
X-90318Y322431D01*
X-90353Y322459D01*
X-90396Y322494D01*
X-90568Y322666D01*
X-90603Y322709D01*
X-90631Y322744D01*
X-90678Y322832D01*
X-90772Y323057D01*
X-90801Y323153D01*
X-90810Y323252D01*
Y323374D01*
Y323918D01*
X-90807Y323951D01*
X-90806Y323984D01*
X-90664Y325063D01*
X-90656Y325096D01*
X-90651Y325129D01*
X-90369Y326180D01*
X-90358Y326211D01*
X-90348Y326243D01*
X-89932Y327248D01*
X-89916Y327277D01*
X-89902Y327308D01*
X-89358Y328250D01*
X-89338Y328278D01*
X-89321Y328306D01*
X-88659Y329169D01*
X-88636Y329193D01*
X-88615Y329219D01*
X-87845Y329989D01*
X-87819Y330010D01*
X-87795Y330033D01*
X-86932Y330695D01*
X-86903Y330713D01*
X-86876Y330732D01*
X-85934Y331276D01*
X-85903Y331290D01*
X-85874Y331306D01*
X-84869Y331722D01*
X-84837Y331732D01*
X-84806Y331743D01*
X-83755Y332025D01*
X-83722Y332030D01*
X-83689Y332038D01*
X-82611Y332180D01*
X-82577Y332181D01*
X-82544Y332184D01*
X-81456D01*
X-81423Y332181D01*
D02*
G37*
G36*
X69847Y358801D02*
X69943Y358772D01*
X70168Y358679D01*
X70256Y358631D01*
X70291Y358603D01*
X70334Y358568D01*
X70506Y358396D01*
X70541Y358353D01*
X70569Y358318D01*
X70616Y358230D01*
X70710Y358005D01*
X70739Y357909D01*
X70749Y357810D01*
Y357688D01*
Y342312D01*
Y342190D01*
X70739Y342091D01*
X70710Y341995D01*
X70616Y341770D01*
X70569Y341682D01*
X70541Y341647D01*
X70506Y341604D01*
X70334Y341432D01*
X70291Y341397D01*
X70256Y341369D01*
X70168Y341322D01*
X69943Y341228D01*
X69847Y341199D01*
X69748Y341189D01*
X69082D01*
X69049Y341193D01*
X69015Y341194D01*
X67937Y341336D01*
X67904Y341343D01*
X67871Y341349D01*
X66820Y341631D01*
X66789Y341642D01*
X66757Y341652D01*
X65752Y342068D01*
X65722Y342084D01*
X65692Y342098D01*
X64750Y342642D01*
X64722Y342662D01*
X64694Y342679D01*
X63831Y343341D01*
X63807Y343364D01*
X63781Y343385D01*
X63011Y344155D01*
X62990Y344181D01*
X62968Y344205D01*
X62305Y345068D01*
X62288Y345097D01*
X62268Y345124D01*
X61724Y346066D01*
X61710Y346096D01*
X61694Y346126D01*
X61278Y347131D01*
X61268Y347163D01*
X61257Y347194D01*
X60975Y348245D01*
X60970Y348278D01*
X60962Y348311D01*
X60820Y349389D01*
X60819Y349423D01*
X60816Y349456D01*
Y350000D01*
Y350544D01*
X60819Y350577D01*
X60820Y350611D01*
X60962Y351689D01*
X60970Y351722D01*
X60975Y351755D01*
X61257Y352806D01*
X61268Y352837D01*
X61278Y352869D01*
X61694Y353874D01*
X61710Y353904D01*
X61724Y353934D01*
X62268Y354876D01*
X62288Y354904D01*
X62305Y354932D01*
X62968Y355795D01*
X62990Y355819D01*
X63011Y355845D01*
X63781Y356615D01*
X63807Y356636D01*
X63831Y356659D01*
X64694Y357321D01*
X64723Y357339D01*
X64750Y357358D01*
X65692Y357902D01*
X65723Y357916D01*
X65752Y357932D01*
X66757Y358348D01*
X66789Y358358D01*
X66820Y358369D01*
X67871Y358651D01*
X67904Y358657D01*
X67937Y358664D01*
X69015Y358806D01*
X69049Y358807D01*
X69082Y358811D01*
X69748D01*
X69847Y358801D01*
D02*
G37*
G36*
X72951Y358807D02*
X72985Y358806D01*
X74063Y358664D01*
X74096Y358657D01*
X74129Y358651D01*
X75180Y358369D01*
X75211Y358358D01*
X75243Y358348D01*
X76248Y357932D01*
X76277Y357916D01*
X76308Y357902D01*
X77250Y357358D01*
X77277Y357339D01*
X77306Y357321D01*
X78169Y356659D01*
X78193Y356636D01*
X78219Y356615D01*
X78988Y355845D01*
X79010Y355819D01*
X79033Y355795D01*
X79695Y354932D01*
X79712Y354904D01*
X79732Y354876D01*
X80276Y353934D01*
X80290Y353904D01*
X80306Y353874D01*
X80722Y352869D01*
X80732Y352837D01*
X80743Y352806D01*
X81025Y351755D01*
X81030Y351722D01*
X81038Y351689D01*
X81180Y350611D01*
X81181Y350577D01*
X81184Y350544D01*
Y350000D01*
Y349456D01*
X81181Y349423D01*
X81180Y349389D01*
X81038Y348311D01*
X81030Y348278D01*
X81025Y348245D01*
X80743Y347194D01*
X80732Y347163D01*
X80722Y347131D01*
X80306Y346126D01*
X80290Y346096D01*
X80276Y346066D01*
X79732Y345124D01*
X79713Y345097D01*
X79695Y345068D01*
X79033Y344205D01*
X79010Y344181D01*
X78988Y344155D01*
X78219Y343385D01*
X78193Y343364D01*
X78169Y343341D01*
X77306Y342679D01*
X77278Y342662D01*
X77250Y342642D01*
X76308Y342098D01*
X76277Y342084D01*
X76248Y342068D01*
X75243Y341652D01*
X75211Y341642D01*
X75180Y341631D01*
X74129Y341349D01*
X74096Y341343D01*
X74063Y341336D01*
X72985Y341194D01*
X72951Y341193D01*
X72918Y341189D01*
X72252D01*
X72153Y341199D01*
X72057Y341228D01*
X71832Y341322D01*
X71744Y341369D01*
X71709Y341397D01*
X71666Y341432D01*
X71494Y341604D01*
X71459Y341647D01*
X71431Y341682D01*
X71384Y341770D01*
X71290Y341995D01*
X71261Y342091D01*
X71252Y342190D01*
Y342312D01*
Y357688D01*
Y357810D01*
X71261Y357909D01*
X71290Y358005D01*
X71384Y358230D01*
X71431Y358318D01*
X71459Y358353D01*
X71494Y358396D01*
X71666Y358568D01*
X71709Y358603D01*
X71744Y358631D01*
X71832Y358679D01*
X72057Y358772D01*
X72153Y358801D01*
X72252Y358811D01*
X72918D01*
X72951Y358807D01*
D02*
G37*
D33*
X77978Y97324D02*
D03*
Y83524D02*
D03*
X63776Y83492D02*
D03*
Y97292D02*
D03*
D40*
X-68000Y-312500D02*
D03*
Y-321500D02*
D03*
X31000Y54500D02*
D03*
X31000Y45500D02*
D03*
X43180Y-278964D02*
D03*
Y-287964D02*
D03*
X42672Y-221306D02*
D03*
Y-230306D02*
D03*
X63776Y118514D02*
D03*
Y109514D02*
D03*
X-90000Y147500D02*
D03*
Y138500D02*
D03*
X4594Y158392D02*
D03*
X4594Y149392D02*
D03*
X-5566Y158392D02*
D03*
X-5566Y149392D02*
D03*
X-34268Y67350D02*
D03*
X-34268Y76350D02*
D03*
X-24362Y67350D02*
D03*
Y76350D02*
D03*
X-61954Y382166D02*
D03*
Y373166D02*
D03*
D41*
X-40500Y259000D02*
D03*
X-49500Y259000D02*
D03*
X-6930Y-313690D02*
D03*
X-15930Y-313690D02*
D03*
X-6930Y-303276D02*
D03*
X-15930Y-303276D02*
D03*
X-55300Y-251206D02*
D03*
X-46300Y-251206D02*
D03*
X-55300Y-303276D02*
D03*
X-46300Y-303276D02*
D03*
X-6196Y-174244D02*
D03*
X-15196Y-174244D02*
D03*
X45560Y-258350D02*
D03*
X54560Y-258350D02*
D03*
X45814Y-245904D02*
D03*
X54814Y-245904D02*
D03*
X-43992Y76168D02*
D03*
X-52992Y76168D02*
D03*
X45466Y326390D02*
D03*
X36466Y326390D02*
D03*
D44*
X-20520Y271678D02*
D03*
X-20520Y290678D02*
D03*
X-45520Y290678D02*
D03*
X-45520Y281178D02*
D03*
Y271678D02*
D03*
D54*
X43250Y395780D02*
D03*
X-43250D02*
D03*
D55*
X43250Y361980D02*
D03*
X-43250D02*
D03*
D56*
X29750Y352180D02*
D03*
X21250D02*
D03*
X12750D02*
D03*
X4250D02*
D03*
X-4250D02*
D03*
X-12750D02*
D03*
X-21250D02*
D03*
X-29750D02*
D03*
Y365680D02*
D03*
X-21250D02*
D03*
X-12750D02*
D03*
X-4250D02*
D03*
X4250D02*
D03*
X12750D02*
D03*
X21250D02*
D03*
X29750D02*
D03*
D57*
X-11000Y11000D02*
D03*
X0Y11000D02*
D03*
X11000Y11000D02*
D03*
X-11000Y0D02*
D03*
X0D02*
D03*
X11000D02*
D03*
X-11000Y-11000D02*
D03*
X0Y-11000D02*
D03*
X11000Y-11000D02*
D03*
D79*
X71000Y350000D02*
D03*
X-59000Y-143000D02*
D03*
Y-111000D02*
D03*
D80*
X-82000Y322001D02*
D03*
X58166Y-328422D02*
D03*
D81*
X-6049Y53278D02*
D03*
D82*
X-34000Y-317000D02*
D03*
X-56000D02*
D03*
D83*
X-50800Y-264868D02*
D03*
Y-289868D02*
D03*
D84*
X62912Y49060D02*
D03*
X81912Y49060D02*
D03*
X72412Y26060D02*
D03*
D85*
X27780Y-245650D02*
D03*
X27780Y-258350D02*
D03*
X27780Y-271050D02*
D03*
Y-283750D02*
D03*
X-26720Y-245650D02*
D03*
X-26720Y-258350D02*
D03*
Y-271050D02*
D03*
Y-283750D02*
D03*
X27250Y-187960D02*
D03*
X27250Y-200660D02*
D03*
X27250Y-213360D02*
D03*
Y-226060D02*
D03*
X-27250Y-187960D02*
D03*
X-27250Y-200660D02*
D03*
Y-213360D02*
D03*
Y-226060D02*
D03*
X27250Y-121920D02*
D03*
X27250Y-134620D02*
D03*
X27250Y-147320D02*
D03*
Y-160020D02*
D03*
X-27250Y-121920D02*
D03*
X-27250Y-134620D02*
D03*
Y-147320D02*
D03*
Y-160020D02*
D03*
X-21010Y186944D02*
D03*
X-21010Y174244D02*
D03*
X-21010Y161544D02*
D03*
Y148844D02*
D03*
X-75510Y186944D02*
D03*
X-75510Y174244D02*
D03*
Y161544D02*
D03*
Y148844D02*
D03*
Y90424D02*
D03*
Y103124D02*
D03*
Y115824D02*
D03*
X-75510Y128524D02*
D03*
X-21010Y90424D02*
D03*
Y103124D02*
D03*
X-21010Y115824D02*
D03*
X-21010Y128524D02*
D03*
D86*
X-18000Y393330D02*
D03*
Y378830D02*
D03*
X18000Y393330D02*
D03*
Y378830D02*
D03*
D87*
X-114300Y393700D02*
D03*
Y368300D02*
D03*
Y342900D02*
D03*
Y317500D02*
D03*
Y292100D02*
D03*
Y266700D02*
D03*
Y241300D02*
D03*
Y215900D02*
D03*
Y190500D02*
D03*
Y165100D02*
D03*
Y139700D02*
D03*
Y114300D02*
D03*
Y88900D02*
D03*
Y63500D02*
D03*
Y38100D02*
D03*
Y12700D02*
D03*
Y-12700D02*
D03*
Y-38100D02*
D03*
Y-63500D02*
D03*
Y-88900D02*
D03*
X114300D02*
D03*
Y-63500D02*
D03*
Y-38100D02*
D03*
Y-12700D02*
D03*
Y12700D02*
D03*
Y38100D02*
D03*
Y63500D02*
D03*
Y88900D02*
D03*
Y114300D02*
D03*
Y139700D02*
D03*
Y165100D02*
D03*
Y190500D02*
D03*
Y215900D02*
D03*
Y241300D02*
D03*
Y266700D02*
D03*
Y292100D02*
D03*
Y317500D02*
D03*
Y342900D02*
D03*
Y368300D02*
D03*
Y393700D02*
D03*
Y-114300D02*
D03*
Y-139700D02*
D03*
Y-165100D02*
D03*
Y-190500D02*
D03*
Y-215900D02*
D03*
Y-241300D02*
D03*
Y-266700D02*
D03*
Y-292100D02*
D03*
Y-317500D02*
D03*
Y-342900D02*
D03*
Y-368300D02*
D03*
Y-393700D02*
D03*
X-114300D02*
D03*
Y-368300D02*
D03*
Y-342900D02*
D03*
Y-317500D02*
D03*
Y-292100D02*
D03*
Y-266700D02*
D03*
Y-241300D02*
D03*
Y-215900D02*
D03*
Y-190500D02*
D03*
Y-165100D02*
D03*
Y-139700D02*
D03*
Y-114300D02*
D03*
M02*
