G04*
G04 #@! TF.GenerationSoftware,Altium Limited,Altium Designer,25.4.2 (15)*
G04*
G04 Layer_Physical_Order=3*
G04 Layer_Color=16440176*
%FSLAX44Y44*%
%MOMM*%
G71*
G04*
G04 #@! TF.SameCoordinates,8C631885-24FB-4105-B1F4-A81627B1BDD2*
G04*
G04*
G04 #@! TF.FilePolarity,Positive*
G04*
G01*
G75*
%ADD14C,0.1524*%
G04:AMPARAMS|DCode=54|XSize=0.9mm|YSize=1.7mm|CornerRadius=0.45mm|HoleSize=0mm|Usage=FLASHONLY|Rotation=180.000|XOffset=0mm|YOffset=0mm|HoleType=Round|Shape=RoundedRectangle|*
%AMROUNDEDRECTD54*
21,1,0.9000,0.8000,0,0,180.0*
21,1,0.0000,1.7000,0,0,180.0*
1,1,0.9000,0.0000,0.4000*
1,1,0.9000,0.0000,0.4000*
1,1,0.9000,0.0000,-0.4000*
1,1,0.9000,0.0000,-0.4000*
%
%ADD54ROUNDEDRECTD54*%
G04:AMPARAMS|DCode=55|XSize=0.9mm|YSize=2.4mm|CornerRadius=0.45mm|HoleSize=0mm|Usage=FLASHONLY|Rotation=180.000|XOffset=0mm|YOffset=0mm|HoleType=Round|Shape=RoundedRectangle|*
%AMROUNDEDRECTD55*
21,1,0.9000,1.5000,0,0,180.0*
21,1,0.0000,2.4000,0,0,180.0*
1,1,0.9000,0.0000,0.7500*
1,1,0.9000,0.0000,0.7500*
1,1,0.9000,0.0000,-0.7500*
1,1,0.9000,0.0000,-0.7500*
%
%ADD55ROUNDEDRECTD55*%
%ADD56C,0.6500*%
%ADD59C,0.5000*%
%ADD66C,0.6000*%
%ADD67C,0.6604*%
%ADD68C,0.5000*%
%ADD69C,1.8000*%
G36*
X107279Y401562D02*
X105879Y400162D01*
X104493Y397762D01*
X103776Y395085D01*
Y392314D01*
X104493Y389638D01*
X105879Y387238D01*
X107838Y385279D01*
X110238Y383893D01*
X112914Y383176D01*
X115686D01*
X118362Y383893D01*
X120762Y385279D01*
X122162Y386679D01*
X123686Y386048D01*
Y350552D01*
X122162Y349921D01*
X120762Y351321D01*
X118362Y352707D01*
X115686Y353424D01*
X112914D01*
X110238Y352707D01*
X107838Y351321D01*
X105879Y349362D01*
X104493Y346962D01*
X103776Y344286D01*
Y341515D01*
X104493Y338838D01*
X105879Y336438D01*
X107838Y334479D01*
X110238Y333093D01*
X112914Y332376D01*
X115686D01*
X118362Y333093D01*
X120762Y334479D01*
X122162Y335879D01*
X123686Y335248D01*
Y325152D01*
X122162Y324521D01*
X120762Y325921D01*
X118362Y327307D01*
X115686Y328024D01*
X112914D01*
X110238Y327307D01*
X107838Y325921D01*
X105879Y323962D01*
X104493Y321562D01*
X103776Y318885D01*
Y316115D01*
X104493Y313438D01*
X105879Y311038D01*
X107838Y309079D01*
X110238Y307693D01*
X112914Y306976D01*
X115686D01*
X118362Y307693D01*
X120762Y309079D01*
X122162Y310479D01*
X123686Y309848D01*
Y299752D01*
X122162Y299121D01*
X120762Y300521D01*
X118362Y301907D01*
X115686Y302624D01*
X112914D01*
X110238Y301907D01*
X107838Y300521D01*
X105879Y298562D01*
X104493Y296162D01*
X103776Y293486D01*
Y290714D01*
X104493Y288038D01*
X105879Y285638D01*
X107838Y283679D01*
X110238Y282293D01*
X112914Y281576D01*
X115686D01*
X118362Y282293D01*
X120762Y283679D01*
X122162Y285079D01*
X123686Y284448D01*
Y274352D01*
X122162Y273721D01*
X120762Y275121D01*
X118362Y276507D01*
X115686Y277224D01*
X112914D01*
X110238Y276507D01*
X107838Y275121D01*
X105879Y273162D01*
X104493Y270762D01*
X103776Y268085D01*
Y265315D01*
X104493Y262638D01*
X105879Y260238D01*
X107838Y258279D01*
X110238Y256893D01*
X112914Y256176D01*
X115686D01*
X118362Y256893D01*
X120762Y258279D01*
X122162Y259679D01*
X123686Y259048D01*
Y248952D01*
X122162Y248321D01*
X120762Y249721D01*
X118362Y251107D01*
X115686Y251824D01*
X112914D01*
X110238Y251107D01*
X107838Y249721D01*
X105879Y247762D01*
X104493Y245362D01*
X103776Y242686D01*
Y239914D01*
X104493Y237238D01*
X105879Y234838D01*
X107838Y232879D01*
X110238Y231493D01*
X112914Y230776D01*
X115686D01*
X118362Y231493D01*
X120762Y232879D01*
X122162Y234279D01*
X123686Y233648D01*
Y223552D01*
X122162Y222921D01*
X120762Y224321D01*
X118362Y225707D01*
X115686Y226424D01*
X112914D01*
X110238Y225707D01*
X107838Y224321D01*
X105879Y222362D01*
X104493Y219962D01*
X103776Y217285D01*
Y214515D01*
X104493Y211838D01*
X105879Y209438D01*
X107838Y207479D01*
X110238Y206093D01*
X112914Y205376D01*
X115686D01*
X118362Y206093D01*
X120762Y207479D01*
X122162Y208879D01*
X123686Y208248D01*
Y198152D01*
X122162Y197521D01*
X120762Y198921D01*
X118362Y200307D01*
X115686Y201024D01*
X112914D01*
X110238Y200307D01*
X107838Y198921D01*
X105879Y196962D01*
X104493Y194562D01*
X103776Y191886D01*
Y189114D01*
X104493Y186438D01*
X105879Y184038D01*
X107838Y182079D01*
X110238Y180693D01*
X112914Y179976D01*
X115686D01*
X118362Y180693D01*
X120762Y182079D01*
X122162Y183479D01*
X123686Y182848D01*
Y172752D01*
X122162Y172121D01*
X120762Y173521D01*
X118362Y174907D01*
X115686Y175624D01*
X112914D01*
X110238Y174907D01*
X107838Y173521D01*
X105879Y171562D01*
X104493Y169162D01*
X103776Y166486D01*
Y163715D01*
X104493Y161038D01*
X105879Y158638D01*
X107838Y156679D01*
X110238Y155293D01*
X112914Y154576D01*
X115686D01*
X118362Y155293D01*
X120762Y156679D01*
X122162Y158079D01*
X123686Y157448D01*
Y147352D01*
X122162Y146721D01*
X120762Y148121D01*
X118362Y149507D01*
X115686Y150224D01*
X112914D01*
X110238Y149507D01*
X107838Y148121D01*
X105879Y146162D01*
X104493Y143762D01*
X103776Y141086D01*
Y138315D01*
X104493Y135638D01*
X105879Y133238D01*
X107838Y131279D01*
X110238Y129893D01*
X112914Y129176D01*
X115686D01*
X118362Y129893D01*
X120762Y131279D01*
X122162Y132679D01*
X123686Y132048D01*
Y121952D01*
X122162Y121321D01*
X120762Y122721D01*
X118362Y124107D01*
X115686Y124824D01*
X112914D01*
X110238Y124107D01*
X107838Y122721D01*
X105879Y120762D01*
X104493Y118362D01*
X103776Y115686D01*
Y112914D01*
X104493Y110238D01*
X105879Y107838D01*
X107838Y105879D01*
X110238Y104493D01*
X112914Y103776D01*
X115686D01*
X118362Y104493D01*
X120762Y105879D01*
X122162Y107279D01*
X123686Y106648D01*
Y96552D01*
X122162Y95921D01*
X120762Y97321D01*
X118362Y98707D01*
X115686Y99424D01*
X112914D01*
X110238Y98707D01*
X107838Y97321D01*
X105879Y95362D01*
X104493Y92962D01*
X103776Y90286D01*
Y87514D01*
X104493Y84838D01*
X105879Y82438D01*
X107838Y80479D01*
X110238Y79093D01*
X112914Y78376D01*
X115686D01*
X118362Y79093D01*
X120762Y80479D01*
X122162Y81879D01*
X123686Y81248D01*
Y71152D01*
X122162Y70521D01*
X120762Y71921D01*
X118362Y73307D01*
X115686Y74024D01*
X112914D01*
X110238Y73307D01*
X107838Y71921D01*
X105879Y69962D01*
X104493Y67562D01*
X103776Y64886D01*
Y62115D01*
X104493Y59438D01*
X105879Y57038D01*
X107838Y55079D01*
X110238Y53693D01*
X112914Y52976D01*
X115686D01*
X118362Y53693D01*
X120762Y55079D01*
X122162Y56479D01*
X123686Y55848D01*
Y45752D01*
X122162Y45121D01*
X120762Y46521D01*
X118362Y47907D01*
X115686Y48624D01*
X112914D01*
X110238Y47907D01*
X107838Y46521D01*
X105879Y44562D01*
X104493Y42162D01*
X103776Y39485D01*
Y36714D01*
X104493Y34038D01*
X105879Y31638D01*
X107838Y29679D01*
X110238Y28293D01*
X112914Y27576D01*
X115686D01*
X118362Y28293D01*
X120762Y29679D01*
X122162Y31079D01*
X123686Y30448D01*
Y20352D01*
X122162Y19721D01*
X120762Y21121D01*
X118362Y22507D01*
X115686Y23224D01*
X112914D01*
X110238Y22507D01*
X107838Y21121D01*
X105879Y19162D01*
X104493Y16762D01*
X103776Y14086D01*
Y11315D01*
X104493Y8638D01*
X105879Y6238D01*
X107838Y4279D01*
X110238Y2893D01*
X112914Y2176D01*
X115686D01*
X118362Y2893D01*
X120762Y4279D01*
X122162Y5679D01*
X123686Y5048D01*
X123686Y-5048D01*
X122162Y-5679D01*
X120762Y-4279D01*
X118362Y-2893D01*
X115686Y-2176D01*
X112914D01*
X110238Y-2893D01*
X107838Y-4279D01*
X105879Y-6238D01*
X104493Y-8638D01*
X103776Y-11315D01*
Y-14086D01*
X104493Y-16762D01*
X105879Y-19162D01*
X107838Y-21121D01*
X110238Y-22507D01*
X112914Y-23224D01*
X115686D01*
X118362Y-22507D01*
X120762Y-21121D01*
X122162Y-19721D01*
X123686Y-20352D01*
Y-30448D01*
X122162Y-31079D01*
X120762Y-29679D01*
X118362Y-28293D01*
X115686Y-27576D01*
X112914D01*
X110238Y-28293D01*
X107838Y-29679D01*
X105879Y-31638D01*
X104493Y-34038D01*
X103776Y-36714D01*
Y-39485D01*
X104493Y-42162D01*
X105879Y-44562D01*
X107838Y-46521D01*
X110238Y-47907D01*
X112914Y-48624D01*
X115686D01*
X118362Y-47907D01*
X120762Y-46521D01*
X122162Y-45121D01*
X123686Y-45752D01*
Y-55848D01*
X122162Y-56479D01*
X120762Y-55079D01*
X118362Y-53693D01*
X115686Y-52976D01*
X112914D01*
X110238Y-53693D01*
X107838Y-55079D01*
X105879Y-57038D01*
X104493Y-59438D01*
X103776Y-62115D01*
Y-64886D01*
X104493Y-67562D01*
X105879Y-69962D01*
X107838Y-71921D01*
X110238Y-73307D01*
X112914Y-74024D01*
X115686D01*
X118362Y-73307D01*
X120762Y-71921D01*
X122162Y-70521D01*
X123686Y-71152D01*
Y-81248D01*
X122162Y-81879D01*
X120762Y-80479D01*
X118362Y-79093D01*
X115686Y-78376D01*
X112914D01*
X110238Y-79093D01*
X107838Y-80479D01*
X105879Y-82438D01*
X104493Y-84838D01*
X103776Y-87514D01*
Y-90286D01*
X104493Y-92962D01*
X105879Y-95362D01*
X107838Y-97321D01*
X110238Y-98707D01*
X112914Y-99424D01*
X115686D01*
X118362Y-98707D01*
X120762Y-97321D01*
X122162Y-95921D01*
X123686Y-96552D01*
Y-106648D01*
X122162Y-107279D01*
X120762Y-105879D01*
X118362Y-104493D01*
X115686Y-103776D01*
X112914D01*
X110238Y-104493D01*
X107838Y-105879D01*
X105879Y-107838D01*
X104493Y-110238D01*
X103776Y-112914D01*
Y-115686D01*
X104493Y-118362D01*
X105879Y-120762D01*
X107838Y-122721D01*
X110238Y-124107D01*
X112914Y-124824D01*
X115686D01*
X118362Y-124107D01*
X120762Y-122721D01*
X122162Y-121321D01*
X123686Y-121952D01*
Y-132048D01*
X122162Y-132679D01*
X120762Y-131279D01*
X118362Y-129893D01*
X115686Y-129176D01*
X112914D01*
X110238Y-129893D01*
X107838Y-131279D01*
X105879Y-133238D01*
X104493Y-135638D01*
X103776Y-138315D01*
Y-141086D01*
X104493Y-143762D01*
X105879Y-146162D01*
X107838Y-148121D01*
X110238Y-149507D01*
X112914Y-150224D01*
X115686D01*
X118362Y-149507D01*
X120762Y-148121D01*
X122162Y-146721D01*
X123686Y-147352D01*
Y-157448D01*
X122162Y-158079D01*
X120762Y-156679D01*
X118362Y-155293D01*
X115686Y-154576D01*
X112914D01*
X110238Y-155293D01*
X107838Y-156679D01*
X105879Y-158638D01*
X104493Y-161038D01*
X103776Y-163715D01*
Y-166486D01*
X104493Y-169162D01*
X105879Y-171562D01*
X107838Y-173521D01*
X110238Y-174907D01*
X112914Y-175624D01*
X115686D01*
X118362Y-174907D01*
X120762Y-173521D01*
X122162Y-172121D01*
X123686Y-172752D01*
Y-182848D01*
X122162Y-183479D01*
X120762Y-182079D01*
X118362Y-180693D01*
X115686Y-179976D01*
X112914D01*
X110238Y-180693D01*
X107838Y-182079D01*
X105879Y-184038D01*
X104493Y-186438D01*
X103776Y-189114D01*
Y-191886D01*
X104493Y-194562D01*
X105879Y-196962D01*
X107838Y-198921D01*
X110238Y-200307D01*
X112914Y-201024D01*
X115686D01*
X118362Y-200307D01*
X120762Y-198921D01*
X122162Y-197521D01*
X123686Y-198152D01*
Y-208248D01*
X122162Y-208879D01*
X120762Y-207479D01*
X118362Y-206093D01*
X115686Y-205376D01*
X112914D01*
X110238Y-206093D01*
X107838Y-207479D01*
X105879Y-209438D01*
X104493Y-211838D01*
X103776Y-214515D01*
Y-217285D01*
X104493Y-219962D01*
X105879Y-222362D01*
X107838Y-224321D01*
X110238Y-225707D01*
X112914Y-226424D01*
X115686D01*
X118362Y-225707D01*
X120762Y-224321D01*
X122162Y-222921D01*
X123686Y-223552D01*
Y-233648D01*
X122162Y-234279D01*
X120762Y-232879D01*
X118362Y-231493D01*
X115686Y-230776D01*
X112914D01*
X110238Y-231493D01*
X107838Y-232879D01*
X105879Y-234838D01*
X104493Y-237238D01*
X103776Y-239914D01*
Y-242686D01*
X104493Y-245362D01*
X105879Y-247762D01*
X107838Y-249721D01*
X110238Y-251107D01*
X112914Y-251824D01*
X115686D01*
X118362Y-251107D01*
X120762Y-249721D01*
X122162Y-248321D01*
X123686Y-248952D01*
Y-259048D01*
X122162Y-259679D01*
X120762Y-258279D01*
X118362Y-256893D01*
X115686Y-256176D01*
X112914D01*
X110238Y-256893D01*
X107838Y-258279D01*
X105879Y-260238D01*
X104493Y-262638D01*
X103776Y-265315D01*
Y-268085D01*
X104493Y-270762D01*
X105879Y-273162D01*
X107838Y-275121D01*
X110238Y-276507D01*
X112914Y-277224D01*
X115686D01*
X118362Y-276507D01*
X120762Y-275121D01*
X122162Y-273721D01*
X123686Y-274352D01*
Y-284448D01*
X122162Y-285079D01*
X120762Y-283679D01*
X118362Y-282293D01*
X115686Y-281576D01*
X112914D01*
X110238Y-282293D01*
X107838Y-283679D01*
X107109Y-284407D01*
X106929Y-284447D01*
X99298Y-289769D01*
X94234D01*
X93342Y-289947D01*
X92586Y-290452D01*
X82934Y-300104D01*
X82429Y-300860D01*
X82251Y-301752D01*
Y-317043D01*
X60238Y-339056D01*
X57703Y-339850D01*
X57643Y-339900D01*
X57266D01*
X55603Y-340589D01*
X54331Y-341861D01*
X53642Y-343524D01*
Y-345324D01*
X54331Y-346987D01*
X55603Y-348259D01*
X57266Y-348948D01*
X59066D01*
X60729Y-348259D01*
X62001Y-346987D01*
X62690Y-345324D01*
Y-344947D01*
X62740Y-344887D01*
X63534Y-342352D01*
X86230Y-319656D01*
X86735Y-318900D01*
X86913Y-318008D01*
Y-302717D01*
X95199Y-294431D01*
X99298D01*
X106929Y-299753D01*
X107109Y-299793D01*
X107838Y-300521D01*
X110238Y-301907D01*
X112914Y-302624D01*
X115686D01*
X118362Y-301907D01*
X120762Y-300521D01*
X122162Y-299121D01*
X123686Y-299752D01*
Y-309848D01*
X122162Y-310479D01*
X120762Y-309079D01*
X118362Y-307693D01*
X115686Y-306976D01*
X112914D01*
X110238Y-307693D01*
X107838Y-309079D01*
X105879Y-311038D01*
X104493Y-313438D01*
X103776Y-316115D01*
Y-318885D01*
X104493Y-321562D01*
X105879Y-323962D01*
X107838Y-325921D01*
X110238Y-327307D01*
X112914Y-328024D01*
X115686D01*
X118362Y-327307D01*
X120762Y-325921D01*
X122162Y-324521D01*
X123686Y-325152D01*
Y-335248D01*
X122162Y-335879D01*
X120762Y-334479D01*
X118362Y-333093D01*
X115686Y-332376D01*
X112914D01*
X110238Y-333093D01*
X107838Y-334479D01*
X105879Y-336438D01*
X104493Y-338838D01*
X103776Y-341515D01*
Y-344286D01*
X104493Y-346962D01*
X105879Y-349362D01*
X107838Y-351321D01*
X110238Y-352707D01*
X112914Y-353424D01*
X115686D01*
X118362Y-352707D01*
X120762Y-351321D01*
X122162Y-349921D01*
X123686Y-350552D01*
Y-360648D01*
X122162Y-361279D01*
X120762Y-359879D01*
X118362Y-358493D01*
X115686Y-357776D01*
X112914D01*
X110238Y-358493D01*
X107838Y-359879D01*
X105879Y-361838D01*
X104493Y-364238D01*
X103776Y-366914D01*
Y-369686D01*
X104493Y-372362D01*
X105879Y-374762D01*
X107838Y-376721D01*
X110238Y-378107D01*
X112914Y-378824D01*
X115686D01*
X118362Y-378107D01*
X120762Y-376721D01*
X122162Y-375321D01*
X123686Y-375952D01*
Y-386048D01*
X122162Y-386679D01*
X120762Y-385279D01*
X118362Y-383893D01*
X115686Y-383176D01*
X112914D01*
X110238Y-383893D01*
X107838Y-385279D01*
X105879Y-387238D01*
X104493Y-389638D01*
X103776Y-392314D01*
Y-395085D01*
X104493Y-397762D01*
X105879Y-400162D01*
X107279Y-401562D01*
X106648Y-403086D01*
X-120650Y-403086D01*
Y-403081D01*
X-121810Y-402850D01*
X-122793Y-402193D01*
X-123450Y-401210D01*
X-123681Y-400050D01*
X-123686Y-400050D01*
Y-375952D01*
X-122162Y-375321D01*
X-120762Y-376721D01*
X-118362Y-378107D01*
X-115686Y-378824D01*
X-112914D01*
X-110238Y-378107D01*
X-107838Y-376721D01*
X-105879Y-374762D01*
X-104493Y-372362D01*
X-103776Y-369686D01*
Y-366914D01*
X-104493Y-364238D01*
X-105879Y-361838D01*
X-107838Y-359879D01*
X-110238Y-358493D01*
X-112914Y-357776D01*
X-115686D01*
X-118362Y-358493D01*
X-120762Y-359879D01*
X-122162Y-361279D01*
X-123686Y-360648D01*
Y-350552D01*
X-122162Y-349921D01*
X-120762Y-351321D01*
X-118362Y-352707D01*
X-115686Y-353424D01*
X-112914D01*
X-110238Y-352707D01*
X-107838Y-351321D01*
X-105879Y-349362D01*
X-104493Y-346962D01*
X-103776Y-344286D01*
Y-341515D01*
X-104493Y-338838D01*
X-105879Y-336438D01*
X-107838Y-334479D01*
X-110238Y-333093D01*
X-112914Y-332376D01*
X-115686D01*
X-118362Y-333093D01*
X-120762Y-334479D01*
X-122162Y-335879D01*
X-123686Y-335248D01*
Y-325152D01*
X-122162Y-324521D01*
X-120762Y-325921D01*
X-118362Y-327307D01*
X-115686Y-328024D01*
X-112914D01*
X-110238Y-327307D01*
X-107838Y-325921D01*
X-105879Y-323962D01*
X-104493Y-321562D01*
X-103776Y-318885D01*
Y-316115D01*
X-104493Y-313438D01*
X-105879Y-311038D01*
X-107838Y-309079D01*
X-110238Y-307693D01*
X-112914Y-306976D01*
X-115686D01*
X-118362Y-307693D01*
X-120762Y-309079D01*
X-122162Y-310479D01*
X-123686Y-309848D01*
Y-299752D01*
X-122162Y-299121D01*
X-120762Y-300521D01*
X-118362Y-301907D01*
X-115686Y-302624D01*
X-112914D01*
X-110238Y-301907D01*
X-107838Y-300521D01*
X-105879Y-298562D01*
X-104493Y-296162D01*
X-103776Y-293486D01*
Y-290714D01*
X-104493Y-288038D01*
X-105879Y-285638D01*
X-107838Y-283679D01*
X-110238Y-282293D01*
X-112914Y-281576D01*
X-115686D01*
X-118362Y-282293D01*
X-120762Y-283679D01*
X-122162Y-285079D01*
X-123686Y-284448D01*
Y-274352D01*
X-122162Y-273721D01*
X-120762Y-275121D01*
X-118362Y-276507D01*
X-115686Y-277224D01*
X-112914D01*
X-110238Y-276507D01*
X-107838Y-275121D01*
X-105879Y-273162D01*
X-104493Y-270762D01*
X-103776Y-268085D01*
Y-265315D01*
X-104493Y-262638D01*
X-105879Y-260238D01*
X-107838Y-258279D01*
X-110238Y-256893D01*
X-112914Y-256176D01*
X-115686D01*
X-118362Y-256893D01*
X-120762Y-258279D01*
X-122162Y-259679D01*
X-123686Y-259048D01*
Y-248952D01*
X-122162Y-248321D01*
X-120762Y-249721D01*
X-118362Y-251107D01*
X-115686Y-251824D01*
X-112914D01*
X-110238Y-251107D01*
X-107838Y-249721D01*
X-105879Y-247762D01*
X-104493Y-245362D01*
X-103776Y-242686D01*
Y-239914D01*
X-104493Y-237238D01*
X-105879Y-234838D01*
X-107838Y-232879D01*
X-110238Y-231493D01*
X-112914Y-230776D01*
X-115686D01*
X-118362Y-231493D01*
X-120762Y-232879D01*
X-122162Y-234279D01*
X-123686Y-233648D01*
Y-223552D01*
X-122162Y-222921D01*
X-120762Y-224321D01*
X-118362Y-225707D01*
X-115686Y-226424D01*
X-112914D01*
X-110238Y-225707D01*
X-107838Y-224321D01*
X-105879Y-222362D01*
X-104493Y-219962D01*
X-103776Y-217285D01*
Y-214515D01*
X-104493Y-211838D01*
X-105879Y-209438D01*
X-107838Y-207479D01*
X-110238Y-206093D01*
X-112914Y-205376D01*
X-115686D01*
X-118362Y-206093D01*
X-120762Y-207479D01*
X-122162Y-208879D01*
X-123686Y-208248D01*
Y-198152D01*
X-122162Y-197521D01*
X-120762Y-198921D01*
X-118362Y-200307D01*
X-115686Y-201024D01*
X-112914D01*
X-110238Y-200307D01*
X-107838Y-198921D01*
X-105879Y-196962D01*
X-104493Y-194562D01*
X-103776Y-191886D01*
Y-189114D01*
X-104493Y-186438D01*
X-105879Y-184038D01*
X-107838Y-182079D01*
X-110238Y-180693D01*
X-112914Y-179976D01*
X-115686D01*
X-118362Y-180693D01*
X-120762Y-182079D01*
X-122162Y-183479D01*
X-123686Y-182848D01*
Y-172752D01*
X-122162Y-172121D01*
X-120762Y-173521D01*
X-118362Y-174907D01*
X-115686Y-175624D01*
X-112914D01*
X-110238Y-174907D01*
X-107838Y-173521D01*
X-105879Y-171562D01*
X-104493Y-169162D01*
X-103776Y-166486D01*
Y-163715D01*
X-104493Y-161038D01*
X-105879Y-158638D01*
X-107838Y-156679D01*
X-110238Y-155293D01*
X-112914Y-154576D01*
X-115686D01*
X-118362Y-155293D01*
X-120762Y-156679D01*
X-122162Y-158079D01*
X-123686Y-157448D01*
Y-147352D01*
X-122162Y-146721D01*
X-120762Y-148121D01*
X-118362Y-149507D01*
X-115686Y-150224D01*
X-112914D01*
X-110238Y-149507D01*
X-107838Y-148121D01*
X-105879Y-146162D01*
X-104493Y-143762D01*
X-103776Y-141086D01*
Y-138315D01*
X-104493Y-135638D01*
X-105879Y-133238D01*
X-107838Y-131279D01*
X-110238Y-129893D01*
X-112914Y-129176D01*
X-115686D01*
X-118362Y-129893D01*
X-120762Y-131279D01*
X-122162Y-132679D01*
X-123686Y-132048D01*
Y-121952D01*
X-122162Y-121321D01*
X-120762Y-122721D01*
X-118362Y-124107D01*
X-115686Y-124824D01*
X-112914D01*
X-110238Y-124107D01*
X-107838Y-122721D01*
X-105879Y-120762D01*
X-104493Y-118362D01*
X-103776Y-115686D01*
Y-112914D01*
X-104493Y-110238D01*
X-105879Y-107838D01*
X-107838Y-105879D01*
X-110238Y-104493D01*
X-112914Y-103776D01*
X-115686D01*
X-118362Y-104493D01*
X-120762Y-105879D01*
X-122162Y-107279D01*
X-123686Y-106648D01*
Y-96552D01*
X-122162Y-95921D01*
X-120762Y-97321D01*
X-118362Y-98707D01*
X-115686Y-99424D01*
X-112914D01*
X-110238Y-98707D01*
X-107838Y-97321D01*
X-105879Y-95362D01*
X-104493Y-92962D01*
X-103776Y-90286D01*
Y-87514D01*
X-104493Y-84838D01*
X-105879Y-82438D01*
X-107838Y-80479D01*
X-110238Y-79093D01*
X-112914Y-78376D01*
X-115686D01*
X-118362Y-79093D01*
X-120762Y-80479D01*
X-122162Y-81879D01*
X-123686Y-81248D01*
Y-71152D01*
X-122162Y-70521D01*
X-120762Y-71921D01*
X-118362Y-73307D01*
X-115686Y-74024D01*
X-112914D01*
X-110238Y-73307D01*
X-107838Y-71921D01*
X-105879Y-69962D01*
X-104493Y-67562D01*
X-103776Y-64886D01*
Y-62115D01*
X-104493Y-59438D01*
X-105879Y-57038D01*
X-107838Y-55079D01*
X-110238Y-53693D01*
X-112914Y-52976D01*
X-115686D01*
X-118362Y-53693D01*
X-120762Y-55079D01*
X-122162Y-56479D01*
X-123686Y-55848D01*
Y-45752D01*
X-122162Y-45121D01*
X-120762Y-46521D01*
X-118362Y-47907D01*
X-115686Y-48624D01*
X-112914D01*
X-110238Y-47907D01*
X-107838Y-46521D01*
X-105879Y-44562D01*
X-104493Y-42162D01*
X-103776Y-39485D01*
Y-36714D01*
X-104493Y-34038D01*
X-105879Y-31638D01*
X-107838Y-29679D01*
X-110238Y-28293D01*
X-112914Y-27576D01*
X-115686D01*
X-118362Y-28293D01*
X-120762Y-29679D01*
X-122162Y-31079D01*
X-123686Y-30448D01*
Y-20352D01*
X-122162Y-19721D01*
X-120762Y-21121D01*
X-118362Y-22507D01*
X-115686Y-23224D01*
X-112914D01*
X-110238Y-22507D01*
X-107838Y-21121D01*
X-105879Y-19162D01*
X-104493Y-16762D01*
X-103776Y-14086D01*
Y-11315D01*
X-104493Y-8638D01*
X-105879Y-6238D01*
X-107838Y-4279D01*
X-110238Y-2893D01*
X-112914Y-2176D01*
X-115686D01*
X-118362Y-2893D01*
X-120762Y-4279D01*
X-122162Y-5679D01*
X-123686Y-5048D01*
Y5048D01*
X-122162Y5679D01*
X-120762Y4279D01*
X-118362Y2893D01*
X-115686Y2176D01*
X-112914D01*
X-110238Y2893D01*
X-107838Y4279D01*
X-105879Y6238D01*
X-104493Y8638D01*
X-103776Y11315D01*
Y14086D01*
X-104493Y16762D01*
X-105879Y19162D01*
X-107838Y21121D01*
X-110238Y22507D01*
X-112914Y23224D01*
X-115686D01*
X-118362Y22507D01*
X-120762Y21121D01*
X-122162Y19721D01*
X-123686Y20352D01*
Y30448D01*
X-122162Y31079D01*
X-120762Y29679D01*
X-118362Y28293D01*
X-115686Y27576D01*
X-112914D01*
X-110238Y28293D01*
X-107838Y29679D01*
X-105879Y31638D01*
X-104493Y34038D01*
X-103776Y36714D01*
Y39485D01*
X-104493Y42162D01*
X-105879Y44562D01*
X-107838Y46521D01*
X-110238Y47907D01*
X-112914Y48624D01*
X-115686D01*
X-118362Y47907D01*
X-120762Y46521D01*
X-122162Y45121D01*
X-123686Y45752D01*
Y55848D01*
X-122162Y56479D01*
X-120762Y55079D01*
X-118362Y53693D01*
X-115686Y52976D01*
X-112914D01*
X-110238Y53693D01*
X-107838Y55079D01*
X-105879Y57038D01*
X-104493Y59438D01*
X-103776Y62115D01*
Y64886D01*
X-104493Y67562D01*
X-105879Y69962D01*
X-107838Y71921D01*
X-110238Y73307D01*
X-112914Y74024D01*
X-115686D01*
X-118362Y73307D01*
X-120762Y71921D01*
X-122162Y70521D01*
X-123686Y71152D01*
Y81248D01*
X-122162Y81879D01*
X-120762Y80479D01*
X-118362Y79093D01*
X-115686Y78376D01*
X-112914D01*
X-110238Y79093D01*
X-107838Y80479D01*
X-105879Y82438D01*
X-104493Y84838D01*
X-103776Y87514D01*
Y90286D01*
X-104493Y92962D01*
X-105879Y95362D01*
X-107838Y97321D01*
X-110238Y98707D01*
X-112914Y99424D01*
X-115686D01*
X-118362Y98707D01*
X-120762Y97321D01*
X-122162Y95921D01*
X-123686Y96552D01*
Y106648D01*
X-122162Y107279D01*
X-120762Y105879D01*
X-118362Y104493D01*
X-115686Y103776D01*
X-112914D01*
X-110238Y104493D01*
X-107838Y105879D01*
X-105879Y107838D01*
X-104493Y110238D01*
X-103776Y112914D01*
Y115686D01*
X-104493Y118362D01*
X-105879Y120762D01*
X-107838Y122721D01*
X-110238Y124107D01*
X-112914Y124824D01*
X-115686D01*
X-118362Y124107D01*
X-120762Y122721D01*
X-122162Y121321D01*
X-123686Y121952D01*
Y132048D01*
X-122162Y132679D01*
X-120762Y131279D01*
X-118362Y129893D01*
X-115686Y129176D01*
X-112914D01*
X-110238Y129893D01*
X-107838Y131279D01*
X-105879Y133238D01*
X-104493Y135638D01*
X-103776Y138315D01*
Y141086D01*
X-104493Y143762D01*
X-105879Y146162D01*
X-107838Y148121D01*
X-110238Y149507D01*
X-112914Y150224D01*
X-115686D01*
X-118362Y149507D01*
X-120762Y148121D01*
X-122162Y146721D01*
X-123686Y147352D01*
Y157448D01*
X-122162Y158079D01*
X-120762Y156679D01*
X-118362Y155293D01*
X-115686Y154576D01*
X-112914D01*
X-110238Y155293D01*
X-107838Y156679D01*
X-105879Y158638D01*
X-104493Y161038D01*
X-103776Y163715D01*
Y166486D01*
X-104493Y169162D01*
X-105879Y171562D01*
X-107838Y173521D01*
X-110238Y174907D01*
X-112914Y175624D01*
X-115686D01*
X-118362Y174907D01*
X-120762Y173521D01*
X-122162Y172121D01*
X-123686Y172752D01*
Y182848D01*
X-122162Y183479D01*
X-120762Y182079D01*
X-118362Y180693D01*
X-115686Y179976D01*
X-112914D01*
X-110238Y180693D01*
X-107838Y182079D01*
X-105879Y184038D01*
X-104493Y186438D01*
X-103776Y189114D01*
Y191886D01*
X-104493Y194562D01*
X-105879Y196962D01*
X-107838Y198921D01*
X-110238Y200307D01*
X-112914Y201024D01*
X-115686D01*
X-118362Y200307D01*
X-120762Y198921D01*
X-122162Y197521D01*
X-123686Y198152D01*
Y208248D01*
X-122162Y208879D01*
X-120762Y207479D01*
X-118362Y206093D01*
X-115686Y205376D01*
X-112914D01*
X-110238Y206093D01*
X-107838Y207479D01*
X-105879Y209438D01*
X-104493Y211838D01*
X-103776Y214515D01*
Y217285D01*
X-104493Y219962D01*
X-105879Y222362D01*
X-107838Y224321D01*
X-110238Y225707D01*
X-112914Y226424D01*
X-115686D01*
X-118362Y225707D01*
X-120762Y224321D01*
X-122162Y222921D01*
X-123686Y223552D01*
Y233648D01*
X-122162Y234279D01*
X-120762Y232879D01*
X-118362Y231493D01*
X-115686Y230776D01*
X-112914D01*
X-110238Y231493D01*
X-107838Y232879D01*
X-105879Y234838D01*
X-104493Y237238D01*
X-103776Y239914D01*
Y242686D01*
X-104493Y245362D01*
X-105879Y247762D01*
X-107838Y249721D01*
X-110238Y251107D01*
X-112914Y251824D01*
X-115686D01*
X-118362Y251107D01*
X-120762Y249721D01*
X-122162Y248321D01*
X-123686Y248952D01*
Y259048D01*
X-122162Y259679D01*
X-120762Y258279D01*
X-118362Y256893D01*
X-115686Y256176D01*
X-112914D01*
X-110238Y256893D01*
X-107838Y258279D01*
X-105879Y260238D01*
X-104493Y262638D01*
X-103776Y265315D01*
Y268085D01*
X-104493Y270762D01*
X-105879Y273162D01*
X-107838Y275121D01*
X-110238Y276507D01*
X-112914Y277224D01*
X-115686D01*
X-118362Y276507D01*
X-120762Y275121D01*
X-122162Y273721D01*
X-123686Y274352D01*
Y284448D01*
X-122162Y285079D01*
X-120762Y283679D01*
X-118362Y282293D01*
X-115686Y281576D01*
X-112914D01*
X-110238Y282293D01*
X-107838Y283679D01*
X-105879Y285638D01*
X-104493Y288038D01*
X-103776Y290714D01*
Y293486D01*
X-104493Y296162D01*
X-105879Y298562D01*
X-107838Y300521D01*
X-110238Y301907D01*
X-112914Y302624D01*
X-115686D01*
X-118362Y301907D01*
X-120762Y300521D01*
X-122162Y299121D01*
X-123686Y299752D01*
Y309848D01*
X-122162Y310479D01*
X-120762Y309079D01*
X-118362Y307693D01*
X-115686Y306976D01*
X-112914D01*
X-110238Y307693D01*
X-107838Y309079D01*
X-105879Y311038D01*
X-104493Y313438D01*
X-103776Y316115D01*
Y318885D01*
X-104493Y321562D01*
X-105879Y323962D01*
X-107838Y325921D01*
X-110238Y327307D01*
X-112914Y328024D01*
X-115686D01*
X-118362Y327307D01*
X-120762Y325921D01*
X-122162Y324521D01*
X-123686Y325152D01*
Y335248D01*
X-122162Y335879D01*
X-120762Y334479D01*
X-118362Y333093D01*
X-115686Y332376D01*
X-112914D01*
X-110238Y333093D01*
X-107838Y334479D01*
X-105879Y336438D01*
X-104493Y338838D01*
X-103776Y341515D01*
Y344286D01*
X-103817Y344439D01*
X-102451Y345228D01*
X-100710Y343487D01*
Y224060D01*
X-100226Y222894D01*
X-64483Y187150D01*
X-65114Y185626D01*
X-65162D01*
X-66825Y184937D01*
X-68097Y183665D01*
X-68786Y182002D01*
Y180202D01*
X-68097Y178539D01*
X-66825Y177267D01*
X-65162Y176578D01*
X-63362D01*
X-62610Y176890D01*
X-61340Y176802D01*
X-60807Y176112D01*
X-60602Y175618D01*
X-59078Y174094D01*
X-57912Y173610D01*
X-48768D01*
X-47602Y174094D01*
X-46078Y175618D01*
X-45594Y176784D01*
Y177214D01*
X-45514Y177408D01*
Y179208D01*
X-45594Y179402D01*
Y202946D01*
X-46078Y204112D01*
X-64874Y222908D01*
X-67438Y225473D01*
Y359918D01*
X-67922Y361084D01*
X-85194Y378356D01*
X-86360Y378840D01*
X-114300D01*
X-114338Y378824D01*
X-115686D01*
X-118362Y378107D01*
X-120762Y376721D01*
X-122162Y375321D01*
X-123686Y375952D01*
Y386048D01*
X-122162Y386679D01*
X-120762Y385279D01*
X-118362Y383893D01*
X-115686Y383176D01*
X-112914D01*
X-110238Y383893D01*
X-107838Y385279D01*
X-105879Y387238D01*
X-104493Y389638D01*
X-103776Y392314D01*
Y395085D01*
X-104493Y397762D01*
X-105879Y400162D01*
X-107279Y401562D01*
X-106648Y403086D01*
X-49979D01*
X-49037Y401562D01*
X-49392Y399780D01*
Y391780D01*
X-48924Y389430D01*
X-47593Y387437D01*
X-45600Y386106D01*
X-43250Y385638D01*
X-40900Y386106D01*
X-38907Y387437D01*
X-37576Y389430D01*
X-37108Y391780D01*
Y399780D01*
X-37462Y401562D01*
X-36521Y403086D01*
X36521D01*
X37463Y401562D01*
X37108Y399780D01*
Y391780D01*
X37576Y389430D01*
X38907Y387437D01*
X40900Y386106D01*
X43250Y385638D01*
X45601Y386106D01*
X47593Y387437D01*
X48924Y389430D01*
X49392Y391780D01*
Y399780D01*
X49037Y401562D01*
X49979Y403086D01*
X106648D01*
X107279Y401562D01*
D02*
G37*
G36*
X-69088Y359918D02*
Y224790D01*
X-66040Y221742D01*
X-47244Y202946D01*
Y176784D01*
X-48768Y175260D01*
X-57912D01*
X-59436Y176784D01*
Y184436D01*
X-99060Y224060D01*
Y344170D01*
X-114300Y359410D01*
Y377190D01*
X-86360D01*
X-69088Y359918D01*
D02*
G37*
G36*
X107873Y-298400D02*
X99932Y-292862D01*
Y-291338D01*
X107873Y-285800D01*
Y-298400D01*
D02*
G37*
G36*
X62029Y-341638D02*
X61166Y-344394D01*
X58196Y-341424D01*
X60952Y-340561D01*
X62029Y-341638D01*
D02*
G37*
%LPC*%
G36*
X61900Y400524D02*
X60100D01*
X58437Y399835D01*
X57165Y398563D01*
X56476Y396900D01*
Y395100D01*
X57165Y393437D01*
X58437Y392165D01*
X60100Y391476D01*
X61900D01*
X63563Y392165D01*
X64835Y393437D01*
X65524Y395100D01*
Y396900D01*
X64835Y398563D01*
X63563Y399835D01*
X61900Y400524D01*
D02*
G37*
G36*
X-61054Y397430D02*
X-62854D01*
X-64517Y396741D01*
X-65789Y395469D01*
X-66478Y393806D01*
Y392006D01*
X-65789Y390343D01*
X-64517Y389071D01*
X-62854Y388382D01*
X-61054D01*
X-59391Y389071D01*
X-58119Y390343D01*
X-57430Y392006D01*
Y393806D01*
X-58119Y395469D01*
X-59391Y396741D01*
X-61054Y397430D01*
D02*
G37*
G36*
X32164Y387270D02*
X30364D01*
X28701Y386581D01*
X27429Y385309D01*
X26740Y383646D01*
Y382748D01*
X25216Y382117D01*
X21166Y386166D01*
X20000Y386650D01*
X-18000Y386650D01*
X-19167Y386166D01*
X-35166Y370166D01*
X-35650Y369000D01*
X-37108Y369158D01*
Y369480D01*
X-37576Y371830D01*
X-38907Y373823D01*
X-40900Y375154D01*
X-43250Y375622D01*
X-45600Y375154D01*
X-47593Y373823D01*
X-48924Y371830D01*
X-49392Y369480D01*
Y354480D01*
X-48924Y352130D01*
X-47593Y350137D01*
X-45600Y348806D01*
X-43250Y348338D01*
X-40900Y348806D01*
X-38907Y350137D01*
X-37576Y352130D01*
X-37174Y354150D01*
X-35650Y354000D01*
Y346000D01*
X-35166Y344834D01*
X-16166Y325834D01*
X-15000Y325350D01*
X2317D01*
X4350Y323317D01*
X4350Y226000D01*
X4834Y224834D01*
X21834Y207833D01*
X23000Y207350D01*
X47000D01*
X48166Y207833D01*
X52166Y211834D01*
X52650Y213000D01*
Y228000D01*
X52166Y229166D01*
X46166Y235166D01*
X45000Y235650D01*
X32683D01*
X23650Y244683D01*
Y323317D01*
X37166Y336834D01*
X37650Y338000D01*
Y349484D01*
X39174Y349959D01*
X40900Y348806D01*
X43250Y348338D01*
X45601Y348806D01*
X47593Y350137D01*
X48924Y352130D01*
X49392Y354480D01*
Y369480D01*
X48924Y371830D01*
X47593Y373823D01*
X45601Y375154D01*
X43250Y375622D01*
X40900Y375154D01*
X38907Y373823D01*
X37608Y371880D01*
X37567Y371828D01*
X35935Y371397D01*
X30635Y376698D01*
X31266Y378222D01*
X32164D01*
X33827Y378911D01*
X35099Y380183D01*
X35788Y381846D01*
Y383646D01*
X35099Y385309D01*
X33827Y386581D01*
X32164Y387270D01*
D02*
G37*
G36*
X61900Y335524D02*
X60100D01*
X58437Y334835D01*
X57165Y333563D01*
X56476Y331900D01*
Y330100D01*
X57165Y328437D01*
X58437Y327165D01*
X60100Y326476D01*
X61900D01*
X63563Y327165D01*
X64835Y328437D01*
X65524Y330100D01*
Y331900D01*
X64835Y333563D01*
X63563Y334835D01*
X61900Y335524D01*
D02*
G37*
G36*
X-34638Y320214D02*
X-36438D01*
X-38101Y319525D01*
X-39373Y318253D01*
X-40062Y316590D01*
Y314790D01*
X-39373Y313127D01*
X-38101Y311855D01*
X-36438Y311166D01*
X-34638D01*
X-32975Y311855D01*
X-31703Y313127D01*
X-31014Y314790D01*
Y316590D01*
X-31703Y318253D01*
X-32975Y319525D01*
X-34638Y320214D01*
D02*
G37*
G36*
X50158Y317928D02*
X48358D01*
X46695Y317239D01*
X45423Y315967D01*
X44734Y314304D01*
Y312504D01*
X45423Y310841D01*
X46695Y309569D01*
X48358Y308880D01*
X50158D01*
X51821Y309569D01*
X53093Y310841D01*
X53782Y312504D01*
Y314304D01*
X53093Y315967D01*
X51821Y317239D01*
X50158Y317928D01*
D02*
G37*
G36*
X-33868Y286050D02*
X-35668D01*
X-37331Y285361D01*
X-38603Y284089D01*
X-39292Y282426D01*
Y280626D01*
X-38603Y278963D01*
X-37331Y277691D01*
X-35668Y277002D01*
X-33868D01*
X-32205Y277691D01*
X-30933Y278963D01*
X-30244Y280626D01*
Y282426D01*
X-30933Y284089D01*
X-32205Y285361D01*
X-33868Y286050D01*
D02*
G37*
G36*
X-17134Y285702D02*
X-18934D01*
X-20597Y285013D01*
X-21869Y283741D01*
X-22558Y282078D01*
Y280278D01*
X-21869Y278615D01*
X-20597Y277343D01*
X-18934Y276654D01*
X-17134D01*
X-15471Y277343D01*
X-14199Y278615D01*
X-13510Y280278D01*
Y282078D01*
X-14199Y283741D01*
X-15471Y285013D01*
X-17134Y285702D01*
D02*
G37*
G36*
X-25552Y267552D02*
X-27472D01*
X-29246Y266817D01*
X-30603Y265460D01*
X-31338Y263686D01*
Y261766D01*
X-30603Y259992D01*
X-30146Y259534D01*
X-29325Y258539D01*
X-30146Y257543D01*
X-30603Y257086D01*
X-31338Y255312D01*
Y253392D01*
X-30603Y251618D01*
X-29246Y250261D01*
X-27472Y249526D01*
X-25552D01*
X-23778Y250261D01*
X-22421Y251618D01*
X-21686Y253392D01*
Y255312D01*
X-22421Y257086D01*
X-22878Y257543D01*
X-23699Y258539D01*
X-22878Y259534D01*
X-22421Y259992D01*
X-21686Y261766D01*
Y263686D01*
X-22421Y265460D01*
X-23778Y266817D01*
X-25552Y267552D01*
D02*
G37*
G36*
X-43020Y252904D02*
X-44820D01*
X-46483Y252215D01*
X-47755Y250943D01*
X-48444Y249280D01*
Y247480D01*
X-47755Y245817D01*
X-46483Y244545D01*
X-44820Y243856D01*
X-43020D01*
X-41357Y244545D01*
X-40085Y245817D01*
X-39396Y247480D01*
Y249280D01*
X-40085Y250943D01*
X-41357Y252215D01*
X-43020Y252904D01*
D02*
G37*
G36*
X-17756Y241216D02*
X-19556D01*
X-21219Y240527D01*
X-22491Y239255D01*
X-23180Y237592D01*
Y235792D01*
X-22491Y234129D01*
X-21219Y232857D01*
X-19556Y232168D01*
X-17756D01*
X-16093Y232857D01*
X-14821Y234129D01*
X-14132Y235792D01*
Y237592D01*
X-14821Y239255D01*
X-16093Y240527D01*
X-17756Y241216D01*
D02*
G37*
G36*
X-19614Y203200D02*
X-21414D01*
X-23077Y202511D01*
X-24349Y201239D01*
X-25038Y199576D01*
Y197776D01*
X-24349Y196113D01*
X-23077Y194841D01*
X-21414Y194152D01*
X-19614D01*
X-17951Y194841D01*
X-16679Y196113D01*
X-15990Y197776D01*
Y199576D01*
X-16679Y201239D01*
X-17951Y202511D01*
X-19614Y203200D01*
D02*
G37*
G36*
X-81904Y201374D02*
X-83704D01*
X-85367Y200685D01*
X-86639Y199413D01*
X-87328Y197750D01*
Y195950D01*
X-86639Y194287D01*
X-85367Y193015D01*
X-83704Y192326D01*
X-81904D01*
X-80241Y193015D01*
X-78969Y194287D01*
X-78280Y195950D01*
Y197750D01*
X-78969Y199413D01*
X-80241Y200685D01*
X-81904Y201374D01*
D02*
G37*
G36*
X59066Y171402D02*
X57266D01*
X55603Y170713D01*
X54331Y169441D01*
X53642Y167778D01*
Y165978D01*
X54331Y164315D01*
X55603Y163043D01*
X57266Y162354D01*
X59066D01*
X60729Y163043D01*
X62001Y164315D01*
X62690Y165978D01*
Y167778D01*
X62001Y169441D01*
X60729Y170713D01*
X59066Y171402D01*
D02*
G37*
G36*
X-4666Y170862D02*
X-6466D01*
X-8129Y170173D01*
X-9401Y168901D01*
X-10090Y167238D01*
Y165438D01*
X-9401Y163775D01*
X-8129Y162503D01*
X-6466Y161814D01*
X-4666D01*
X-3003Y162503D01*
X-1731Y163775D01*
X-1042Y165438D01*
Y167238D01*
X-1731Y168901D01*
X-3003Y170173D01*
X-4666Y170862D01*
D02*
G37*
G36*
X-48100Y140524D02*
X-49900D01*
X-51563Y139835D01*
X-52835Y138563D01*
X-53524Y136900D01*
Y135100D01*
X-52835Y133437D01*
X-51563Y132165D01*
X-49900Y131476D01*
X-48100D01*
X-46437Y132165D01*
X-45165Y133437D01*
X-44476Y135100D01*
Y136900D01*
X-45165Y138563D01*
X-46437Y139835D01*
X-48100Y140524D01*
D02*
G37*
G36*
X-32352Y133016D02*
X-34152D01*
X-35815Y132327D01*
X-37087Y131055D01*
X-37776Y129392D01*
Y127592D01*
X-37087Y125929D01*
X-35815Y124657D01*
X-34152Y123968D01*
X-32352D01*
X-30689Y124657D01*
X-29417Y125929D01*
X-28728Y127592D01*
Y129392D01*
X-29417Y131055D01*
X-30689Y132327D01*
X-32352Y133016D01*
D02*
G37*
G36*
X-62070D02*
X-63870D01*
X-65533Y132327D01*
X-66805Y131055D01*
X-67494Y129392D01*
Y127592D01*
X-66805Y125929D01*
X-65533Y124657D01*
X-63870Y123968D01*
X-62070D01*
X-60407Y124657D01*
X-59135Y125929D01*
X-58446Y127592D01*
Y129392D01*
X-59135Y131055D01*
X-60407Y132327D01*
X-62070Y133016D01*
D02*
G37*
G36*
X74328Y123110D02*
X72528D01*
X70865Y122421D01*
X69593Y121149D01*
X68904Y119486D01*
Y117686D01*
X69593Y116023D01*
X70865Y114751D01*
X72528Y114062D01*
X74328D01*
X75991Y114751D01*
X77263Y116023D01*
X77952Y117686D01*
Y119486D01*
X77263Y121149D01*
X75991Y122421D01*
X74328Y123110D01*
D02*
G37*
G36*
X-32352Y120570D02*
X-34152D01*
X-35815Y119881D01*
X-37087Y118609D01*
X-37776Y116946D01*
Y115146D01*
X-37087Y113483D01*
X-35815Y112211D01*
X-34152Y111522D01*
X-32352D01*
X-30689Y112211D01*
X-29417Y113483D01*
X-28728Y115146D01*
Y116946D01*
X-29417Y118609D01*
X-30689Y119881D01*
X-32352Y120570D01*
D02*
G37*
G36*
X-62070D02*
X-63870D01*
X-65533Y119881D01*
X-66805Y118609D01*
X-67494Y116946D01*
Y115146D01*
X-66805Y113483D01*
X-65533Y112211D01*
X-63870Y111522D01*
X-62070D01*
X-60407Y112211D01*
X-59135Y113483D01*
X-58446Y115146D01*
Y116946D01*
X-59135Y118609D01*
X-60407Y119881D01*
X-62070Y120570D01*
D02*
G37*
G36*
X-32352Y107616D02*
X-34152D01*
X-35815Y106927D01*
X-37087Y105655D01*
X-37776Y103992D01*
Y102192D01*
X-37087Y100529D01*
X-35815Y99257D01*
X-34152Y98568D01*
X-32352D01*
X-30689Y99257D01*
X-29417Y100529D01*
X-28728Y102192D01*
Y103992D01*
X-29417Y105655D01*
X-30689Y106927D01*
X-32352Y107616D01*
D02*
G37*
G36*
X-62070D02*
X-63870D01*
X-65533Y106927D01*
X-66805Y105655D01*
X-67494Y103992D01*
Y102192D01*
X-66805Y100529D01*
X-65533Y99257D01*
X-63870Y98568D01*
X-62070D01*
X-60407Y99257D01*
X-59135Y100529D01*
X-58446Y102192D01*
Y103992D01*
X-59135Y105655D01*
X-60407Y106927D01*
X-62070Y107616D01*
D02*
G37*
G36*
X24000Y90650D02*
X16000D01*
X14834Y90166D01*
X11607Y86940D01*
X10112Y87237D01*
X9953Y87621D01*
X8681Y88893D01*
X7018Y89582D01*
X5218D01*
X3555Y88893D01*
X2283Y87621D01*
X1594Y85958D01*
Y84158D01*
X2283Y82495D01*
X3555Y81223D01*
X3939Y81064D01*
X4236Y79569D01*
X1834Y77166D01*
X1350Y76000D01*
Y70340D01*
X1476Y70037D01*
Y69709D01*
X1626Y69346D01*
Y68202D01*
X1476Y67839D01*
Y67511D01*
X1350Y67208D01*
Y40683D01*
X-13683Y25650D01*
X-47000Y25650D01*
X-48166Y25166D01*
X-72166Y1166D01*
X-72650Y-0D01*
Y-9000D01*
X-72167Y-10166D01*
X-32166Y-50166D01*
X-31000Y-50650D01*
X-7683D01*
X13834Y-72166D01*
X15000Y-72650D01*
X20451D01*
X20844Y-73217D01*
X21229Y-74174D01*
X20644Y-75586D01*
Y-77386D01*
X21333Y-79049D01*
X22605Y-80321D01*
X24268Y-81010D01*
X26068D01*
X27731Y-80321D01*
X29003Y-79049D01*
X29692Y-77386D01*
Y-75586D01*
X29003Y-73923D01*
X28975Y-73895D01*
X28912Y-73230D01*
X29167Y-72166D01*
X39166Y-62166D01*
X39650Y-61000D01*
Y-27683D01*
X75166Y7834D01*
X75205Y7926D01*
X76961Y8325D01*
X78624Y7636D01*
X80424D01*
X82087Y8325D01*
X83359Y9597D01*
X84048Y11260D01*
Y13060D01*
X83359Y14723D01*
X82087Y15995D01*
X80424Y16684D01*
X78624D01*
X76961Y15995D01*
X76616Y15650D01*
X75197Y15177D01*
X74654Y15679D01*
X73166Y17166D01*
X72000Y17650D01*
X19683D01*
X17981Y19352D01*
X18612Y20876D01*
X18680D01*
X20343Y21565D01*
X21615Y22837D01*
X22304Y24500D01*
Y26300D01*
X21615Y27963D01*
X20343Y29235D01*
X18680Y29924D01*
X16880D01*
X15217Y29235D01*
X15174Y29192D01*
X13650Y29823D01*
Y33413D01*
X14349Y33842D01*
X15174Y34155D01*
X16648Y33544D01*
X18448D01*
X20111Y34233D01*
X21383Y35505D01*
X22072Y37168D01*
Y38968D01*
X21383Y40631D01*
X20111Y41903D01*
X18448Y42592D01*
X16648D01*
X15174Y41981D01*
X14349Y42294D01*
X13650Y42723D01*
Y68317D01*
X19683Y74350D01*
X24000D01*
X25166Y74834D01*
X27166Y76834D01*
X27650Y78000D01*
Y87000D01*
X27166Y88166D01*
X25166Y90166D01*
X24000Y90650D01*
D02*
G37*
G36*
X-62070Y95170D02*
X-63870D01*
X-65533Y94481D01*
X-66805Y93209D01*
X-67494Y91546D01*
Y89746D01*
X-66805Y88083D01*
X-65533Y86811D01*
X-63870Y86122D01*
X-62070D01*
X-60407Y86811D01*
X-59135Y88083D01*
X-58446Y89746D01*
Y91546D01*
X-59135Y93209D01*
X-60407Y94481D01*
X-62070Y95170D01*
D02*
G37*
G36*
X53900Y121524D02*
X52100D01*
X50437Y120835D01*
X49165Y119563D01*
X48476Y117900D01*
Y116100D01*
X49165Y114437D01*
X50437Y113165D01*
X52100Y112476D01*
X52477D01*
X52537Y112426D01*
X55072Y111632D01*
X58905Y107799D01*
Y84834D01*
X57381Y84531D01*
X56943Y85589D01*
X55671Y86861D01*
X54008Y87550D01*
X52208D01*
X50545Y86861D01*
X49273Y85589D01*
X48584Y83926D01*
Y82126D01*
X49273Y80463D01*
X50545Y79191D01*
X52208Y78502D01*
X54008D01*
X55671Y79191D01*
X56943Y80463D01*
X57381Y81521D01*
X58905Y81217D01*
Y69848D01*
X57381Y69545D01*
X56943Y70603D01*
X55671Y71875D01*
X54008Y72564D01*
X52208D01*
X50545Y71875D01*
X49273Y70603D01*
X48584Y68940D01*
Y67140D01*
X49273Y65477D01*
X50421Y64329D01*
X50488Y63468D01*
X50421Y62607D01*
X49273Y61459D01*
X48584Y59796D01*
Y57996D01*
X49273Y56333D01*
X50545Y55061D01*
X52208Y54372D01*
X54008D01*
X55671Y55061D01*
X56943Y56333D01*
X57632Y57996D01*
Y58373D01*
X57682Y58433D01*
X58476Y60968D01*
X62884Y65376D01*
X63389Y66132D01*
X63567Y67024D01*
Y108764D01*
X63389Y109656D01*
X62884Y110412D01*
X58368Y114928D01*
X57574Y117463D01*
X57524Y117523D01*
Y117900D01*
X56835Y119563D01*
X55563Y120835D01*
X53900Y121524D01*
D02*
G37*
G36*
X-59022Y75104D02*
X-60822D01*
X-62485Y74415D01*
X-63757Y73143D01*
X-64446Y71480D01*
Y69680D01*
X-63757Y68017D01*
X-62485Y66745D01*
X-60822Y66056D01*
X-59022D01*
X-57359Y66745D01*
X-56087Y68017D01*
X-55398Y69680D01*
Y71480D01*
X-56087Y73143D01*
X-57359Y74415D01*
X-59022Y75104D01*
D02*
G37*
G36*
X78370Y73358D02*
X76570D01*
X74907Y72669D01*
X73635Y71397D01*
X72946Y69734D01*
Y67934D01*
X73635Y66271D01*
X74907Y64999D01*
X75040Y64944D01*
X74736Y63420D01*
X73290D01*
X71627Y62731D01*
X70479Y61583D01*
X69618Y61516D01*
X68757Y61583D01*
X67609Y62731D01*
X65946Y63420D01*
X64146D01*
X62483Y62731D01*
X61211Y61459D01*
X60522Y59796D01*
Y57996D01*
X61211Y56333D01*
X62483Y55061D01*
X64146Y54372D01*
X65946D01*
X67609Y55061D01*
X68757Y56209D01*
X69618Y56276D01*
X70479Y56209D01*
X71627Y55061D01*
X73290Y54372D01*
X75090D01*
X76753Y55061D01*
X78025Y56333D01*
X78714Y57996D01*
Y59796D01*
X78025Y61459D01*
X76753Y62731D01*
X76620Y62786D01*
X76923Y64310D01*
X78370D01*
X80033Y64999D01*
X81305Y66271D01*
X81994Y67934D01*
Y69734D01*
X81305Y71397D01*
X80033Y72669D01*
X78370Y73358D01*
D02*
G37*
G36*
X922Y110918D02*
X-878D01*
X-2541Y110229D01*
X-3813Y108957D01*
X-4429Y107471D01*
X-4484Y107414D01*
X-5529Y104767D01*
X-20648Y89648D01*
X-21153Y88892D01*
X-21331Y88000D01*
Y44261D01*
X-22562Y41907D01*
X-22569Y41829D01*
X-22835Y41563D01*
X-23524Y39900D01*
Y38100D01*
X-22835Y36437D01*
X-21563Y35165D01*
X-19900Y34476D01*
X-18100D01*
X-16437Y35165D01*
X-15165Y36437D01*
X-14476Y38100D01*
Y39900D01*
X-15165Y41563D01*
X-15431Y41829D01*
X-15438Y41907D01*
X-16669Y44261D01*
Y87035D01*
X-2448Y101256D01*
X-66Y101828D01*
X-8Y101870D01*
X922D01*
X2585Y102559D01*
X3857Y103831D01*
X4546Y105494D01*
Y107294D01*
X3857Y108957D01*
X2585Y110229D01*
X922Y110918D01*
D02*
G37*
G36*
X28900Y34524D02*
X27100D01*
X25437Y33835D01*
X24165Y32563D01*
X23476Y30900D01*
Y29100D01*
X24165Y27437D01*
X25437Y26165D01*
X27100Y25476D01*
X28900D01*
X30563Y26165D01*
X31835Y27437D01*
X32524Y29100D01*
Y30900D01*
X31835Y32563D01*
X30563Y33835D01*
X28900Y34524D01*
D02*
G37*
G36*
X-82644Y30908D02*
X-84444D01*
X-86107Y30219D01*
X-87379Y28947D01*
X-88068Y27284D01*
Y25484D01*
X-87379Y23821D01*
X-86107Y22549D01*
X-84444Y21860D01*
X-82644D01*
X-80981Y22549D01*
X-79709Y23821D01*
X-79020Y25484D01*
Y27284D01*
X-79709Y28947D01*
X-80981Y30219D01*
X-82644Y30908D01*
D02*
G37*
G36*
X-82644Y9318D02*
X-84444D01*
X-86107Y8629D01*
X-87379Y7357D01*
X-88068Y5694D01*
Y3894D01*
X-87379Y2231D01*
X-86107Y959D01*
X-84444Y270D01*
X-82644D01*
X-80981Y959D01*
X-79709Y2231D01*
X-79020Y3894D01*
Y5694D01*
X-79709Y7357D01*
X-80981Y8629D01*
X-82644Y9318D01*
D02*
G37*
G36*
X80424Y-7700D02*
X78624D01*
X76961Y-8389D01*
X75689Y-9661D01*
X75000Y-11324D01*
Y-13124D01*
X75689Y-14787D01*
X76961Y-16059D01*
X78624Y-16748D01*
X80424D01*
X82087Y-16059D01*
X83359Y-14787D01*
X84048Y-13124D01*
Y-11324D01*
X83359Y-9661D01*
X82087Y-8389D01*
X80424Y-7700D01*
D02*
G37*
G36*
X-82006Y-27858D02*
X-83806D01*
X-85469Y-28547D01*
X-86741Y-29819D01*
X-87430Y-31482D01*
Y-33282D01*
X-86741Y-34945D01*
X-85469Y-36217D01*
X-83806Y-36906D01*
X-82006D01*
X-80343Y-36217D01*
X-79071Y-34945D01*
X-78382Y-33282D01*
Y-31482D01*
X-79071Y-29819D01*
X-80343Y-28547D01*
X-82006Y-27858D01*
D02*
G37*
G36*
X75090Y-57230D02*
X73290D01*
X71627Y-57919D01*
X70355Y-59191D01*
X70189Y-59592D01*
X68539D01*
X68373Y-59191D01*
X67101Y-57919D01*
X65438Y-57230D01*
X63638D01*
X61975Y-57919D01*
X60703Y-59191D01*
X60014Y-60854D01*
Y-62654D01*
X60703Y-64317D01*
X61975Y-65589D01*
X63638Y-66278D01*
X65438D01*
X67101Y-65589D01*
X68373Y-64317D01*
X68539Y-63916D01*
X70189D01*
X70355Y-64317D01*
X71627Y-65589D01*
X73290Y-66278D01*
X75090D01*
X76753Y-65589D01*
X78025Y-64317D01*
X78714Y-62654D01*
Y-60854D01*
X78025Y-59191D01*
X76753Y-57919D01*
X75090Y-57230D01*
D02*
G37*
G36*
X-2380Y-62564D02*
X-4180D01*
X-5843Y-63253D01*
X-7115Y-64525D01*
X-7804Y-66188D01*
Y-67988D01*
X-7115Y-69651D01*
X-5843Y-70923D01*
X-4180Y-71612D01*
X-2380D01*
X-717Y-70923D01*
X555Y-69651D01*
X1244Y-67988D01*
Y-66188D01*
X555Y-64525D01*
X-717Y-63253D01*
X-2380Y-62564D01*
D02*
G37*
G36*
X-42258Y-73486D02*
X-44058D01*
X-45721Y-74175D01*
X-46993Y-75447D01*
X-47682Y-77110D01*
Y-78910D01*
X-46993Y-80573D01*
X-45721Y-81845D01*
X-44058Y-82534D01*
X-42258D01*
X-40595Y-81845D01*
X-39323Y-80573D01*
X-38634Y-78910D01*
Y-77110D01*
X-39323Y-75447D01*
X-40595Y-74175D01*
X-42258Y-73486D01*
D02*
G37*
G36*
X-19652Y-88472D02*
X-21452D01*
X-23115Y-89161D01*
X-24387Y-90433D01*
X-25076Y-92096D01*
Y-93896D01*
X-24387Y-95559D01*
X-23115Y-96831D01*
X-21452Y-97520D01*
X-19652D01*
X-17989Y-96831D01*
X-16717Y-95559D01*
X-16028Y-93896D01*
Y-92096D01*
X-16717Y-90433D01*
X-17989Y-89161D01*
X-19652Y-88472D01*
D02*
G37*
G36*
X27338Y-88726D02*
X25538D01*
X23875Y-89415D01*
X22603Y-90687D01*
X21914Y-92350D01*
Y-94150D01*
X22603Y-95813D01*
X23875Y-97085D01*
X25538Y-97774D01*
X27338D01*
X29001Y-97085D01*
X30273Y-95813D01*
X30962Y-94150D01*
Y-92350D01*
X30273Y-90687D01*
X29001Y-89415D01*
X27338Y-88726D01*
D02*
G37*
G36*
X58050Y283416D02*
X56250D01*
X54587Y282727D01*
X53315Y281455D01*
X52626Y279792D01*
Y277992D01*
X53315Y276329D01*
X54587Y275057D01*
X54819Y274961D01*
Y211023D01*
X43485Y199689D01*
X3423D01*
X3327Y199921D01*
X2055Y201193D01*
X392Y201882D01*
X-1408D01*
X-3071Y201193D01*
X-4343Y199921D01*
X-5032Y198258D01*
Y196458D01*
X-4343Y194795D01*
X-3071Y193523D01*
X-1408Y192834D01*
X392D01*
X2055Y193523D01*
X3327Y194795D01*
X3423Y195027D01*
X44450D01*
X45342Y195205D01*
X46098Y195710D01*
X58798Y208410D01*
X59303Y209166D01*
X59481Y210058D01*
Y249920D01*
X61005Y250551D01*
X61667Y249889D01*
X63330Y249200D01*
X65130D01*
X66793Y249889D01*
X68065Y251161D01*
X68754Y252824D01*
Y253201D01*
X68804Y253261D01*
X69459Y255352D01*
X83998D01*
X92179Y247171D01*
Y-63275D01*
X61508Y-93946D01*
X58973Y-94740D01*
X58913Y-94790D01*
X58536D01*
X56873Y-95479D01*
X55601Y-96751D01*
X54912Y-98414D01*
Y-100214D01*
X55601Y-101877D01*
X56873Y-103149D01*
X58536Y-103838D01*
X60336D01*
X61999Y-103149D01*
X63271Y-101877D01*
X63960Y-100214D01*
Y-99837D01*
X64010Y-99777D01*
X64804Y-97242D01*
X96158Y-65888D01*
X96663Y-65132D01*
X96841Y-64240D01*
Y248136D01*
X96663Y249028D01*
X96158Y249784D01*
X86611Y259331D01*
X85855Y259836D01*
X84963Y260014D01*
X68189D01*
X67297Y259836D01*
X66541Y259331D01*
X66302Y259093D01*
X63767Y258298D01*
X63707Y258248D01*
X63330D01*
X61667Y257559D01*
X61005Y256897D01*
X59481Y257528D01*
Y274961D01*
X59713Y275057D01*
X60985Y276329D01*
X61674Y277992D01*
Y279792D01*
X60985Y281455D01*
X59713Y282727D01*
X58050Y283416D01*
D02*
G37*
G36*
X45604Y-116888D02*
X43804D01*
X42141Y-117577D01*
X40869Y-118849D01*
X40180Y-120512D01*
Y-122312D01*
X40869Y-123975D01*
X42141Y-125247D01*
X43804Y-125936D01*
X45604D01*
X47267Y-125247D01*
X48539Y-123975D01*
X49228Y-122312D01*
Y-120512D01*
X48539Y-118849D01*
X47267Y-117577D01*
X45604Y-116888D01*
D02*
G37*
G36*
X2424Y-169720D02*
X624D01*
X-1039Y-170409D01*
X-2311Y-171681D01*
X-3000Y-173344D01*
Y-175144D01*
X-2311Y-176807D01*
X-1039Y-178079D01*
X624Y-178768D01*
X2424D01*
X4087Y-178079D01*
X5359Y-176807D01*
X6048Y-175144D01*
Y-173344D01*
X5359Y-171681D01*
X4087Y-170409D01*
X2424Y-169720D01*
D02*
G37*
G36*
X-14340Y-183182D02*
X-16140D01*
X-17803Y-183871D01*
X-19075Y-185143D01*
X-19764Y-186806D01*
Y-188606D01*
X-19075Y-190269D01*
X-17803Y-191541D01*
X-16140Y-192230D01*
X-14340D01*
X-12677Y-191541D01*
X-11405Y-190269D01*
X-10716Y-188606D01*
Y-186806D01*
X-11405Y-185143D01*
X-12677Y-183871D01*
X-14340Y-183182D01*
D02*
G37*
G36*
X43572Y-208836D02*
X41772D01*
X40109Y-209525D01*
X38837Y-210797D01*
X38148Y-212460D01*
Y-214260D01*
X38837Y-215923D01*
X40109Y-217195D01*
X41772Y-217884D01*
X43572D01*
X45235Y-217195D01*
X46507Y-215923D01*
X47196Y-214260D01*
Y-212460D01*
X46507Y-210797D01*
X45235Y-209525D01*
X43572Y-208836D01*
D02*
G37*
G36*
X-37962Y-241348D02*
X-39762D01*
X-41425Y-242037D01*
X-42697Y-243309D01*
X-43386Y-244972D01*
Y-246772D01*
X-42697Y-248435D01*
X-41425Y-249707D01*
X-39762Y-250396D01*
X-37962D01*
X-36299Y-249707D01*
X-35027Y-248435D01*
X-34338Y-246772D01*
Y-244972D01*
X-35027Y-243309D01*
X-36299Y-242037D01*
X-37962Y-241348D01*
D02*
G37*
G36*
X-62854Y-246682D02*
X-64654D01*
X-66317Y-247371D01*
X-67589Y-248643D01*
X-68278Y-250306D01*
Y-252106D01*
X-67589Y-253769D01*
X-66317Y-255041D01*
X-64654Y-255730D01*
X-62854D01*
X-61191Y-255041D01*
X-59919Y-253769D01*
X-59230Y-252106D01*
Y-250306D01*
X-59919Y-248643D01*
X-61191Y-247371D01*
X-62854Y-246682D01*
D02*
G37*
G36*
X44080Y-265986D02*
X42280D01*
X40617Y-266675D01*
X39345Y-267947D01*
X38656Y-269610D01*
Y-271410D01*
X39345Y-273073D01*
X40617Y-274345D01*
X42280Y-275034D01*
X44080D01*
X45743Y-274345D01*
X47015Y-273073D01*
X47704Y-271410D01*
Y-269610D01*
X47015Y-267947D01*
X45743Y-266675D01*
X44080Y-265986D01*
D02*
G37*
G36*
X-13100Y-272476D02*
X-14900D01*
X-16563Y-273165D01*
X-17835Y-274437D01*
X-18524Y-276100D01*
Y-277900D01*
X-17835Y-279563D01*
X-16563Y-280835D01*
X-14900Y-281524D01*
X-13100D01*
X-11437Y-280835D01*
X-10165Y-279563D01*
X-9476Y-277900D01*
Y-276100D01*
X-10165Y-274437D01*
X-11437Y-273165D01*
X-13100Y-272476D01*
D02*
G37*
G36*
X19900Y-298476D02*
X18100D01*
X16437Y-299165D01*
X15165Y-300437D01*
X14476Y-302100D01*
Y-303900D01*
X15165Y-305563D01*
X16437Y-306835D01*
X18100Y-307524D01*
X19900D01*
X21563Y-306835D01*
X22835Y-305563D01*
X23524Y-303900D01*
Y-302100D01*
X22835Y-300437D01*
X21563Y-299165D01*
X19900Y-298476D01*
D02*
G37*
G36*
X-62353Y-298752D02*
X-64153D01*
X-65816Y-299441D01*
X-67088Y-300713D01*
X-67777Y-302376D01*
Y-304176D01*
X-67088Y-305839D01*
X-65816Y-307111D01*
X-64153Y-307800D01*
X-62353D01*
X-60690Y-307111D01*
X-59418Y-305839D01*
X-58729Y-304176D01*
Y-302376D01*
X-59418Y-300713D01*
X-60690Y-299441D01*
X-62353Y-298752D01*
D02*
G37*
G36*
X19900Y-309476D02*
X18100D01*
X16437Y-310165D01*
X15165Y-311437D01*
X14476Y-313100D01*
Y-314900D01*
X15165Y-316563D01*
X16437Y-317835D01*
X18100Y-318524D01*
X19900D01*
X21563Y-317835D01*
X22835Y-316563D01*
X23524Y-314900D01*
Y-313100D01*
X22835Y-311437D01*
X21563Y-310165D01*
X19900Y-309476D01*
D02*
G37*
G36*
X102014Y-350346D02*
X100214D01*
X98551Y-351035D01*
X97279Y-352307D01*
X96590Y-353970D01*
Y-355770D01*
X97279Y-357433D01*
X98551Y-358705D01*
X100214Y-359394D01*
X102014D01*
X103677Y-358705D01*
X104949Y-357433D01*
X105638Y-355770D01*
Y-353970D01*
X104949Y-352307D01*
X103677Y-351035D01*
X102014Y-350346D01*
D02*
G37*
%LPD*%
G36*
X36000Y369000D02*
Y338000D01*
X22000Y324000D01*
Y244000D01*
X32000Y234000D01*
X45000D01*
X51000Y228000D01*
Y213000D01*
X47000Y209000D01*
X23000D01*
X6000Y226000D01*
X6000Y324000D01*
X3000Y327000D01*
X-15000D01*
X-34000Y346000D01*
Y369000D01*
X-18000Y385000D01*
X20000Y385000D01*
X36000Y369000D01*
D02*
G37*
%LPC*%
G36*
X22200Y370454D02*
X20300D01*
X18546Y369727D01*
X17996Y369177D01*
X17000Y368518D01*
X16004Y369177D01*
X15454Y369727D01*
X13700Y370454D01*
X11800D01*
X10046Y369727D01*
X9496Y369177D01*
X8500Y368518D01*
X7504Y369177D01*
X6954Y369727D01*
X5200Y370454D01*
X3300D01*
X1546Y369727D01*
X996Y369177D01*
X0Y368518D01*
X-996Y369177D01*
X-1546Y369727D01*
X-3300Y370454D01*
X-5200D01*
X-6954Y369727D01*
X-7504Y369177D01*
X-8500Y368518D01*
X-9496Y369177D01*
X-10046Y369727D01*
X-11800Y370454D01*
X-13700D01*
X-15454Y369727D01*
X-16004Y369177D01*
X-17000Y368518D01*
X-17996Y369177D01*
X-18546Y369727D01*
X-20300Y370454D01*
X-22200D01*
X-23954Y369727D01*
X-25297Y368384D01*
X-26024Y366630D01*
Y364730D01*
X-25297Y362976D01*
X-23954Y361633D01*
X-22200Y360906D01*
X-20300D01*
X-18546Y361633D01*
X-17996Y362183D01*
X-17000Y362842D01*
X-16004Y362183D01*
X-15454Y361633D01*
X-13700Y360906D01*
X-11800D01*
X-10046Y361633D01*
X-9496Y362183D01*
X-8500Y362842D01*
X-7504Y362183D01*
X-6954Y361633D01*
X-5200Y360906D01*
X-3300D01*
X-1546Y361633D01*
X-996Y362183D01*
X0Y362842D01*
X996Y362183D01*
X1546Y361633D01*
X3300Y360906D01*
X5200D01*
X6954Y361633D01*
X7504Y362183D01*
X8500Y362842D01*
X9496Y362183D01*
X10046Y361633D01*
X11800Y360906D01*
X13700D01*
X15454Y361633D01*
X16004Y362183D01*
X17000Y362842D01*
X17996Y362183D01*
X18546Y361633D01*
X20300Y360906D01*
X22200D01*
X23954Y361633D01*
X25297Y362976D01*
X26024Y364730D01*
Y366630D01*
X25297Y368384D01*
X23954Y369727D01*
X22200Y370454D01*
D02*
G37*
G36*
Y356954D02*
X20300D01*
X18546Y356227D01*
X17996Y355677D01*
X17000Y355018D01*
X16004Y355677D01*
X15454Y356227D01*
X13700Y356954D01*
X11800D01*
X10046Y356227D01*
X9496Y355677D01*
X8500Y355019D01*
X7504Y355677D01*
X6954Y356227D01*
X5200Y356954D01*
X3300D01*
X1546Y356227D01*
X996Y355677D01*
X0Y355019D01*
X-996Y355677D01*
X-1546Y356227D01*
X-3300Y356954D01*
X-5200D01*
X-6954Y356227D01*
X-7504Y355677D01*
X-8500Y355019D01*
X-9496Y355677D01*
X-10046Y356227D01*
X-11800Y356954D01*
X-13700D01*
X-15454Y356227D01*
X-16004Y355677D01*
X-17000Y355018D01*
X-17996Y355677D01*
X-18546Y356227D01*
X-20300Y356954D01*
X-22200D01*
X-23954Y356227D01*
X-25297Y354884D01*
X-26024Y353130D01*
Y351230D01*
X-25297Y349476D01*
X-23954Y348133D01*
X-22200Y347406D01*
X-20300D01*
X-18546Y348133D01*
X-17996Y348683D01*
X-17000Y349342D01*
X-16004Y348683D01*
X-15454Y348133D01*
X-13700Y347406D01*
X-11800D01*
X-10046Y348133D01*
X-9496Y348683D01*
X-8500Y349342D01*
X-7504Y348683D01*
X-6954Y348133D01*
X-5200Y347406D01*
X-3300D01*
X-1546Y348133D01*
X-996Y348683D01*
X0Y349342D01*
X996Y348683D01*
X1546Y348133D01*
X3300Y347406D01*
X5200D01*
X6954Y348133D01*
X7504Y348683D01*
X8500Y349342D01*
X9496Y348683D01*
X10046Y348133D01*
X11800Y347406D01*
X13700D01*
X15454Y348133D01*
X16004Y348683D01*
X17000Y349342D01*
X17996Y348683D01*
X18546Y348133D01*
X20300Y347406D01*
X22200D01*
X23954Y348133D01*
X25297Y349476D01*
X26024Y351230D01*
Y353130D01*
X25297Y354884D01*
X23954Y356227D01*
X22200Y356954D01*
D02*
G37*
G36*
X38900Y230524D02*
X37100D01*
X35437Y229835D01*
X34165Y228563D01*
X33476Y226900D01*
Y225100D01*
X34165Y223437D01*
X35211Y222391D01*
X35341Y221500D01*
X35211Y220609D01*
X34165Y219563D01*
X33476Y217900D01*
Y216100D01*
X34165Y214437D01*
X35437Y213165D01*
X37100Y212476D01*
X38900D01*
X40563Y213165D01*
X41835Y214437D01*
X42524Y216100D01*
Y217900D01*
X41835Y219563D01*
X40789Y220609D01*
X40659Y221500D01*
X40789Y222391D01*
X41835Y223437D01*
X42524Y225100D01*
Y226900D01*
X41835Y228563D01*
X40563Y229835D01*
X38900Y230524D01*
D02*
G37*
%LPD*%
G36*
X26000Y87000D02*
Y78000D01*
X24000Y76000D01*
X19000D01*
X12000Y69000D01*
Y23000D01*
X19000Y16000D01*
X72000D01*
X74000Y14000D01*
Y9000D01*
X38000Y-27000D01*
Y-61000D01*
X28000Y-71000D01*
X15000D01*
X-7000Y-49000D01*
X-31000D01*
X-71000Y-9000D01*
Y-0D01*
X-47000Y24000D01*
X-13000Y24000D01*
X3000Y40000D01*
Y67208D01*
X3276Y67874D01*
Y69674D01*
X3000Y70340D01*
Y76000D01*
X7899Y80899D01*
X8681Y81223D01*
X9953Y82495D01*
X10277Y83277D01*
X16000Y89000D01*
X24000D01*
X26000Y87000D01*
D02*
G37*
%LPC*%
G36*
X800Y15024D02*
X-800D01*
X-2279Y14411D01*
X-3411Y13280D01*
X-4024Y11801D01*
Y10200D01*
X-3411Y8721D01*
X-2279Y7589D01*
X-800Y6976D01*
X800D01*
X2279Y7589D01*
X3411Y8721D01*
X4024Y10200D01*
Y11801D01*
X3411Y13280D01*
X2279Y14411D01*
X800Y15024D01*
D02*
G37*
G36*
X11800Y15024D02*
X10200D01*
X8721Y14411D01*
X7589Y13279D01*
X6976Y11800D01*
Y10200D01*
X7589Y8721D01*
X8721Y7589D01*
X10200Y6976D01*
X11800D01*
X13279Y7589D01*
X14411Y8721D01*
X15024Y10200D01*
Y11800D01*
X14411Y13279D01*
X13279Y14411D01*
X11800Y15024D01*
D02*
G37*
G36*
X-10200D02*
X-11800D01*
X-13279Y14411D01*
X-14411Y13279D01*
X-15024Y11800D01*
Y10200D01*
X-14411Y8721D01*
X-13279Y7589D01*
X-11800Y6976D01*
X-10200D01*
X-8720Y7589D01*
X-7589Y8721D01*
X-6976Y10200D01*
Y11800D01*
X-7589Y13279D01*
X-8720Y14411D01*
X-10200Y15024D01*
D02*
G37*
G36*
X11801Y4024D02*
X10200D01*
X8721Y3411D01*
X7589Y2279D01*
X6976Y800D01*
Y-800D01*
X7589Y-2279D01*
X8721Y-3411D01*
X10200Y-4024D01*
X11801D01*
X13280Y-3411D01*
X14411Y-2279D01*
X15024Y-800D01*
Y800D01*
X14411Y2279D01*
X13280Y3411D01*
X11801Y4024D01*
D02*
G37*
G36*
X800D02*
X-800D01*
X-2279Y3411D01*
X-3411Y2279D01*
X-4024Y800D01*
Y-800D01*
X-3411Y-2279D01*
X-2279Y-3411D01*
X-800Y-4024D01*
X800D01*
X2279Y-3411D01*
X3411Y-2279D01*
X4024Y-800D01*
Y800D01*
X3411Y2279D01*
X2279Y3411D01*
X800Y4024D01*
D02*
G37*
G36*
X-10200D02*
X-11800D01*
X-13279Y3411D01*
X-14411Y2279D01*
X-15024Y800D01*
Y-800D01*
X-14411Y-2279D01*
X-13279Y-3411D01*
X-11800Y-4024D01*
X-10200D01*
X-8721Y-3411D01*
X-7589Y-2279D01*
X-6976Y-800D01*
Y800D01*
X-7589Y2279D01*
X-8721Y3411D01*
X-10200Y4024D01*
D02*
G37*
G36*
X11800Y-6976D02*
X10200D01*
X8721Y-7589D01*
X7589Y-8720D01*
X6976Y-10200D01*
Y-11800D01*
X7589Y-13279D01*
X8721Y-14411D01*
X10200Y-15024D01*
X11800D01*
X13279Y-14411D01*
X14411Y-13279D01*
X15024Y-11800D01*
Y-10200D01*
X14411Y-8720D01*
X13279Y-7589D01*
X11800Y-6976D01*
D02*
G37*
G36*
X-10200D02*
X-11800D01*
X-13279Y-7589D01*
X-14411Y-8720D01*
X-15024Y-10200D01*
Y-11800D01*
X-14411Y-13279D01*
X-13279Y-14411D01*
X-11800Y-15024D01*
X-10200D01*
X-8720Y-14411D01*
X-7589Y-13279D01*
X-6976Y-11800D01*
Y-10200D01*
X-7589Y-8720D01*
X-8720Y-7589D01*
X-10200Y-6976D01*
D02*
G37*
G36*
X800Y-6976D02*
X-800D01*
X-2279Y-7589D01*
X-3411Y-8721D01*
X-4024Y-10200D01*
Y-11800D01*
X-3411Y-13279D01*
X-2279Y-14411D01*
X-800Y-15024D01*
X800D01*
X2279Y-14411D01*
X3411Y-13279D01*
X4024Y-11800D01*
Y-10200D01*
X3411Y-8721D01*
X2279Y-7589D01*
X800Y-6976D01*
D02*
G37*
G36*
X24776Y-28496D02*
X22976D01*
X21313Y-29185D01*
X20041Y-30457D01*
X19748Y-31165D01*
X18098D01*
X17805Y-30457D01*
X16533Y-29185D01*
X14870Y-28496D01*
X13070D01*
X11407Y-29185D01*
X10135Y-30457D01*
X10096Y-30551D01*
X8446D01*
X8407Y-30457D01*
X7135Y-29185D01*
X5472Y-28496D01*
X3672D01*
X2009Y-29185D01*
X1041Y-30153D01*
X127Y-30336D01*
X-787Y-30153D01*
X-1755Y-29185D01*
X-3418Y-28496D01*
X-5218D01*
X-6881Y-29185D01*
X-8153Y-30457D01*
X-8842Y-32120D01*
Y-33920D01*
X-8153Y-35583D01*
X-6881Y-36855D01*
X-5218Y-37544D01*
X-3418D01*
X-1755Y-36855D01*
X-787Y-35887D01*
X127Y-35704D01*
X1041Y-35887D01*
X2009Y-36855D01*
X3672Y-37544D01*
X5472D01*
X7135Y-36855D01*
X8407Y-35583D01*
X8446Y-35489D01*
X10096D01*
X10135Y-35583D01*
X11407Y-36855D01*
X13070Y-37544D01*
X14870D01*
X16533Y-36855D01*
X17805Y-35583D01*
X18098Y-34875D01*
X19748D01*
X20041Y-35583D01*
X21313Y-36855D01*
X22976Y-37544D01*
X24776D01*
X26439Y-36855D01*
X27711Y-35583D01*
X28400Y-33920D01*
Y-32120D01*
X27711Y-30457D01*
X26439Y-29185D01*
X24776Y-28496D01*
D02*
G37*
%LPD*%
G36*
X56863Y114214D02*
X55786Y113137D01*
X53030Y114000D01*
X56000Y116970D01*
X56863Y114214D01*
D02*
G37*
G36*
X56971Y61682D02*
X56108Y58926D01*
X53138Y61896D01*
X55894Y62759D01*
X56971Y61682D01*
D02*
G37*
G36*
X-452Y103432D02*
X-3135Y102787D01*
X-4046Y104032D01*
X-2949Y106808D01*
X-452Y103432D01*
D02*
G37*
G36*
X-16900Y41142D02*
X-21100D01*
X-19762Y43702D01*
X-18238D01*
X-16900Y41142D01*
D02*
G37*
G36*
X68093Y256510D02*
X67230Y253754D01*
X64260Y256724D01*
X67016Y257587D01*
X68093Y256510D01*
D02*
G37*
G36*
X63299Y-96528D02*
X62436Y-99284D01*
X59466Y-96314D01*
X62222Y-95451D01*
X63299Y-96528D01*
D02*
G37*
D14*
X44450Y197358D02*
X57150Y210058D01*
Y278892D01*
X-508Y197358D02*
X44450D01*
X53000Y117000D02*
X61236Y108764D01*
Y67024D02*
Y108764D01*
X-19000Y88000D02*
X0Y107000D01*
X-19000Y39000D02*
Y88000D01*
X64230Y253724D02*
X68189Y257683D01*
X84963D01*
X94510Y248136D01*
Y-64240D02*
Y248136D01*
X59436Y-99314D02*
X94510Y-64240D01*
X94234Y-292100D02*
X114300D01*
X84582Y-301752D02*
X94234Y-292100D01*
X84582Y-318008D02*
Y-301752D01*
X58166Y-344424D02*
X84582Y-318008D01*
X53108Y58896D02*
X61236Y67024D01*
D54*
X43250Y395780D02*
D03*
X-43250D02*
D03*
D55*
X43250Y361980D02*
D03*
X-43250D02*
D03*
D56*
X29750Y352180D02*
D03*
X21250D02*
D03*
X12750D02*
D03*
X4250D02*
D03*
X-4250D02*
D03*
X-12750D02*
D03*
X-21250D02*
D03*
X-29750D02*
D03*
Y365680D02*
D03*
X-21250D02*
D03*
X-12750D02*
D03*
X-4250D02*
D03*
X4250D02*
D03*
X12750D02*
D03*
X21250D02*
D03*
X29750D02*
D03*
D59*
X-53453Y183529D02*
X-53340Y183642D01*
X-53453Y183031D02*
Y183529D01*
X-56508Y179976D02*
X-53453Y183031D01*
X-53340Y183642D02*
Y189079D01*
X-76686Y212425D02*
X-53340Y189079D01*
X-56508Y178389D02*
Y179976D01*
X-114300Y368300D02*
X-94244D01*
X-76686Y350742D01*
Y212425D02*
Y350742D01*
X-56620Y178276D02*
X-56508Y178389D01*
D66*
X-75000Y-300000D02*
D03*
X19000Y-314000D02*
D03*
Y-303000D02*
D03*
X61000Y396000D02*
D03*
X28000Y30000D02*
D03*
X40000Y38000D02*
D03*
X-49000Y136000D02*
D03*
X61000Y331000D02*
D03*
X53000Y117000D02*
D03*
X-53684Y304514D02*
D03*
X38000Y217000D02*
D03*
Y226000D02*
D03*
X-14000Y-277000D02*
D03*
X-3000Y141000D02*
D03*
X-19000Y39000D02*
D03*
X17780Y221488D02*
D03*
X44450D02*
D03*
X-1270Y381508D02*
D03*
X-64262Y181102D02*
D03*
X-53340Y183642D02*
D03*
X-50038Y178308D02*
D03*
X-18034Y281178D02*
D03*
X-34768Y281526D02*
D03*
X-82804Y196850D02*
D03*
X-7112Y331470D02*
D03*
X17780Y25400D02*
D03*
X-4318Y-33020D02*
D03*
X4572D02*
D03*
X23876D02*
D03*
X13970D02*
D03*
X77470Y68834D02*
D03*
X64230Y253724D02*
D03*
X59436Y-99314D02*
D03*
X57150Y278892D02*
D03*
X-508Y197358D02*
D03*
X58166Y-344424D02*
D03*
X43180Y-295656D02*
D03*
Y-270510D02*
D03*
X-63253Y-303276D02*
D03*
X-63754Y-251206D02*
D03*
X-38862Y-245872D02*
D03*
X44704Y-121412D02*
D03*
X1524Y-174244D02*
D03*
X-23622D02*
D03*
X42672Y-213360D02*
D03*
X63754Y-258318D02*
D03*
Y-245872D02*
D03*
X54356Y-230378D02*
D03*
X-15240Y-187706D02*
D03*
X58166Y166878D02*
D03*
X49258Y313404D02*
D03*
X31264Y382746D02*
D03*
X-60684Y304514D02*
D03*
X-56620Y178276D02*
D03*
X-18656Y236692D02*
D03*
X-43920Y248380D02*
D03*
X-20514Y198676D02*
D03*
X22Y106394D02*
D03*
X-61954Y392906D02*
D03*
X-63732Y260572D02*
D03*
X-35538Y315690D02*
D03*
X79524Y12160D02*
D03*
Y-12224D02*
D03*
X-94466Y178530D02*
D03*
X73428Y118586D02*
D03*
Y109442D02*
D03*
X6118Y85058D02*
D03*
X53108Y58896D02*
D03*
Y68040D02*
D03*
Y83026D02*
D03*
X74190Y58896D02*
D03*
X65046D02*
D03*
X64538Y-61754D02*
D03*
X74190D02*
D03*
X82318Y-44990D02*
D03*
X17548Y38068D02*
D03*
X70524Y12129D02*
D03*
X70380Y-12255D02*
D03*
X101114Y-354870D02*
D03*
X26438Y-93250D02*
D03*
X25168Y-68358D02*
D03*
Y-76486D02*
D03*
X-3280Y-67088D02*
D03*
X-20552Y-92996D02*
D03*
X-82906Y-32382D02*
D03*
X-75286D02*
D03*
X-83544Y4794D02*
D03*
X-67034Y-2318D02*
D03*
X-83544Y26384D02*
D03*
X-75924Y34766D02*
D03*
X-59922Y70580D02*
D03*
X-55350Y83788D02*
D03*
X-1248Y68774D02*
D03*
X-48492Y83788D02*
D03*
X22120Y64992D02*
D03*
Y86074D02*
D03*
Y79724D02*
D03*
Y71342D02*
D03*
X-5566Y166338D02*
D03*
X-33252Y103092D02*
D03*
Y116046D02*
D03*
Y128492D02*
D03*
X-62970D02*
D03*
Y116046D02*
D03*
Y103092D02*
D03*
Y90646D02*
D03*
X-11662Y-92996D02*
D03*
X-43158Y-78010D02*
D03*
X-44936Y-67596D02*
D03*
D67*
X-26512Y254352D02*
D03*
Y262726D02*
D03*
D68*
X-11000Y11000D02*
D03*
X0Y11000D02*
D03*
X11000Y11000D02*
D03*
X-11000Y0D02*
D03*
X0D02*
D03*
X11000D02*
D03*
X-11000Y-11000D02*
D03*
X0Y-11000D02*
D03*
X11000Y-11000D02*
D03*
D69*
X-114300Y393700D02*
D03*
Y368300D02*
D03*
Y342900D02*
D03*
Y317500D02*
D03*
Y292100D02*
D03*
Y266700D02*
D03*
Y241300D02*
D03*
Y215900D02*
D03*
Y190500D02*
D03*
Y165100D02*
D03*
Y139700D02*
D03*
Y114300D02*
D03*
Y88900D02*
D03*
Y63500D02*
D03*
Y38100D02*
D03*
Y12700D02*
D03*
Y-12700D02*
D03*
Y-38100D02*
D03*
Y-63500D02*
D03*
Y-88900D02*
D03*
X114300D02*
D03*
Y-63500D02*
D03*
Y-38100D02*
D03*
Y-12700D02*
D03*
Y12700D02*
D03*
Y38100D02*
D03*
Y63500D02*
D03*
Y88900D02*
D03*
Y114300D02*
D03*
Y139700D02*
D03*
Y165100D02*
D03*
Y190500D02*
D03*
Y215900D02*
D03*
Y241300D02*
D03*
Y266700D02*
D03*
Y292100D02*
D03*
Y317500D02*
D03*
Y342900D02*
D03*
Y368300D02*
D03*
Y393700D02*
D03*
Y-114300D02*
D03*
Y-139700D02*
D03*
Y-165100D02*
D03*
Y-190500D02*
D03*
Y-215900D02*
D03*
Y-241300D02*
D03*
Y-266700D02*
D03*
Y-292100D02*
D03*
Y-317500D02*
D03*
Y-342900D02*
D03*
Y-368300D02*
D03*
Y-393700D02*
D03*
X-114300D02*
D03*
Y-368300D02*
D03*
Y-342900D02*
D03*
Y-317500D02*
D03*
Y-292100D02*
D03*
Y-266700D02*
D03*
Y-241300D02*
D03*
Y-215900D02*
D03*
Y-190500D02*
D03*
Y-165100D02*
D03*
Y-139700D02*
D03*
Y-114300D02*
D03*
M02*
