G04*
G04 #@! TF.GenerationSoftware,Altium Limited,Altium Designer,25.5.2 (35)*
G04*
G04 Layer_Color=32768*
%FSLAX44Y44*%
%MOMM*%
G71*
G04*
G04 #@! TF.SameCoordinates,D8F344CF-23F0-4092-AEBD-71A9FCF73610*
G04*
G04*
G04 #@! TF.FilePolarity,Positive*
G04*
G01*
G75*
%ADD11C,0.1000*%
%ADD97C,0.0500*%
D11*
X0Y-5000D02*
Y5000D01*
X-5000Y0D02*
X5000D01*
D97*
X-33469Y-379596D02*
G03*
X30837Y-384555I33470J14596D01*
G01*
X30837Y-345445D02*
G03*
X-33469Y-350404I-30836J-19555D01*
G01*
X62002Y-365000D02*
X62002Y-370000D01*
X57002Y-365000D02*
X62001D01*
X54000Y-380750D02*
X54000Y-349250D01*
X70000Y-349250D01*
X70000Y-380750D02*
X70000Y-349250D01*
X62000Y-365000D02*
Y-360000D01*
X62001Y-365000D02*
X67000D01*
X54000Y-380750D02*
X70000Y-380750D01*
X-55750Y-55750D02*
X55750D01*
X-55750Y55750D02*
X55750D01*
Y-55750D02*
Y55750D01*
X-55750Y-55750D02*
Y55750D01*
X-27500Y296250D02*
X-23500Y294500D01*
X-19500Y296250D01*
X-16000Y255750D02*
Y296250D01*
X-50250Y255750D02*
X-50250Y296250D01*
X-50250Y255750D02*
X-16000Y255750D01*
X-50250Y296250D02*
X-16000D01*
X-33000Y276000D02*
X-28000D01*
X-38000D02*
X-33000D01*
Y271000D02*
Y276000D01*
Y281000D01*
X-55000Y322000D02*
X-50000Y322000D01*
X-55000Y322000D02*
X-50000Y322000D01*
X-55000Y322000D02*
X-55000Y327000D01*
X-55000Y322000D02*
X-55000Y327000D01*
X-60000Y322000D02*
X-55000Y322000D01*
X-60000Y322000D02*
X-55000Y322000D01*
X-55000Y317000D02*
X-55000Y322000D01*
X-80000Y340000D02*
X-30000D01*
X-80000Y304000D02*
Y340000D01*
Y304000D02*
X-30000D01*
Y340000D01*
X68300Y-243000D02*
X72050Y-244750D01*
X75800Y-243000D01*
X80750Y-317000D02*
Y-243000D01*
X25500Y-317000D02*
Y-243000D01*
Y-317000D02*
X80750Y-317000D01*
X25500Y-243000D02*
X80750Y-243000D01*
X53000Y-280000D02*
X58000D01*
X48000Y-280000D02*
X53000Y-280000D01*
X53000Y-285000D01*
X53000Y-280000D02*
X53000Y-275000D01*
X-37700Y-243000D02*
X-33950Y-244750D01*
X-30200Y-243000D01*
X-25250Y-317000D02*
Y-243000D01*
X-80500Y-317000D02*
Y-243000D01*
Y-317000D02*
X-25250Y-317000D01*
X-80500Y-243000D02*
X-25250Y-243000D01*
X-53000Y-280000D02*
X-48000D01*
X-58000D02*
X-53000D01*
Y-285000D02*
Y-280000D01*
Y-275000D01*
X-70000Y-380750D02*
X-54000Y-380750D01*
X-61999Y-365000D02*
X-57000D01*
X-62000D02*
Y-360000D01*
X-54000Y-380750D02*
X-54000Y-349250D01*
X-70000Y-349250D02*
X-54000Y-349250D01*
X-70000Y-380750D02*
X-70000Y-349250D01*
X-66998Y-365000D02*
X-61999D01*
X-61998Y-365000D02*
X-61998Y-370000D01*
X30837Y-384500D02*
X52500Y-384500D01*
X52500Y-365000D02*
X52500Y-384500D01*
X-49750Y-379500D02*
X-33469Y-379500D01*
X-49750Y-379500D02*
X-49750Y-365000D01*
X30837Y-345500D02*
X52500D01*
Y-365000D02*
Y-345500D01*
X-49750Y-350500D02*
X-33469D01*
X-49750D02*
X-49750Y-365000D01*
X-80252Y242742D02*
X-42252D01*
X-80252Y204742D02*
Y242742D01*
Y204742D02*
X-42252D01*
Y242742D01*
X-76252Y208741D02*
X-46252D01*
X-76252D02*
Y238742D01*
X-46252D01*
Y208741D02*
Y238742D01*
X-66252Y223742D02*
X-56252D01*
X-61252Y218742D02*
Y228742D01*
X-1Y315499D02*
Y320499D01*
X-14000Y311500D02*
X-14000Y324500D01*
X14000Y324500D01*
X-14000Y311500D02*
X14000Y311500D01*
X14000Y324500D01*
X-2501Y317999D02*
X2499Y317999D01*
X42630Y90802D02*
X52380D01*
Y110302D01*
X24880D02*
X52380D01*
X24880Y90802D02*
Y110302D01*
Y90802D02*
X42630D01*
X38630Y100552D02*
X41130D01*
X38630D02*
X38630Y103052D01*
X36130Y100552D02*
X38630D01*
X38630Y98052D02*
X38630Y100552D01*
X19406Y166338D02*
X24406Y166338D01*
X29406Y166338D01*
X24406Y161338D02*
X24406Y166338D01*
X24406Y171338D01*
X4156Y149088D02*
Y183338D01*
X44656Y149088D02*
Y183338D01*
X4156Y149088D02*
X44656Y149088D01*
X4156Y183338D02*
X44656D01*
X4156Y179838D02*
X5906Y175838D01*
X4156Y171838D02*
X5906Y175838D01*
X-1858Y223894D02*
X-108Y227894D01*
X-1858Y223894D02*
X-108Y219894D01*
X-40608Y216144D02*
X-108D01*
X-40608Y250394D02*
X-108D01*
X-40608Y216144D02*
X-40608Y250394D01*
X-108Y216144D02*
Y250394D01*
X-20358Y228394D02*
X-20358Y233394D01*
X-20358Y238394D01*
X-25358Y233394D02*
X-20358Y233394D01*
X-15358Y233394D01*
X80000Y304000D02*
Y340000D01*
X30000Y304000D02*
X80000D01*
X30000D02*
Y340000D01*
X80000D01*
X55000Y317000D02*
X55000Y322000D01*
X50000Y322000D02*
X55000Y322000D01*
X50000Y322000D02*
X55000Y322000D01*
X55000Y327000D01*
X55000Y322000D02*
X55000Y327000D01*
X55000Y322000D02*
X60000Y322000D01*
X55000Y322000D02*
X60000Y322000D01*
X-89Y392522D02*
Y397523D01*
Y392522D02*
X4911D01*
X1Y387430D02*
Y392431D01*
X-5000D02*
X1D01*
X-48750Y440780D02*
X48750D01*
Y344080D02*
Y440780D01*
X-48750Y344080D02*
X48750D01*
X-48750D02*
Y440780D01*
M02*
