G04*
G04 #@! TF.GenerationSoftware,Altium Limited,Altium Designer,25.5.2 (35)*
G04*
G04 Layer_Physical_Order=1*
G04 Layer_Color=255*
%FSLAX44Y44*%
%MOMM*%
G71*
G04*
G04 #@! TF.SameCoordinates,D8F344CF-23F0-4092-AEBD-71A9FCF73610*
G04*
G04*
G04 #@! TF.FilePolarity,Positive*
G04*
G01*
G75*
%ADD14C,0.1524*%
G04:AMPARAMS|DCode=17|XSize=0.55mm|YSize=0.6mm|CornerRadius=0.0688mm|HoleSize=0mm|Usage=FLASHONLY|Rotation=0.000|XOffset=0mm|YOffset=0mm|HoleType=Round|Shape=RoundedRectangle|*
%AMROUNDEDRECTD17*
21,1,0.5500,0.4625,0,0,0.0*
21,1,0.4125,0.6000,0,0,0.0*
1,1,0.1375,0.2063,-0.2313*
1,1,0.1375,-0.2063,-0.2313*
1,1,0.1375,-0.2063,0.2313*
1,1,0.1375,0.2063,0.2313*
%
%ADD17ROUNDEDRECTD17*%
G04:AMPARAMS|DCode=18|XSize=0.59mm|YSize=0.45mm|CornerRadius=0.1mm|HoleSize=0mm|Usage=FLASHONLY|Rotation=90.000|XOffset=0mm|YOffset=0mm|HoleType=Round|Shape=RoundedRectangle|*
%AMROUNDEDRECTD18*
21,1,0.5900,0.2500,0,0,90.0*
21,1,0.3900,0.4500,0,0,90.0*
1,1,0.2000,0.1250,0.1950*
1,1,0.2000,0.1250,-0.1950*
1,1,0.2000,-0.1250,-0.1950*
1,1,0.2000,-0.1250,0.1950*
%
%ADD18ROUNDEDRECTD18*%
G04:AMPARAMS|DCode=19|XSize=0.55mm|YSize=0.6mm|CornerRadius=0.0688mm|HoleSize=0mm|Usage=FLASHONLY|Rotation=90.000|XOffset=0mm|YOffset=0mm|HoleType=Round|Shape=RoundedRectangle|*
%AMROUNDEDRECTD19*
21,1,0.5500,0.4625,0,0,90.0*
21,1,0.4125,0.6000,0,0,90.0*
1,1,0.1375,0.2313,0.2063*
1,1,0.1375,0.2313,-0.2063*
1,1,0.1375,-0.2313,-0.2063*
1,1,0.1375,-0.2313,0.2063*
%
%ADD19ROUNDEDRECTD19*%
G04:AMPARAMS|DCode=20|XSize=0.2mm|YSize=0.85mm|CornerRadius=0.05mm|HoleSize=0mm|Usage=FLASHONLY|Rotation=0.000|XOffset=0mm|YOffset=0mm|HoleType=Round|Shape=RoundedRectangle|*
%AMROUNDEDRECTD20*
21,1,0.2000,0.7500,0,0,0.0*
21,1,0.1000,0.8500,0,0,0.0*
1,1,0.1000,0.0500,-0.3750*
1,1,0.1000,-0.0500,-0.3750*
1,1,0.1000,-0.0500,0.3750*
1,1,0.1000,0.0500,0.3750*
%
%ADD20ROUNDEDRECTD20*%
G04:AMPARAMS|DCode=21|XSize=0.2mm|YSize=0.85mm|CornerRadius=0.05mm|HoleSize=0mm|Usage=FLASHONLY|Rotation=90.000|XOffset=0mm|YOffset=0mm|HoleType=Round|Shape=RoundedRectangle|*
%AMROUNDEDRECTD21*
21,1,0.2000,0.7500,0,0,90.0*
21,1,0.1000,0.8500,0,0,90.0*
1,1,0.1000,0.3750,0.0500*
1,1,0.1000,0.3750,-0.0500*
1,1,0.1000,-0.3750,-0.0500*
1,1,0.1000,-0.3750,0.0500*
%
%ADD21ROUNDEDRECTD21*%
G04:AMPARAMS|DCode=22|XSize=1.05mm|YSize=0.55mm|CornerRadius=0.0688mm|HoleSize=0mm|Usage=FLASHONLY|Rotation=270.000|XOffset=0mm|YOffset=0mm|HoleType=Round|Shape=RoundedRectangle|*
%AMROUNDEDRECTD22*
21,1,1.0500,0.4125,0,0,270.0*
21,1,0.9125,0.5500,0,0,270.0*
1,1,0.1375,-0.2063,-0.4563*
1,1,0.1375,-0.2063,0.4563*
1,1,0.1375,0.2063,0.4563*
1,1,0.1375,0.2063,-0.4563*
%
%ADD22ROUNDEDRECTD22*%
G04:AMPARAMS|DCode=23|XSize=1.15mm|YSize=1.05mm|CornerRadius=0.1313mm|HoleSize=0mm|Usage=FLASHONLY|Rotation=0.000|XOffset=0mm|YOffset=0mm|HoleType=Round|Shape=RoundedRectangle|*
%AMROUNDEDRECTD23*
21,1,1.1500,0.7875,0,0,0.0*
21,1,0.8875,1.0500,0,0,0.0*
1,1,0.2625,0.4438,-0.3938*
1,1,0.2625,-0.4438,-0.3938*
1,1,0.2625,-0.4438,0.3938*
1,1,0.2625,0.4438,0.3938*
%
%ADD23ROUNDEDRECTD23*%
%ADD24R,1.1500X1.0500*%
G04:AMPARAMS|DCode=25|XSize=0.6mm|YSize=1.45mm|CornerRadius=0.075mm|HoleSize=0mm|Usage=FLASHONLY|Rotation=0.000|XOffset=0mm|YOffset=0mm|HoleType=Round|Shape=RoundedRectangle|*
%AMROUNDEDRECTD25*
21,1,0.6000,1.3000,0,0,0.0*
21,1,0.4500,1.4500,0,0,0.0*
1,1,0.1500,0.2250,-0.6500*
1,1,0.1500,-0.2250,-0.6500*
1,1,0.1500,-0.2250,0.6500*
1,1,0.1500,0.2250,0.6500*
%
%ADD25ROUNDEDRECTD25*%
G04:AMPARAMS|DCode=26|XSize=0.72mm|YSize=0.99mm|CornerRadius=0.09mm|HoleSize=0mm|Usage=FLASHONLY|Rotation=90.000|XOffset=0mm|YOffset=0mm|HoleType=Round|Shape=RoundedRectangle|*
%AMROUNDEDRECTD26*
21,1,0.7200,0.8100,0,0,90.0*
21,1,0.5400,0.9900,0,0,90.0*
1,1,0.1800,0.4050,0.2700*
1,1,0.1800,0.4050,-0.2700*
1,1,0.1800,-0.4050,-0.2700*
1,1,0.1800,-0.4050,0.2700*
%
%ADD26ROUNDEDRECTD26*%
G04:AMPARAMS|DCode=27|XSize=1.4mm|YSize=1.05mm|CornerRadius=0.1313mm|HoleSize=0mm|Usage=FLASHONLY|Rotation=180.000|XOffset=0mm|YOffset=0mm|HoleType=Round|Shape=RoundedRectangle|*
%AMROUNDEDRECTD27*
21,1,1.4000,0.7875,0,0,180.0*
21,1,1.1375,1.0500,0,0,180.0*
1,1,0.2625,-0.5688,0.3938*
1,1,0.2625,0.5688,0.3938*
1,1,0.2625,0.5688,-0.3938*
1,1,0.2625,-0.5688,-0.3938*
%
%ADD27ROUNDEDRECTD27*%
G04:AMPARAMS|DCode=28|XSize=2.6mm|YSize=2.4mm|CornerRadius=0.2mm|HoleSize=0mm|Usage=FLASHONLY|Rotation=180.000|XOffset=0mm|YOffset=0mm|HoleType=Round|Shape=RoundedRectangle|*
%AMROUNDEDRECTD28*
21,1,2.6000,2.0000,0,0,180.0*
21,1,2.2000,2.4000,0,0,180.0*
1,1,0.4000,-1.1000,1.0000*
1,1,0.4000,1.1000,1.0000*
1,1,0.4000,1.1000,-1.0000*
1,1,0.4000,-1.1000,-1.0000*
%
%ADD28ROUNDEDRECTD28*%
G04:AMPARAMS|DCode=29|XSize=1.6mm|YSize=3.4mm|CornerRadius=0.2mm|HoleSize=0mm|Usage=FLASHONLY|Rotation=180.000|XOffset=0mm|YOffset=0mm|HoleType=Round|Shape=RoundedRectangle|*
%AMROUNDEDRECTD29*
21,1,1.6000,3.0000,0,0,180.0*
21,1,1.2000,3.4000,0,0,180.0*
1,1,0.4000,-0.6000,1.5000*
1,1,0.4000,0.6000,1.5000*
1,1,0.4000,0.6000,-1.5000*
1,1,0.4000,-0.6000,-1.5000*
%
%ADD29ROUNDEDRECTD29*%
G04:AMPARAMS|DCode=30|XSize=1.2mm|YSize=2.7mm|CornerRadius=0.05mm|HoleSize=0mm|Usage=FLASHONLY|Rotation=90.000|XOffset=0mm|YOffset=0mm|HoleType=Round|Shape=RoundedRectangle|*
%AMROUNDEDRECTD30*
21,1,1.2000,2.6000,0,0,90.0*
21,1,1.1000,2.7000,0,0,90.0*
1,1,0.1000,1.3000,0.5500*
1,1,0.1000,1.3000,-0.5500*
1,1,0.1000,-1.3000,-0.5500*
1,1,0.1000,-1.3000,0.5500*
%
%ADD30ROUNDEDRECTD30*%
G04:AMPARAMS|DCode=31|XSize=0.8mm|YSize=0.8mm|CornerRadius=0.05mm|HoleSize=0mm|Usage=FLASHONLY|Rotation=0.000|XOffset=0mm|YOffset=0mm|HoleType=Round|Shape=RoundedRectangle|*
%AMROUNDEDRECTD31*
21,1,0.8000,0.7000,0,0,0.0*
21,1,0.7000,0.8000,0,0,0.0*
1,1,0.1000,0.3500,-0.3500*
1,1,0.1000,-0.3500,-0.3500*
1,1,0.1000,-0.3500,0.3500*
1,1,0.1000,0.3500,0.3500*
%
%ADD31ROUNDEDRECTD31*%
G04:AMPARAMS|DCode=32|XSize=0.72mm|YSize=0.99mm|CornerRadius=0.09mm|HoleSize=0mm|Usage=FLASHONLY|Rotation=0.000|XOffset=0mm|YOffset=0mm|HoleType=Round|Shape=RoundedRectangle|*
%AMROUNDEDRECTD32*
21,1,0.7200,0.8100,0,0,0.0*
21,1,0.5400,0.9900,0,0,0.0*
1,1,0.1800,0.2700,-0.4050*
1,1,0.1800,-0.2700,-0.4050*
1,1,0.1800,-0.2700,0.4050*
1,1,0.1800,0.2700,0.4050*
%
%ADD32ROUNDEDRECTD32*%
G04:AMPARAMS|DCode=33|XSize=0.55mm|YSize=0.6mm|CornerRadius=0.0688mm|HoleSize=0mm|Usage=FLASHONLY|Rotation=225.000|XOffset=0mm|YOffset=0mm|HoleType=Round|Shape=RoundedRectangle|*
%AMROUNDEDRECTD33*
21,1,0.5500,0.4625,0,0,225.0*
21,1,0.4125,0.6000,0,0,225.0*
1,1,0.1375,-0.3094,0.0177*
1,1,0.1375,-0.0177,0.3094*
1,1,0.1375,0.3094,-0.0177*
1,1,0.1375,0.0177,-0.3094*
%
%ADD33ROUNDEDRECTD33*%
G04:AMPARAMS|DCode=34|XSize=1.05mm|YSize=0.55mm|CornerRadius=0.0688mm|HoleSize=0mm|Usage=FLASHONLY|Rotation=0.000|XOffset=0mm|YOffset=0mm|HoleType=Round|Shape=RoundedRectangle|*
%AMROUNDEDRECTD34*
21,1,1.0500,0.4125,0,0,0.0*
21,1,0.9125,0.5500,0,0,0.0*
1,1,0.1375,0.4563,-0.2063*
1,1,0.1375,-0.4563,-0.2063*
1,1,0.1375,-0.4563,0.2063*
1,1,0.1375,0.4563,0.2063*
%
%ADD34ROUNDEDRECTD34*%
G04:AMPARAMS|DCode=35|XSize=1.05mm|YSize=1.3mm|CornerRadius=0.05mm|HoleSize=0mm|Usage=FLASHONLY|Rotation=0.000|XOffset=0mm|YOffset=0mm|HoleType=Round|Shape=RoundedRectangle|*
%AMROUNDEDRECTD35*
21,1,1.0500,1.2000,0,0,0.0*
21,1,0.9500,1.3000,0,0,0.0*
1,1,0.1000,0.4750,-0.6000*
1,1,0.1000,-0.4750,-0.6000*
1,1,0.1000,-0.4750,0.6000*
1,1,0.1000,0.4750,0.6000*
%
%ADD35ROUNDEDRECTD35*%
%ADD58C,0.3000*%
G04:AMPARAMS|DCode=60|XSize=0.9mm|YSize=1.7mm|CornerRadius=0.45mm|HoleSize=0mm|Usage=FLASHONLY|Rotation=180.000|XOffset=0mm|YOffset=0mm|HoleType=Round|Shape=RoundedRectangle|*
%AMROUNDEDRECTD60*
21,1,0.9000,0.8000,0,0,180.0*
21,1,0.0000,1.7000,0,0,180.0*
1,1,0.9000,0.0000,0.4000*
1,1,0.9000,0.0000,0.4000*
1,1,0.9000,0.0000,-0.4000*
1,1,0.9000,0.0000,-0.4000*
%
%ADD60ROUNDEDRECTD60*%
G04:AMPARAMS|DCode=61|XSize=0.9mm|YSize=2.4mm|CornerRadius=0.45mm|HoleSize=0mm|Usage=FLASHONLY|Rotation=180.000|XOffset=0mm|YOffset=0mm|HoleType=Round|Shape=RoundedRectangle|*
%AMROUNDEDRECTD61*
21,1,0.9000,1.5000,0,0,180.0*
21,1,0.0000,2.4000,0,0,180.0*
1,1,0.9000,0.0000,0.7500*
1,1,0.9000,0.0000,0.7500*
1,1,0.9000,0.0000,-0.7500*
1,1,0.9000,0.0000,-0.7500*
%
%ADD61ROUNDEDRECTD61*%
%ADD62C,0.6500*%
G04:AMPARAMS|DCode=64|XSize=3.4mm|YSize=3.4mm|CornerRadius=0.05mm|HoleSize=0mm|Usage=FLASHONLY|Rotation=0.000|XOffset=0mm|YOffset=0mm|HoleType=Round|Shape=RoundedRectangle|*
%AMROUNDEDRECTD64*
21,1,3.4000,3.3000,0,0,0.0*
21,1,3.3000,3.4000,0,0,0.0*
1,1,0.1000,1.6500,-1.6500*
1,1,0.1000,-1.6500,-1.6500*
1,1,0.1000,-1.6500,1.6500*
1,1,0.1000,1.6500,1.6500*
%
%ADD64ROUNDEDRECTD64*%
G04:AMPARAMS|DCode=65|XSize=0.8mm|YSize=1.6mm|CornerRadius=0.05mm|HoleSize=0mm|Usage=FLASHONLY|Rotation=0.000|XOffset=0mm|YOffset=0mm|HoleType=Round|Shape=RoundedRectangle|*
%AMROUNDEDRECTD65*
21,1,0.8000,1.5000,0,0,0.0*
21,1,0.7000,1.6000,0,0,0.0*
1,1,0.1000,0.3500,-0.7500*
1,1,0.1000,-0.3500,-0.7500*
1,1,0.1000,-0.3500,0.7500*
1,1,0.1000,0.3500,0.7500*
%
%ADD65ROUNDEDRECTD65*%
%ADD66C,0.5000*%
%ADD67C,0.2000*%
%ADD68C,0.2596*%
%ADD69C,0.2600*%
%ADD70C,0.8000*%
%ADD71C,0.8000*%
%ADD72C,0.9452*%
%ADD73C,0.7452*%
%ADD74C,1.0000*%
%ADD75C,1.2000*%
%ADD76C,0.6000*%
%ADD77C,0.6604*%
G36*
X120650Y403086D02*
Y403081D01*
X121810Y402850D01*
X122793Y402193D01*
X123310Y401420D01*
X123681Y400050D01*
Y400050D01*
X123686Y398526D01*
X123686Y-400050D01*
X123686Y-400050D01*
X123681D01*
X123450Y-401210D01*
X122793Y-402193D01*
X121810Y-402850D01*
X120650Y-403081D01*
Y-403086D01*
X-120650Y-403086D01*
Y-403081D01*
X-121810Y-402850D01*
X-122793Y-402193D01*
X-123450Y-401210D01*
X-123681Y-400050D01*
X-123686Y-400050D01*
Y400050D01*
X-123686Y400050D01*
X-123681D01*
X-123450Y401210D01*
X-122793Y402193D01*
X-121810Y402850D01*
X-120650Y403081D01*
Y403086D01*
X-120650Y403086D01*
X-49979D01*
X-49037Y401562D01*
X-49392Y399780D01*
Y398000D01*
X-49606Y397483D01*
X-49830Y395780D01*
X-49606Y394077D01*
X-49392Y393560D01*
Y391780D01*
X-48924Y389430D01*
X-47593Y387437D01*
X-45600Y386106D01*
X-43250Y385638D01*
X-40900Y386106D01*
X-38907Y387437D01*
X-37729Y389200D01*
X36670D01*
Y385499D01*
X35146Y385196D01*
X35099Y385309D01*
X33827Y386581D01*
X32164Y387270D01*
X30364D01*
X28701Y386581D01*
X27429Y385309D01*
X26740Y383646D01*
Y381846D01*
X27429Y380183D01*
X27695Y379917D01*
X27702Y379839D01*
X28933Y377485D01*
Y372828D01*
X29111Y371936D01*
X29616Y371180D01*
X33544Y367252D01*
Y349293D01*
X33722Y348401D01*
X34227Y347645D01*
X40620Y341252D01*
X41377Y340747D01*
X42268Y340569D01*
X54669D01*
Y319000D01*
X54847Y318108D01*
X55352Y317352D01*
X60102Y312602D01*
X60858Y312097D01*
X61750Y311919D01*
X64420D01*
Y310312D01*
X64640Y309206D01*
X65268Y308267D01*
X66206Y307641D01*
X67312Y307420D01*
X76188D01*
X77294Y307641D01*
X78232Y308267D01*
X78859Y309206D01*
X79079Y310312D01*
Y318188D01*
X78859Y319294D01*
X78232Y320233D01*
X77294Y320859D01*
X76188Y321080D01*
X67312D01*
X66206Y320859D01*
X65268Y320233D01*
X64640Y319294D01*
X64420Y318188D01*
Y316581D01*
X62715D01*
X59331Y319965D01*
Y340569D01*
X107135D01*
X107289Y339996D01*
X108279Y338280D01*
X109680Y336879D01*
X111396Y335889D01*
X113309Y335376D01*
X115291D01*
X117204Y335889D01*
X118920Y336879D01*
X120321Y338280D01*
X121311Y339996D01*
X121824Y341909D01*
Y343891D01*
X121311Y345804D01*
X120321Y347520D01*
X118920Y348921D01*
X117204Y349911D01*
X115291Y350424D01*
X113309D01*
X111396Y349911D01*
X109680Y348921D01*
X108279Y347520D01*
X107289Y345804D01*
X107135Y345231D01*
X43234D01*
X41291Y347174D01*
X42042Y348578D01*
X43250Y348338D01*
X45601Y348806D01*
X47593Y350137D01*
X48924Y352130D01*
X49392Y354480D01*
Y359760D01*
X49606Y360277D01*
X49715Y361105D01*
X51875D01*
X52267Y360518D01*
X53206Y359891D01*
X54313Y359670D01*
X65687D01*
X66794Y359891D01*
X67149Y360128D01*
X76121D01*
X78560Y360613D01*
X80627Y361994D01*
X82008Y364061D01*
X82023Y364135D01*
X82798Y364652D01*
X83333Y365454D01*
X83521Y366400D01*
Y371800D01*
X83333Y372746D01*
X82798Y373548D01*
X81996Y374083D01*
X81050Y374272D01*
X72950D01*
X72004Y374083D01*
X71202Y373548D01*
X70751Y372872D01*
X67149D01*
X66794Y373109D01*
X65687Y373330D01*
X60898D01*
X60827Y373384D01*
X59240Y374041D01*
X57537Y374266D01*
X49830D01*
Y395780D01*
X49606Y397483D01*
X49392Y398000D01*
Y399780D01*
X49037Y401562D01*
X49979Y403086D01*
X120650D01*
X120650Y403086D01*
D02*
G37*
G36*
X32026Y378044D02*
X30502D01*
X29164Y380604D01*
X33364D01*
X32026Y378044D01*
D02*
G37*
%LPC*%
G36*
X115291Y401224D02*
X113309D01*
X111396Y400711D01*
X109680Y399721D01*
X108279Y398320D01*
X107289Y396604D01*
X106776Y394691D01*
Y392710D01*
X107289Y390796D01*
X108279Y389080D01*
X109680Y387679D01*
X111396Y386689D01*
X113309Y386176D01*
X115291D01*
X117204Y386689D01*
X118920Y387679D01*
X120321Y389080D01*
X121311Y390796D01*
X121824Y392710D01*
Y394691D01*
X121311Y396604D01*
X120321Y398320D01*
X118920Y399721D01*
X117204Y400711D01*
X115291Y401224D01*
D02*
G37*
G36*
X-20000Y383331D02*
X-47000D01*
X-47892Y383153D01*
X-48648Y382648D01*
X-49965Y381331D01*
X-57486D01*
X-57604Y381925D01*
X-58093Y382657D01*
X-58825Y383146D01*
X-59688Y383317D01*
X-64313D01*
X-65175Y383146D01*
X-65907Y382657D01*
X-66396Y381925D01*
X-66567Y381063D01*
Y376937D01*
X-66396Y376075D01*
X-65907Y375343D01*
X-65175Y374854D01*
X-64974Y374814D01*
X-64729Y373932D01*
X-64693Y373205D01*
X-65835Y372063D01*
X-65931Y371831D01*
X-69035D01*
X-70557Y373354D01*
X-70612Y373657D01*
X-70272Y375224D01*
X-70093Y375343D01*
X-69604Y376075D01*
X-69433Y376937D01*
Y381062D01*
X-69604Y381925D01*
X-70093Y382657D01*
X-70825Y383146D01*
X-71687Y383317D01*
X-76312D01*
X-77175Y383146D01*
X-77907Y382657D01*
X-78396Y381925D01*
X-78567Y381062D01*
Y376937D01*
X-78396Y376075D01*
X-77907Y375343D01*
X-77175Y374854D01*
X-76331Y374686D01*
Y373500D01*
X-76153Y372608D01*
X-75648Y371852D01*
X-71648Y367852D01*
X-70892Y367347D01*
X-70000Y367169D01*
X-65931D01*
X-65835Y366937D01*
X-64907Y366009D01*
X-65395Y364485D01*
X-66651D01*
X-67513Y364314D01*
X-68164Y363879D01*
X-68247Y363828D01*
X-69090Y363826D01*
X-69929Y363828D01*
X-70012Y363879D01*
X-70663Y364314D01*
X-71526Y364485D01*
X-75651D01*
X-76513Y364314D01*
X-77245Y363825D01*
X-77734Y363093D01*
X-77902Y362249D01*
X-80082D01*
X-80974Y362071D01*
X-81730Y361566D01*
X-98065Y345231D01*
X-107135D01*
X-107289Y345804D01*
X-108279Y347520D01*
X-109680Y348921D01*
X-111396Y349911D01*
X-113309Y350424D01*
X-115290D01*
X-117204Y349911D01*
X-118920Y348921D01*
X-120321Y347520D01*
X-121311Y345804D01*
X-121824Y343891D01*
Y341909D01*
X-121311Y339996D01*
X-120321Y338280D01*
X-118920Y336879D01*
X-117204Y335889D01*
X-115290Y335376D01*
X-113309D01*
X-111396Y335889D01*
X-109680Y336879D01*
X-108279Y338280D01*
X-107289Y339996D01*
X-107135Y340569D01*
X-98065D01*
X-95273Y337777D01*
Y252960D01*
X-96681Y252377D01*
X-107585Y263282D01*
X-107289Y263796D01*
X-106776Y265709D01*
Y267691D01*
X-107289Y269604D01*
X-108279Y271320D01*
X-109680Y272721D01*
X-111396Y273711D01*
X-113309Y274224D01*
X-115290D01*
X-117204Y273711D01*
X-118920Y272721D01*
X-120321Y271320D01*
X-121311Y269604D01*
X-121824Y267691D01*
Y265709D01*
X-121311Y263796D01*
X-120321Y262080D01*
X-118920Y260679D01*
X-117204Y259689D01*
X-115290Y259176D01*
X-113309D01*
X-111396Y259689D01*
X-110882Y259986D01*
X-98321Y247425D01*
Y230608D01*
X-99729Y230025D01*
X-107585Y237882D01*
X-107289Y238396D01*
X-106776Y240310D01*
Y242291D01*
X-107289Y244204D01*
X-108279Y245920D01*
X-109680Y247321D01*
X-111396Y248311D01*
X-113309Y248824D01*
X-115290D01*
X-117204Y248311D01*
X-118920Y247321D01*
X-120321Y245920D01*
X-121311Y244204D01*
X-121824Y242291D01*
Y240310D01*
X-121311Y238396D01*
X-120321Y236680D01*
X-118920Y235279D01*
X-117204Y234289D01*
X-115290Y233776D01*
X-113309D01*
X-111396Y234289D01*
X-110882Y234586D01*
X-101369Y225073D01*
Y208256D01*
X-102777Y207673D01*
X-107585Y212482D01*
X-107289Y212996D01*
X-106776Y214909D01*
Y216891D01*
X-107289Y218804D01*
X-108279Y220520D01*
X-109680Y221921D01*
X-111396Y222911D01*
X-113309Y223424D01*
X-115290D01*
X-117204Y222911D01*
X-118920Y221921D01*
X-120321Y220520D01*
X-121311Y218804D01*
X-121824Y216891D01*
Y214909D01*
X-121311Y212996D01*
X-120321Y211280D01*
X-118920Y209879D01*
X-117204Y208889D01*
X-115290Y208376D01*
X-113309D01*
X-111396Y208889D01*
X-110882Y209186D01*
X-104417Y202721D01*
Y185904D01*
X-105825Y185321D01*
X-107585Y187082D01*
X-107289Y187596D01*
X-106776Y189510D01*
Y191491D01*
X-107289Y193404D01*
X-108279Y195120D01*
X-109680Y196521D01*
X-111396Y197511D01*
X-113309Y198024D01*
X-115290D01*
X-117204Y197511D01*
X-118920Y196521D01*
X-120321Y195120D01*
X-121311Y193404D01*
X-121824Y191491D01*
Y189510D01*
X-121311Y187596D01*
X-120321Y185880D01*
X-118920Y184479D01*
X-117204Y183489D01*
X-115290Y182976D01*
X-113309D01*
X-111396Y183489D01*
X-110882Y183786D01*
X-94257Y167161D01*
Y150344D01*
X-95665Y149761D01*
X-107585Y161682D01*
X-107289Y162196D01*
X-106776Y164109D01*
Y166091D01*
X-107289Y168004D01*
X-108279Y169720D01*
X-109680Y171121D01*
X-111396Y172111D01*
X-113309Y172624D01*
X-115290D01*
X-117204Y172111D01*
X-118920Y171121D01*
X-120321Y169720D01*
X-121311Y168004D01*
X-121824Y166091D01*
Y164109D01*
X-121311Y162196D01*
X-120321Y160480D01*
X-118920Y159079D01*
X-117204Y158089D01*
X-115290Y157576D01*
X-113309D01*
X-111396Y158089D01*
X-110882Y158386D01*
X-97305Y144809D01*
Y127992D01*
X-98713Y127409D01*
X-107585Y136282D01*
X-107289Y136796D01*
X-106776Y138709D01*
Y140691D01*
X-107289Y142604D01*
X-108279Y144320D01*
X-109680Y145721D01*
X-111396Y146711D01*
X-113309Y147224D01*
X-115290D01*
X-117204Y146711D01*
X-118920Y145721D01*
X-120321Y144320D01*
X-121311Y142604D01*
X-121824Y140691D01*
Y138709D01*
X-121311Y136796D01*
X-120321Y135080D01*
X-118920Y133679D01*
X-117204Y132689D01*
X-115290Y132176D01*
X-113309D01*
X-111396Y132689D01*
X-110882Y132986D01*
X-100353Y122457D01*
Y105640D01*
X-101761Y105057D01*
X-107585Y110882D01*
X-107289Y111396D01*
X-106776Y113309D01*
Y115291D01*
X-107289Y117204D01*
X-108279Y118920D01*
X-109680Y120321D01*
X-111396Y121311D01*
X-113309Y121824D01*
X-115290D01*
X-117204Y121311D01*
X-118920Y120321D01*
X-120321Y118920D01*
X-121311Y117204D01*
X-121824Y115291D01*
Y113309D01*
X-121311Y111396D01*
X-120321Y109680D01*
X-118920Y108279D01*
X-117204Y107289D01*
X-115290Y106776D01*
X-113309D01*
X-111396Y107289D01*
X-110882Y107586D01*
X-103401Y100105D01*
Y84360D01*
X-104925Y83514D01*
X-105582Y83923D01*
X-106686Y89179D01*
X-106776Y89311D01*
Y89891D01*
X-107289Y91804D01*
X-108279Y93520D01*
X-109680Y94921D01*
X-111396Y95911D01*
X-113309Y96424D01*
X-115290D01*
X-117204Y95911D01*
X-118920Y94921D01*
X-120321Y93520D01*
X-121311Y91804D01*
X-121824Y89891D01*
Y87909D01*
X-121311Y85996D01*
X-120321Y84280D01*
X-118920Y82879D01*
X-117204Y81889D01*
X-115290Y81376D01*
X-114711D01*
X-114579Y81286D01*
X-108760Y80063D01*
X-106449Y77753D01*
Y67997D01*
X-107973Y67589D01*
X-108279Y68120D01*
X-109680Y69521D01*
X-111396Y70511D01*
X-113309Y71024D01*
X-115290D01*
X-117204Y70511D01*
X-118920Y69521D01*
X-120321Y68120D01*
X-121311Y66404D01*
X-121824Y64491D01*
Y62509D01*
X-121311Y60596D01*
X-120321Y58880D01*
X-118920Y57479D01*
X-117204Y56489D01*
X-115290Y55976D01*
X-114711D01*
X-114579Y55886D01*
X-108760Y54664D01*
X-105201Y51105D01*
Y40253D01*
X-106725Y39077D01*
X-106776Y39091D01*
X-107289Y41004D01*
X-108279Y42720D01*
X-109680Y44121D01*
X-111396Y45111D01*
X-113309Y45624D01*
X-115290D01*
X-117204Y45111D01*
X-118920Y44121D01*
X-120321Y42720D01*
X-121311Y41004D01*
X-121824Y39091D01*
Y37109D01*
X-121311Y35196D01*
X-120321Y33480D01*
X-118920Y32079D01*
X-117204Y31089D01*
X-115290Y30576D01*
X-114711D01*
X-114579Y30486D01*
X-108760Y29264D01*
X-96051Y16555D01*
X-96682Y15031D01*
X-104134D01*
X-109113Y18281D01*
X-109270Y18311D01*
X-109680Y18721D01*
X-111396Y19711D01*
X-113309Y20224D01*
X-115290D01*
X-117204Y19711D01*
X-118920Y18721D01*
X-120321Y17320D01*
X-121311Y15604D01*
X-121824Y13691D01*
Y11710D01*
X-121311Y9796D01*
X-120321Y8080D01*
X-118920Y6679D01*
X-117204Y5689D01*
X-115290Y5176D01*
X-113309D01*
X-111396Y5689D01*
X-109680Y6679D01*
X-109270Y7089D01*
X-109113Y7119D01*
X-104134Y10369D01*
X-96518D01*
X-95935Y8961D01*
X-108760Y-3863D01*
X-114579Y-5086D01*
X-114711Y-5176D01*
X-115290D01*
X-117204Y-5689D01*
X-118920Y-6679D01*
X-120321Y-8080D01*
X-121311Y-9796D01*
X-121824Y-11709D01*
Y-13691D01*
X-121311Y-15604D01*
X-120321Y-17320D01*
X-118920Y-18721D01*
X-117204Y-19711D01*
X-115290Y-20224D01*
X-113309D01*
X-111396Y-19711D01*
X-109680Y-18721D01*
X-108279Y-17320D01*
X-107289Y-15604D01*
X-106776Y-13691D01*
Y-13111D01*
X-106686Y-12979D01*
X-105463Y-7160D01*
X-89618Y8686D01*
X-72466D01*
X-71412Y7162D01*
X-71423Y7107D01*
Y2482D01*
X-71252Y1619D01*
X-70763Y887D01*
X-70869Y245D01*
X-71558Y-1418D01*
Y-3218D01*
X-71174Y-4145D01*
X-72072Y-5669D01*
X-90000D01*
X-90892Y-5847D01*
X-91648Y-6352D01*
X-108792Y-23496D01*
X-109297Y-24252D01*
X-109475Y-25144D01*
Y-29979D01*
X-110882Y-31386D01*
X-111396Y-31089D01*
X-113309Y-30576D01*
X-115290D01*
X-117204Y-31089D01*
X-118920Y-32079D01*
X-120321Y-33480D01*
X-121311Y-35196D01*
X-121824Y-37109D01*
Y-39090D01*
X-121311Y-41004D01*
X-120321Y-42720D01*
X-118920Y-44121D01*
X-117204Y-45111D01*
X-115290Y-45624D01*
X-113309D01*
X-111396Y-45111D01*
X-109680Y-44121D01*
X-108279Y-42720D01*
X-107741Y-41787D01*
X-106217Y-42195D01*
Y-52120D01*
X-108760Y-54663D01*
X-114579Y-55886D01*
X-114711Y-55976D01*
X-115290D01*
X-117204Y-56489D01*
X-118920Y-57479D01*
X-120321Y-58880D01*
X-121311Y-60596D01*
X-121824Y-62509D01*
Y-64490D01*
X-121311Y-66404D01*
X-120321Y-68120D01*
X-118920Y-69521D01*
X-117204Y-70511D01*
X-115290Y-71024D01*
X-113309D01*
X-111396Y-70511D01*
X-109680Y-69521D01*
X-108279Y-68120D01*
X-107289Y-66404D01*
X-106776Y-64490D01*
Y-63911D01*
X-106686Y-63779D01*
X-105501Y-58140D01*
X-104659Y-57575D01*
X-103169Y-58287D01*
Y-74472D01*
X-108760Y-80063D01*
X-114579Y-81286D01*
X-114711Y-81376D01*
X-115290D01*
X-117204Y-81889D01*
X-118920Y-82879D01*
X-120321Y-84280D01*
X-121311Y-85996D01*
X-121824Y-87909D01*
Y-89890D01*
X-121311Y-91804D01*
X-120321Y-93520D01*
X-118920Y-94921D01*
X-117204Y-95911D01*
X-115290Y-96424D01*
X-113309D01*
X-111396Y-95911D01*
X-109680Y-94921D01*
X-108279Y-93520D01*
X-107289Y-91804D01*
X-106776Y-89890D01*
Y-89311D01*
X-106686Y-89179D01*
X-105463Y-83360D01*
X-101529Y-79425D01*
X-100121Y-80008D01*
Y-96825D01*
X-108760Y-105463D01*
X-114579Y-106686D01*
X-114711Y-106776D01*
X-115290D01*
X-117204Y-107289D01*
X-118920Y-108279D01*
X-120321Y-109680D01*
X-121311Y-111396D01*
X-121824Y-113309D01*
Y-115290D01*
X-121311Y-117204D01*
X-120321Y-118920D01*
X-118920Y-120321D01*
X-117204Y-121311D01*
X-115290Y-121824D01*
X-113309D01*
X-111396Y-121311D01*
X-109680Y-120321D01*
X-108279Y-118920D01*
X-107289Y-117204D01*
X-106776Y-115290D01*
Y-114711D01*
X-106686Y-114579D01*
X-105463Y-108760D01*
X-96142Y-99438D01*
X-95637Y-98682D01*
X-95459Y-97790D01*
Y-29755D01*
X-85225Y-19521D01*
X-73607D01*
X-72942Y-20423D01*
X-72689Y-21045D01*
X-72817Y-21688D01*
Y-26312D01*
X-72699Y-26907D01*
X-73277Y-27630D01*
X-73883Y-28066D01*
X-74386Y-27858D01*
X-76186D01*
X-77849Y-28547D01*
X-79121Y-29819D01*
X-79810Y-31482D01*
Y-33282D01*
X-79121Y-34945D01*
X-77849Y-36217D01*
X-76186Y-36906D01*
X-75578D01*
X-74946Y-38430D01*
X-80642Y-44126D01*
X-81147Y-44882D01*
X-81325Y-45774D01*
Y-103428D01*
X-108760Y-130863D01*
X-114579Y-132086D01*
X-114711Y-132176D01*
X-115290D01*
X-117204Y-132689D01*
X-118920Y-133679D01*
X-120321Y-135080D01*
X-121311Y-136796D01*
X-121824Y-138709D01*
Y-140690D01*
X-121311Y-142604D01*
X-120321Y-144320D01*
X-118920Y-145721D01*
X-117204Y-146711D01*
X-115290Y-147224D01*
X-113309D01*
X-111396Y-146711D01*
X-109680Y-145721D01*
X-108279Y-144320D01*
X-107289Y-142604D01*
X-106776Y-140690D01*
Y-140111D01*
X-106686Y-139979D01*
X-105463Y-134160D01*
X-79685Y-108381D01*
X-78277Y-108964D01*
Y-125780D01*
X-108760Y-156263D01*
X-114579Y-157486D01*
X-114711Y-157576D01*
X-115290D01*
X-117204Y-158089D01*
X-118920Y-159079D01*
X-120321Y-160480D01*
X-121311Y-162196D01*
X-121824Y-164109D01*
Y-166091D01*
X-121311Y-168004D01*
X-120321Y-169720D01*
X-118920Y-171121D01*
X-117204Y-172111D01*
X-115290Y-172624D01*
X-113309D01*
X-111396Y-172111D01*
X-109680Y-171121D01*
X-108279Y-169720D01*
X-107289Y-168004D01*
X-106776Y-166091D01*
Y-165511D01*
X-106686Y-165379D01*
X-105463Y-159560D01*
X-76637Y-130733D01*
X-75229Y-131316D01*
Y-148132D01*
X-108760Y-181663D01*
X-114579Y-182886D01*
X-114711Y-182976D01*
X-115290D01*
X-117204Y-183489D01*
X-118920Y-184479D01*
X-120321Y-185880D01*
X-121311Y-187596D01*
X-121824Y-189509D01*
Y-191490D01*
X-121311Y-193404D01*
X-120321Y-195120D01*
X-118920Y-196521D01*
X-117204Y-197511D01*
X-115290Y-198024D01*
X-113309D01*
X-111396Y-197511D01*
X-109680Y-196521D01*
X-108279Y-195120D01*
X-107289Y-193404D01*
X-106776Y-191490D01*
Y-190911D01*
X-106686Y-190779D01*
X-105463Y-184960D01*
X-73589Y-153085D01*
X-72181Y-153668D01*
Y-170485D01*
X-108760Y-207063D01*
X-114579Y-208286D01*
X-114711Y-208376D01*
X-115290D01*
X-117204Y-208889D01*
X-118920Y-209879D01*
X-120321Y-211280D01*
X-121311Y-212996D01*
X-121824Y-214909D01*
Y-216891D01*
X-121311Y-218804D01*
X-120321Y-220520D01*
X-118920Y-221921D01*
X-117204Y-222911D01*
X-115290Y-223424D01*
X-113309D01*
X-111396Y-222911D01*
X-109680Y-221921D01*
X-108279Y-220520D01*
X-107289Y-218804D01*
X-106776Y-216891D01*
Y-216311D01*
X-106686Y-216179D01*
X-105463Y-210360D01*
X-70541Y-175437D01*
X-69133Y-176020D01*
Y-192836D01*
X-110882Y-234585D01*
X-111396Y-234289D01*
X-113309Y-233776D01*
X-115290D01*
X-117204Y-234289D01*
X-118920Y-235279D01*
X-120321Y-236680D01*
X-121311Y-238396D01*
X-121824Y-240309D01*
Y-242290D01*
X-121311Y-244204D01*
X-120321Y-245920D01*
X-118920Y-247321D01*
X-117204Y-248311D01*
X-115290Y-248824D01*
X-113309D01*
X-111396Y-248311D01*
X-109680Y-247321D01*
X-108279Y-245920D01*
X-107289Y-244204D01*
X-106776Y-242290D01*
Y-240309D01*
X-107289Y-238396D01*
X-107585Y-237882D01*
X-67493Y-197789D01*
X-66085Y-198372D01*
Y-215189D01*
X-110882Y-259986D01*
X-111396Y-259689D01*
X-113309Y-259176D01*
X-115290D01*
X-117204Y-259689D01*
X-118920Y-260679D01*
X-120321Y-262080D01*
X-121311Y-263796D01*
X-121824Y-265709D01*
Y-267691D01*
X-121311Y-269604D01*
X-120321Y-271320D01*
X-118920Y-272721D01*
X-117204Y-273711D01*
X-115290Y-274224D01*
X-113309D01*
X-111396Y-273711D01*
X-109680Y-272721D01*
X-108279Y-271320D01*
X-107289Y-269604D01*
X-106776Y-267691D01*
Y-265709D01*
X-107289Y-263796D01*
X-107585Y-263282D01*
X-85647Y-241343D01*
X-84239Y-241926D01*
Y-258743D01*
X-110882Y-285385D01*
X-111396Y-285089D01*
X-113309Y-284576D01*
X-115290D01*
X-117204Y-285089D01*
X-118920Y-286079D01*
X-120321Y-287480D01*
X-121311Y-289196D01*
X-121824Y-291109D01*
Y-293090D01*
X-121311Y-295004D01*
X-120321Y-296720D01*
X-118920Y-298121D01*
X-117204Y-299111D01*
X-115290Y-299624D01*
X-113309D01*
X-111396Y-299111D01*
X-109680Y-298121D01*
X-108279Y-296720D01*
X-107289Y-295004D01*
X-106776Y-293090D01*
Y-291109D01*
X-107289Y-289196D01*
X-107585Y-288682D01*
X-82599Y-263695D01*
X-81191Y-264278D01*
Y-281095D01*
X-110882Y-310786D01*
X-111396Y-310489D01*
X-113309Y-309976D01*
X-115290D01*
X-117204Y-310489D01*
X-118920Y-311479D01*
X-120321Y-312880D01*
X-121311Y-314596D01*
X-121824Y-316509D01*
Y-318491D01*
X-121311Y-320404D01*
X-120321Y-322120D01*
X-118920Y-323521D01*
X-117204Y-324511D01*
X-115290Y-325024D01*
X-113309D01*
X-111396Y-324511D01*
X-109680Y-323521D01*
X-108279Y-322120D01*
X-107289Y-320404D01*
X-106776Y-318491D01*
Y-316509D01*
X-107289Y-314596D01*
X-107585Y-314082D01*
X-87855Y-294351D01*
X-86331Y-294982D01*
Y-311635D01*
X-110882Y-336185D01*
X-111396Y-335889D01*
X-113309Y-335376D01*
X-115290D01*
X-117204Y-335889D01*
X-118920Y-336879D01*
X-120321Y-338280D01*
X-121311Y-339996D01*
X-121824Y-341909D01*
Y-343890D01*
X-121311Y-345804D01*
X-120321Y-347520D01*
X-118920Y-348921D01*
X-117204Y-349911D01*
X-115290Y-350424D01*
X-113309D01*
X-111396Y-349911D01*
X-109680Y-348921D01*
X-108279Y-347520D01*
X-107289Y-345804D01*
X-106776Y-343890D01*
Y-341909D01*
X-107289Y-339996D01*
X-107585Y-339482D01*
X-84239Y-316135D01*
X-82831Y-316718D01*
Y-333535D01*
X-110882Y-361586D01*
X-111396Y-361289D01*
X-113309Y-360776D01*
X-115290D01*
X-117204Y-361289D01*
X-118920Y-362279D01*
X-120321Y-363680D01*
X-121311Y-365396D01*
X-121824Y-367309D01*
Y-369291D01*
X-121311Y-371204D01*
X-120321Y-372920D01*
X-118920Y-374321D01*
X-117204Y-375311D01*
X-115290Y-375824D01*
X-113309D01*
X-111396Y-375311D01*
X-109680Y-374321D01*
X-108279Y-372920D01*
X-107289Y-371204D01*
X-106776Y-369291D01*
Y-367309D01*
X-107289Y-365396D01*
X-107585Y-364882D01*
X-78852Y-336148D01*
X-78347Y-335392D01*
X-78169Y-334500D01*
Y-295990D01*
X-73224Y-291045D01*
X-56615D01*
X-50372Y-297288D01*
X-50539Y-299111D01*
X-51042Y-299863D01*
X-51219Y-300750D01*
Y-313750D01*
X-51042Y-314637D01*
X-50539Y-315389D01*
X-49787Y-315892D01*
X-48981Y-316052D01*
Y-316786D01*
X-48803Y-317678D01*
X-48298Y-318434D01*
X-41146Y-325587D01*
X-41070Y-325694D01*
X-41048Y-325770D01*
X-40969Y-326755D01*
X-41481Y-327381D01*
X-43388Y-327464D01*
X-43937Y-326915D01*
X-45600Y-326226D01*
X-47400D01*
X-49063Y-326915D01*
X-50335Y-328187D01*
X-51024Y-329850D01*
Y-331650D01*
X-50335Y-333313D01*
X-49063Y-334585D01*
X-47400Y-335274D01*
X-45600D01*
X-43937Y-334585D01*
X-42676Y-333324D01*
X-41736D01*
X-40712Y-334325D01*
X-40711Y-334326D01*
X-40660Y-334409D01*
X-40658Y-335250D01*
X-40660Y-336091D01*
X-40711Y-336174D01*
X-41573Y-337419D01*
X-41750D01*
X-42642Y-337597D01*
X-43398Y-338102D01*
X-56780Y-351484D01*
X-58329Y-351283D01*
X-58373Y-351065D01*
X-58930Y-350230D01*
X-59765Y-349673D01*
X-60750Y-349477D01*
X-63250D01*
X-64235Y-349673D01*
X-65070Y-350230D01*
X-65628Y-351065D01*
X-65823Y-352050D01*
Y-355950D01*
X-65628Y-356935D01*
X-65070Y-357770D01*
X-64235Y-358328D01*
X-63250Y-358523D01*
X-60750D01*
X-59765Y-358328D01*
X-58930Y-357770D01*
X-58373Y-356935D01*
X-58252Y-356331D01*
X-56000D01*
X-55108Y-356153D01*
X-54352Y-355648D01*
X-42338Y-343634D01*
X-40657Y-343407D01*
X-39925Y-343896D01*
X-39062Y-344067D01*
X-34437D01*
X-33575Y-343896D01*
X-32843Y-343407D01*
X-32354Y-342675D01*
X-32183Y-341813D01*
Y-337687D01*
X-32354Y-336825D01*
X-32789Y-336174D01*
X-32840Y-336091D01*
X-32842Y-335250D01*
X-32840Y-334409D01*
X-32789Y-334326D01*
X-32354Y-333675D01*
X-32183Y-332812D01*
Y-328688D01*
X-32339Y-327903D01*
X-32343Y-327806D01*
X-31488Y-326379D01*
X4263D01*
X4504Y-326331D01*
X5000D01*
X5892Y-326153D01*
X6648Y-325648D01*
X22715Y-309581D01*
X29382D01*
Y-313750D01*
X29558Y-314637D01*
X30061Y-315389D01*
X30813Y-315892D01*
X31619Y-316052D01*
Y-319196D01*
X30825Y-319354D01*
X30093Y-319843D01*
X29604Y-320575D01*
X29433Y-321437D01*
Y-325563D01*
X29604Y-326425D01*
X30039Y-327076D01*
X30090Y-327159D01*
X30092Y-328000D01*
X30090Y-328841D01*
X30039Y-328924D01*
X29604Y-329575D01*
X29433Y-330438D01*
Y-334562D01*
X29604Y-335425D01*
X30093Y-336157D01*
X30825Y-336646D01*
X31688Y-336817D01*
X36312D01*
X37175Y-336646D01*
X37907Y-336157D01*
X38396Y-335425D01*
X38514Y-334831D01*
X42486D01*
X42604Y-335425D01*
X43093Y-336157D01*
X43825Y-336646D01*
X44688Y-336817D01*
X49313D01*
X50175Y-336646D01*
X50907Y-336157D01*
X51396Y-335425D01*
X51514Y-334831D01*
X54500D01*
X55392Y-334653D01*
X56148Y-334148D01*
X64966Y-325331D01*
X67433D01*
Y-325562D01*
X67604Y-326425D01*
X68093Y-327157D01*
X68825Y-327646D01*
X69688Y-327817D01*
X74313D01*
X75175Y-327646D01*
X75907Y-327157D01*
X76104Y-326862D01*
X77730Y-326629D01*
X78669Y-327504D01*
Y-345035D01*
X75352Y-348352D01*
X74847Y-349108D01*
X74669Y-350000D01*
Y-357069D01*
X74437Y-357165D01*
X73165Y-358437D01*
X72476Y-360100D01*
Y-361900D01*
X73165Y-363563D01*
X74437Y-364835D01*
X76100Y-365524D01*
X77900D01*
X79443Y-364885D01*
X80067Y-365132D01*
X80919Y-365634D01*
Y-382535D01*
X77188Y-386266D01*
X76769Y-386282D01*
X75377Y-385922D01*
X75157Y-385593D01*
X74425Y-385104D01*
X73562Y-384933D01*
X69437D01*
X68575Y-385104D01*
X67261Y-384149D01*
X67229Y-384069D01*
X69708Y-381590D01*
X70213Y-380834D01*
X70391Y-379942D01*
Y-365069D01*
X70213Y-364177D01*
X69708Y-363421D01*
X64979Y-358692D01*
X65070Y-357770D01*
X65628Y-356935D01*
X65823Y-355950D01*
Y-352050D01*
X65628Y-351065D01*
X65070Y-350230D01*
X64235Y-349673D01*
X63250Y-349477D01*
X61502D01*
X61442Y-349381D01*
X61035Y-347953D01*
X62001Y-346987D01*
X62690Y-345324D01*
Y-343524D01*
X62001Y-341861D01*
X60729Y-340589D01*
X59066Y-339900D01*
X57266D01*
X55603Y-340589D01*
X54331Y-341861D01*
X53642Y-343524D01*
Y-345324D01*
X54331Y-346987D01*
X55603Y-348259D01*
X57266Y-348948D01*
X58106D01*
X58495Y-349553D01*
X58769Y-350472D01*
X58373Y-351065D01*
X58177Y-352050D01*
Y-355950D01*
X58373Y-356935D01*
X58930Y-357770D01*
X59669Y-358263D01*
Y-359009D01*
X59847Y-359901D01*
X60352Y-360657D01*
X61343Y-361648D01*
X60393Y-362847D01*
X59501Y-362669D01*
X51468D01*
Y-350000D01*
X51195Y-348625D01*
X50416Y-347459D01*
X49250Y-346680D01*
X47875Y-346407D01*
X35875D01*
X34500Y-346680D01*
X33334Y-347459D01*
X32555Y-348625D01*
X32282Y-350000D01*
Y-380000D01*
X32555Y-381375D01*
X33334Y-382541D01*
X34500Y-383320D01*
X35875Y-383593D01*
X39544D01*
Y-389910D01*
X35785Y-393669D01*
X-51035D01*
X-59668Y-385036D01*
Y-380262D01*
X-58930Y-379770D01*
X-58373Y-378935D01*
X-58177Y-377950D01*
Y-374050D01*
X-58373Y-373065D01*
X-58930Y-372230D01*
X-59668Y-371738D01*
Y-367500D01*
X-59845Y-366608D01*
X-60350Y-365852D01*
X-67919Y-358283D01*
Y-342314D01*
X-67075Y-342146D01*
X-66343Y-341657D01*
X-65854Y-340925D01*
X-65736Y-340331D01*
X-64014D01*
X-63896Y-340925D01*
X-63407Y-341657D01*
X-62675Y-342146D01*
X-61813Y-342317D01*
X-57188D01*
X-56325Y-342146D01*
X-55593Y-341657D01*
X-55104Y-340925D01*
X-54933Y-340062D01*
Y-335938D01*
X-55104Y-335075D01*
X-55539Y-334424D01*
X-55590Y-334341D01*
X-55592Y-333503D01*
X-55590Y-332659D01*
X-55539Y-332576D01*
X-55104Y-331925D01*
X-54933Y-331062D01*
Y-326937D01*
X-55104Y-326075D01*
X-55593Y-325343D01*
X-56325Y-324854D01*
X-57019Y-324716D01*
Y-316052D01*
X-56213Y-315892D01*
X-55461Y-315389D01*
X-54958Y-314637D01*
X-54781Y-313750D01*
Y-300750D01*
X-54958Y-299863D01*
X-55461Y-299111D01*
X-56213Y-298608D01*
X-57100Y-298431D01*
X-61600D01*
X-62487Y-298608D01*
X-63239Y-299111D01*
X-63742Y-299863D01*
X-63918Y-300750D01*
Y-313750D01*
X-63742Y-314637D01*
X-63239Y-315389D01*
X-62487Y-315892D01*
X-61681Y-316052D01*
Y-324683D01*
X-61813D01*
X-62675Y-324854D01*
X-63407Y-325343D01*
X-63896Y-326075D01*
X-64067Y-326937D01*
Y-331062D01*
X-63896Y-331925D01*
X-63461Y-332576D01*
X-63410Y-332659D01*
X-63408Y-333497D01*
X-63410Y-334341D01*
X-63461Y-334424D01*
X-64291Y-335623D01*
X-65749Y-335602D01*
X-65854Y-335075D01*
X-66343Y-334343D01*
X-67075Y-333854D01*
X-67937Y-333683D01*
X-72562D01*
X-73425Y-333854D01*
X-74157Y-334343D01*
X-74646Y-335075D01*
X-74817Y-335938D01*
Y-340062D01*
X-74646Y-340925D01*
X-74157Y-341657D01*
X-73425Y-342146D01*
X-72581Y-342314D01*
Y-359248D01*
X-72403Y-360140D01*
X-71898Y-360896D01*
X-64329Y-368465D01*
Y-371735D01*
X-65070Y-372230D01*
X-65628Y-373065D01*
X-65823Y-374050D01*
Y-377950D01*
X-65628Y-378935D01*
X-65070Y-379770D01*
X-64329Y-380265D01*
Y-386002D01*
X-64152Y-386894D01*
X-63646Y-387650D01*
X-53648Y-397648D01*
X-52892Y-398153D01*
X-52000Y-398331D01*
X36750D01*
X37642Y-398153D01*
X38398Y-397648D01*
X43523Y-392523D01*
X44028Y-391767D01*
X44206Y-390875D01*
Y-383593D01*
X47875D01*
X49250Y-383320D01*
X50416Y-382541D01*
X51195Y-381375D01*
X51468Y-380000D01*
Y-367331D01*
X58536D01*
X59669Y-368464D01*
Y-371737D01*
X58930Y-372230D01*
X58373Y-373065D01*
X58177Y-374050D01*
Y-377950D01*
X58373Y-378935D01*
X58930Y-379770D01*
X59765Y-380328D01*
X60750Y-380523D01*
X62028D01*
X62659Y-382047D01*
X61248Y-383459D01*
X60742Y-384215D01*
X60599Y-384933D01*
X60437D01*
X59575Y-385104D01*
X58843Y-385593D01*
X58354Y-386325D01*
X58183Y-387188D01*
Y-391813D01*
X58354Y-392675D01*
X58843Y-393407D01*
X59575Y-393896D01*
X60437Y-394067D01*
X64563D01*
X65425Y-393896D01*
X66076Y-393461D01*
X66159Y-393410D01*
X67003Y-393408D01*
X67841Y-393410D01*
X67924Y-393461D01*
X68575Y-393896D01*
X69437Y-394067D01*
X73562D01*
X74425Y-393896D01*
X75157Y-393407D01*
X75646Y-392675D01*
X75814Y-391831D01*
X77250D01*
X78142Y-391653D01*
X78898Y-391148D01*
X84898Y-385148D01*
X85403Y-384392D01*
X85581Y-383500D01*
Y-365965D01*
X89278Y-362268D01*
X89783Y-361512D01*
X89961Y-360620D01*
Y-352755D01*
X97486Y-345231D01*
X107135D01*
X107289Y-345804D01*
X108279Y-347520D01*
X109680Y-348921D01*
X111396Y-349911D01*
X113309Y-350424D01*
X115291D01*
X117204Y-349911D01*
X118920Y-348921D01*
X120321Y-347520D01*
X121311Y-345804D01*
X121824Y-343890D01*
Y-341909D01*
X121311Y-339996D01*
X120321Y-338280D01*
X118920Y-336879D01*
X117204Y-335889D01*
X115291Y-335376D01*
X113309D01*
X111396Y-335889D01*
X109680Y-336879D01*
X108279Y-338280D01*
X107289Y-339996D01*
X107135Y-340569D01*
X96520D01*
X95628Y-340747D01*
X94872Y-341252D01*
X85982Y-350142D01*
X85477Y-350898D01*
X85299Y-351790D01*
Y-359655D01*
X83044Y-361910D01*
X81524Y-361274D01*
Y-360100D01*
X80835Y-358437D01*
X79563Y-357165D01*
X79331Y-357069D01*
Y-350965D01*
X82648Y-347648D01*
X83153Y-346892D01*
X83331Y-346000D01*
Y-326000D01*
X83153Y-325108D01*
X82648Y-324352D01*
X80148Y-321852D01*
X79392Y-321347D01*
X78500Y-321169D01*
X76514D01*
X76396Y-320575D01*
X75907Y-319843D01*
X75175Y-319354D01*
X74331Y-319186D01*
Y-316062D01*
X75187Y-315892D01*
X75939Y-315389D01*
X76442Y-314637D01*
X76618Y-313750D01*
Y-300750D01*
X76442Y-299863D01*
X75939Y-299111D01*
X75187Y-298608D01*
X74300Y-298431D01*
X69800D01*
X68913Y-298608D01*
X68161Y-299111D01*
X67658Y-299863D01*
X67481Y-300750D01*
Y-313750D01*
X67658Y-314637D01*
X68161Y-315389D01*
X68913Y-315892D01*
X69669Y-316042D01*
Y-319186D01*
X68825Y-319354D01*
X68093Y-319843D01*
X67604Y-320575D01*
X67586Y-320669D01*
X64965D01*
X61810Y-317514D01*
X61994Y-315990D01*
X62487Y-315892D01*
X63239Y-315389D01*
X63742Y-314637D01*
X63919Y-313750D01*
Y-300750D01*
X63742Y-299863D01*
X63239Y-299111D01*
X62487Y-298608D01*
X61600Y-298431D01*
X57100D01*
X56213Y-298608D01*
X55461Y-299111D01*
X54958Y-299863D01*
X54781Y-300750D01*
Y-313750D01*
X54958Y-314637D01*
X55461Y-315389D01*
X56213Y-315892D01*
X57019Y-316052D01*
Y-318350D01*
X57197Y-319242D01*
X57702Y-319998D01*
X60704Y-323000D01*
X53535Y-330169D01*
X51823D01*
X50961Y-328924D01*
X50910Y-328841D01*
X50908Y-328000D01*
X50910Y-327159D01*
X50961Y-327076D01*
X51396Y-326425D01*
X51567Y-325563D01*
Y-321437D01*
X51396Y-320575D01*
X50907Y-319843D01*
X50175Y-319354D01*
X49313Y-319183D01*
X48981D01*
Y-316052D01*
X49787Y-315892D01*
X50539Y-315389D01*
X51042Y-314637D01*
X51219Y-313750D01*
Y-300750D01*
X51042Y-299863D01*
X50539Y-299111D01*
X49787Y-298608D01*
X48938Y-298439D01*
Y-297714D01*
X48760Y-296822D01*
X48255Y-296066D01*
X46731Y-294542D01*
X45975Y-294037D01*
X45083Y-293859D01*
X27810D01*
X26918Y-294037D01*
X26162Y-294542D01*
X2035Y-318669D01*
X-30034D01*
X-31184Y-317520D01*
X-30817Y-315893D01*
X-30813Y-315892D01*
X-30061Y-315389D01*
X-29558Y-314637D01*
X-29381Y-313750D01*
Y-300750D01*
X-29558Y-299863D01*
X-30061Y-299111D01*
X-30813Y-298608D01*
X-31619Y-298447D01*
Y-297714D01*
X-31797Y-296822D01*
X-32302Y-296066D01*
X-45064Y-283304D01*
X-45820Y-282799D01*
X-46712Y-282621D01*
X-75087D01*
X-75374Y-282509D01*
X-76529Y-281356D01*
Y-263275D01*
X-75026Y-262277D01*
X-74615Y-262457D01*
X-74381Y-262730D01*
Y-267950D01*
X-74203Y-268842D01*
X-73698Y-269598D01*
X-72428Y-270868D01*
X-72524Y-271100D01*
Y-272900D01*
X-71835Y-274563D01*
X-70563Y-275835D01*
X-68900Y-276524D01*
X-67100D01*
X-65437Y-275835D01*
X-64165Y-274563D01*
X-63476Y-272900D01*
Y-271100D01*
X-64165Y-269437D01*
X-65437Y-268165D01*
X-67100Y-267476D01*
X-68900D01*
X-69719Y-266168D01*
Y-261553D01*
X-68913Y-261392D01*
X-68161Y-260889D01*
X-67658Y-260137D01*
X-67481Y-259250D01*
Y-246250D01*
X-67658Y-245363D01*
X-68161Y-244611D01*
X-68913Y-244108D01*
X-69800Y-243932D01*
X-74300D01*
X-75005Y-244072D01*
X-75401Y-243959D01*
X-76529Y-243172D01*
Y-241136D01*
X-64900Y-229506D01*
X-63761Y-230437D01*
X-64450Y-232100D01*
Y-233900D01*
X-63761Y-235563D01*
X-62489Y-236835D01*
X-60826Y-237524D01*
X-59026D01*
X-57363Y-236835D01*
X-57084Y-236556D01*
X-56912Y-236511D01*
X-55206Y-236833D01*
X-55157Y-236907D01*
X-54425Y-237396D01*
X-53831Y-237514D01*
Y-238500D01*
X-53653Y-239392D01*
X-53148Y-240148D01*
X-50485Y-242811D01*
X-50539Y-244611D01*
X-51042Y-245363D01*
X-51219Y-246250D01*
Y-259250D01*
X-51042Y-260137D01*
X-50539Y-260889D01*
X-49787Y-261392D01*
X-48900Y-261569D01*
X-44400D01*
X-43513Y-261392D01*
X-42761Y-260889D01*
X-42258Y-260137D01*
X-42081Y-259250D01*
Y-246250D01*
X-42258Y-245363D01*
X-42761Y-244611D01*
X-43513Y-244108D01*
X-44319Y-243948D01*
Y-243350D01*
X-44497Y-242458D01*
X-45002Y-241702D01*
X-47989Y-238715D01*
X-47843Y-236907D01*
X-47354Y-236175D01*
X-47183Y-235312D01*
Y-230688D01*
X-47354Y-229825D01*
X-47843Y-229093D01*
X-48575Y-228604D01*
X-49437Y-228433D01*
X-53562D01*
X-54425Y-228604D01*
X-55157Y-229093D01*
X-55206Y-229167D01*
X-56912Y-229489D01*
X-57084Y-229444D01*
X-57363Y-229165D01*
X-59026Y-228476D01*
X-60826D01*
X-62489Y-229165D01*
X-63420Y-228026D01*
X-56010Y-220617D01*
X-55505Y-219860D01*
X-55327Y-218969D01*
Y-176500D01*
Y-73381D01*
X-50868Y-68922D01*
X-49117Y-69325D01*
X-48771Y-70159D01*
X-47499Y-71431D01*
X-45836Y-72120D01*
X-44036D01*
X-42373Y-71431D01*
X-41101Y-70159D01*
X-40412Y-68496D01*
Y-68253D01*
X-40404Y-68245D01*
X-39825Y-66792D01*
X-35330D01*
X-34619Y-67504D01*
X-34592Y-67521D01*
X-31742Y-70372D01*
X-31044Y-70838D01*
X-31010Y-70863D01*
X-30556Y-72505D01*
X-37694Y-79643D01*
X-38199Y-80399D01*
X-38377Y-81291D01*
Y-124975D01*
Y-137170D01*
X-38199Y-138062D01*
X-37694Y-138818D01*
X-2720Y-173792D01*
X-1963Y-174297D01*
X-1072Y-174475D01*
X34179D01*
X83277Y-223573D01*
Y-288807D01*
X83454Y-289699D01*
X83959Y-290455D01*
X107586Y-314082D01*
X107289Y-314596D01*
X106776Y-316509D01*
Y-318491D01*
X107289Y-320404D01*
X108279Y-322120D01*
X109680Y-323521D01*
X111396Y-324511D01*
X113309Y-325024D01*
X115291D01*
X117204Y-324511D01*
X118920Y-323521D01*
X120321Y-322120D01*
X121311Y-320404D01*
X121824Y-318491D01*
Y-316509D01*
X121311Y-314596D01*
X120321Y-312880D01*
X118920Y-311479D01*
X117204Y-310489D01*
X115291Y-309976D01*
X113309D01*
X111396Y-310489D01*
X110882Y-310786D01*
X87938Y-287842D01*
Y-271025D01*
X89346Y-270442D01*
X105463Y-286560D01*
X106686Y-292379D01*
X106776Y-292511D01*
Y-293090D01*
X107289Y-295004D01*
X108279Y-296720D01*
X109680Y-298121D01*
X111396Y-299111D01*
X113309Y-299624D01*
X115291D01*
X117204Y-299111D01*
X118920Y-298121D01*
X120321Y-296720D01*
X121311Y-295004D01*
X121824Y-293090D01*
Y-291109D01*
X121311Y-289196D01*
X120321Y-287480D01*
X118920Y-286079D01*
X117204Y-285089D01*
X115291Y-284576D01*
X114711D01*
X114579Y-284486D01*
X108760Y-283263D01*
X90986Y-265490D01*
Y-248673D01*
X92394Y-248090D01*
X107586Y-263282D01*
X107289Y-263796D01*
X106776Y-265709D01*
Y-267691D01*
X107289Y-269604D01*
X108279Y-271320D01*
X109680Y-272721D01*
X111396Y-273711D01*
X113309Y-274224D01*
X115291D01*
X117204Y-273711D01*
X118920Y-272721D01*
X120321Y-271320D01*
X121311Y-269604D01*
X121824Y-267691D01*
Y-265709D01*
X121311Y-263796D01*
X120321Y-262080D01*
X118920Y-260679D01*
X117204Y-259689D01*
X115291Y-259176D01*
X113309D01*
X111396Y-259689D01*
X110882Y-259986D01*
X94641Y-243745D01*
Y-238766D01*
X96049Y-238183D01*
X100815Y-242948D01*
X101571Y-243453D01*
X102463Y-243631D01*
X107135D01*
X107289Y-244204D01*
X108279Y-245920D01*
X109680Y-247321D01*
X111396Y-248311D01*
X113309Y-248824D01*
X115291D01*
X117204Y-248311D01*
X118920Y-247321D01*
X120321Y-245920D01*
X121311Y-244204D01*
X121824Y-242290D01*
Y-240309D01*
X121311Y-238396D01*
X120321Y-236680D01*
X118920Y-235279D01*
X117204Y-234289D01*
X115291Y-233776D01*
X113309D01*
X111396Y-234289D01*
X109680Y-235279D01*
X108279Y-236680D01*
X107289Y-238396D01*
X107135Y-238969D01*
X103428D01*
X98296Y-233838D01*
Y-220034D01*
X98119Y-219142D01*
X97614Y-218386D01*
X40580Y-161352D01*
X39824Y-160847D01*
X38932Y-160669D01*
X3681D01*
X-24317Y-132671D01*
Y-85790D01*
X-15764Y-77237D01*
X-13930Y-77516D01*
X-10660Y-80786D01*
X-9928Y-81275D01*
X-9065Y-81446D01*
X-8834Y-81636D01*
Y-86020D01*
X-10216Y-87403D01*
X-12670Y-88511D01*
X-12680Y-88521D01*
X-14225Y-89161D01*
X-15497Y-90433D01*
X-16186Y-92096D01*
Y-93896D01*
X-15497Y-95559D01*
X-14225Y-96831D01*
X-12562Y-97520D01*
X-10762D01*
X-9099Y-96831D01*
X-7827Y-95559D01*
X-7138Y-93896D01*
Y-93143D01*
X-7120Y-93123D01*
X-6367Y-90832D01*
X-4441Y-88906D01*
X-3883Y-88071D01*
X-3687Y-87086D01*
Y-79080D01*
X-3883Y-78095D01*
X-4134Y-77718D01*
X-4194Y-77438D01*
X-4230Y-77385D01*
X-4065Y-77138D01*
X-3894Y-76275D01*
X-4065Y-75412D01*
X-4554Y-74680D01*
X-5759Y-73475D01*
X-6642Y-69967D01*
X-6644Y-69965D01*
X-6644Y-69962D01*
X-6669Y-69928D01*
Y-63317D01*
X-5145Y-62685D01*
X-1059Y-66771D01*
Y-92733D01*
X-4163Y-95837D01*
X-4826Y-96830D01*
X-5059Y-98000D01*
X-5059Y-98000D01*
Y-127388D01*
X-5059Y-127388D01*
X-4826Y-128559D01*
X-4163Y-129551D01*
X-4163Y-129551D01*
X-4059Y-129655D01*
X-4059Y-141000D01*
X-3826Y-142170D01*
X-3494Y-142668D01*
X-3163Y-143163D01*
X-3163Y-143163D01*
X5399Y-151725D01*
X6392Y-152388D01*
X7562Y-152621D01*
X7562Y-152621D01*
X28438Y-152621D01*
X28438Y-152621D01*
X29609Y-152388D01*
X30601Y-151725D01*
X30601Y-151725D01*
X41163Y-141163D01*
X41826Y-140170D01*
X42059Y-139000D01*
X42059Y-139000D01*
Y-94000D01*
X42059Y-94000D01*
X41826Y-92829D01*
X41163Y-91837D01*
X41163Y-91837D01*
X32163Y-82837D01*
X32163Y-82837D01*
X31170Y-82174D01*
X30000Y-81941D01*
X30000Y-81941D01*
X17267D01*
X14059Y-78733D01*
Y-67413D01*
X16812D01*
X17675Y-67242D01*
X18292Y-66830D01*
X18898Y-66905D01*
X20098Y-67547D01*
X20629Y-68923D01*
X20644Y-68938D01*
Y-69258D01*
X21333Y-70921D01*
X22605Y-72193D01*
X24268Y-72882D01*
X26068D01*
X27731Y-72193D01*
X29003Y-70921D01*
X29223Y-70389D01*
X31021Y-70032D01*
X66955Y-105966D01*
Y-108678D01*
X65431Y-109696D01*
X64900Y-109476D01*
X63100D01*
X61437Y-110165D01*
X60165Y-111437D01*
X59476Y-113100D01*
Y-114900D01*
X60165Y-116563D01*
X61437Y-117835D01*
X63100Y-118524D01*
X64900D01*
X65431Y-118304D01*
X66955Y-119322D01*
Y-170886D01*
X67133Y-171778D01*
X67638Y-172534D01*
X107586Y-212482D01*
X107289Y-212996D01*
X106776Y-214909D01*
Y-216891D01*
X107289Y-218804D01*
X108279Y-220520D01*
X109680Y-221921D01*
X111396Y-222911D01*
X113309Y-223424D01*
X115291D01*
X117204Y-222911D01*
X118920Y-221921D01*
X120321Y-220520D01*
X121311Y-218804D01*
X121824Y-216891D01*
Y-214909D01*
X121311Y-212996D01*
X120321Y-211280D01*
X118920Y-209879D01*
X117204Y-208889D01*
X115291Y-208376D01*
X113309D01*
X111396Y-208889D01*
X110882Y-209186D01*
X71617Y-169921D01*
Y-153104D01*
X73025Y-152521D01*
X107586Y-187082D01*
X107289Y-187596D01*
X106776Y-189509D01*
Y-191490D01*
X107289Y-193404D01*
X108279Y-195120D01*
X109680Y-196521D01*
X111396Y-197511D01*
X113309Y-198024D01*
X115291D01*
X117204Y-197511D01*
X118920Y-196521D01*
X120321Y-195120D01*
X121311Y-193404D01*
X121824Y-191490D01*
Y-189509D01*
X121311Y-187596D01*
X120321Y-185880D01*
X118920Y-184479D01*
X117204Y-183489D01*
X115291Y-182976D01*
X113309D01*
X111396Y-183489D01*
X110882Y-183785D01*
X74665Y-147569D01*
Y-130752D01*
X76073Y-130169D01*
X107586Y-161682D01*
X107289Y-162196D01*
X106776Y-164109D01*
Y-166091D01*
X107289Y-168004D01*
X108279Y-169720D01*
X109680Y-171121D01*
X111396Y-172111D01*
X113309Y-172624D01*
X115291D01*
X117204Y-172111D01*
X118920Y-171121D01*
X120321Y-169720D01*
X121311Y-168004D01*
X121824Y-166091D01*
Y-164109D01*
X121311Y-162196D01*
X120321Y-160480D01*
X118920Y-159079D01*
X117204Y-158089D01*
X115291Y-157576D01*
X113309D01*
X111396Y-158089D01*
X110882Y-158385D01*
X78068Y-125572D01*
X78190Y-124641D01*
X79781Y-124077D01*
X97052Y-141348D01*
X97808Y-141853D01*
X98700Y-142031D01*
X107135D01*
X107289Y-142604D01*
X108279Y-144320D01*
X109680Y-145721D01*
X111396Y-146711D01*
X113309Y-147224D01*
X115291D01*
X117204Y-146711D01*
X118920Y-145721D01*
X120321Y-144320D01*
X121311Y-142604D01*
X121824Y-140690D01*
Y-138709D01*
X121311Y-136796D01*
X120321Y-135080D01*
X118920Y-133679D01*
X117204Y-132689D01*
X115291Y-132176D01*
X113309D01*
X111396Y-132689D01*
X109680Y-133679D01*
X108279Y-135080D01*
X107289Y-136796D01*
X107135Y-137369D01*
X99665D01*
X82617Y-120321D01*
Y-106377D01*
X84025Y-105794D01*
X94179Y-115948D01*
X94936Y-116453D01*
X95827Y-116631D01*
X107135D01*
X107289Y-117204D01*
X108279Y-118920D01*
X109680Y-120321D01*
X111396Y-121311D01*
X113309Y-121824D01*
X115291D01*
X117204Y-121311D01*
X118920Y-120321D01*
X120321Y-118920D01*
X121311Y-117204D01*
X121824Y-115290D01*
Y-113309D01*
X121311Y-111396D01*
X120321Y-109680D01*
X118920Y-108279D01*
X117204Y-107289D01*
X115291Y-106776D01*
X113309D01*
X111396Y-107289D01*
X109680Y-108279D01*
X108279Y-109680D01*
X107289Y-111396D01*
X107135Y-111969D01*
X96793D01*
X40331Y-55507D01*
Y-53653D01*
X40407Y-53540D01*
X40564Y-52750D01*
Y-45250D01*
X40407Y-44460D01*
X39959Y-43791D01*
X39290Y-43343D01*
X38500Y-43186D01*
X37500D01*
X36710Y-43343D01*
X36000Y-43766D01*
X35290Y-43343D01*
X34500Y-43186D01*
X33500D01*
X32710Y-43343D01*
X32000Y-43766D01*
X31290Y-43343D01*
X30500Y-43186D01*
X29500D01*
X28710Y-43343D01*
X28000Y-43766D01*
X27290Y-43343D01*
X26500Y-43186D01*
X25500D01*
X24710Y-43343D01*
X24000Y-43766D01*
X23290Y-43343D01*
X22500Y-43186D01*
X21500D01*
X20331Y-41904D01*
Y-39861D01*
X22744Y-37448D01*
X22976Y-37544D01*
X24776D01*
X26439Y-36855D01*
X27711Y-35583D01*
X28400Y-33920D01*
Y-32120D01*
X27711Y-30457D01*
X26439Y-29185D01*
X24776Y-28496D01*
X22976D01*
X21313Y-29185D01*
X20041Y-30457D01*
X19748Y-31165D01*
X18098D01*
X17805Y-30457D01*
X16533Y-29185D01*
X14870Y-28496D01*
X13070D01*
X11407Y-29185D01*
X10135Y-30457D01*
X9446Y-32120D01*
Y-33920D01*
X10135Y-35583D01*
X10610Y-36058D01*
X10585Y-36183D01*
X8931Y-36685D01*
X8904Y-36658D01*
X8148Y-36153D01*
X7256Y-35975D01*
X1933D01*
X110Y-34152D01*
X206Y-33920D01*
Y-32120D01*
X-483Y-30457D01*
X-1755Y-29185D01*
X-3418Y-28496D01*
X-5218D01*
X-6881Y-29185D01*
X-8153Y-30457D01*
X-8842Y-32120D01*
Y-33920D01*
X-8153Y-35583D01*
X-6881Y-36855D01*
X-5218Y-37544D01*
X-3418D01*
X-3186Y-37448D01*
X-680Y-39954D01*
X76Y-40459D01*
X968Y-40637D01*
X6290D01*
X7481Y-41828D01*
X7354Y-42332D01*
X6500Y-43186D01*
X5500D01*
X4710Y-43343D01*
X4000Y-43766D01*
X3290Y-43343D01*
X2500Y-43186D01*
X1500D01*
X710Y-43343D01*
X0Y-43766D01*
X-710Y-43343D01*
X-1500Y-43186D01*
X-2500D01*
X-3290Y-43343D01*
X-4000Y-43766D01*
X-4710Y-43343D01*
X-5500Y-43186D01*
X-6500D01*
X-7290Y-43343D01*
X-8000Y-43766D01*
X-8710Y-43343D01*
X-9500Y-43186D01*
X-10500D01*
X-11290Y-43343D01*
X-12000Y-43766D01*
X-12710Y-43343D01*
X-13500Y-43186D01*
X-14500D01*
X-15290Y-43343D01*
X-16000Y-43766D01*
X-16710Y-43343D01*
X-17500Y-43186D01*
X-18500D01*
X-19290Y-43343D01*
X-20000Y-43766D01*
X-20710Y-43343D01*
X-21500Y-43186D01*
X-22500D01*
X-23290Y-43343D01*
X-24000Y-43766D01*
X-24710Y-43343D01*
X-25500Y-43186D01*
X-26500D01*
X-27290Y-43343D01*
X-28000Y-43766D01*
X-28710Y-43343D01*
X-29500Y-43186D01*
X-30500D01*
X-31290Y-43343D01*
X-32000Y-43766D01*
X-32710Y-43343D01*
X-33500Y-43186D01*
X-34500D01*
X-35290Y-43343D01*
X-36000Y-43766D01*
X-36710Y-43343D01*
X-37500Y-43186D01*
X-38500D01*
X-39290Y-43343D01*
X-39959Y-43791D01*
X-40406Y-44460D01*
X-40564Y-45250D01*
Y-46669D01*
X-42863D01*
X-43755Y-46847D01*
X-44512Y-47352D01*
X-45261Y-48101D01*
X-46669Y-47518D01*
Y-40564D01*
X-45250D01*
X-44460Y-40406D01*
X-43791Y-39959D01*
X-43343Y-39290D01*
X-43186Y-38500D01*
Y-37500D01*
X-43343Y-36710D01*
X-43791Y-36041D01*
Y-35959D01*
X-43343Y-35290D01*
X-43186Y-34500D01*
Y-33500D01*
X-43343Y-32710D01*
X-43791Y-32041D01*
Y-31959D01*
X-43343Y-31290D01*
X-43186Y-30500D01*
Y-29500D01*
X-43343Y-28710D01*
X-43791Y-28041D01*
Y-27959D01*
X-43343Y-27290D01*
X-43186Y-26500D01*
Y-25500D01*
X-43343Y-24710D01*
X-43791Y-24041D01*
Y-23959D01*
X-43343Y-23290D01*
X-43186Y-22500D01*
Y-21500D01*
X-43343Y-20710D01*
X-43791Y-20041D01*
Y-19959D01*
X-43343Y-19290D01*
X-43186Y-18500D01*
Y-17500D01*
X-43343Y-16710D01*
X-43791Y-16041D01*
Y-15959D01*
X-43343Y-15290D01*
X-43186Y-14500D01*
Y-13500D01*
X-43343Y-12710D01*
X-43791Y-12041D01*
Y-11959D01*
X-43343Y-11290D01*
X-43186Y-10500D01*
Y-9500D01*
X-43343Y-8710D01*
X-43791Y-8041D01*
Y-7959D01*
X-43343Y-7290D01*
X-43186Y-6500D01*
Y-5500D01*
X-43343Y-4710D01*
X-43791Y-4041D01*
Y-3959D01*
X-43343Y-3290D01*
X-43186Y-2500D01*
Y-1500D01*
X-43343Y-710D01*
X-43791Y-41D01*
Y41D01*
X-43343Y710D01*
X-43186Y1500D01*
Y2500D01*
X-43343Y3290D01*
X-43791Y3959D01*
Y4041D01*
X-43343Y4710D01*
X-43186Y5500D01*
Y6500D01*
X-43343Y7290D01*
X-43791Y7959D01*
Y8041D01*
X-43343Y8710D01*
X-43186Y9500D01*
Y10500D01*
X-43343Y11290D01*
X-43791Y11959D01*
Y12041D01*
X-43343Y12710D01*
X-43186Y13500D01*
Y14500D01*
X-43343Y15290D01*
X-43791Y15959D01*
Y16041D01*
X-43343Y16710D01*
X-43186Y17500D01*
Y18500D01*
X-43343Y19290D01*
X-43791Y19959D01*
Y20041D01*
X-43343Y20710D01*
X-43186Y21500D01*
Y22500D01*
X-43343Y23290D01*
X-43791Y23959D01*
Y24041D01*
X-43343Y24710D01*
X-43186Y25500D01*
Y26500D01*
X-43343Y27290D01*
X-43791Y27959D01*
Y28041D01*
X-43343Y28710D01*
X-43186Y29500D01*
Y30500D01*
X-43343Y31290D01*
X-43791Y31959D01*
Y32041D01*
X-43343Y32710D01*
X-43186Y33500D01*
Y34500D01*
X-43343Y35290D01*
X-43791Y35959D01*
Y36041D01*
X-43343Y36710D01*
X-43186Y37500D01*
Y38500D01*
X-43343Y39290D01*
X-43791Y39959D01*
X-44460Y40407D01*
X-45250Y40564D01*
X-52750D01*
X-53540Y40407D01*
X-53653Y40331D01*
X-54583D01*
X-63215Y48963D01*
X-62632Y50371D01*
X-59252D01*
X-56233Y47352D01*
X-55477Y46847D01*
X-54585Y46669D01*
X-40564D01*
Y45250D01*
X-40406Y44460D01*
X-39959Y43791D01*
X-39290Y43343D01*
X-38500Y43186D01*
X-37500D01*
X-36710Y43343D01*
X-36000Y43766D01*
X-35290Y43343D01*
X-34500Y43186D01*
X-33500D01*
X-32710Y43343D01*
X-32000Y43766D01*
X-31290Y43343D01*
X-30500Y43186D01*
X-29500D01*
X-28710Y43343D01*
X-28000Y43766D01*
X-27290Y43343D01*
X-26500Y43186D01*
X-25500D01*
X-24710Y43343D01*
X-24630Y43391D01*
X-23472Y42912D01*
X-22835Y41563D01*
X-23524Y39900D01*
Y38100D01*
X-22835Y36437D01*
X-21563Y35165D01*
X-19900Y34476D01*
X-18100D01*
X-16437Y35165D01*
X-15165Y36437D01*
X-14476Y38100D01*
Y39900D01*
X-15165Y41563D01*
X-15417Y41815D01*
X-14666Y43219D01*
X-14500Y43186D01*
X-13500D01*
X-12710Y43343D01*
X-12000Y43766D01*
X-11290Y43343D01*
X-10500Y43186D01*
X-9500D01*
X-8710Y43343D01*
X-8000Y43766D01*
X-7290Y43343D01*
X-6500Y43186D01*
X-5500D01*
X-4710Y43343D01*
X-4000Y43766D01*
X-3290Y43343D01*
X-2500Y43186D01*
X-1500D01*
X-710Y43343D01*
X0Y43766D01*
X710Y43343D01*
X1500Y43186D01*
X2500D01*
X3290Y43343D01*
X4000Y43766D01*
X4710Y43343D01*
X5500Y43186D01*
X6500D01*
X7290Y43343D01*
X8000Y43766D01*
X8710Y43343D01*
X9500Y43186D01*
X10500D01*
X11290Y43343D01*
X12000Y43766D01*
X12710Y43343D01*
X13500Y43186D01*
X14277D01*
X14613Y42577D01*
X14778Y41695D01*
X13713Y40631D01*
X13024Y38968D01*
Y37168D01*
X13713Y35505D01*
X14985Y34233D01*
X16648Y33544D01*
X18448D01*
X20111Y34233D01*
X21383Y35505D01*
X22072Y37168D01*
Y37545D01*
X22122Y37605D01*
X22916Y40140D01*
X23648Y40872D01*
X24153Y41628D01*
X24228Y42004D01*
X24435Y42580D01*
X25500Y43186D01*
X26500D01*
X27290Y43343D01*
X28000Y43766D01*
X28710Y43343D01*
X29500Y43186D01*
X30500D01*
X31290Y43343D01*
X31959Y43791D01*
X32407Y44460D01*
X32564Y45250D01*
Y48951D01*
X32573Y49000D01*
Y55184D01*
X34606Y57217D01*
X35408D01*
X36393Y57412D01*
X37227Y57970D01*
X39688Y60431D01*
X40245Y61266D01*
X40336Y61721D01*
X40494Y61971D01*
X40666Y62975D01*
X40717Y63050D01*
X40951Y64230D01*
Y87793D01*
X42920Y89761D01*
X43786Y89933D01*
X44786Y90602D01*
X45173Y90988D01*
X50130D01*
X50920Y91145D01*
X51589Y91593D01*
X52036Y92262D01*
X52194Y93052D01*
Y108052D01*
X52036Y108842D01*
X51589Y109511D01*
X50920Y109958D01*
X50130Y110116D01*
X44536D01*
X44326Y111171D01*
X43663Y112163D01*
X42670Y112826D01*
X41500Y113059D01*
X36500D01*
X35329Y112826D01*
X34337Y112163D01*
X33674Y111171D01*
X33464Y110116D01*
X27130D01*
X26340Y109958D01*
X25671Y109511D01*
X25223Y108842D01*
X25066Y108052D01*
Y93893D01*
X23625Y92452D01*
X21552D01*
X20305Y93585D01*
Y118409D01*
X28398Y126502D01*
X29021Y127435D01*
X29240Y128536D01*
Y152696D01*
X30749Y153181D01*
X31481Y152692D01*
X32343Y152521D01*
X41469D01*
X42331Y152692D01*
X43063Y153181D01*
X43552Y153913D01*
X43723Y154775D01*
Y158900D01*
X43552Y159763D01*
X43063Y160495D01*
X42331Y160984D01*
X41469Y161155D01*
X32343D01*
X31481Y160984D01*
X30749Y160495D01*
X29240Y160980D01*
Y171696D01*
X30749Y172181D01*
X31481Y171692D01*
X32343Y171521D01*
X41469D01*
X41619Y171551D01*
X41725Y171507D01*
X41755Y171520D01*
X41786Y171508D01*
X46667Y171690D01*
X46890Y171792D01*
X46908Y171795D01*
X47726Y171633D01*
X52351D01*
X53213Y171804D01*
X53945Y172293D01*
X54434Y173025D01*
X54605Y173888D01*
Y175872D01*
X62425Y183691D01*
X62425Y183691D01*
X63646Y185519D01*
X64074Y187674D01*
X64074Y187674D01*
Y260355D01*
X63646Y262511D01*
X62425Y264338D01*
X62424Y264338D01*
X59255Y267508D01*
X59254Y267508D01*
X54258Y272504D01*
Y276374D01*
X54258Y276374D01*
X53829Y278529D01*
X52609Y280357D01*
X26680Y306285D01*
Y337481D01*
X26680Y337481D01*
X26251Y339636D01*
X25190Y341225D01*
X25233Y342669D01*
X26453Y344496D01*
X26882Y346651D01*
Y348272D01*
X26603Y349676D01*
Y365680D01*
X26195Y367728D01*
X25035Y369465D01*
X23298Y370625D01*
X21250Y371033D01*
X19202Y370625D01*
X17465Y369465D01*
X17432Y369416D01*
X15915Y369266D01*
X15454Y369727D01*
X13700Y370454D01*
X11800D01*
X10046Y369727D01*
X9496Y369177D01*
X8500Y368518D01*
X7504Y369177D01*
X6954Y369727D01*
X5200Y370454D01*
X3300D01*
X1546Y369727D01*
X996Y369177D01*
X0Y368518D01*
X-996Y369177D01*
X-1546Y369727D01*
X-3300Y370454D01*
X-5200D01*
X-6954Y369727D01*
X-7504Y369177D01*
X-8500Y368518D01*
X-9496Y369177D01*
X-10046Y369727D01*
X-10419Y369882D01*
Y373750D01*
X-10597Y374642D01*
X-11102Y375398D01*
X-18352Y382648D01*
X-19108Y383153D01*
X-20000Y383331D01*
D02*
G37*
G36*
X115291Y375824D02*
X113309D01*
X111396Y375311D01*
X109680Y374321D01*
X108279Y372920D01*
X107289Y371204D01*
X106776Y369291D01*
Y367309D01*
X107289Y365396D01*
X108279Y363680D01*
X109680Y362279D01*
X111396Y361289D01*
X113309Y360776D01*
X115291D01*
X117204Y361289D01*
X118920Y362279D01*
X120321Y363680D01*
X121311Y365396D01*
X121824Y367309D01*
Y369291D01*
X121311Y371204D01*
X120321Y372920D01*
X118920Y374321D01*
X117204Y375311D01*
X115291Y375824D01*
D02*
G37*
G36*
X-113309D02*
X-115290D01*
X-117204Y375311D01*
X-118920Y374321D01*
X-120321Y372920D01*
X-121311Y371204D01*
X-121824Y369291D01*
Y367309D01*
X-121311Y365396D01*
X-120321Y363680D01*
X-118920Y362279D01*
X-117204Y361289D01*
X-115290Y360776D01*
X-113309D01*
X-111396Y361289D01*
X-109680Y362279D01*
X-108279Y363680D01*
X-107289Y365396D01*
X-106776Y367309D01*
Y369291D01*
X-107289Y371204D01*
X-108279Y372920D01*
X-109680Y374321D01*
X-111396Y375311D01*
X-113309Y375824D01*
D02*
G37*
G36*
X76188Y336580D02*
X67312D01*
X66206Y336359D01*
X65268Y335732D01*
X64640Y334794D01*
X64420Y333688D01*
Y325812D01*
X64640Y324706D01*
X65268Y323768D01*
X66206Y323141D01*
X67312Y322920D01*
X76188D01*
X77294Y323141D01*
X78232Y323768D01*
X78859Y324706D01*
X79079Y325812D01*
Y333688D01*
X78859Y334794D01*
X78232Y335732D01*
X77294Y336359D01*
X76188Y336580D01*
D02*
G37*
G36*
X115291Y325024D02*
X113309D01*
X111396Y324511D01*
X109680Y323521D01*
X108279Y322120D01*
X107289Y320404D01*
X106776Y318491D01*
Y316509D01*
X107289Y314596D01*
X108279Y312880D01*
X109680Y311479D01*
X111396Y310489D01*
X113309Y309976D01*
X115291D01*
X117204Y310489D01*
X118920Y311479D01*
X120321Y312880D01*
X121311Y314596D01*
X121824Y316509D01*
Y318491D01*
X121311Y320404D01*
X120321Y322120D01*
X118920Y323521D01*
X117204Y324511D01*
X115291Y325024D01*
D02*
G37*
G36*
X-113309D02*
X-115290D01*
X-117204Y324511D01*
X-118920Y323521D01*
X-120321Y322120D01*
X-121311Y320404D01*
X-121824Y318491D01*
Y316509D01*
X-121311Y314596D01*
X-120321Y312880D01*
X-118920Y311479D01*
X-117204Y310489D01*
X-115290Y309976D01*
X-113309D01*
X-111396Y310489D01*
X-109680Y311479D01*
X-108279Y312880D01*
X-107289Y314596D01*
X-106776Y316509D01*
Y318491D01*
X-107289Y320404D01*
X-108279Y322120D01*
X-109680Y323521D01*
X-111396Y324511D01*
X-113309Y325024D01*
D02*
G37*
G36*
X45524Y321024D02*
X30976D01*
Y307476D01*
X45524D01*
Y321024D01*
D02*
G37*
G36*
X63900Y298524D02*
X62100D01*
X60437Y297835D01*
X59165Y296563D01*
X58476Y294900D01*
Y293100D01*
X59165Y291437D01*
X60437Y290165D01*
X62100Y289476D01*
X63900D01*
X65563Y290165D01*
X66835Y291437D01*
X67524Y293100D01*
Y294900D01*
X66835Y296563D01*
X65563Y297835D01*
X63900Y298524D01*
D02*
G37*
G36*
X115291Y274224D02*
X113309D01*
X111396Y273711D01*
X109680Y272721D01*
X108279Y271320D01*
X107289Y269604D01*
X106776Y267691D01*
Y265709D01*
X107289Y263796D01*
X108279Y262080D01*
X109680Y260679D01*
X111396Y259689D01*
X113309Y259176D01*
X115291D01*
X117204Y259689D01*
X118920Y260679D01*
X120321Y262080D01*
X121311Y263796D01*
X121824Y265709D01*
Y267691D01*
X121311Y269604D01*
X120321Y271320D01*
X118920Y272721D01*
X117204Y273711D01*
X115291Y274224D01*
D02*
G37*
G36*
Y248824D02*
X113309D01*
X111396Y248311D01*
X109680Y247321D01*
X108279Y245920D01*
X107289Y244204D01*
X106776Y242291D01*
Y240310D01*
X107289Y238396D01*
X107586Y237882D01*
X81108Y211404D01*
X80603Y210648D01*
X80425Y209756D01*
Y207601D01*
Y100150D01*
X79313Y98817D01*
X74688D01*
X73825Y98646D01*
X73093Y98157D01*
X72722Y97602D01*
X71278D01*
X70907Y98157D01*
X70175Y98646D01*
X69313Y98817D01*
X67574D01*
Y101417D01*
X70185D01*
X70437Y101165D01*
X72100Y100476D01*
X73900D01*
X75563Y101165D01*
X76835Y102437D01*
X77524Y104100D01*
Y105900D01*
X76835Y107563D01*
X75563Y108835D01*
X73900Y109524D01*
X72100D01*
X70437Y108835D01*
X69185Y107583D01*
X67290D01*
X66907Y108157D01*
X66175Y108646D01*
X65312Y108817D01*
X60687D01*
X59825Y108646D01*
X59093Y108157D01*
X58604Y107425D01*
X58433Y106562D01*
Y102437D01*
X58604Y101575D01*
X59093Y100843D01*
X59825Y100354D01*
X60687Y100183D01*
X61407D01*
Y96760D01*
X61407Y96760D01*
X61642Y95580D01*
X62310Y94579D01*
X62433Y94457D01*
Y92438D01*
X62604Y91575D01*
X63039Y90924D01*
X63090Y90841D01*
X63092Y89997D01*
X63090Y89159D01*
X63039Y89076D01*
X62604Y88425D01*
X62433Y87562D01*
Y83438D01*
X62604Y82575D01*
X63093Y81843D01*
X63825Y81354D01*
X64479Y81224D01*
Y74540D01*
X61758Y71819D01*
X61238D01*
X61231Y71817D01*
X56687D01*
X55825Y71646D01*
X55093Y71157D01*
X54604Y70425D01*
X54433Y69563D01*
Y66964D01*
X41704Y54236D01*
X39959Y54209D01*
X39290Y54657D01*
X38500Y54814D01*
X37500D01*
X36710Y54657D01*
X36041Y54209D01*
X35594Y53540D01*
X35436Y52750D01*
Y45250D01*
X35594Y44460D01*
X36041Y43791D01*
X36710Y43343D01*
X37500Y43186D01*
X38500D01*
X39290Y43343D01*
X39959Y43791D01*
X40407Y44460D01*
X40564Y45250D01*
Y47332D01*
X41285Y47475D01*
X42041Y47981D01*
X57242Y63181D01*
X57262D01*
X57269Y63183D01*
X61312D01*
X62175Y63354D01*
X62907Y63843D01*
X63396Y64575D01*
X63567Y65437D01*
Y67325D01*
X63615Y67335D01*
X64372Y67840D01*
X68458Y71926D01*
X68963Y72683D01*
X69141Y73575D01*
Y81183D01*
X69313D01*
X70175Y81354D01*
X70907Y81843D01*
X71153Y82212D01*
X71557Y82313D01*
X72443D01*
X72847Y82212D01*
X73093Y81843D01*
X73211Y81764D01*
X73541Y80118D01*
X73488Y79886D01*
X73165Y79563D01*
X72476Y77900D01*
Y76100D01*
X73165Y74437D01*
X74437Y73165D01*
X74927Y72962D01*
Y64466D01*
X74575Y64396D01*
X73843Y63907D01*
X73354Y63175D01*
X73183Y62312D01*
Y57688D01*
X73354Y56825D01*
X73843Y56093D01*
X74212Y55847D01*
X74313Y55443D01*
Y54557D01*
X74212Y54153D01*
X73843Y53907D01*
X73354Y53175D01*
X73183Y52312D01*
Y47688D01*
X73354Y46825D01*
X73843Y46093D01*
X74575Y45604D01*
X74927Y45534D01*
Y41566D01*
X71934Y38574D01*
X61368D01*
X60737Y40097D01*
X60820Y40180D01*
X61378Y41015D01*
X61574Y42000D01*
Y44235D01*
X62175Y44354D01*
X62907Y44843D01*
X63396Y45575D01*
X63567Y46438D01*
Y50563D01*
X63396Y51425D01*
X62907Y52157D01*
X62175Y52646D01*
X61312Y52817D01*
X56687D01*
X55825Y52646D01*
X55093Y52157D01*
X54604Y51425D01*
X54534Y51073D01*
X52172D01*
X51187Y50877D01*
X50352Y50320D01*
X49806Y49774D01*
X48100D01*
X46437Y49085D01*
X45165Y47813D01*
X44476Y46150D01*
Y44350D01*
X45165Y42687D01*
X45764Y42088D01*
X45341Y40834D01*
X45153Y40544D01*
X44460Y40407D01*
X43791Y39959D01*
X43343Y39290D01*
X43186Y38500D01*
Y37500D01*
X43343Y36710D01*
X43766Y36000D01*
X43343Y35290D01*
X43186Y34500D01*
Y33500D01*
X41904Y32331D01*
X31931D01*
X31835Y32563D01*
X30563Y33835D01*
X28900Y34524D01*
X27100D01*
X25437Y33835D01*
X24165Y32563D01*
X23476Y30900D01*
Y29100D01*
X24165Y27437D01*
X25437Y26165D01*
X27100Y25476D01*
X28900D01*
X30563Y26165D01*
X31835Y27437D01*
X31931Y27669D01*
X41904D01*
X43186Y26500D01*
Y25500D01*
X43343Y24710D01*
X43766Y24000D01*
X43343Y23290D01*
X43186Y22500D01*
Y21500D01*
X43343Y20710D01*
X43766Y20000D01*
X43343Y19290D01*
X43186Y18500D01*
Y17500D01*
X43343Y16710D01*
X43766Y16000D01*
X43343Y15290D01*
X43186Y14500D01*
Y13500D01*
X43343Y12710D01*
X43766Y12000D01*
X43343Y11290D01*
X43186Y10500D01*
Y9500D01*
X43343Y8710D01*
X43766Y8000D01*
X43343Y7290D01*
X43186Y6500D01*
Y5500D01*
X43343Y4710D01*
X43766Y4000D01*
X43343Y3290D01*
X43186Y2500D01*
Y1500D01*
X43343Y710D01*
X43791Y41D01*
Y-41D01*
X43343Y-710D01*
X43186Y-1500D01*
Y-2500D01*
X43343Y-3290D01*
X43766Y-4000D01*
X43343Y-4710D01*
X43186Y-5500D01*
Y-6500D01*
X43343Y-7290D01*
X43766Y-8000D01*
X43343Y-8710D01*
X43186Y-9500D01*
Y-10500D01*
X43343Y-11290D01*
X43791Y-11959D01*
Y-12041D01*
X43343Y-12710D01*
X43186Y-13500D01*
Y-14500D01*
X43343Y-15290D01*
X43766Y-16000D01*
X43343Y-16710D01*
X43186Y-17500D01*
Y-18500D01*
X43343Y-19290D01*
X43766Y-20000D01*
X43343Y-20710D01*
X43186Y-21500D01*
Y-22500D01*
X43343Y-23290D01*
X43766Y-24000D01*
X43343Y-24710D01*
X43186Y-25500D01*
Y-26500D01*
X43343Y-27290D01*
X43766Y-28000D01*
X43343Y-28710D01*
X43186Y-29500D01*
Y-30500D01*
X43343Y-31290D01*
X43766Y-32000D01*
X43343Y-32710D01*
X43186Y-33500D01*
Y-34500D01*
X43343Y-35290D01*
X43766Y-36000D01*
X43343Y-36710D01*
X43186Y-37500D01*
Y-38500D01*
X43343Y-39290D01*
X43791Y-39959D01*
X44460Y-40406D01*
X45250Y-40564D01*
X45957D01*
X46427Y-41518D01*
Y-43168D01*
X46622Y-44153D01*
X47180Y-44988D01*
X49074Y-46882D01*
X49909Y-47440D01*
X50894Y-47635D01*
X58986D01*
X60313Y-48289D01*
X60601Y-48719D01*
X61332Y-49208D01*
X62195Y-49379D01*
X66820D01*
X67683Y-49208D01*
X68414Y-48719D01*
X68569Y-48487D01*
X70098Y-48487D01*
X70253Y-48719D01*
X70984Y-49208D01*
X71847Y-49379D01*
X76472D01*
X77335Y-49208D01*
X78066Y-48719D01*
X78080Y-48699D01*
X79695Y-48765D01*
X79755Y-48825D01*
X81418Y-49514D01*
X83218D01*
X84881Y-48825D01*
X86153Y-47553D01*
X86564Y-46560D01*
X88250Y-46090D01*
X99037Y-56877D01*
Y-75968D01*
X99215Y-76860D01*
X99720Y-77616D01*
X105463Y-83360D01*
X106686Y-89179D01*
X106776Y-89311D01*
Y-89890D01*
X107289Y-91804D01*
X108279Y-93520D01*
X109680Y-94921D01*
X111396Y-95911D01*
X113309Y-96424D01*
X115291D01*
X117204Y-95911D01*
X118920Y-94921D01*
X120321Y-93520D01*
X121311Y-91804D01*
X121824Y-89890D01*
Y-87909D01*
X121311Y-85996D01*
X120321Y-84280D01*
X118920Y-82879D01*
X117204Y-81889D01*
X115291Y-81376D01*
X114711D01*
X114579Y-81286D01*
X108760Y-80063D01*
X103699Y-75002D01*
Y-59632D01*
X105223Y-58749D01*
X105685Y-59013D01*
X106686Y-63779D01*
X106776Y-63911D01*
Y-64490D01*
X107289Y-66404D01*
X108279Y-68120D01*
X109680Y-69521D01*
X111396Y-70511D01*
X113309Y-71024D01*
X115291D01*
X117204Y-70511D01*
X118920Y-69521D01*
X120321Y-68120D01*
X121311Y-66404D01*
X121824Y-64490D01*
Y-62509D01*
X121311Y-60596D01*
X120321Y-58880D01*
X118920Y-57479D01*
X117204Y-56489D01*
X115291Y-55976D01*
X114711D01*
X114579Y-55886D01*
X108760Y-54663D01*
X96051Y-41955D01*
X96682Y-40431D01*
X107135D01*
X107289Y-41004D01*
X108279Y-42720D01*
X109680Y-44121D01*
X111396Y-45111D01*
X113309Y-45624D01*
X115291D01*
X117204Y-45111D01*
X118920Y-44121D01*
X120321Y-42720D01*
X121311Y-41004D01*
X121824Y-39090D01*
Y-37109D01*
X121311Y-35196D01*
X120321Y-33480D01*
X118920Y-32079D01*
X117204Y-31089D01*
X115291Y-30576D01*
X113309D01*
X111396Y-31089D01*
X109680Y-32079D01*
X108279Y-33480D01*
X107289Y-35196D01*
X107135Y-35769D01*
X95876D01*
X93595Y-33489D01*
X94178Y-32081D01*
X97250D01*
X98142Y-31903D01*
X98898Y-31398D01*
X108760Y-21537D01*
X114579Y-20314D01*
X114711Y-20224D01*
X115291D01*
X117204Y-19711D01*
X118920Y-18721D01*
X120321Y-17320D01*
X121311Y-15604D01*
X121824Y-13691D01*
Y-11709D01*
X121311Y-9796D01*
X120321Y-8080D01*
X118920Y-6679D01*
X117204Y-5689D01*
X115291Y-5176D01*
X113309D01*
X111396Y-5689D01*
X109680Y-6679D01*
X108279Y-8080D01*
X107509Y-9415D01*
X105985Y-9007D01*
Y1089D01*
X108760Y3864D01*
X114579Y5086D01*
X114711Y5176D01*
X115291D01*
X117204Y5689D01*
X118920Y6679D01*
X120321Y8080D01*
X121311Y9796D01*
X121824Y11710D01*
Y13691D01*
X121311Y15604D01*
X120321Y17320D01*
X118920Y18721D01*
X117204Y19711D01*
X115291Y20224D01*
X113402D01*
X113203Y20449D01*
X112647Y21624D01*
X115948Y24925D01*
X116453Y25682D01*
X116631Y26574D01*
Y30935D01*
X117204Y31089D01*
X118920Y32079D01*
X120321Y33480D01*
X121311Y35196D01*
X121824Y37109D01*
Y39091D01*
X121311Y41004D01*
X120321Y42720D01*
X118920Y44121D01*
X117204Y45111D01*
X115291Y45624D01*
X113309D01*
X111396Y45111D01*
X109680Y44121D01*
X108345Y42785D01*
X108046Y42804D01*
X106821Y43242D01*
Y52725D01*
X110882Y56786D01*
X111396Y56489D01*
X113309Y55976D01*
X115291D01*
X117204Y56489D01*
X118920Y57479D01*
X120321Y58880D01*
X121311Y60596D01*
X121824Y62509D01*
Y64491D01*
X121311Y66404D01*
X120321Y68120D01*
X118920Y69521D01*
X117204Y70511D01*
X115291Y71024D01*
X113309D01*
X111396Y70511D01*
X109680Y69521D01*
X108279Y68120D01*
X107289Y66404D01*
X106776Y64491D01*
Y62509D01*
X107289Y60596D01*
X107586Y60082D01*
X104783Y57279D01*
X103375Y57862D01*
Y74679D01*
X110882Y82186D01*
X111396Y81889D01*
X113309Y81376D01*
X115291D01*
X117204Y81889D01*
X118920Y82879D01*
X120321Y84280D01*
X121311Y85996D01*
X121824Y87909D01*
Y89891D01*
X121311Y91804D01*
X120321Y93520D01*
X118920Y94921D01*
X117204Y95911D01*
X115291Y96424D01*
X113309D01*
X111396Y95911D01*
X109680Y94921D01*
X108279Y93520D01*
X107289Y91804D01*
X106776Y89891D01*
Y87909D01*
X107289Y85996D01*
X107586Y85482D01*
X101735Y79631D01*
X100327Y80214D01*
Y97031D01*
X110882Y107586D01*
X111396Y107289D01*
X113309Y106776D01*
X115291D01*
X117204Y107289D01*
X118920Y108279D01*
X120321Y109680D01*
X121311Y111396D01*
X121824Y113309D01*
Y115291D01*
X121311Y117204D01*
X120321Y118920D01*
X118920Y120321D01*
X117204Y121311D01*
X115291Y121824D01*
X113309D01*
X111396Y121311D01*
X109680Y120321D01*
X108279Y118920D01*
X107289Y117204D01*
X106776Y115291D01*
Y113309D01*
X107289Y111396D01*
X107586Y110882D01*
X98687Y101983D01*
X97279Y102566D01*
Y119383D01*
X110882Y132986D01*
X111396Y132689D01*
X113309Y132176D01*
X115291D01*
X117204Y132689D01*
X118920Y133679D01*
X120321Y135080D01*
X121311Y136796D01*
X121824Y138709D01*
Y140691D01*
X121311Y142604D01*
X120321Y144320D01*
X118920Y145721D01*
X117204Y146711D01*
X115291Y147224D01*
X113309D01*
X111396Y146711D01*
X109680Y145721D01*
X108279Y144320D01*
X107289Y142604D01*
X106776Y140691D01*
Y138709D01*
X107289Y136796D01*
X107586Y136282D01*
X95639Y124335D01*
X94231Y124918D01*
Y141735D01*
X110882Y158386D01*
X111396Y158089D01*
X113309Y157576D01*
X115291D01*
X117204Y158089D01*
X118920Y159079D01*
X120321Y160480D01*
X121311Y162196D01*
X121824Y164109D01*
Y166091D01*
X121311Y168004D01*
X120321Y169720D01*
X118920Y171121D01*
X117204Y172111D01*
X115291Y172624D01*
X113309D01*
X111396Y172111D01*
X109680Y171121D01*
X108279Y169720D01*
X107289Y168004D01*
X106776Y166091D01*
Y164109D01*
X107289Y162196D01*
X107586Y161682D01*
X92591Y146687D01*
X91183Y147270D01*
Y164087D01*
X110882Y183786D01*
X111396Y183489D01*
X113309Y182976D01*
X115291D01*
X117204Y183489D01*
X118920Y184479D01*
X120321Y185880D01*
X121311Y187596D01*
X121824Y189510D01*
Y191491D01*
X121311Y193404D01*
X120321Y195120D01*
X118920Y196521D01*
X117204Y197511D01*
X115291Y198024D01*
X113309D01*
X111396Y197511D01*
X109680Y196521D01*
X108279Y195120D01*
X107289Y193404D01*
X106776Y191491D01*
Y189510D01*
X107289Y187596D01*
X107586Y187082D01*
X89543Y169039D01*
X88135Y169622D01*
Y186439D01*
X110882Y209186D01*
X111396Y208889D01*
X113309Y208376D01*
X115291D01*
X117204Y208889D01*
X118920Y209879D01*
X120321Y211280D01*
X121311Y212996D01*
X121824Y214909D01*
Y216891D01*
X121311Y218804D01*
X120321Y220520D01*
X118920Y221921D01*
X117204Y222911D01*
X115291Y223424D01*
X113309D01*
X111396Y222911D01*
X109680Y221921D01*
X108279Y220520D01*
X107289Y218804D01*
X106776Y216891D01*
Y214909D01*
X107289Y212996D01*
X107586Y212482D01*
X86495Y191391D01*
X85087Y191974D01*
Y208791D01*
X110882Y234586D01*
X111396Y234289D01*
X113309Y233776D01*
X115291D01*
X117204Y234289D01*
X118920Y235279D01*
X120321Y236680D01*
X121311Y238396D01*
X121824Y240310D01*
Y242291D01*
X121311Y244204D01*
X120321Y245920D01*
X118920Y247321D01*
X117204Y248311D01*
X115291Y248824D01*
D02*
G37*
G36*
X53900Y121524D02*
X52100D01*
X50437Y120835D01*
X49165Y119563D01*
X48476Y117900D01*
Y116100D01*
X49165Y114437D01*
X50437Y113165D01*
X52100Y112476D01*
X53900D01*
X55563Y113165D01*
X56835Y114437D01*
X57524Y116100D01*
Y117900D01*
X56835Y119563D01*
X55563Y120835D01*
X53900Y121524D01*
D02*
G37*
G36*
X-31700Y-243931D02*
X-36200D01*
X-37087Y-244108D01*
X-37840Y-244611D01*
X-38342Y-245363D01*
X-38519Y-246250D01*
Y-259250D01*
X-38342Y-260137D01*
X-37840Y-260889D01*
X-37087Y-261392D01*
X-36200Y-261569D01*
X-31700D01*
X-30813Y-261392D01*
X-30061Y-260889D01*
X-29558Y-260137D01*
X-29381Y-259250D01*
Y-246250D01*
X-29558Y-245363D01*
X-30061Y-244611D01*
X-30813Y-244108D01*
X-31700Y-243931D01*
D02*
G37*
G36*
X-57100Y-243931D02*
X-61600D01*
X-62487Y-244108D01*
X-63239Y-244611D01*
X-63742Y-245363D01*
X-63918Y-246250D01*
Y-259250D01*
X-63742Y-260137D01*
X-63239Y-260889D01*
X-62487Y-261392D01*
X-61681Y-261552D01*
Y-266650D01*
X-61503Y-267542D01*
X-60998Y-268298D01*
X-58428Y-270868D01*
X-58524Y-271100D01*
Y-272900D01*
X-57835Y-274563D01*
X-56563Y-275835D01*
X-54900Y-276524D01*
X-53100D01*
X-51437Y-275835D01*
X-50165Y-274563D01*
X-49476Y-272900D01*
Y-271100D01*
X-50165Y-269437D01*
X-51437Y-268165D01*
X-53100Y-267476D01*
X-54900D01*
X-55132Y-267572D01*
X-57019Y-265685D01*
Y-261552D01*
X-56213Y-261392D01*
X-55461Y-260889D01*
X-54958Y-260137D01*
X-54781Y-259250D01*
Y-246250D01*
X-54958Y-245363D01*
X-55461Y-244611D01*
X-56213Y-244108D01*
X-57100Y-243931D01*
D02*
G37*
G36*
X115291Y-360776D02*
X113309D01*
X111396Y-361289D01*
X109680Y-362279D01*
X108279Y-363680D01*
X107289Y-365396D01*
X106776Y-367309D01*
Y-369291D01*
X107289Y-371204D01*
X108279Y-372920D01*
X109680Y-374321D01*
X111396Y-375311D01*
X113309Y-375824D01*
X115291D01*
X117204Y-375311D01*
X118920Y-374321D01*
X120321Y-372920D01*
X121311Y-371204D01*
X121824Y-369291D01*
Y-367309D01*
X121311Y-365396D01*
X120321Y-363680D01*
X118920Y-362279D01*
X117204Y-361289D01*
X115291Y-360776D01*
D02*
G37*
G36*
X-113309Y-386176D02*
X-115290D01*
X-117204Y-386689D01*
X-118920Y-387679D01*
X-120321Y-389080D01*
X-121311Y-390796D01*
X-121824Y-392709D01*
Y-394691D01*
X-121311Y-396604D01*
X-120321Y-398320D01*
X-118920Y-399721D01*
X-117204Y-400711D01*
X-115290Y-401224D01*
X-113309D01*
X-111396Y-400711D01*
X-109680Y-399721D01*
X-108279Y-398320D01*
X-107289Y-396604D01*
X-106776Y-394691D01*
Y-392709D01*
X-107289Y-390796D01*
X-108279Y-389080D01*
X-109680Y-387679D01*
X-111396Y-386689D01*
X-113309Y-386176D01*
D02*
G37*
%LPD*%
G36*
X-15081Y372785D02*
Y370417D01*
X-16033Y369599D01*
X-17465Y369465D01*
X-19202Y370625D01*
X-21250Y371033D01*
X-23298Y370625D01*
X-25035Y369465D01*
X-26195Y367728D01*
X-26603Y365680D01*
Y352180D01*
Y347861D01*
X-26882Y346456D01*
X-26453Y344301D01*
X-25233Y342473D01*
X-20659Y337900D01*
X-20659Y337899D01*
X-18831Y336679D01*
X-17658Y336445D01*
X-17502Y334860D01*
X-17563Y334835D01*
X-18835Y333563D01*
X-19524Y331900D01*
Y330100D01*
X-18835Y328437D01*
X-17563Y327165D01*
X-15900Y326476D01*
X-14100D01*
X-12437Y327165D01*
X-11165Y328437D01*
X-11069Y328669D01*
X-8814D01*
X-8646Y327825D01*
X-8157Y327093D01*
X-7425Y326604D01*
X-6562Y326433D01*
X-2438D01*
X-1575Y326604D01*
X-924Y327039D01*
X-841Y327090D01*
X3Y327092D01*
X841Y327090D01*
X924Y327039D01*
X1575Y326604D01*
X2438Y326433D01*
X4926D01*
Y323563D01*
X3999D01*
X3210Y323406D01*
X2540Y322958D01*
X2093Y322289D01*
X1936Y321499D01*
Y314499D01*
X2093Y313710D01*
X2540Y313040D01*
X3210Y312593D01*
X3999Y312435D01*
X10999D01*
X11789Y312593D01*
X12458Y313040D01*
X12906Y313710D01*
X13063Y314499D01*
Y321499D01*
X12906Y322289D01*
X12458Y322958D01*
X11789Y323406D01*
X10999Y323563D01*
X10073D01*
Y327828D01*
X9877Y328813D01*
X9319Y329648D01*
X8817Y330150D01*
Y333312D01*
X8646Y334175D01*
X8278Y334726D01*
X8382Y335394D01*
X8804Y336307D01*
X8933Y336333D01*
X14231D01*
X15416Y335148D01*
Y303952D01*
X15416Y303952D01*
X15845Y301797D01*
X17065Y299969D01*
X42994Y274041D01*
Y270171D01*
X42994Y270171D01*
X43422Y268016D01*
X44643Y266189D01*
X51289Y259543D01*
X51290Y259543D01*
X52810Y258022D01*
Y190007D01*
X44645Y181842D01*
X43484Y180105D01*
X41786Y180168D01*
X41755Y180156D01*
X41725Y180169D01*
X41619Y180125D01*
X41469Y180155D01*
X32343D01*
X31481Y179984D01*
X30749Y179495D01*
X29240Y179980D01*
Y181395D01*
X31569Y183723D01*
X32192Y184657D01*
X32379Y185595D01*
X32709Y185660D01*
X33441Y186149D01*
X33930Y186881D01*
X34101Y187743D01*
Y189437D01*
X35625Y189740D01*
X36165Y188437D01*
X37437Y187165D01*
X39100Y186476D01*
X40900D01*
X42563Y187165D01*
X43835Y188437D01*
X44524Y190100D01*
Y191900D01*
X43835Y193563D01*
X42563Y194835D01*
X40900Y195524D01*
X39100D01*
X37437Y194835D01*
X36165Y193563D01*
X35653Y192326D01*
X34185Y192229D01*
X33952Y192617D01*
X33930Y192731D01*
X33495Y193382D01*
X33444Y193465D01*
X33442Y194309D01*
X33444Y195147D01*
X33495Y195230D01*
X33930Y195881D01*
X34101Y196744D01*
Y200868D01*
X33930Y201731D01*
X33441Y202463D01*
X32709Y202952D01*
X31846Y203123D01*
X29286D01*
X29241Y203169D01*
Y213671D01*
X31952Y216383D01*
X33261Y216140D01*
X33488Y216072D01*
X34165Y214437D01*
X35437Y213165D01*
X37100Y212476D01*
X38900D01*
X40563Y213165D01*
X41835Y214437D01*
X42524Y216100D01*
Y217900D01*
X41835Y219563D01*
X40789Y220609D01*
X40659Y221500D01*
X40789Y222391D01*
X41835Y223437D01*
X42524Y225100D01*
Y226900D01*
X41835Y228563D01*
X40563Y229835D01*
X38900Y230524D01*
X37100D01*
X35437Y229835D01*
X34165Y228563D01*
X33476Y226900D01*
Y226498D01*
X29293D01*
X28192Y226279D01*
X27259Y225655D01*
X20208Y218604D01*
X19584Y217671D01*
X19366Y216570D01*
Y203141D01*
X19320Y203095D01*
X16760D01*
X15897Y202924D01*
X15165Y202435D01*
X14676Y201703D01*
X14505Y200840D01*
Y196716D01*
X14676Y195853D01*
X15111Y195202D01*
X15162Y195119D01*
X15164Y194275D01*
X15162Y193437D01*
X15111Y193354D01*
X14676Y192703D01*
X14505Y191840D01*
Y187715D01*
X14676Y186853D01*
X15165Y186121D01*
X15897Y185632D01*
X16227Y185567D01*
X16414Y184629D01*
X17037Y183695D01*
X19066Y181667D01*
X18969Y180490D01*
X17500Y179871D01*
X17331Y179984D01*
X16468Y180155D01*
X7344D01*
X6481Y179984D01*
X5749Y179495D01*
X5260Y178763D01*
X5089Y177901D01*
Y173776D01*
X5260Y172913D01*
X5749Y172181D01*
X6481Y171692D01*
X7344Y171521D01*
X16468D01*
X17331Y171692D01*
X17841Y172033D01*
X18718Y171782D01*
X19365Y171387D01*
Y161289D01*
X18718Y160894D01*
X17841Y160643D01*
X17331Y160984D01*
X16468Y161155D01*
X7343D01*
X6481Y160984D01*
X5749Y160495D01*
X5260Y159763D01*
X5089Y158900D01*
Y154775D01*
X5260Y153913D01*
X5749Y153181D01*
X6481Y152692D01*
X7343Y152521D01*
X16468D01*
X17331Y152692D01*
X17841Y153033D01*
X18718Y152782D01*
X19365Y152388D01*
Y131435D01*
X11273Y123342D01*
X10649Y122409D01*
X10430Y121308D01*
Y92376D01*
Y72033D01*
X10065Y71688D01*
X8906Y71037D01*
X8431Y71131D01*
X3805D01*
X2943Y70960D01*
X2715Y71029D01*
X2587Y71337D01*
X1315Y72609D01*
X653Y72883D01*
X608Y73033D01*
X779Y73896D01*
Y78020D01*
X608Y78883D01*
X119Y79615D01*
X-613Y80104D01*
X-1476Y80275D01*
X-6101D01*
X-6963Y80104D01*
X-7695Y79615D01*
X-8184Y78883D01*
X-8355Y78020D01*
Y73896D01*
X-8346Y73848D01*
X-9750Y73097D01*
X-11345Y74692D01*
Y91176D01*
X-11523Y92068D01*
X-12028Y92824D01*
X-21072Y101868D01*
X-20976Y102100D01*
Y103900D01*
X-21665Y105563D01*
X-22937Y106835D01*
X-24600Y107524D01*
X-26400D01*
X-27643Y107009D01*
X-28941Y107704D01*
X-29079Y109125D01*
X-26632Y111572D01*
X-26400Y111476D01*
X-24600D01*
X-22937Y112165D01*
X-21665Y113437D01*
X-20976Y115100D01*
Y116900D01*
X-21665Y118563D01*
X-22937Y119835D01*
X-24600Y120524D01*
X-26400D01*
X-28063Y119835D01*
X-29335Y118563D01*
X-30024Y116900D01*
Y115100D01*
X-29928Y114868D01*
X-32895Y111901D01*
X-33880Y112132D01*
X-34419Y112489D01*
Y124029D01*
X-32279Y126169D01*
X-29431D01*
X-29335Y125937D01*
X-28063Y124665D01*
X-26400Y123976D01*
X-24600D01*
X-22937Y124665D01*
X-21665Y125937D01*
X-20976Y127600D01*
Y129400D01*
X-21665Y131063D01*
X-22937Y132335D01*
X-24600Y133024D01*
X-26400D01*
X-28063Y132335D01*
X-29335Y131063D01*
X-29431Y130831D01*
X-33244D01*
X-34136Y130653D01*
X-34892Y130148D01*
X-38398Y126642D01*
X-38903Y125886D01*
X-39081Y124994D01*
Y97989D01*
X-40489Y97406D01*
X-60481Y117398D01*
X-61237Y117903D01*
X-62129Y118081D01*
X-66819D01*
X-66915Y118313D01*
X-68187Y119585D01*
X-69850Y120274D01*
X-71650D01*
X-72895Y119758D01*
X-74419Y120470D01*
Y130035D01*
X-72035Y132419D01*
X-57857D01*
X-57648Y132210D01*
X-56892Y131705D01*
X-56000Y131528D01*
X-53873D01*
X-53835Y131437D01*
X-52563Y130165D01*
X-50900Y129476D01*
X-49100D01*
X-47437Y130165D01*
X-46165Y131437D01*
X-45476Y133100D01*
Y134900D01*
X-46165Y136563D01*
X-47437Y137835D01*
X-49100Y138524D01*
X-50900D01*
X-52563Y137835D01*
X-53835Y136563D01*
X-55398Y136501D01*
X-56000Y136903D01*
X-56892Y137081D01*
X-64366D01*
X-64809Y137834D01*
X-65095Y138605D01*
X-64476Y140100D01*
Y141900D01*
X-65165Y143563D01*
X-65193Y143591D01*
X-65169Y143711D01*
Y147236D01*
X-64575Y147354D01*
X-63843Y147843D01*
X-63354Y148575D01*
X-63183Y149438D01*
Y154062D01*
X-63354Y154925D01*
X-63843Y155657D01*
X-64575Y156146D01*
X-65437Y156317D01*
X-69563D01*
X-70425Y156146D01*
X-71152Y155660D01*
X-71157Y155657D01*
X-72843Y155657D01*
X-72848Y155660D01*
X-73575Y156146D01*
X-74437Y156317D01*
X-78562D01*
X-78927Y156245D01*
X-80184Y156994D01*
X-80451Y157293D01*
Y168606D01*
X-79043Y169189D01*
X-77266Y167411D01*
X-76509Y166906D01*
X-75617Y166729D01*
X-60422D01*
X-34079Y140386D01*
X-33323Y139881D01*
X-32431Y139703D01*
X1055D01*
X1165Y139437D01*
X2437Y138165D01*
X4100Y137476D01*
X5900D01*
X7563Y138165D01*
X8835Y139437D01*
X9524Y141100D01*
Y142900D01*
X8835Y144563D01*
X7563Y145835D01*
X5900Y146524D01*
X4100D01*
X2437Y145835D01*
X1165Y144563D01*
X1083Y144365D01*
X-4082D01*
X-4713Y145889D01*
X-4165Y146437D01*
X-3476Y148100D01*
Y149900D01*
X-4165Y151563D01*
X-5437Y152835D01*
X-7100Y153524D01*
X-8900D01*
X-10563Y152835D01*
X-10954Y152444D01*
X-11075Y152407D01*
X-12833Y152720D01*
X-12853Y152751D01*
X-13364Y153092D01*
X-13481Y153932D01*
X-13359Y154749D01*
X-12843Y155093D01*
X-12354Y155825D01*
X-12183Y156687D01*
Y161313D01*
X-12354Y162175D01*
X-12843Y162907D01*
X-13575Y163396D01*
X-14438Y163567D01*
X-18562D01*
X-19425Y163396D01*
X-20157Y162907D01*
X-20646Y162175D01*
X-20817Y161313D01*
Y156687D01*
X-20646Y155825D01*
X-20157Y155093D01*
X-19646Y154752D01*
X-19529Y153912D01*
X-19651Y153095D01*
X-20167Y152751D01*
X-20656Y152019D01*
X-20827Y151157D01*
Y146531D01*
X-20700Y145889D01*
X-20952Y145267D01*
X-21617Y144365D01*
X-31466D01*
X-57808Y170707D01*
X-58565Y171213D01*
X-59457Y171390D01*
X-74652D01*
X-78086Y174824D01*
X-90611Y187349D01*
Y338742D01*
X-90789Y339634D01*
X-91294Y340390D01*
X-93804Y342900D01*
X-79392Y357312D01*
X-77801Y357083D01*
X-77734Y356743D01*
X-77245Y356011D01*
X-76513Y355522D01*
X-75919Y355404D01*
Y350064D01*
X-75741Y349172D01*
X-75236Y348415D01*
X-58045Y331224D01*
Y323678D01*
X-57867Y322786D01*
X-57362Y322030D01*
X-47934Y312602D01*
X-47178Y312097D01*
X-46286Y311919D01*
X-45580D01*
Y310312D01*
X-45359Y309206D01*
X-44732Y308267D01*
X-43794Y307641D01*
X-42688Y307420D01*
X-33812D01*
X-32706Y307641D01*
X-31767Y308267D01*
X-31141Y309206D01*
X-30920Y310312D01*
Y318188D01*
X-31141Y319294D01*
X-31767Y320233D01*
X-32706Y320859D01*
X-33812Y321080D01*
X-42688D01*
X-43794Y320859D01*
X-44732Y320233D01*
X-45359Y319294D01*
X-45446Y318861D01*
X-47037Y318297D01*
X-53383Y324643D01*
Y332189D01*
X-53561Y333082D01*
X-54066Y333838D01*
X-71257Y351029D01*
Y355095D01*
X-70012Y355957D01*
X-69929Y356008D01*
X-69086Y356010D01*
X-68247Y356008D01*
X-68164Y355957D01*
X-67513Y355522D01*
X-66651Y355351D01*
X-62526D01*
X-61663Y355522D01*
X-60931Y356011D01*
X-60852Y356129D01*
X-59206Y356459D01*
X-58974Y356406D01*
X-58651Y356083D01*
X-56988Y355394D01*
X-55188D01*
X-53525Y356083D01*
X-52253Y357355D01*
X-51564Y359018D01*
Y360818D01*
X-52253Y362481D01*
X-53525Y363753D01*
X-55188Y364442D01*
X-56988D01*
X-58391Y363861D01*
X-59380Y364048D01*
X-60118Y364347D01*
X-60408Y365172D01*
X-60366Y365280D01*
X-59437Y365665D01*
X-58165Y366937D01*
X-57476Y368600D01*
Y370400D01*
X-58165Y372063D01*
X-59307Y373205D01*
X-59271Y373932D01*
X-59026Y374814D01*
X-58825Y374854D01*
X-58093Y375343D01*
X-57604Y376075D01*
X-57486Y376669D01*
X-49000D01*
X-48108Y376847D01*
X-47352Y377352D01*
X-46035Y378669D01*
X-20965D01*
X-15081Y372785D01*
D02*
G37*
G36*
X46606Y178338D02*
Y173338D01*
X41725Y173157D01*
Y178519D01*
X46606Y178338D01*
D02*
G37*
G36*
X-107007Y82685D02*
X-108085Y81607D01*
X-114240Y82900D01*
X-108300Y88840D01*
X-107007Y82685D01*
D02*
G37*
G36*
X33042Y83200D02*
X32868Y83026D01*
X30968Y78076D01*
X29642Y76750D01*
X21750D01*
X20250Y78250D01*
Y89500D01*
X21552Y90802D01*
X24308D01*
X26946Y93440D01*
X33042D01*
Y83200D01*
D02*
G37*
G36*
X-2953Y71851D02*
X-2503Y71499D01*
X-3821Y70316D01*
X-4327Y71005D01*
X-3631Y71702D01*
X-4550D01*
X-5312Y73256D01*
X-2264D01*
X-2953Y71851D01*
D02*
G37*
G36*
X-78073Y78111D02*
X-76410Y77422D01*
X-74610D01*
X-73488Y77887D01*
X-73428Y77847D01*
X-72536Y77669D01*
X-71814D01*
X-71646Y76825D01*
X-71157Y76093D01*
X-70425Y75604D01*
X-69563Y75433D01*
X-65437D01*
X-64575Y75604D01*
X-63924Y76039D01*
X-63841Y76090D01*
X-62997Y76092D01*
X-62159Y76090D01*
X-62076Y76039D01*
X-61425Y75604D01*
X-60563Y75433D01*
X-56438D01*
X-55575Y75604D01*
X-54843Y76093D01*
X-54630Y76412D01*
X-53167Y76552D01*
X-52886Y76488D01*
X-52563Y76165D01*
X-50900Y75476D01*
X-49100D01*
X-47437Y76165D01*
X-46685Y76917D01*
X-46315D01*
X-45563Y76165D01*
X-44799Y75848D01*
X-44619Y75503D01*
X-44373Y74068D01*
X-44582Y73755D01*
X-44753Y72892D01*
Y68267D01*
X-44626Y67625D01*
X-44878Y67003D01*
X-45543Y66101D01*
X-52230D01*
X-53122Y65923D01*
X-53878Y65418D01*
X-55119Y64177D01*
X-75639D01*
X-80451Y68990D01*
Y78374D01*
X-78927Y78965D01*
X-78073Y78111D01*
D02*
G37*
G36*
X38868Y62250D02*
X36868D01*
X36687Y63305D01*
X39049D01*
X38868Y62250D01*
D02*
G37*
G36*
X30968Y72990D02*
Y68040D01*
Y64329D01*
X26000Y59361D01*
Y57048D01*
X20250Y62798D01*
Y73500D01*
X21648Y74898D01*
X29060D01*
X30968Y72990D01*
D02*
G37*
G36*
X-107007Y57285D02*
X-108085Y56207D01*
X-114240Y57500D01*
X-108300Y63440D01*
X-107007Y57285D01*
D02*
G37*
G36*
X-5058Y52933D02*
X-6942D01*
X-6762Y54664D01*
X-5238D01*
X-5058Y52933D01*
D02*
G37*
G36*
X22762Y43336D02*
X21238D01*
X21058Y45067D01*
X22942D01*
X22762Y43336D01*
D02*
G37*
G36*
X21411Y40854D02*
X20548Y38098D01*
X17578Y41068D01*
X20334Y41931D01*
X21411Y40854D01*
D02*
G37*
G36*
X-71296Y35766D02*
Y33766D01*
X-73782Y32666D01*
Y36866D01*
X-71296Y35766D01*
D02*
G37*
G36*
X-107007Y31885D02*
X-108085Y30807D01*
X-114240Y32100D01*
X-108300Y38040D01*
X-107007Y31885D01*
D02*
G37*
G36*
X-65190Y29336D02*
X-69022D01*
X-68106Y31282D01*
X-66106D01*
X-65190Y29336D01*
D02*
G37*
G36*
X-52933Y25058D02*
X-54664Y25238D01*
Y26762D01*
X-52933Y26942D01*
Y25058D01*
D02*
G37*
G36*
X-62462Y27384D02*
Y25384D01*
X-64404Y24472D01*
Y28296D01*
X-62462Y27384D01*
D02*
G37*
G36*
X-87504Y39208D02*
X-87298Y39070D01*
X-87090Y38862D01*
X-86334Y38357D01*
X-85442Y38179D01*
X-80900D01*
X-80038Y36655D01*
X-80448Y35666D01*
Y33866D01*
X-79759Y32203D01*
X-78487Y30931D01*
X-76824Y30242D01*
X-75024D01*
X-73361Y30931D01*
X-73135Y31157D01*
X-73114Y31158D01*
X-72703Y31339D01*
X-72081Y31061D01*
X-71252Y29559D01*
X-71423Y28696D01*
Y24072D01*
X-71412Y24016D01*
X-72466Y22492D01*
X-89056D01*
X-100539Y33975D01*
Y50088D01*
X-99015Y50719D01*
X-87504Y39208D01*
D02*
G37*
G36*
X-52933Y17058D02*
X-54664Y17238D01*
Y18762D01*
X-52933Y18942D01*
Y17058D01*
D02*
G37*
G36*
Y13058D02*
X-54664Y13238D01*
Y14762D01*
X-52933Y14942D01*
Y13058D01*
D02*
G37*
G36*
X-52933Y9058D02*
X-54664Y9238D01*
Y10762D01*
X-52933Y10942D01*
Y9058D01*
D02*
G37*
G36*
X-104749Y13462D02*
Y11938D01*
X-110015Y8500D01*
Y16900D01*
X-104749Y13462D01*
D02*
G37*
G36*
X-52933Y5058D02*
X-54664Y5238D01*
Y6762D01*
X-52933Y6942D01*
Y5058D01*
D02*
G37*
G36*
X-63224Y5794D02*
Y3794D01*
X-64404Y3644D01*
Y5944D01*
X-63224Y5794D01*
D02*
G37*
G36*
X-65882Y1842D02*
X-65106D01*
X-65509Y1023D01*
X-64986Y-126D01*
X-66088Y-152D01*
X-66106Y-188D01*
X-67594D01*
X-69185Y-227D01*
X-68673Y964D01*
X-69106Y1842D01*
X-68296D01*
X-68106Y2284D01*
X-66106Y2335D01*
X-65882Y1842D01*
D02*
G37*
G36*
X-52933Y-2942D02*
X-54664Y-2762D01*
Y-1238D01*
X-52933Y-1058D01*
Y-2942D01*
D02*
G37*
G36*
X-52933Y-6942D02*
X-54664Y-6762D01*
Y-5238D01*
X-52933Y-5058D01*
Y-6942D01*
D02*
G37*
G36*
X-52933Y-10942D02*
X-54664Y-10762D01*
Y-9238D01*
X-52933Y-9058D01*
Y-10942D01*
D02*
G37*
G36*
X-107007Y-6485D02*
X-108300Y-12640D01*
X-114240Y-6700D01*
X-108085Y-5407D01*
X-107007Y-6485D01*
D02*
G37*
G36*
X-52933Y-14942D02*
X-54664Y-14762D01*
Y-13238D01*
X-52933Y-13058D01*
Y-14942D01*
D02*
G37*
G36*
X-52933Y-22942D02*
X-54664Y-22762D01*
Y-21238D01*
X-52933Y-21058D01*
Y-22942D01*
D02*
G37*
G36*
X-63768Y-23000D02*
Y-25000D01*
X-65798Y-26000D01*
Y-22000D01*
X-63768Y-23000D01*
D02*
G37*
G36*
X-52933Y-26942D02*
X-54664Y-26762D01*
Y-25238D01*
X-52933Y-25058D01*
Y-26942D01*
D02*
G37*
G36*
X-67500Y-28982D02*
X-69500D01*
X-70500Y-26952D01*
X-66500D01*
X-67500Y-28982D01*
D02*
G37*
G36*
X-52933Y-30942D02*
X-54599Y-30762D01*
Y-29238D01*
X-52933Y-29058D01*
Y-30942D01*
D02*
G37*
G36*
X-53089Y-34839D02*
X-54289Y-34762D01*
Y-33238D01*
X-53089Y-33161D01*
Y-34839D01*
D02*
G37*
G36*
X-9238Y-54664D02*
X-10762D01*
X-10942Y-52933D01*
X-9058D01*
X-9238Y-54664D01*
D02*
G37*
G36*
X-13238Y-54664D02*
X-14762D01*
X-14942Y-52933D01*
X-13058D01*
X-13238Y-54664D01*
D02*
G37*
G36*
X-17238D02*
X-18762D01*
X-18942Y-52933D01*
X-17058D01*
X-17238Y-54664D01*
D02*
G37*
G36*
X-21238Y-54664D02*
X-22762D01*
X-22942Y-52933D01*
X-21058D01*
X-21238Y-54664D01*
D02*
G37*
G36*
X-107007Y-57285D02*
X-108300Y-63440D01*
X-114240Y-57500D01*
X-108085Y-56207D01*
X-107007Y-57285D01*
D02*
G37*
G36*
X-26398Y-62918D02*
X-27126Y-65061D01*
X-29955Y-62232D01*
X-27812Y-61504D01*
X-26398Y-62918D01*
D02*
G37*
G36*
X19482Y-62350D02*
Y-64350D01*
X17414Y-65344D01*
X17452Y-61350D01*
X19482Y-62350D01*
D02*
G37*
G36*
X-40926Y-65096D02*
X-40971Y-65211D01*
X-40927Y-65255D01*
X-41218Y-65830D01*
X-41936Y-67634D01*
X-44838Y-64598D01*
X-42306Y-63648D01*
X-40926Y-65096D01*
D02*
G37*
G36*
X25138Y-65358D02*
X22168Y-68328D01*
X21188Y-65792D01*
X22602Y-64378D01*
X25138Y-65358D01*
D02*
G37*
G36*
X-7264Y-74255D02*
X-11221Y-73902D01*
X-10242Y-70880D01*
X-8242Y-70370D01*
X-7264Y-74255D01*
D02*
G37*
G36*
X-5553Y-78373D02*
X-6968Y-79787D01*
X-8027Y-79058D01*
X-6282Y-77313D01*
X-5553Y-78373D01*
D02*
G37*
G36*
X-107007Y-82685D02*
X-108300Y-88840D01*
X-114240Y-82900D01*
X-108085Y-81607D01*
X-107007Y-82685D01*
D02*
G37*
G36*
X-7864Y-90104D02*
X-8687Y-92607D01*
X-11991Y-90014D01*
X-9459Y-88871D01*
X-7864Y-90104D01*
D02*
G37*
G36*
X-107007Y-108085D02*
X-108300Y-114240D01*
X-114240Y-108300D01*
X-108085Y-107007D01*
X-107007Y-108085D01*
D02*
G37*
G36*
Y-133485D02*
X-108300Y-139640D01*
X-114240Y-133700D01*
X-108085Y-132407D01*
X-107007Y-133485D01*
D02*
G37*
G36*
Y-158885D02*
X-108300Y-165040D01*
X-114240Y-159100D01*
X-108085Y-157807D01*
X-107007Y-158885D01*
D02*
G37*
G36*
Y-184285D02*
X-108300Y-190440D01*
X-114240Y-184500D01*
X-108085Y-183207D01*
X-107007Y-184285D01*
D02*
G37*
G36*
Y-209685D02*
X-108300Y-215840D01*
X-114240Y-209900D01*
X-108085Y-208607D01*
X-107007Y-209685D01*
D02*
G37*
G36*
X114240Y-286100D02*
X108300Y-292040D01*
X107007Y-285885D01*
X108085Y-284807D01*
X114240Y-286100D01*
D02*
G37*
%LPC*%
G36*
X-43250Y375622D02*
X-45600Y375154D01*
X-47593Y373823D01*
X-48924Y371830D01*
X-49392Y369480D01*
Y354480D01*
X-48924Y352130D01*
X-47593Y350137D01*
X-45600Y348806D01*
X-43250Y348338D01*
X-40900Y348806D01*
X-38907Y350137D01*
X-37576Y352130D01*
X-37108Y354480D01*
Y369480D01*
X-37576Y371830D01*
X-38907Y373823D01*
X-40900Y375154D01*
X-43250Y375622D01*
D02*
G37*
G36*
X-33812Y336580D02*
X-42688D01*
X-43794Y336359D01*
X-44732Y335732D01*
X-45359Y334794D01*
X-45580Y333688D01*
Y325812D01*
X-45359Y324706D01*
X-44732Y323768D01*
X-43794Y323141D01*
X-42688Y322920D01*
X-33812D01*
X-32706Y323141D01*
X-31767Y323768D01*
X-31141Y324706D01*
X-30920Y325812D01*
Y333688D01*
X-31141Y334794D01*
X-31767Y335732D01*
X-32706Y336359D01*
X-33812Y336580D01*
D02*
G37*
G36*
X-64476Y321024D02*
X-79024D01*
Y307476D01*
X-66003D01*
X-64985Y305952D01*
X-65208Y305414D01*
Y303614D01*
X-64519Y301951D01*
X-63247Y300679D01*
X-61584Y299990D01*
X-59784D01*
X-58121Y300679D01*
X-57184Y301616D01*
X-56247Y300679D01*
X-54584Y299990D01*
X-52784D01*
X-51121Y300679D01*
X-49849Y301951D01*
X-49160Y303614D01*
Y305414D01*
X-49849Y307077D01*
X-51121Y308349D01*
X-52784Y309038D01*
X-54584D01*
X-56247Y308349D01*
X-57184Y307412D01*
X-58121Y308349D01*
X-59784Y309038D01*
X-61584D01*
X-62952Y308471D01*
X-63984Y308904D01*
X-64476Y309275D01*
Y321024D01*
D02*
G37*
G36*
X-8622Y307150D02*
X-10422D01*
X-12085Y306461D01*
X-13357Y305189D01*
X-14046Y303526D01*
Y301726D01*
X-13603Y300656D01*
Y297239D01*
X-13646Y297175D01*
X-13817Y296313D01*
Y291688D01*
X-13646Y290825D01*
X-13157Y290093D01*
X-12425Y289604D01*
X-11562Y289433D01*
X-7437D01*
X-6575Y289604D01*
X-5843Y290093D01*
X-5354Y290825D01*
X-5183Y291688D01*
Y296313D01*
X-5354Y297175D01*
X-5397Y297239D01*
Y300763D01*
X-4998Y301726D01*
Y303526D01*
X-5687Y305189D01*
X-6959Y306461D01*
X-8622Y307150D01*
D02*
G37*
G36*
X-22100Y304524D02*
X-23900D01*
X-25563Y303835D01*
X-26835Y302563D01*
X-26931Y302331D01*
X-39000D01*
X-39892Y302153D01*
X-40648Y301648D01*
X-44148Y298148D01*
X-44653Y297392D01*
X-44831Y296500D01*
Y295264D01*
X-45425Y295146D01*
X-46157Y294657D01*
X-46646Y293925D01*
X-46817Y293062D01*
Y283937D01*
X-46646Y283075D01*
X-46157Y282343D01*
X-45425Y281854D01*
X-44562Y281683D01*
X-40437D01*
X-39575Y281854D01*
X-38843Y282343D01*
X-38354Y283075D01*
X-38183Y283937D01*
Y293062D01*
X-38354Y293925D01*
X-38843Y294657D01*
X-38872Y294676D01*
X-39185Y296436D01*
X-39149Y296555D01*
X-38035Y297669D01*
X-27603D01*
Y293990D01*
X-27646Y293925D01*
X-27817Y293062D01*
Y283937D01*
X-27646Y283075D01*
X-27157Y282343D01*
X-26425Y281854D01*
X-25563Y281683D01*
X-21437D01*
X-20575Y281854D01*
X-19843Y282343D01*
X-19354Y283075D01*
X-19183Y283937D01*
Y293062D01*
X-19354Y293925D01*
X-19397Y293990D01*
Y297205D01*
X-19165Y297437D01*
X-18476Y299100D01*
Y300900D01*
X-19165Y302563D01*
X-20437Y303835D01*
X-22100Y304524D01*
D02*
G37*
G36*
X-40437Y270317D02*
X-44562D01*
X-45425Y270146D01*
X-46157Y269657D01*
X-46646Y268925D01*
X-46817Y268062D01*
Y258937D01*
X-46646Y258075D01*
X-46157Y257343D01*
X-45425Y256854D01*
X-44562Y256683D01*
X-40437D01*
X-39575Y256854D01*
X-38843Y257343D01*
X-38354Y258075D01*
X-38183Y258937D01*
Y268062D01*
X-38354Y268925D01*
X-38843Y269657D01*
X-39575Y270146D01*
X-40437Y270317D01*
D02*
G37*
G36*
X-21437Y270317D02*
X-25563D01*
X-26425Y270146D01*
X-27157Y269657D01*
X-27646Y268925D01*
X-27817Y268062D01*
Y258937D01*
X-27646Y258075D01*
X-27157Y257343D01*
X-26425Y256854D01*
X-25650Y256700D01*
Y250000D01*
X-25166Y248834D01*
X-18060Y241728D01*
X-16894Y241244D01*
X-14675D01*
Y240832D01*
X-14504Y239969D01*
X-14015Y239237D01*
X-13646Y238991D01*
X-13545Y238587D01*
Y237701D01*
X-13646Y237297D01*
X-14015Y237051D01*
X-14504Y236319D01*
X-14675Y235456D01*
Y231332D01*
X-14504Y230469D01*
X-14015Y229737D01*
X-13646Y229491D01*
X-13545Y229087D01*
Y228201D01*
X-13646Y227797D01*
X-14015Y227551D01*
X-14504Y226819D01*
X-14675Y225956D01*
Y221831D01*
X-14504Y220969D01*
X-14015Y220237D01*
X-13283Y219748D01*
X-12421Y219577D01*
X-10427D01*
X-10189Y219090D01*
Y202917D01*
X-24117Y188989D01*
X-34246D01*
X-37891Y192633D01*
X-37891Y192636D01*
X-38851Y194502D01*
Y200868D01*
X-39039Y201814D01*
X-39574Y202616D01*
X-40376Y203151D01*
X-41322Y203340D01*
X-44115D01*
X-45753Y204296D01*
X-46078Y204621D01*
Y209242D01*
X-46188Y209796D01*
Y218242D01*
X-46345Y219032D01*
X-46793Y219701D01*
X-47462Y220149D01*
X-48252Y220306D01*
X-74252D01*
X-75042Y220149D01*
X-75711Y219701D01*
X-76159Y219032D01*
X-76316Y218242D01*
Y207242D01*
X-76159Y206452D01*
X-75711Y205783D01*
X-75042Y205335D01*
X-74252Y205178D01*
X-66041D01*
X-64858Y202799D01*
X-65085Y201488D01*
X-65052Y201344D01*
X-65109Y201207D01*
X-65065Y201102D01*
X-65111Y200868D01*
Y192768D01*
X-64923Y191822D01*
X-64388Y191020D01*
X-63586Y190485D01*
X-62640Y190296D01*
X-61086D01*
Y179317D01*
X-61144Y179176D01*
Y177376D01*
X-61086Y177235D01*
Y176784D01*
X-60602Y175618D01*
X-59078Y174094D01*
X-57912Y173610D01*
X-48768D01*
X-47602Y174094D01*
X-46078Y175618D01*
X-45594Y176784D01*
Y177214D01*
X-45514Y177408D01*
Y179208D01*
X-45594Y179402D01*
Y186857D01*
X-42461Y189990D01*
X-41190Y189337D01*
X-41187Y189336D01*
X-36860Y185010D01*
X-36104Y184505D01*
X-35212Y184327D01*
X-23152D01*
X-22260Y184505D01*
X-21504Y185010D01*
X-6210Y200304D01*
X-5705Y201060D01*
X-5527Y201952D01*
Y219090D01*
X-5289Y219577D01*
X-3295D01*
X-2433Y219748D01*
X-1701Y220237D01*
X-1212Y220969D01*
X-1041Y221831D01*
Y225956D01*
X-1212Y226819D01*
X-1701Y227551D01*
X-2070Y227797D01*
X-2171Y228201D01*
Y229087D01*
X-2070Y229491D01*
X-1701Y229737D01*
X-1212Y230469D01*
X-1094Y231063D01*
X4507D01*
X4604Y230575D01*
X5093Y229843D01*
X5825Y229354D01*
X6687Y229183D01*
X11313D01*
X12175Y229354D01*
X12907Y229843D01*
X13396Y230575D01*
X13567Y231437D01*
Y235562D01*
X13396Y236425D01*
X12961Y237076D01*
X12910Y237159D01*
X12908Y237997D01*
X12910Y238841D01*
X12961Y238924D01*
X13396Y239575D01*
X13567Y240438D01*
Y244562D01*
X13396Y245425D01*
X12907Y246157D01*
X12650Y246329D01*
Y248825D01*
X13091Y249266D01*
X13826Y251040D01*
Y252960D01*
X13091Y254734D01*
X12650Y255175D01*
Y256928D01*
X13050D01*
X13996Y257117D01*
X14798Y257652D01*
X15333Y258454D01*
X15522Y259400D01*
Y264800D01*
X15333Y265746D01*
X14798Y266548D01*
X13996Y267083D01*
X13050Y267271D01*
X4950D01*
X4004Y267083D01*
X3202Y266548D01*
X2667Y265746D01*
X2648Y265650D01*
X-669D01*
X-1202Y266448D01*
X-2004Y266983D01*
X-2950Y267171D01*
X-11050D01*
X-11996Y266983D01*
X-12798Y266448D01*
X-13191Y265859D01*
X-14743Y265765D01*
X-17145Y268166D01*
X-18312Y268650D01*
X-19299D01*
X-19354Y268925D01*
X-19843Y269657D01*
X-20575Y270146D01*
X-21437Y270317D01*
D02*
G37*
G36*
X-48252Y242306D02*
X-74252D01*
X-75042Y242148D01*
X-75711Y241701D01*
X-76159Y241032D01*
X-76316Y240242D01*
Y229242D01*
X-76159Y228452D01*
X-75711Y227783D01*
X-75042Y227335D01*
X-74252Y227178D01*
X-48252D01*
X-47462Y227335D01*
X-47414Y227367D01*
X-47318Y227365D01*
X-42505Y229229D01*
X-39407Y229122D01*
X-38969Y227582D01*
X-39015Y227551D01*
X-39504Y226819D01*
X-39675Y225956D01*
Y221831D01*
X-39504Y220969D01*
X-39015Y220237D01*
X-38862Y220135D01*
X-38365Y219095D01*
Y215588D01*
X-38658Y214990D01*
X-38959Y214930D01*
X-39691Y214441D01*
X-40180Y213709D01*
X-40351Y212847D01*
Y208221D01*
X-40180Y207359D01*
X-39691Y206627D01*
X-38959Y206138D01*
X-38096Y205967D01*
X-33972D01*
X-33109Y206138D01*
X-32382Y206624D01*
X-32377Y206627D01*
X-30691D01*
X-30686Y206624D01*
X-29959Y206138D01*
X-29096Y205967D01*
X-24971D01*
X-24109Y206138D01*
X-23377Y206627D01*
X-22888Y207359D01*
X-22717Y208221D01*
Y212847D01*
X-22888Y213709D01*
X-23377Y214441D01*
X-23486Y216241D01*
X-22150Y217578D01*
X-21645Y218334D01*
X-21467Y219226D01*
Y230619D01*
X-21645Y231511D01*
X-22150Y232267D01*
X-24925Y235042D01*
X-25681Y235547D01*
X-25953Y235602D01*
X-26091Y235707D01*
X-26212Y236319D01*
X-26701Y237051D01*
X-27433Y237540D01*
X-28296Y237711D01*
X-37420D01*
X-37571Y237681D01*
X-37677Y237725D01*
X-37705Y237713D01*
X-37734Y237724D01*
X-42422Y237562D01*
X-46188Y239433D01*
Y240242D01*
X-46345Y241032D01*
X-46793Y241701D01*
X-47462Y242148D01*
X-48252Y242306D01*
D02*
G37*
G36*
X392Y201882D02*
X-1408D01*
X-3071Y201193D01*
X-4343Y199921D01*
X-5032Y198258D01*
Y196458D01*
X-4343Y194795D01*
X-3071Y193523D01*
X-1408Y192834D01*
X392D01*
X2055Y193523D01*
X3327Y194795D01*
X4016Y196458D01*
Y198258D01*
X3327Y199921D01*
X2055Y201193D01*
X392Y201882D01*
D02*
G37*
G36*
X1312Y108817D02*
X-3313D01*
X-4175Y108646D01*
X-4907Y108157D01*
X-5153Y107788D01*
X-5557Y107687D01*
X-6443D01*
X-6847Y107788D01*
X-7093Y108157D01*
X-7825Y108646D01*
X-8687Y108817D01*
X-13312D01*
X-14175Y108646D01*
X-14907Y108157D01*
X-15396Y107425D01*
X-15567Y106562D01*
Y102437D01*
X-15396Y101575D01*
X-14907Y100843D01*
X-14175Y100354D01*
X-13495Y100219D01*
Y99922D01*
X-13299Y98937D01*
X-12741Y98102D01*
X-5820Y91180D01*
X-4985Y90622D01*
X-4000Y90427D01*
X-3074D01*
X-1813Y89165D01*
X-150Y88476D01*
X1650D01*
X3313Y89165D01*
X4585Y90437D01*
X5274Y92100D01*
Y93900D01*
X4585Y95563D01*
X3313Y96835D01*
X1650Y97524D01*
X1495D01*
Y100219D01*
X2175Y100354D01*
X2907Y100843D01*
X3396Y101575D01*
X3567Y102437D01*
Y106562D01*
X3396Y107425D01*
X2907Y108157D01*
X2175Y108646D01*
X1312Y108817D01*
D02*
G37*
%LPD*%
G36*
X-15312Y264000D02*
X9000D01*
X11318Y260901D01*
X11000Y260583D01*
Y244500D01*
X9000Y242500D01*
X8606Y242894D01*
X-16894D01*
X-24000Y250000D01*
Y267000D01*
X-18312D01*
X-15312Y264000D01*
D02*
G37*
G36*
X-7096Y219638D02*
X-8620D01*
X-9382Y221192D01*
X-6334D01*
X-7096Y219638D01*
D02*
G37*
G36*
X-39358Y191881D02*
X-40436Y190804D01*
X-42591Y191912D01*
X-40466Y194037D01*
X-39358Y191881D01*
D02*
G37*
G36*
X-48006Y207886D02*
Y207051D01*
X-47810Y207059D01*
X-47727Y203937D01*
X-46768Y202978D01*
X-44620Y201724D01*
X-44878Y201088D01*
X-41570Y197780D01*
Y193214D01*
X-47244Y187540D01*
Y176784D01*
X-48768Y175260D01*
X-57912D01*
X-59436Y176784D01*
Y191375D01*
X-60023Y191912D01*
X-59695Y192278D01*
X-60960D01*
X-61722Y197461D01*
Y201207D01*
X-63459D01*
X-63141Y203050D01*
X-65002Y206794D01*
X-61722D01*
Y208788D01*
X-48908D01*
X-48006Y207886D01*
D02*
G37*
G36*
X-27656Y234420D02*
Y234447D01*
X-26573Y234156D01*
Y232632D01*
X-27656Y232341D01*
Y232368D01*
X-31229Y231497D01*
Y235291D01*
X-27656Y234420D01*
D02*
G37*
G36*
X-50259Y231625D02*
X-55873Y232632D01*
Y234156D01*
X-50259Y235163D01*
Y231625D01*
D02*
G37*
G36*
X-42783Y235899D02*
X-37677Y236075D01*
Y230713D01*
X-42785Y230889D01*
X-47913Y228904D01*
X-47804Y238394D01*
X-42783Y235899D01*
D02*
G37*
G36*
X-34510Y221192D02*
X-35272Y219638D01*
X-36796D01*
X-37552Y221219D01*
X-34510Y221192D01*
D02*
G37*
G36*
X-25510Y213486D02*
X-28558D01*
X-27796Y215040D01*
X-26272D01*
X-25510Y213486D01*
D02*
G37*
G36*
X-34510D02*
X-37558D01*
X-36796Y215040D01*
X-35272D01*
X-34510Y213486D01*
D02*
G37*
G36*
X72598Y9962D02*
X72018Y8670D01*
X72488Y7715D01*
X71590D01*
X71488Y7489D01*
X69488Y7514D01*
X69400Y7715D01*
X68488D01*
X68972Y8698D01*
X68398Y10012D01*
X72598Y9962D01*
D02*
G37*
G36*
X114240Y6700D02*
X108085Y5407D01*
X107007Y6485D01*
X108300Y12640D01*
X114240Y6700D01*
D02*
G37*
G36*
X67750Y2794D02*
X65720Y3794D01*
Y5794D01*
X67750Y6794D01*
Y2794D01*
D02*
G37*
G36*
X67750Y-6924D02*
X65720Y-5925D01*
Y-3925D01*
X67750Y-2925D01*
Y-6924D01*
D02*
G37*
G36*
X71416Y-7639D02*
X71504Y-7840D01*
X72416D01*
X71932Y-8823D01*
X72505Y-10137D01*
X68306Y-10087D01*
X68886Y-8795D01*
X68416Y-7840D01*
X69314D01*
X69416Y-7614D01*
X71416Y-7639D01*
D02*
G37*
G36*
X54664Y-13238D02*
Y-14762D01*
X52933Y-14942D01*
Y-13058D01*
X54664Y-13238D01*
D02*
G37*
G36*
X92179Y23528D02*
Y-8525D01*
X85494Y-15210D01*
X75702D01*
X74684Y-13686D01*
X74904Y-13154D01*
Y-11355D01*
X74215Y-9692D01*
X74109Y-8795D01*
X74598Y-8064D01*
X74769Y-7201D01*
Y-2576D01*
X74598Y-1713D01*
X74109Y-982D01*
X74040Y-936D01*
X74040Y811D01*
X74109Y857D01*
X74598Y1588D01*
X74769Y2451D01*
Y7076D01*
X74598Y7939D01*
X74109Y8670D01*
X74359Y9567D01*
X75048Y11230D01*
Y13029D01*
X74804Y13619D01*
X75822Y15143D01*
X80674D01*
X81566Y15321D01*
X82322Y15826D01*
X90655Y24159D01*
X92179Y23528D01*
D02*
G37*
G36*
X54664Y-17238D02*
Y-18762D01*
X52933Y-18942D01*
Y-17058D01*
X54664Y-17238D01*
D02*
G37*
G36*
X114240Y-18700D02*
X108085Y-19993D01*
X107007Y-18915D01*
X108300Y-12760D01*
X114240Y-18700D01*
D02*
G37*
G36*
X54664Y-21238D02*
Y-22762D01*
X52933Y-22942D01*
Y-21058D01*
X54664Y-21238D01*
D02*
G37*
G36*
Y-25238D02*
Y-26762D01*
X52933Y-26942D01*
Y-25058D01*
X54664Y-25238D01*
D02*
G37*
G36*
X54510Y-29238D02*
Y-30762D01*
X52933Y-30942D01*
Y-29058D01*
X54510Y-29238D01*
D02*
G37*
G36*
X54200Y-33238D02*
Y-34762D01*
X53088Y-34839D01*
Y-33161D01*
X54200Y-33238D01*
D02*
G37*
G36*
X50000Y-40979D02*
X48000D01*
X47000Y-38948D01*
X51000D01*
X50000Y-40979D01*
D02*
G37*
G36*
X80226Y-47141D02*
X78478Y-46389D01*
X77111Y-47062D01*
Y-43062D01*
X78433Y-43713D01*
X80126Y-42942D01*
X80226Y-47141D01*
D02*
G37*
G36*
X71208Y-47062D02*
X69334Y-46139D01*
X67459Y-47062D01*
Y-43062D01*
X69334Y-43985D01*
X71208Y-43062D01*
Y-47062D01*
D02*
G37*
G36*
X61556D02*
X59525Y-46062D01*
Y-44062D01*
X61556Y-43062D01*
Y-47062D01*
D02*
G37*
G36*
X114240Y-57500D02*
X108300Y-63440D01*
X107007Y-57285D01*
X108085Y-56207D01*
X114240Y-57500D01*
D02*
G37*
G36*
Y-82900D02*
X108300Y-88840D01*
X107007Y-82685D01*
X108085Y-81607D01*
X114240Y-82900D01*
D02*
G37*
D14*
X62896Y-389104D02*
Y-385107D01*
X62500Y-389500D02*
X62896Y-389104D01*
Y-385107D02*
X68060Y-379942D01*
Y-365069D01*
X62000Y-359009D02*
X68060Y-365069D01*
X62000Y-359009D02*
Y-354000D01*
X-70250Y-359248D02*
Y-338000D01*
X59501Y-365000D02*
X62000Y-367499D01*
Y-376000D02*
Y-367499D01*
X41875Y-365000D02*
X59501D01*
X83250D02*
X87630Y-360620D01*
X83250Y-383500D02*
Y-365000D01*
X77250Y-389500D02*
X83250Y-383500D01*
X71500Y-389500D02*
X77250D01*
X-70250Y-359248D02*
X-61998Y-367500D01*
Y-386002D02*
Y-376000D01*
Y-367500D01*
X-69750Y-338000D02*
X-59500D01*
X-70250Y-329000D02*
Y-320750D01*
X96520Y-342900D02*
X114300D01*
X87630Y-351790D02*
X96520Y-342900D01*
X87630Y-360620D02*
Y-351790D01*
X-59849Y-329000D02*
X-59350Y-328501D01*
Y-307250D01*
X-41750Y-339750D02*
X-36750D01*
X-56000Y-354000D02*
X-41750Y-339750D01*
X-62000Y-354000D02*
X-56000D01*
X77000Y-350000D02*
X81000Y-346000D01*
X77000Y-361000D02*
Y-350000D01*
X57000Y342900D02*
X114300D01*
X-36750Y124994D02*
X-33244Y128500D01*
X-36750Y94804D02*
X-20298Y78352D01*
X-36750Y94804D02*
Y124994D01*
X-31500Y93864D02*
Y110000D01*
X-25500Y116000D01*
X-31500Y93864D02*
X-17250Y79614D01*
X3769Y113500D02*
X7750Y117481D01*
Y133000D01*
X-1000Y113500D02*
X3769D01*
X4966Y142034D02*
X5000Y142000D01*
X-32431Y142034D02*
X4966D01*
X38238Y49629D02*
X40393D01*
X38000Y49391D02*
X38238Y49629D01*
X38000Y49000D02*
Y49391D01*
X1214Y55134D02*
Y58836D01*
Y55134D02*
X2000Y54348D01*
Y49000D02*
Y54348D01*
X-13676Y73727D02*
X1214Y58836D01*
X-17154Y72894D02*
X-2000Y57740D01*
Y49000D02*
Y57740D01*
X-20202Y71631D02*
X-6000Y57429D01*
Y49000D02*
Y57429D01*
X23250Y71250D02*
X23571Y70929D01*
X25126Y67233D02*
X28981D01*
X23571Y68788D02*
X25126Y67233D01*
X23571Y68788D02*
Y70929D01*
X23250Y79750D02*
X24538Y81038D01*
X26185D01*
X26381Y81234D01*
X27716D01*
X1522Y66814D02*
X6118D01*
X-13676Y73727D02*
Y91176D01*
X-25500Y103000D02*
X-13676Y91176D01*
X-20298Y78229D02*
Y78352D01*
X-20202Y71631D02*
Y72892D01*
X-17154Y72894D02*
Y79396D01*
X-17250Y79492D02*
X-17154Y79396D01*
X-17250Y79492D02*
Y79614D01*
X-20298Y78229D02*
X-20202Y78134D01*
Y72892D02*
Y78134D01*
X-45411Y90411D02*
X-29548Y74548D01*
Y67737D02*
Y74548D01*
X-62129Y115750D02*
X-23250Y76871D01*
X-53781Y103092D02*
X-26500Y75810D01*
Y69000D02*
Y75810D01*
X-62970Y103092D02*
X-53781D01*
X-70750Y115750D02*
X-62129D01*
X-10000Y49000D02*
Y57119D01*
X-23250Y70369D02*
X-10000Y57119D01*
X-23250Y70369D02*
Y76871D01*
X-29548Y67737D02*
X-18000Y56189D01*
Y49000D02*
Y56189D01*
X-14000Y49000D02*
Y56500D01*
X-26500Y69000D02*
X-14000Y56500D01*
X-30000Y49000D02*
Y54510D01*
X-36212Y60722D02*
X-30000Y54510D01*
X-34949Y63770D02*
X-26000Y54821D01*
X-34000Y49000D02*
Y54200D01*
X-52230Y63770D02*
X-34949D01*
X-37474Y57674D02*
X-34000Y54200D01*
X-50922Y60722D02*
X-36212D01*
X-49660Y57674D02*
X-37474D01*
X-26000Y49000D02*
Y54821D01*
X-67500Y151750D02*
X-67500Y151750D01*
X-67500Y143711D02*
Y151750D01*
X-69000Y142211D02*
X-67500Y143711D01*
X-69000Y141000D02*
Y142211D01*
X-75617Y169059D02*
X-59457D01*
X-32431Y142034D01*
X-22912Y166338D02*
X-5566D01*
X-25500Y163750D02*
X-22912Y166338D01*
X-25500Y159000D02*
Y163750D01*
X-50142Y133858D02*
X-50000Y134000D01*
X-56000Y133858D02*
X-50142D01*
X-56892Y134750D02*
X-56000Y133858D01*
X-73000Y134750D02*
X-56892D01*
X-76750Y131000D02*
X-73000Y134750D01*
X-97100Y342900D02*
X-80082Y359918D01*
X-73588D01*
X-63825Y379000D02*
X-49000D01*
X-47000Y381000D01*
X-49661Y90411D02*
X-45411D01*
X-49750Y90500D02*
X-49661Y90411D01*
X-76750Y114275D02*
Y131000D01*
Y114275D02*
X-73000Y110525D01*
Y99500D02*
Y110525D01*
X-33244Y128500D02*
X-25500D01*
X-82782Y68024D02*
X-76604Y61846D01*
X-85830Y66762D02*
X-77867Y58798D01*
X-88878Y65499D02*
X-79129Y55750D01*
X-91926Y64236D02*
X-80392Y52702D01*
X-88878Y65499D02*
Y169389D01*
X-85830Y66762D02*
Y170651D01*
X-82782Y68024D02*
Y171914D01*
X-91926Y64236D02*
Y168126D01*
X-94974Y62974D02*
Y145774D01*
X-114300Y165100D02*
X-94974Y145774D01*
X56856Y85277D02*
X59000Y83133D01*
Y76500D02*
Y83133D01*
X57262Y65512D02*
X61238Y69488D01*
X56276Y65512D02*
X57262D01*
X66810Y73575D02*
Y85310D01*
X67000Y85500D01*
X62723Y69488D02*
X66810Y73575D01*
X40393Y49629D02*
X56276Y65512D01*
X68500Y60000D02*
Y63500D01*
X61238Y69488D02*
X62723D01*
X56000Y88000D02*
X56856Y87144D01*
Y85277D02*
Y87144D01*
X68750Y43250D02*
X69000Y43000D01*
X68500Y50000D02*
X68750Y49750D01*
Y43250D02*
Y49750D01*
X69369Y65158D02*
X71000Y66789D01*
Y68000D01*
X69369Y64369D02*
Y65158D01*
X68500Y63500D02*
X69369Y64369D01*
X66512Y58728D02*
X68500Y56740D01*
Y50000D02*
Y60000D01*
X66262Y57729D02*
X66512D01*
X65490Y58500D02*
X66262Y57729D01*
X59000Y58500D02*
X65490D01*
X62424Y29666D02*
X75624D01*
X49000Y26000D02*
X54448D01*
X64949Y23570D02*
X78149D01*
X67130Y20522D02*
X79411D01*
X54448Y26000D02*
X61161Y32714D01*
X79411Y20522D02*
X94948Y36059D01*
X68393Y17474D02*
X80674D01*
X56919Y6000D02*
X68393Y17474D01*
X76886Y26618D02*
X88852Y38584D01*
X74361Y32714D02*
X82756Y41109D01*
X55379Y14000D02*
X64949Y23570D01*
X75624Y29666D02*
X85804Y39846D01*
X63686Y26618D02*
X76886D01*
X61161Y32714D02*
X74361D01*
X54758Y22000D02*
X62424Y29666D01*
X55068Y18000D02*
X63686Y26618D01*
X56609Y10000D02*
X67130Y20522D01*
X78149Y23570D02*
X91900Y37321D01*
X49000Y10000D02*
X56609D01*
X80674Y17474D02*
X97996Y34796D01*
Y97996D01*
X94948Y36059D02*
Y120348D01*
X88852Y38584D02*
Y165052D01*
X85804Y39846D02*
Y187404D01*
X82756Y41109D02*
Y60756D01*
X91900Y37321D02*
Y142700D01*
X49000Y22000D02*
X54758D01*
X49000Y14000D02*
X55379D01*
X49000Y18000D02*
X55068D01*
X104490Y30066D02*
Y53690D01*
X114300Y63500D01*
X101044Y30931D02*
Y75644D01*
X85804Y187404D02*
X114300Y215900D01*
X91900Y142700D02*
X114300Y165100D01*
X94948Y120348D02*
X114300Y139700D01*
X94510Y24397D02*
X101044Y30931D01*
X97558Y23134D02*
X104490Y30066D01*
X103860Y6571D02*
Y16133D01*
X114300Y26574D01*
Y38100D01*
X-101070Y60381D02*
Y101070D01*
X-114300Y114300D02*
X-101070Y101070D01*
X-114300Y139700D02*
X-98022Y123422D01*
Y61643D02*
Y123422D01*
X-114300Y266700D02*
X-95990Y248390D01*
Y185122D02*
Y248390D01*
X-114300Y215900D02*
X-102086Y203686D01*
Y201531D02*
Y203686D01*
X-99038Y183859D02*
Y226038D01*
X-114300Y241300D02*
X-99038Y226038D01*
X-95990Y185122D02*
X-95000Y184132D01*
X-79734Y173176D02*
X-75617Y169059D01*
X-46286Y314250D02*
X-38250D01*
X-92942Y186384D02*
Y338742D01*
Y186384D02*
X-79734Y173176D01*
X-99038Y183859D02*
X-85830Y170651D01*
X-114300Y190500D02*
X-91926Y168126D01*
X-102086Y182597D02*
X-88878Y169389D01*
X-97100Y342900D02*
X-92942Y338742D01*
X57000Y319000D02*
Y342900D01*
Y319000D02*
X61750Y314250D01*
X66250D01*
X82756Y209756D02*
X114300Y241300D01*
X82756Y207601D02*
Y209756D01*
X88852Y165052D02*
X114300Y190500D01*
X97996Y97996D02*
X114300Y114300D01*
X82756Y60756D02*
Y207601D01*
X-78860Y-282060D02*
Y-240170D01*
X-57658Y-218969D02*
Y-176500D01*
X-60706Y-217416D02*
Y-71153D01*
X-66802Y-68628D02*
X-49000Y-50826D01*
X-114300Y-266700D02*
X-63754Y-216154D01*
X-57658Y-72415D02*
X-46175Y-60933D01*
X-57658Y-176500D02*
Y-72415D01*
X-47438Y-57885D02*
X-36466D01*
X-114300Y-241300D02*
X-66802Y-193802D01*
Y-68628D01*
X-60706Y-71153D02*
X-47438Y-57885D01*
X-63754Y-216154D02*
Y-69890D01*
X-42863Y-49000D01*
X-49000Y-50826D02*
Y-38000D01*
X-42863Y-49000D02*
X-38000D01*
X-114300Y-215900D02*
X-69850Y-171450D01*
X-33000Y276000D02*
X-33000Y276000D01*
Y288500D01*
X-39000Y300000D02*
X-23000D01*
X-42500Y296500D02*
X-39000Y300000D01*
X-42500Y288500D02*
Y296500D01*
X-15000Y331000D02*
X-15000Y331000D01*
X-4500D01*
X-7502Y318000D02*
X-7501Y317999D01*
X-17000Y318000D02*
X-7502D01*
X-55714Y323678D02*
X-46286Y314250D01*
X-73588Y350064D02*
Y359918D01*
X-55714Y323678D02*
Y332189D01*
X-114300Y342900D02*
X-97100D01*
X38250Y329750D02*
X49250D01*
X66250Y314250D02*
X71750D01*
X66250D02*
X68750Y316750D01*
X69000Y317000D02*
X71750Y314250D01*
X42268Y342900D02*
X57000D01*
X35875Y349293D02*
X42268Y342900D01*
X35875Y349293D02*
Y368217D01*
X8894Y233394D02*
X9000Y233500D01*
X-7858Y233394D02*
X8894D01*
X-74000Y388000D02*
X-62000D01*
X-74000Y373500D02*
Y379000D01*
Y373500D02*
X-70000Y369500D01*
X-25510Y148844D02*
X-25500Y148854D01*
Y159000D01*
X-73588Y350064D02*
X-55714Y332189D01*
X-1000Y121000D02*
X-1000Y121000D01*
X-1000Y113500D02*
Y121000D01*
X-1000Y113500D02*
X-1000Y113500D01*
X-11000Y113500D02*
X-1000D01*
X-95000Y184132D02*
X-82782Y171914D01*
X-74482Y81946D02*
X-72536Y80000D01*
X-67500D01*
X-75510Y81946D02*
X-74482D01*
X-73000Y85077D02*
Y90500D01*
X-75510Y82567D02*
X-73000Y85077D01*
X-75510Y81946D02*
Y82567D01*
X-54154Y61846D02*
X-52230Y63770D01*
X-76604Y61846D02*
X-54154D01*
X-77867Y58798D02*
X-52846D01*
X-79129Y55750D02*
X-51584D01*
X-52846Y58798D02*
X-50922Y60722D01*
X-51584Y55750D02*
X-49660Y57674D01*
X-70990Y40510D02*
X-56480Y26000D01*
X-84179Y43558D02*
X-69728D01*
X-84525Y43904D02*
X-84179Y43558D01*
X-85856Y40856D02*
X-85787D01*
X-85442Y40510D02*
X-70990D01*
X-84593Y43904D02*
X-84525D01*
X-81654Y49654D02*
X-67203D01*
X-68465Y46606D02*
X-55859Y34000D01*
X-82000Y50000D02*
X-81654Y49654D01*
X-83331Y46952D02*
X-83263D01*
X-82916Y46606D01*
X-69728Y43558D02*
X-56169Y30000D01*
X-82916Y46606D02*
X-68465D01*
X-80392Y52702D02*
X-58287D01*
X-54585Y49000D01*
X-85787Y40856D02*
X-85442Y40510D01*
X-67203Y49654D02*
X-55549Y38000D01*
X-54585Y49000D02*
X-38000D01*
X-94974Y62974D02*
X-82000Y50000D01*
X-98022Y61643D02*
X-83331Y46952D01*
X-101070Y60381D02*
X-84593Y43904D01*
X-104118Y59118D02*
Y78718D01*
Y59118D02*
X-85856Y40856D01*
X-114300Y63500D02*
X-102870Y52070D01*
Y33010D02*
Y52070D01*
X-114300Y88900D02*
X-104118Y78718D01*
X72500Y113500D02*
X73000Y114000D01*
X63000Y113500D02*
X72500D01*
X101044Y75644D02*
X114300Y88900D01*
X94510Y-9490D02*
Y24397D01*
X86460Y-17541D02*
X94510Y-9490D01*
X68190Y-17541D02*
X86460D01*
X56650Y-6000D02*
X68190Y-17541D01*
X49000Y-6000D02*
X56650D01*
X66928Y-20589D02*
X87722D01*
X54821Y-26000D02*
X61619Y-32798D01*
X55131Y-22000D02*
X62881Y-29750D01*
X54510Y-30000D02*
X60356Y-35846D01*
X113186Y-38100D02*
X114300D01*
X55442Y-18000D02*
X64144Y-26702D01*
X49000Y-18000D02*
X55442D01*
X49000Y-26000D02*
X54821D01*
X56339Y-10000D02*
X66928Y-20589D01*
X49000Y-14000D02*
X55752D01*
X49000Y-34000D02*
X54200D01*
X49000Y-30000D02*
X54510D01*
X55752Y-14000D02*
X65406Y-23654D01*
X54200Y-34000D02*
X59094Y-38894D01*
X49000Y-10000D02*
X56339D01*
X49000Y-22000D02*
X55131D01*
X97558Y-10753D02*
Y23134D01*
X87722Y-20589D02*
X97558Y-10753D01*
X-70000Y369500D02*
X-62000D01*
X-102086Y182597D02*
Y201531D01*
X-84000Y-312600D02*
Y-293689D01*
X-75262Y-284952D01*
X-114300Y-342900D02*
X-84000Y-312600D01*
X-80500Y-295025D02*
X-74190Y-288714D01*
X-114300Y-368300D02*
X-80500Y-334500D01*
Y-295025D01*
X-103886Y-53086D02*
Y-26265D01*
X-100838Y-75438D02*
Y-27527D01*
X-103886Y-26265D02*
X-88715Y-11094D01*
X-87142Y-14142D02*
X-87096Y-14096D01*
X-86190Y-17190D02*
X-72425D01*
X-88405Y-11094D02*
X-88358Y-11048D01*
X-100838Y-27527D02*
X-87453Y-14142D01*
X-97790Y-28790D02*
X-86190Y-17190D01*
X-97790Y-97790D02*
Y-28790D01*
X-87453Y-14142D02*
X-87142D01*
X-88715Y-11094D02*
X-88405D01*
X-87096Y-14096D02*
X-61050D01*
X-88358Y-11048D02*
X-62312D01*
X-107144Y-25144D02*
X-90000Y-8000D01*
X-63575D01*
X-107144Y-30944D02*
Y-25144D01*
X-114300Y-38100D02*
X-107144Y-30944D01*
X94910Y-38100D02*
X114300D01*
X89608Y-32798D02*
X94910Y-38100D01*
X86646Y-35846D02*
X114300Y-63500D01*
X60356Y-35846D02*
X86646D01*
X42510Y-102000D02*
X47000Y-102000D01*
X-10000Y-102305D02*
X-5510Y-102305D01*
X-10000Y-129000D02*
X-5510Y-129000D01*
X42510Y-128516D02*
X47000Y-128516D01*
X19000Y-152510D02*
X19332Y-152178D01*
X19000Y-157000D02*
Y-152510D01*
X1453Y-166048D02*
X37669D01*
X-26648Y-133636D02*
X2716Y-163000D01*
X-1072Y-172144D02*
X35144D01*
X-29950Y-134644D02*
X1453Y-166048D01*
X-32998Y-135907D02*
X191Y-169096D01*
X38932Y-163000D02*
X95966Y-220034D01*
X37669Y-166048D02*
X92310Y-220690D01*
X35144Y-172144D02*
X85607Y-222607D01*
X191Y-169096D02*
X36407D01*
X2716Y-163000D02*
X38932D01*
X36407Y-169096D02*
X88655Y-221345D01*
X-36046Y-137170D02*
X-1072Y-172144D01*
X-78860Y-240170D02*
X-57658Y-218969D01*
X-114300Y-317500D02*
X-78860Y-282060D01*
X-114300Y-292100D02*
X-81908Y-259708D01*
Y-238619D01*
X-31000Y-321000D02*
X3000D01*
X-33950Y-318050D02*
Y-307250D01*
Y-318050D02*
X-31000Y-321000D01*
X-33950Y-307250D02*
Y-297714D01*
X-34320Y-324048D02*
X4263D01*
X-34368Y-324000D02*
X-34320Y-324048D01*
X4263D02*
X4311Y-324000D01*
X-39436D02*
X-34368D01*
X3000Y-321000D02*
X27810Y-296190D01*
X4311Y-324000D02*
X5000D01*
X21750Y-307250D01*
X-46650Y-316786D02*
X-39436Y-324000D01*
X-46650Y-316786D02*
Y-307250D01*
Y-297714D01*
X21750Y-307250D02*
X33950D01*
X-46712Y-284952D02*
X-33950Y-297714D01*
X27810Y-296190D02*
X45083D01*
X85607Y-288807D02*
Y-222607D01*
Y-288807D02*
X114300Y-317500D01*
X95966Y-234803D02*
X102463Y-241300D01*
X95966Y-234803D02*
Y-220034D01*
X92310Y-244710D02*
Y-220690D01*
Y-244710D02*
X114300Y-266700D01*
X88655Y-266455D02*
Y-221345D01*
Y-266455D02*
X114300Y-292100D01*
X102463Y-241300D02*
X114300D01*
X69286Y-170886D02*
X114300Y-215900D01*
X69286Y-170886D02*
Y-105001D01*
X75382Y-126182D02*
X114300Y-165100D01*
X75382Y-126182D02*
Y-102476D01*
X72334Y-148534D02*
Y-103738D01*
X98700Y-139700D02*
X114300D01*
X80286Y-121286D02*
X98700Y-139700D01*
X80286Y-121286D02*
Y-103069D01*
X22000Y-57715D02*
Y-49000D01*
X38000Y-56473D02*
Y-49000D01*
Y-56473D02*
X95827Y-114300D01*
X114300D01*
X34000Y-56783D02*
Y-49000D01*
X72334Y-148534D02*
X114300Y-190500D01*
X22000Y-57715D02*
X69286Y-105001D01*
X30000Y-57094D02*
X75382Y-102476D01*
X26000Y-57404D02*
X72334Y-103738D01*
X30000Y-57094D02*
Y-49000D01*
X26000Y-57404D02*
Y-49000D01*
X46650Y-323150D02*
X47000Y-323500D01*
X46607Y-307207D02*
X46650Y-307250D01*
X-51500Y-238500D02*
Y-233000D01*
Y-238500D02*
X-46650Y-243350D01*
Y-252750D02*
Y-243350D01*
X-59926Y-233000D02*
X-59926Y-233000D01*
X-51500D01*
X-34780Y-233000D02*
X-34780Y-233000D01*
X-42500Y-233000D02*
X-34780D01*
X-72050Y-267950D02*
X-68000Y-272000D01*
X-72050Y-267950D02*
Y-252750D01*
X-59350Y-266650D02*
X-54000Y-272000D01*
X-59350Y-266650D02*
Y-252750D01*
X-72050Y-294050D02*
X-72000Y-294000D01*
X-72050Y-307250D02*
Y-294050D01*
X-55650Y-288714D02*
X-46650Y-297714D01*
X-74190Y-288714D02*
X-55650D01*
X33950Y-323450D02*
Y-307300D01*
Y-323450D02*
X34000Y-323500D01*
X46650Y-323150D02*
Y-307250D01*
X46607Y-307207D02*
Y-297714D01*
X-75262Y-284952D02*
X-46712D01*
X46650Y-266504D02*
X47146Y-267000D01*
X46650Y-266504D02*
Y-252750D01*
X47146Y-267000D02*
X60000D01*
X59350Y-266350D02*
X60000Y-267000D01*
X59350Y-266350D02*
Y-252750D01*
X60000Y-267000D02*
X69000D01*
X34000D02*
X47146D01*
X69000D02*
X72050Y-263950D01*
Y-252750D01*
X45083Y-296190D02*
X46607Y-297714D01*
X34000Y-332500D02*
X47000D01*
X54500D01*
X64000Y-323000D01*
X71500D02*
X72000Y-323500D01*
X64000Y-323000D02*
X71500D01*
X59350Y-318350D02*
X64000Y-323000D01*
X59350Y-318350D02*
Y-307250D01*
X72000Y-307300D02*
X72050Y-307250D01*
X72000Y-323500D02*
Y-307300D01*
Y-323500D02*
X78500D01*
X81000Y-326000D01*
Y-346000D02*
Y-326000D01*
X-61998Y-386002D02*
X-52000Y-396000D01*
X36750D01*
X41875Y-390875D01*
Y-365000D01*
X-47000Y381000D02*
X-20000D01*
X-12750Y373750D01*
Y365680D02*
Y373750D01*
X76968Y371532D02*
X77000Y371500D01*
X49000Y30000D02*
X49000Y30000D01*
X28000Y30000D02*
X49000D01*
X17730Y-93500D02*
Y-93250D01*
Y-93500D02*
X19718Y-95488D01*
X19968D01*
X58094Y166950D02*
X58166Y166878D01*
X19968Y-95488D02*
X21980Y-97500D01*
X-43158Y-78010D02*
X-42873D01*
X50038Y166950D02*
X58094D01*
X21980Y-97500D02*
X26230Y-93250D01*
X26438D01*
X21980Y-107404D02*
Y-97500D01*
X-62312Y-11048D02*
X-57264Y-6000D01*
X-63575Y-8000D02*
X-57575Y-2000D01*
X-61050Y-14096D02*
X-56954Y-10000D01*
X-72425Y-17190D02*
X-72425Y-17190D01*
X-59833D01*
X-56643Y-14000D01*
X15262Y-86392D02*
X29988D01*
X35074Y-91478D01*
Y-114658D02*
Y-91478D01*
X100606Y3316D02*
X103860Y6571D01*
X49000Y6000D02*
X56919D01*
X31264Y372828D02*
X35875Y368217D01*
X31264Y372828D02*
Y382746D01*
X89161Y-23654D02*
X100606Y-12209D01*
Y3316D01*
X90423Y-26702D02*
X103654Y-13472D01*
Y2054D01*
X114300Y12700D01*
X64144Y-26702D02*
X90423D01*
X65406Y-23654D02*
X89161D01*
X-35212Y186658D02*
X-23152D01*
X-45372Y196818D02*
X-35212Y186658D01*
X-4318Y-33020D02*
X968Y-38306D01*
X10000Y-49000D02*
Y-41050D01*
X968Y-38306D02*
X7256D01*
X10000Y-41050D01*
X18000Y-38896D02*
X23876Y-33020D01*
X18000Y-49000D02*
Y-38896D01*
X14000Y-49000D02*
Y-33050D01*
X13970Y-33020D02*
X14000Y-33050D01*
X-23798Y219226D02*
Y230619D01*
X-26573Y233394D02*
X-23798Y230619D01*
X-27034Y210534D02*
Y210784D01*
Y215990D02*
X-23798Y219226D01*
X-27034Y210534D02*
Y215990D01*
X-32858Y233394D02*
X-26573D01*
X-32858Y233394D02*
X-32858Y233394D01*
X-23152Y186658D02*
X-7858Y201952D01*
Y223894D01*
X-34046Y223894D02*
X-32858D01*
X-36034Y221906D02*
X-34046Y223894D01*
X-36034Y210534D02*
Y221906D01*
X-61252Y234242D02*
X-60404Y233394D01*
X-48492D01*
X17548Y38068D02*
X22000Y42520D01*
Y49000D01*
X84350Y-38894D02*
X101368Y-55912D01*
Y-75968D02*
X114300Y-88900D01*
X101368Y-75968D02*
Y-55912D01*
X61619Y-32798D02*
X89608D01*
X59094Y-38894D02*
X84350D01*
X62881Y-29750D02*
X97250D01*
X114300Y-12700D01*
X7388Y-78518D02*
X15262Y-86392D01*
X7388Y-78518D02*
Y-61754D01*
X2308Y-86828D02*
X6492Y-91012D01*
X2308Y-86828D02*
Y-62516D01*
X-2000Y-58208D02*
X2308Y-62516D01*
X2000Y-56366D02*
X7388Y-61754D01*
X2000Y-56366D02*
Y-49000D01*
X34000Y-56783D02*
X80286Y-103069D01*
X35074Y-128302D02*
Y-123658D01*
X32972Y-130404D02*
X35074Y-128302D01*
X21980Y-140816D02*
Y-130404D01*
X17984Y-144562D02*
X19972Y-142574D01*
X20222D01*
X21980Y-140816D01*
X17984Y-144812D02*
Y-144562D01*
X-29950Y-134644D02*
Y-83816D01*
X-36046Y-137170D02*
Y-124975D01*
X-32998Y-135907D02*
Y-82553D01*
X-36046Y-124975D02*
Y-81291D01*
X-29950Y-83816D02*
X-16186Y-70052D01*
X-32998Y-82553D02*
X-19234Y-68789D01*
X-36046Y-81291D02*
X-22282Y-67527D01*
X-36466Y-57885D02*
X-34000Y-55419D01*
X-35204Y-60933D02*
X-30000Y-55729D01*
X-46175Y-60933D02*
X-35204D01*
X-30000Y-55729D02*
Y-49000D01*
X-81908Y-238619D02*
X-60706Y-217416D01*
X-34000Y-55419D02*
Y-49000D01*
X-72898Y-149098D02*
Y-48299D01*
X-114300Y-190500D02*
X-72898Y-149098D01*
X-69850Y-171450D02*
Y-49562D01*
X-114300Y-165100D02*
X-75946Y-126746D01*
Y-47036D01*
X-69850Y-49562D02*
X-54289Y-34000D01*
X-72898Y-48299D02*
X-54599Y-30000D01*
X-78994Y-45774D02*
X-55220Y-22000D01*
X-114300Y-139700D02*
X-78994Y-104394D01*
X-75946Y-47036D02*
X-54910Y-26000D01*
X-78994Y-104394D02*
Y-45774D01*
X-54599Y-30000D02*
X-49000D01*
X-54289Y-34000D02*
X-49000D01*
X-55220Y-22000D02*
X-49000D01*
X-54910Y-26000D02*
X-49000D01*
X-59036Y14000D02*
X-49000D01*
X-59657Y6000D02*
X-49000D01*
X-58725Y18000D02*
X-49000D01*
X-63411Y14065D02*
X-59346Y10000D01*
X-49000D01*
X-60886Y20161D02*
X-58725Y18000D01*
X-64674Y11017D02*
X-59657Y6000D01*
X-62149Y17113D02*
X-59036Y14000D01*
X-114300Y-12700D02*
X-90583Y11017D01*
X-64674D01*
X-93313Y17113D02*
X-62149D01*
X-90021Y20161D02*
X-60886D01*
X-56480Y26000D02*
X-49000D01*
X-93116Y14065D02*
X-63411D01*
X-114300Y38100D02*
X-93313Y17113D01*
X-94480Y12700D02*
X-93116Y14065D01*
X-102870Y33010D02*
X-90021Y20161D01*
X-1248Y68774D02*
X-438D01*
X-1248D02*
Y69004D01*
X-438Y68774D02*
X1522Y66814D01*
X-3788Y71544D02*
Y75958D01*
Y71544D02*
X-1248Y69004D01*
X29106Y79554D02*
X29444Y79216D01*
X29106Y79554D02*
Y96488D01*
Y99282D02*
X29444Y98944D01*
X28981Y67233D02*
X29444Y66770D01*
X21980Y-130404D02*
X32972D01*
X8730Y-93250D02*
Y-93000D01*
X6742Y-91012D02*
X8730Y-93000D01*
X6492Y-91012D02*
X6742D01*
X-2000Y-58208D02*
Y-49000D01*
X8730Y-93500D02*
Y-93250D01*
X6742Y-95488D02*
X8730Y-93500D01*
X6492Y-95488D02*
X6742D01*
X4480Y-97500D02*
X6492Y-95488D01*
X4480Y-107404D02*
Y-97500D01*
X-26648Y-133636D02*
Y-84824D01*
X-13138Y-71314D01*
X-22282Y-67527D02*
Y-56140D01*
X-22000Y-55858D02*
Y-49000D01*
X-13138Y-59928D02*
X-10000Y-56790D01*
X-19234Y-57403D02*
X-18000Y-56169D01*
X-22282Y-56140D02*
X-22000Y-55858D01*
X-16186Y-58665D02*
X-14000Y-56479D01*
X-13138Y-71314D02*
Y-59928D01*
X-19234Y-68789D02*
Y-57403D01*
X-16186Y-70052D02*
Y-58665D01*
X-10000Y-56790D02*
Y-49000D01*
X-18000Y-56169D02*
Y-49000D01*
X-14000Y-56479D02*
Y-49000D01*
X-114300Y12700D02*
X-94480D01*
X-57575Y-2000D02*
X-49000D01*
X-57264Y-6000D02*
X-49000D01*
X-56643Y-14000D02*
X-49000D01*
X-56954Y-10000D02*
X-49000D01*
X-55859Y34000D02*
X-49000D01*
X-55549Y38000D02*
X-49000D01*
X-56169Y30000D02*
X-49000D01*
X-114300Y-88900D02*
X-100838Y-75438D01*
X-114300Y-63500D02*
X-103886Y-53086D01*
X-114300Y-114300D02*
X-97790Y-97790D01*
D17*
X71500Y-389500D02*
D03*
X62500Y-389500D02*
D03*
X-67500Y151750D02*
D03*
X-76500Y151750D02*
D03*
X-9500Y294000D02*
D03*
X-500Y294000D02*
D03*
X-16500Y159000D02*
D03*
X-25500D02*
D03*
X-16510Y148844D02*
D03*
X-25510D02*
D03*
X-67500Y80000D02*
D03*
X-58500Y80000D02*
D03*
X-51500Y-233000D02*
D03*
X-42500Y-233000D02*
D03*
X68500Y60000D02*
D03*
X77500Y60000D02*
D03*
X8984Y-144812D02*
D03*
X17984D02*
D03*
X-76106Y26384D02*
D03*
X-67106Y26384D02*
D03*
X-76106Y4794D02*
D03*
X-67106D02*
D03*
X-36034Y210534D02*
D03*
X-27034D02*
D03*
X-64588Y359918D02*
D03*
X-73588Y359918D02*
D03*
X79452Y4763D02*
D03*
X70452Y4764D02*
D03*
X4500Y331000D02*
D03*
X-4500Y331000D02*
D03*
X17730Y-93250D02*
D03*
X8730Y-93250D02*
D03*
X68500Y50000D02*
D03*
X77500Y50000D02*
D03*
X-77500Y-24000D02*
D03*
X-68500Y-24000D02*
D03*
X-49436Y70580D02*
D03*
X-40436D02*
D03*
X79452Y-4888D02*
D03*
X70452D02*
D03*
D18*
X62000Y-376000D02*
D03*
Y-354000D02*
D03*
X-62000D02*
D03*
Y-376000D02*
D03*
D19*
X-70250Y-329000D02*
D03*
Y-338000D02*
D03*
X59000Y48500D02*
D03*
X59000Y57500D02*
D03*
X-11000Y104500D02*
D03*
X-11000Y113500D02*
D03*
X-1000Y104500D02*
D03*
X-1000Y113500D02*
D03*
X63000Y104500D02*
D03*
Y113500D02*
D03*
X77000Y94500D02*
D03*
X77000Y85500D02*
D03*
X67000D02*
D03*
X67000Y94500D02*
D03*
X72000Y-323500D02*
D03*
X72000Y-332500D02*
D03*
X47000Y-332500D02*
D03*
Y-323500D02*
D03*
X34000Y-332500D02*
D03*
Y-323500D02*
D03*
X-59500Y-329000D02*
D03*
X-59500Y-338000D02*
D03*
X-36750Y-339750D02*
D03*
Y-330750D02*
D03*
X-74000Y379000D02*
D03*
Y388000D02*
D03*
X-62000Y379000D02*
D03*
Y388000D02*
D03*
X50038Y166950D02*
D03*
X50038Y175950D02*
D03*
X19072Y189778D02*
D03*
X19072Y198778D02*
D03*
X64507Y-54062D02*
D03*
X64507Y-45062D02*
D03*
X14500Y-72096D02*
D03*
X14500Y-63096D02*
D03*
X35074Y-114658D02*
D03*
Y-123658D02*
D03*
X-73000Y90500D02*
D03*
X-73000Y99500D02*
D03*
X29534Y189806D02*
D03*
X29534Y198806D02*
D03*
X9000Y242500D02*
D03*
X9000Y233500D02*
D03*
X59000Y76500D02*
D03*
X59000Y67500D02*
D03*
X74159Y-54062D02*
D03*
X74159Y-45062D02*
D03*
X-3788Y84958D02*
D03*
X-3788Y75958D02*
D03*
X6118Y75814D02*
D03*
X6118Y66814D02*
D03*
D20*
X-38000Y49000D02*
D03*
X-34000D02*
D03*
X-30000D02*
D03*
X-26000D02*
D03*
X-22000D02*
D03*
X-18000D02*
D03*
X-14000D02*
D03*
X-10000D02*
D03*
X-6000D02*
D03*
X-2000D02*
D03*
X2000D02*
D03*
X6000D02*
D03*
X10000D02*
D03*
X14000D02*
D03*
X18000D02*
D03*
X22000D02*
D03*
X26000D02*
D03*
X30000D02*
D03*
X34000D02*
D03*
X38000D02*
D03*
Y-49000D02*
D03*
X34000D02*
D03*
X30000D02*
D03*
X26000D02*
D03*
X22000D02*
D03*
X18000D02*
D03*
X14000D02*
D03*
X10000D02*
D03*
X6000D02*
D03*
X2000D02*
D03*
X-2000D02*
D03*
X-6000D02*
D03*
X-10000D02*
D03*
X-14000D02*
D03*
X-18000D02*
D03*
X-22000D02*
D03*
X-26000D02*
D03*
X-30000D02*
D03*
X-34000D02*
D03*
X-38000D02*
D03*
D21*
X49000Y38000D02*
D03*
Y34000D02*
D03*
Y30000D02*
D03*
Y26000D02*
D03*
Y22000D02*
D03*
Y18000D02*
D03*
Y14000D02*
D03*
Y10000D02*
D03*
Y6000D02*
D03*
Y2000D02*
D03*
Y-2000D02*
D03*
Y-6000D02*
D03*
Y-10000D02*
D03*
Y-14000D02*
D03*
Y-18000D02*
D03*
Y-22000D02*
D03*
Y-26000D02*
D03*
Y-30000D02*
D03*
Y-34000D02*
D03*
Y-38000D02*
D03*
X-49000D02*
D03*
Y-34000D02*
D03*
Y-30000D02*
D03*
Y-26000D02*
D03*
Y-22000D02*
D03*
Y-18000D02*
D03*
Y-14000D02*
D03*
Y-10000D02*
D03*
Y-6000D02*
D03*
Y-2000D02*
D03*
Y2000D02*
D03*
Y6000D02*
D03*
Y10000D02*
D03*
Y14000D02*
D03*
Y18000D02*
D03*
Y22000D02*
D03*
Y26000D02*
D03*
Y30000D02*
D03*
Y34000D02*
D03*
Y38000D02*
D03*
D22*
X-23500Y288500D02*
D03*
X-33000Y288500D02*
D03*
X-42500Y288500D02*
D03*
Y263500D02*
D03*
X-23500Y263500D02*
D03*
D23*
X-71750Y329750D02*
D03*
X-38250Y314250D02*
D03*
Y329750D02*
D03*
X71750D02*
D03*
Y314250D02*
D03*
X38250Y329750D02*
D03*
D24*
X-71750Y314250D02*
D03*
X38250D02*
D03*
D25*
X72050Y-252750D02*
D03*
X59350Y-252750D02*
D03*
X46650Y-252750D02*
D03*
X33950Y-252750D02*
D03*
X72050Y-307250D02*
D03*
X59350D02*
D03*
X46650Y-307250D02*
D03*
X33950Y-307250D02*
D03*
X-33950Y-252750D02*
D03*
X-46650Y-252750D02*
D03*
X-59350D02*
D03*
X-72050Y-252750D02*
D03*
X-33950Y-307250D02*
D03*
X-46650D02*
D03*
X-59350Y-307250D02*
D03*
X-72050Y-307250D02*
D03*
D26*
X77000Y369100D02*
D03*
Y382900D02*
D03*
X9000Y275900D02*
D03*
X9000Y262100D02*
D03*
X-7000Y275800D02*
D03*
Y262000D02*
D03*
D27*
X60000Y366500D02*
D03*
Y385500D02*
D03*
D28*
X-34250Y-365000D02*
D03*
D29*
X41875D02*
D03*
D30*
X-61252Y212742D02*
D03*
Y234742D02*
D03*
D31*
X-7501Y317999D02*
D03*
X7499Y317999D02*
D03*
D32*
X-30222Y196818D02*
D03*
X-44022D02*
D03*
X-73740D02*
D03*
X-59940D02*
D03*
X44768Y83026D02*
D03*
X30968D02*
D03*
X44768Y68040D02*
D03*
X30968D02*
D03*
D33*
X-15606Y-82462D02*
D03*
X-9242Y-76098D02*
D03*
X-36688Y-72048D02*
D03*
X-30324Y-65684D02*
D03*
D34*
X36906Y175838D02*
D03*
Y156838D02*
D03*
X11906Y156838D02*
D03*
X11906Y166338D02*
D03*
X11906Y175838D02*
D03*
X-32858Y223894D02*
D03*
Y233394D02*
D03*
X-32858Y242894D02*
D03*
X-7858Y242894D02*
D03*
Y233394D02*
D03*
X-7858Y223894D02*
D03*
D35*
X21980Y-130404D02*
D03*
X21980Y-107404D02*
D03*
X4480D02*
D03*
X4480Y-130404D02*
D03*
D58*
X67000Y94500D02*
X75000D01*
X66750D02*
X67000D01*
X63240Y104500D02*
X72500D01*
X-50000Y80000D02*
X-43000D01*
X-50924D02*
X-50000D01*
X-58500Y80000D02*
X-49693D01*
X63000Y104500D02*
X63240D01*
X64490Y103250D01*
Y96760D02*
Y103250D01*
Y96760D02*
X66750Y94500D01*
X72500Y104500D02*
X73000Y105000D01*
X37868Y64230D02*
Y89070D01*
X41580Y92782D01*
X42606D02*
X45106Y95282D01*
X41580Y92782D02*
X42606D01*
D60*
X43250Y395780D02*
D03*
X-43250D02*
D03*
D61*
X43250Y361980D02*
D03*
X-43250D02*
D03*
D62*
X29750Y352180D02*
D03*
X21250D02*
D03*
X12750D02*
D03*
X4250D02*
D03*
X-4250D02*
D03*
X-12750D02*
D03*
X-21250D02*
D03*
X-29750D02*
D03*
Y365680D02*
D03*
X-21250D02*
D03*
X-12750D02*
D03*
X-4250D02*
D03*
X4250D02*
D03*
X12750D02*
D03*
X21250D02*
D03*
X29750D02*
D03*
D64*
X0Y0D02*
D03*
D65*
X30630Y100552D02*
D03*
X46630D02*
D03*
D66*
X72000Y-340750D02*
Y-332500D01*
X68500Y-344250D02*
X72000Y-340750D01*
X-2271Y-365000D02*
X-271Y-367000D01*
X-34250Y-365000D02*
X-2271D01*
X-271Y-367000D02*
X0D01*
X46606Y175838D02*
X48628Y177860D01*
X-9522Y302626D02*
X-9500Y302604D01*
Y294000D02*
Y302604D01*
X-23000Y299729D02*
Y300000D01*
X-23500Y299229D02*
X-23000Y299729D01*
X-23500Y288500D02*
Y299229D01*
X8604Y294000D02*
X8626Y294022D01*
X-0Y294000D02*
X8604D01*
X-7022Y284426D02*
X-7000Y284404D01*
Y275800D02*
Y284404D01*
X-46080Y248380D02*
Y248389D01*
X33950Y-266950D02*
X34000Y-267000D01*
X33950Y-266950D02*
Y-252750D01*
X60972Y388250D02*
Y395972D01*
Y388250D02*
X60972Y388250D01*
X63522D01*
X60972Y395972D02*
X61000Y396000D01*
X64500Y382900D02*
X77000D01*
X60000Y385500D02*
X60022Y385478D01*
X63522Y383878D02*
X64500Y382900D01*
X60022Y385478D02*
X63522D01*
Y383878D02*
Y385478D01*
X-18656Y228539D02*
Y236692D01*
X-33108Y243144D02*
X-32858Y242894D01*
X-18656Y228539D02*
X-18656Y228539D01*
X-5566Y166338D02*
X-5566Y166338D01*
X-38684Y243144D02*
X-33108D01*
X-18656Y200534D02*
Y228539D01*
X9000Y275900D02*
Y284504D01*
X-43920Y248380D02*
X-38684Y243144D01*
X-32858Y242894D02*
X-32756Y242792D01*
X-82772Y196818D02*
X-73740D01*
X-22372D02*
X-20514Y198676D01*
X-32756Y242792D02*
X-24756D01*
X-28872Y196818D02*
X-22372D01*
X8978Y284526D02*
X9000Y284504D01*
X-20514Y198676D02*
X-18656Y200534D01*
X-5566Y166338D02*
X11906D01*
X-24756Y242792D02*
X-18656Y236692D01*
X-82804Y196850D02*
X-82772Y196818D01*
X-28872Y196818D02*
X-28872Y196818D01*
X-53453Y183529D02*
X-53340Y183642D01*
X-56620Y178435D02*
X-53453Y181603D01*
X-54588Y185049D02*
Y190327D01*
X-53340Y183642D02*
Y183801D01*
X-53453Y181603D02*
Y183529D01*
X-56620Y178276D02*
Y178435D01*
X-54588Y185049D02*
X-53340Y183801D01*
X-60002Y195530D02*
Y211992D01*
X-49561Y195394D02*
X-45221D01*
X-54588Y190327D02*
Y190367D01*
X-49561Y195394D01*
X-61252Y213242D02*
X-60002Y211992D01*
Y195530D02*
X-58840Y194368D01*
X-58629D01*
X-54588Y190327D01*
X36906Y175838D02*
X46606D01*
X-46872Y199068D02*
X-45372Y197568D01*
X-47078Y199068D02*
X-46872D01*
X-50181Y202171D02*
X-47078Y199068D01*
X-50181Y202171D02*
Y209242D01*
X-54181Y213242D02*
X-50181Y209242D01*
X-61252Y213242D02*
X-54181D01*
X-48492Y233394D02*
X-32858D01*
D67*
X-46500Y-330750D02*
X-36750D01*
X52172Y48500D02*
X59000D01*
X49000Y45328D02*
X52172Y48500D01*
X49000Y45250D02*
Y45328D01*
X44768Y68040D02*
X45443Y68715D01*
X36050Y56250D02*
X40302D01*
X44768Y60716D01*
X6118Y66814D02*
X6368D01*
X8118Y65064D01*
Y64814D02*
Y65064D01*
Y64814D02*
X8376Y64556D01*
Y57624D02*
Y64556D01*
X10000Y49000D02*
Y56000D01*
X8376Y57624D02*
X10000Y56000D01*
X4500Y56495D02*
Y65196D01*
X6118Y66814D01*
X4500Y56495D02*
X6000Y54995D01*
Y49000D02*
Y54995D01*
X-32834Y66376D02*
X-32750Y66292D01*
X-34748Y70580D02*
X-32834Y68666D01*
Y66376D02*
Y68666D01*
X-32750Y66218D02*
Y66292D01*
X-22000Y49000D02*
Y55468D01*
X-32750Y66218D02*
X-22000Y55468D01*
X-77000Y141000D02*
X-76500Y141500D01*
Y151750D01*
X50894Y-45062D02*
X74159D01*
X59000Y42000D02*
Y48500D01*
X-9419Y-75921D02*
X-9065Y-76275D01*
X750Y93000D02*
Y94082D01*
X-1078Y95911D02*
Y104422D01*
Y95911D02*
X750Y94082D01*
X-10921Y99922D02*
X-4000Y93000D01*
X750D01*
X-1000Y-93002D02*
Y-73928D01*
X-3280Y-71648D02*
Y-67088D01*
Y-71648D02*
X-1000Y-73928D01*
X-5278Y-97280D02*
X-1000Y-93002D01*
X-5278Y-129082D02*
Y-97280D01*
Y-141722D02*
Y-129082D01*
Y-141722D02*
X5178Y-152178D01*
X14255D01*
X42440Y-139224D02*
Y-92488D01*
X14255Y-152178D02*
X19332D01*
X52540Y69887D02*
Y75460D01*
X52000Y76000D02*
X52540Y75460D01*
X45443Y68715D02*
X51368D01*
X52540Y69887D01*
X51026Y83026D02*
X56000Y88000D01*
X44768Y83026D02*
X51026D01*
X77500Y55491D02*
Y58000D01*
X77000Y77000D02*
Y78019D01*
X77500Y58000D02*
Y76500D01*
Y49000D02*
Y55491D01*
X77000Y78019D02*
Y85500D01*
X77500Y45491D02*
Y49000D01*
X55000Y38000D02*
X59000Y42000D01*
X49000Y38000D02*
X55000D01*
X77000Y85500D02*
X77000Y85500D01*
Y77000D02*
Y78019D01*
Y77000D02*
X77500Y76500D01*
X73000Y36000D02*
X77500Y40500D01*
X59553Y36000D02*
X73000D01*
X77500Y40500D02*
Y45491D01*
X57553Y34000D02*
X59553Y36000D01*
X49000Y34000D02*
X57553D01*
X7499Y317999D02*
Y327828D01*
X6328Y329000D02*
X7499Y327828D01*
X6250Y329000D02*
X6328D01*
X4500Y330750D02*
X6250Y329000D01*
X4500Y330750D02*
Y331000D01*
X-56088Y359918D02*
X-56088Y359918D01*
X-64588Y359918D02*
X-56088D01*
X-61954Y388000D02*
Y398406D01*
X-8156Y148844D02*
X-8000Y149000D01*
X-16510Y148844D02*
X-8156D01*
X-16510D02*
X-16500Y148854D01*
Y159000D01*
X-1078Y104422D02*
X-1000Y104500D01*
X-10921Y99922D02*
Y104422D01*
X-11000Y104500D02*
X-10921Y104422D01*
X-43000Y79392D02*
X-40436Y76828D01*
Y70580D02*
Y76828D01*
X-43000Y79392D02*
Y80000D01*
X-58408Y68000D02*
X-55828Y70580D01*
X-49436D01*
X-59000Y68000D02*
X-58408D01*
X-42873Y-78010D02*
X-35926Y-71063D01*
X44768Y69390D02*
Y83026D01*
Y60716D02*
Y68040D01*
X19332Y-152178D02*
X29486D01*
X6118Y85058D02*
X6118Y85058D01*
X6018Y84958D02*
X6118Y85058D01*
X8984Y-144812D02*
Y-144562D01*
Y-151984D02*
Y-144812D01*
X-20552Y-87408D02*
X-15606Y-82462D01*
X74159Y-61723D02*
Y-54062D01*
X29486Y-152178D02*
X42440Y-139224D01*
X74159Y-61723D02*
X74190Y-61754D01*
X-76106Y26384D02*
X-76106Y26384D01*
X-79500Y-26000D02*
X-79250D01*
X12722Y-117888D02*
X17706Y-112904D01*
X-82906Y-29406D02*
X-79500Y-26000D01*
X-5278Y-129082D02*
X-4107Y-130254D01*
X-20552Y-92996D02*
Y-87408D01*
X8984Y-151984D02*
X9178Y-152178D01*
X-83544Y26384D02*
X-76106D01*
X4480Y-130404D02*
Y-129154D01*
X79494Y-12194D02*
X79524Y-12224D01*
X17706Y-112904D02*
X17730D01*
X31899Y-81947D02*
X42440Y-92488D01*
X64507Y-61723D02*
X64538Y-61754D01*
X4480Y-129154D02*
X8730Y-124904D01*
X79494Y-12194D02*
Y-4931D01*
X17730Y-112904D02*
X21980Y-108654D01*
X-82906Y-32382D02*
Y-29406D01*
X-4107Y-130254D02*
X4329D01*
X18437Y-81947D02*
X25168D01*
X64507Y-61723D02*
Y-54062D01*
X6118Y75814D02*
Y85058D01*
X4480Y-140308D02*
Y-130404D01*
X8730Y-124904D02*
X9008D01*
X79452Y-4888D02*
X79494Y-4931D01*
X25168Y-81947D02*
X31899D01*
X34000Y49000D02*
Y54200D01*
X4480Y-140308D02*
X6984Y-142812D01*
X21980Y-108654D02*
Y-107404D01*
X-83544Y4794D02*
X-76106D01*
X14500Y-78010D02*
X18437Y-81947D01*
X7234Y-142812D02*
X8984Y-144562D01*
X34000Y54200D02*
X36050Y56250D01*
X-77500Y-24250D02*
Y-24000D01*
X9008Y-124904D02*
X12722Y-121190D01*
X79524Y4835D02*
Y12160D01*
X25168Y-81947D02*
Y-76486D01*
X14500Y-78010D02*
Y-72096D01*
X-3788Y84958D02*
X6018D01*
X9178Y-152178D02*
X14255D01*
X6984Y-142812D02*
X7234D01*
X12722Y-121190D02*
Y-117888D01*
X79452Y4763D02*
X79524Y4835D01*
X-79250Y-26000D02*
X-77500Y-24250D01*
X4329Y-130254D02*
X4480Y-130404D01*
X-68500Y-24000D02*
X-61982D01*
X6000Y-54596D02*
Y-49000D01*
X-44840Y-67596D02*
X-44682D01*
X32792Y59042D02*
X33540Y59790D01*
X34607D01*
X37868Y62250D02*
Y64230D01*
X35408Y59790D02*
X37868Y62250D01*
X34607Y59790D02*
X35408D01*
X30000Y56250D02*
X32792Y59042D01*
X82246Y-45062D02*
X82318Y-44990D01*
X74159Y-45062D02*
X82246D01*
X49000Y-43168D02*
X50894Y-45062D01*
X49000Y-43168D02*
Y-38000D01*
X62319Y-4925D02*
X70416D01*
X59394Y-2000D02*
X62319Y-4925D01*
X49000Y-2000D02*
X59394D01*
X70482Y4794D02*
X70488Y4800D01*
X62252Y4794D02*
X70482D01*
X59458Y2000D02*
X62252Y4794D01*
X70488Y4800D02*
Y12093D01*
X70380Y-12255D02*
X70416Y-12219D01*
Y-4925D01*
X49000Y2000D02*
X59458D01*
X14250Y-63096D02*
X14500D01*
X6000Y-54596D02*
X12500Y-61096D01*
Y-61346D02*
Y-61096D01*
Y-61346D02*
X14250Y-63096D01*
X20160Y-63350D02*
X25168Y-68358D01*
X13742Y-63350D02*
X20160D01*
X-11662Y-92488D02*
X-6260Y-87086D01*
Y-79080D01*
X-9242Y-76098D02*
X-6260Y-79080D01*
X-9242Y-72933D02*
Y-61112D01*
X-9419Y-73110D02*
X-9242Y-72933D01*
X-9419Y-75921D02*
Y-73110D01*
X-44936Y-67596D02*
X-44840D01*
X-41462Y-64219D01*
X-34264D01*
X-32799Y-65684D01*
X-30324D01*
X-44682Y-67596D02*
X-41634Y-64548D01*
X-30832Y-66446D02*
X-30655Y-66623D01*
X-75286Y-32382D02*
X-75032Y-32636D01*
X-71730D01*
X-68500Y-29406D01*
Y-24000D01*
X-61982D02*
X-55982Y-18000D01*
X-49000D01*
X-67106Y-2246D02*
X-67034Y-2318D01*
X-67106Y-2246D02*
Y4794D01*
X-63224D01*
X-60430Y2000D01*
X-49000D01*
X-62462Y26384D02*
X-58078Y22000D01*
X-49000D01*
X-75924Y34766D02*
X-70590D01*
X-67106Y31282D01*
Y26384D02*
Y31282D01*
Y26384D02*
X-67106Y26384D01*
X-62462D01*
X-40436Y70580D02*
X-34748D01*
X30000Y49000D02*
Y56250D01*
X29444Y62805D02*
Y64230D01*
X26000Y59361D02*
X29444Y62805D01*
X26000Y49000D02*
Y59361D01*
X-11662Y-92996D02*
Y-92488D01*
X-6000Y-57870D02*
Y-49000D01*
X-9242Y-61112D02*
X-6000Y-57870D01*
X-26000Y-61106D02*
Y-49000D01*
X-29562Y-64668D02*
X-26000Y-61106D01*
D68*
X17428Y61629D02*
Y77081D01*
X17428Y77081D02*
X17428Y77081D01*
X18000Y53750D02*
Y61057D01*
X17428Y77081D02*
Y119601D01*
X13308Y65380D02*
X13308Y65380D01*
X13308Y121308D02*
X22243Y130243D01*
X13308Y90669D02*
Y121308D01*
X28775Y156838D02*
X28775Y156838D01*
X13308Y65380D02*
Y90669D01*
X17428Y61629D02*
X18000Y61057D01*
X17428Y119601D02*
X26363Y128536D01*
X13308Y59922D02*
Y65380D01*
Y59922D02*
X13880Y59350D01*
X13308Y90669D02*
Y92376D01*
X22243Y159250D02*
Y182559D01*
X19072Y185730D02*
X22243Y182559D01*
X19831Y156838D02*
X22243Y159250D01*
X19072Y185730D02*
Y189778D01*
X22243Y130243D02*
Y154426D01*
X19831Y156838D02*
X22243Y154426D01*
X11906Y156838D02*
X19831D01*
X13880Y53750D02*
Y59350D01*
X29534Y185758D02*
Y189806D01*
X26363Y182587D02*
X29534Y185758D01*
X26363Y159250D02*
X28775Y156838D01*
X28775Y156838D01*
X36906D01*
X26363Y154426D02*
X28775Y156838D01*
X26363Y128536D02*
Y154426D01*
Y159250D02*
Y182587D01*
X35500Y219500D02*
X38000Y217000D01*
X31000Y219500D02*
X35500D01*
X26363Y201977D02*
X29534Y198806D01*
X26363Y201977D02*
Y214863D01*
X31000Y219500D01*
X29293Y223620D02*
X35620D01*
X38000Y226000D01*
X22243Y216570D02*
X29293Y223620D01*
X22243Y201949D02*
Y216570D01*
X19072Y198778D02*
X22243Y201949D01*
D69*
X-4250Y352180D02*
X4250Y365680D01*
D70*
X58442Y187674D02*
Y260355D01*
X48626Y270171D02*
X55272Y263525D01*
X48626Y270171D02*
Y276374D01*
X21048Y303952D02*
X48626Y276374D01*
X21048Y303952D02*
Y337481D01*
X16564Y341965D02*
X21048Y337481D01*
X-16676Y341882D02*
X8516D01*
X16564Y341965D02*
X21250Y346651D01*
Y348272D01*
X8599Y341965D02*
X16564D01*
X-21250Y346456D02*
X-21250Y346456D01*
X8516Y341882D02*
X8599Y341965D01*
X-21250Y346456D02*
X-16676Y341882D01*
X48628Y177860D02*
X58442Y187674D01*
D71*
X55272Y263525D02*
X58442Y260355D01*
D72*
X60000Y366500D02*
X76121D01*
D73*
X21250Y352180D02*
Y365680D01*
Y348272D02*
Y352180D01*
X-21250Y346456D02*
Y352180D01*
Y365680D01*
D74*
X43250Y367185D02*
Y395780D01*
X43750Y367685D02*
X57537D01*
X43250Y367185D02*
X43750Y367685D01*
X43250Y361980D02*
Y367185D01*
X-43250Y395780D02*
X43250D01*
D75*
X-114300Y393700D02*
D03*
Y368300D02*
D03*
Y342900D02*
D03*
Y317500D02*
D03*
Y292100D02*
D03*
Y266700D02*
D03*
Y241300D02*
D03*
Y215900D02*
D03*
Y190500D02*
D03*
Y165100D02*
D03*
Y139700D02*
D03*
Y114300D02*
D03*
Y88900D02*
D03*
Y63500D02*
D03*
Y38100D02*
D03*
Y12700D02*
D03*
Y-12700D02*
D03*
Y-38100D02*
D03*
Y-63500D02*
D03*
Y-88900D02*
D03*
X114300D02*
D03*
Y-63500D02*
D03*
Y-38100D02*
D03*
Y-12700D02*
D03*
Y12700D02*
D03*
Y38100D02*
D03*
Y63500D02*
D03*
Y88900D02*
D03*
Y114300D02*
D03*
Y139700D02*
D03*
Y165100D02*
D03*
Y190500D02*
D03*
Y215900D02*
D03*
Y241300D02*
D03*
Y266700D02*
D03*
Y292100D02*
D03*
Y317500D02*
D03*
Y342900D02*
D03*
Y368300D02*
D03*
Y393700D02*
D03*
Y-114300D02*
D03*
Y-139700D02*
D03*
Y-165100D02*
D03*
Y-190500D02*
D03*
Y-215900D02*
D03*
Y-241300D02*
D03*
Y-266700D02*
D03*
Y-292100D02*
D03*
Y-317500D02*
D03*
Y-342900D02*
D03*
Y-368300D02*
D03*
Y-393700D02*
D03*
X-114300D02*
D03*
Y-368300D02*
D03*
Y-342900D02*
D03*
Y-317500D02*
D03*
Y-292100D02*
D03*
Y-266700D02*
D03*
Y-241300D02*
D03*
Y-215900D02*
D03*
Y-190500D02*
D03*
Y-165100D02*
D03*
Y-139700D02*
D03*
Y-114300D02*
D03*
D76*
X77000Y-373250D02*
D03*
X68500Y-344250D02*
D03*
X0Y-367000D02*
D03*
X-70250Y-320750D02*
D03*
X-46500Y-330750D02*
D03*
X7750Y133000D02*
D03*
X5000Y142000D02*
D03*
X13500Y0D02*
D03*
X-13500D02*
D03*
X0Y-13500D02*
D03*
Y13500D02*
D03*
X-13500D02*
D03*
X13500D02*
D03*
Y-13500D02*
D03*
X-13500D02*
D03*
X0Y0D02*
D03*
X49000Y45250D02*
D03*
X38000Y226000D02*
D03*
Y217000D02*
D03*
X23250Y65000D02*
D03*
Y71250D02*
D03*
Y79750D02*
D03*
Y86000D02*
D03*
X-69000Y141000D02*
D03*
X750Y93000D02*
D03*
X-49750Y90500D02*
D03*
X-25500Y128500D02*
D03*
Y116000D02*
D03*
Y103000D02*
D03*
X-70750Y115750D02*
D03*
Y128500D02*
D03*
X-77000Y141000D02*
D03*
X52000Y76000D02*
D03*
X56000Y88000D02*
D03*
X69000Y43000D02*
D03*
X71000Y68000D02*
D03*
X77000Y77000D02*
D03*
X-9522Y302626D02*
D03*
X-23000Y300000D02*
D03*
X8626Y294022D02*
D03*
X-7022Y284426D02*
D03*
X-33000Y276000D02*
D03*
X63000Y294000D02*
D03*
X40000Y191000D02*
D03*
X-15000Y331000D02*
D03*
X49250Y329750D02*
D03*
X-56088Y359918D02*
D03*
X-8000Y149000D02*
D03*
X-50000Y134000D02*
D03*
Y80000D02*
D03*
X-43000D02*
D03*
X-75510Y81946D02*
D03*
X-59000Y68000D02*
D03*
X73000Y114000D02*
D03*
X-62000Y369500D02*
D03*
X19000Y-157000D02*
D03*
X47000Y-102000D02*
D03*
Y-128516D02*
D03*
X-10000Y-102305D02*
D03*
Y-129000D02*
D03*
X64000Y-114000D02*
D03*
X-68000Y-272000D02*
D03*
X-54000D02*
D03*
X77000Y-361000D02*
D03*
X61000Y396000D02*
D03*
X28000Y30000D02*
D03*
X53000Y117000D02*
D03*
X-53684Y304514D02*
D03*
X-19000Y39000D02*
D03*
X17780Y221488D02*
D03*
X44450D02*
D03*
X-1270Y381508D02*
D03*
X-64262Y181102D02*
D03*
X-53340Y183642D02*
D03*
X-50038Y178308D02*
D03*
X8978Y284526D02*
D03*
X-82804Y196850D02*
D03*
X-17000Y318000D02*
D03*
X17780Y25400D02*
D03*
X-4318Y-33020D02*
D03*
X4572D02*
D03*
X23876D02*
D03*
X13970D02*
D03*
X-508Y197358D02*
D03*
X58166Y-344424D02*
D03*
X-72000Y-294000D02*
D03*
X34000Y-267000D02*
D03*
X-34780Y-233000D02*
D03*
X-59926D02*
D03*
X58166Y166878D02*
D03*
X31264Y382746D02*
D03*
X-60684Y304514D02*
D03*
X-56620Y178276D02*
D03*
X-18656Y236692D02*
D03*
X-46080Y248380D02*
D03*
X-20514Y198676D02*
D03*
X-61954Y398406D02*
D03*
X-61000Y330000D02*
D03*
X79524Y12160D02*
D03*
Y-12224D02*
D03*
X73000Y105000D02*
D03*
X6118Y85058D02*
D03*
X64538Y-61754D02*
D03*
X74190D02*
D03*
X82318Y-44990D02*
D03*
X17548Y38068D02*
D03*
X70524Y12129D02*
D03*
X70380Y-12255D02*
D03*
X26438Y-93250D02*
D03*
X25168Y-68358D02*
D03*
Y-76486D02*
D03*
X-3280Y-67088D02*
D03*
X-20552Y-92996D02*
D03*
X-82906Y-32382D02*
D03*
X-75286D02*
D03*
X-83544Y4794D02*
D03*
X-67034Y-2318D02*
D03*
X-83544Y26384D02*
D03*
X-75924Y34766D02*
D03*
X-1248Y68774D02*
D03*
X-5566Y166338D02*
D03*
X-62970Y103092D02*
D03*
X-11662Y-92996D02*
D03*
X-43158Y-78010D02*
D03*
X-44936Y-67596D02*
D03*
D77*
X9000Y252000D02*
D03*
X-8000D02*
D03*
M02*
