G04*
G04 #@! TF.GenerationSoftware,Altium Limited,Altium Designer,25.5.2 (35)*
G04*
G04 Layer_Physical_Order=2*
G04 Layer_Color=128*
%FSLAX44Y44*%
%MOMM*%
G71*
G04*
G04 #@! TF.SameCoordinates,D8F344CF-23F0-4092-AEBD-71A9FCF73610*
G04*
G04*
G04 #@! TF.FilePolarity,Positive*
G04*
G01*
G75*
%ADD14C,0.1524*%
G04:AMPARAMS|DCode=60|XSize=0.9mm|YSize=1.7mm|CornerRadius=0.45mm|HoleSize=0mm|Usage=FLASHONLY|Rotation=180.000|XOffset=0mm|YOffset=0mm|HoleType=Round|Shape=RoundedRectangle|*
%AMROUNDEDRECTD60*
21,1,0.9000,0.8000,0,0,180.0*
21,1,0.0000,1.7000,0,0,180.0*
1,1,0.9000,0.0000,0.4000*
1,1,0.9000,0.0000,0.4000*
1,1,0.9000,0.0000,-0.4000*
1,1,0.9000,0.0000,-0.4000*
%
%ADD60ROUNDEDRECTD60*%
G04:AMPARAMS|DCode=61|XSize=0.9mm|YSize=2.4mm|CornerRadius=0.45mm|HoleSize=0mm|Usage=FLASHONLY|Rotation=180.000|XOffset=0mm|YOffset=0mm|HoleType=Round|Shape=RoundedRectangle|*
%AMROUNDEDRECTD61*
21,1,0.9000,1.5000,0,0,180.0*
21,1,0.0000,2.4000,0,0,180.0*
1,1,0.9000,0.0000,0.7500*
1,1,0.9000,0.0000,0.7500*
1,1,0.9000,0.0000,-0.7500*
1,1,0.9000,0.0000,-0.7500*
%
%ADD61ROUNDEDRECTD61*%
%ADD62C,0.6500*%
%ADD76C,0.6000*%
%ADD77C,0.6604*%
%ADD78R,0.4500X0.7000*%
%ADD79C,1.8000*%
G36*
X107279Y401562D02*
X105879Y400162D01*
X104493Y397762D01*
X103776Y395085D01*
Y392314D01*
X104493Y389638D01*
X105879Y387238D01*
X107838Y385279D01*
X110238Y383893D01*
X112914Y383176D01*
X115686D01*
X118362Y383893D01*
X120762Y385279D01*
X122162Y386679D01*
X123686Y386048D01*
Y375952D01*
X122162Y375321D01*
X120762Y376721D01*
X118362Y378107D01*
X115686Y378824D01*
X112914D01*
X110238Y378107D01*
X107838Y376721D01*
X105879Y374762D01*
X104493Y372362D01*
X103776Y369686D01*
Y366914D01*
X104493Y364238D01*
X105879Y361838D01*
X107838Y359879D01*
X110238Y358493D01*
X112914Y357776D01*
X115686D01*
X118362Y358493D01*
X120762Y359879D01*
X122162Y361279D01*
X123686Y360648D01*
Y350552D01*
X122162Y349921D01*
X120762Y351321D01*
X118362Y352707D01*
X115686Y353424D01*
X112914D01*
X110238Y352707D01*
X107838Y351321D01*
X105879Y349362D01*
X104493Y346962D01*
X103776Y344286D01*
Y341515D01*
X104493Y338838D01*
X105879Y336438D01*
X107838Y334479D01*
X110238Y333093D01*
X112914Y332376D01*
X115686D01*
X118362Y333093D01*
X120762Y334479D01*
X122162Y335879D01*
X123686Y335248D01*
Y325152D01*
X122162Y324521D01*
X120762Y325921D01*
X118362Y327307D01*
X115686Y328024D01*
X112914D01*
X110238Y327307D01*
X107838Y325921D01*
X105879Y323962D01*
X104493Y321562D01*
X103776Y318885D01*
Y316115D01*
X104493Y313438D01*
X105879Y311038D01*
X107838Y309079D01*
X110238Y307693D01*
X112914Y306976D01*
X115686D01*
X118362Y307693D01*
X120762Y309079D01*
X122162Y310479D01*
X123686Y309848D01*
Y274352D01*
X122162Y273721D01*
X120762Y275121D01*
X118362Y276507D01*
X115686Y277224D01*
X112914D01*
X110238Y276507D01*
X107838Y275121D01*
X105879Y273162D01*
X104493Y270762D01*
X103776Y268085D01*
Y265315D01*
X104493Y262638D01*
X105879Y260238D01*
X107838Y258279D01*
X110238Y256893D01*
X112914Y256176D01*
X115686D01*
X118362Y256893D01*
X120762Y258279D01*
X122162Y259679D01*
X123686Y259048D01*
Y248952D01*
X122162Y248321D01*
X120762Y249721D01*
X118362Y251107D01*
X115686Y251824D01*
X112914D01*
X110238Y251107D01*
X107838Y249721D01*
X105879Y247762D01*
X104493Y245362D01*
X103776Y242686D01*
Y239914D01*
X104493Y237238D01*
X105879Y234838D01*
X107838Y232879D01*
X110238Y231493D01*
X112914Y230776D01*
X115686D01*
X118362Y231493D01*
X120762Y232879D01*
X122162Y234279D01*
X123686Y233648D01*
Y223552D01*
X122162Y222921D01*
X120762Y224321D01*
X118362Y225707D01*
X115686Y226424D01*
X112914D01*
X110238Y225707D01*
X107838Y224321D01*
X105879Y222362D01*
X104493Y219962D01*
X103776Y217285D01*
Y214515D01*
X104493Y211838D01*
X105879Y209438D01*
X107838Y207479D01*
X110238Y206093D01*
X112914Y205376D01*
X115686D01*
X118362Y206093D01*
X120762Y207479D01*
X122162Y208879D01*
X123686Y208248D01*
Y198152D01*
X122162Y197521D01*
X120762Y198921D01*
X118362Y200307D01*
X115686Y201024D01*
X112914D01*
X110238Y200307D01*
X107838Y198921D01*
X105879Y196962D01*
X104493Y194562D01*
X103776Y191886D01*
Y189114D01*
X104493Y186438D01*
X105879Y184038D01*
X107838Y182079D01*
X110238Y180693D01*
X112914Y179976D01*
X115686D01*
X118362Y180693D01*
X120762Y182079D01*
X122162Y183479D01*
X123686Y182848D01*
Y172752D01*
X122162Y172121D01*
X120762Y173521D01*
X118362Y174907D01*
X115686Y175624D01*
X112914D01*
X110238Y174907D01*
X107838Y173521D01*
X105879Y171562D01*
X104493Y169162D01*
X103776Y166486D01*
Y163715D01*
X104493Y161038D01*
X105879Y158638D01*
X107838Y156679D01*
X110238Y155293D01*
X112914Y154576D01*
X115686D01*
X118362Y155293D01*
X120762Y156679D01*
X122162Y158079D01*
X123686Y157448D01*
Y147352D01*
X122162Y146721D01*
X120762Y148121D01*
X118362Y149507D01*
X115686Y150224D01*
X112914D01*
X110238Y149507D01*
X107838Y148121D01*
X105879Y146162D01*
X104493Y143762D01*
X103776Y141086D01*
Y138315D01*
X104493Y135638D01*
X105879Y133238D01*
X107838Y131279D01*
X110238Y129893D01*
X112914Y129176D01*
X115686D01*
X118362Y129893D01*
X120762Y131279D01*
X122162Y132679D01*
X123686Y132048D01*
Y121952D01*
X122162Y121321D01*
X120762Y122721D01*
X118362Y124107D01*
X115686Y124824D01*
X112914D01*
X110238Y124107D01*
X107838Y122721D01*
X105879Y120762D01*
X104493Y118362D01*
X103776Y115686D01*
Y112914D01*
X104493Y110238D01*
X105879Y107838D01*
X107838Y105879D01*
X110238Y104493D01*
X112914Y103776D01*
X115686D01*
X118362Y104493D01*
X120762Y105879D01*
X122162Y107279D01*
X123686Y106648D01*
Y96552D01*
X122162Y95921D01*
X120762Y97321D01*
X118362Y98707D01*
X115686Y99424D01*
X112914D01*
X110238Y98707D01*
X107838Y97321D01*
X105879Y95362D01*
X104493Y92962D01*
X103776Y90286D01*
Y87514D01*
X104493Y84838D01*
X105879Y82438D01*
X107838Y80479D01*
X110238Y79093D01*
X112914Y78376D01*
X115686D01*
X118362Y79093D01*
X120762Y80479D01*
X122162Y81879D01*
X123686Y81248D01*
Y71152D01*
X122162Y70521D01*
X120762Y71921D01*
X118362Y73307D01*
X115686Y74024D01*
X112914D01*
X110238Y73307D01*
X107838Y71921D01*
X105879Y69962D01*
X104493Y67562D01*
X103776Y64886D01*
Y62115D01*
X104493Y59438D01*
X105879Y57038D01*
X107838Y55079D01*
X110238Y53693D01*
X112914Y52976D01*
X115686D01*
X118362Y53693D01*
X120762Y55079D01*
X122162Y56479D01*
X123686Y55848D01*
Y45752D01*
X122162Y45121D01*
X120762Y46521D01*
X118362Y47907D01*
X115686Y48624D01*
X112914D01*
X110238Y47907D01*
X107838Y46521D01*
X105879Y44562D01*
X104493Y42162D01*
X103776Y39485D01*
Y36714D01*
X104493Y34038D01*
X105879Y31638D01*
X107838Y29679D01*
X110238Y28293D01*
X112914Y27576D01*
X115686D01*
X118362Y28293D01*
X120762Y29679D01*
X122162Y31079D01*
X123686Y30448D01*
Y20352D01*
X122162Y19721D01*
X120762Y21121D01*
X118362Y22507D01*
X115686Y23224D01*
X112914D01*
X110238Y22507D01*
X107838Y21121D01*
X105879Y19162D01*
X104493Y16762D01*
X103776Y14086D01*
Y11315D01*
X104493Y8638D01*
X105879Y6238D01*
X107838Y4279D01*
X110238Y2893D01*
X112914Y2176D01*
X115686D01*
X118362Y2893D01*
X120762Y4279D01*
X122162Y5679D01*
X123686Y5048D01*
X123686Y-5048D01*
X122162Y-5679D01*
X120762Y-4279D01*
X118362Y-2893D01*
X115686Y-2176D01*
X112914D01*
X110238Y-2893D01*
X107838Y-4279D01*
X105879Y-6238D01*
X104493Y-8638D01*
X103776Y-11315D01*
Y-14086D01*
X104493Y-16762D01*
X105879Y-19162D01*
X107838Y-21121D01*
X110238Y-22507D01*
X112914Y-23224D01*
X115686D01*
X118362Y-22507D01*
X120762Y-21121D01*
X122162Y-19721D01*
X123686Y-20352D01*
Y-30448D01*
X122162Y-31079D01*
X120762Y-29679D01*
X118362Y-28293D01*
X115686Y-27576D01*
X112914D01*
X110238Y-28293D01*
X107838Y-29679D01*
X105879Y-31638D01*
X104493Y-34038D01*
X103776Y-36714D01*
Y-39485D01*
X104493Y-42162D01*
X105879Y-44562D01*
X107838Y-46521D01*
X110238Y-47907D01*
X112914Y-48624D01*
X115686D01*
X118362Y-47907D01*
X120762Y-46521D01*
X122162Y-45121D01*
X123686Y-45752D01*
Y-55848D01*
X122162Y-56479D01*
X120762Y-55079D01*
X118362Y-53693D01*
X115686Y-52976D01*
X112914D01*
X110238Y-53693D01*
X107838Y-55079D01*
X105879Y-57038D01*
X104493Y-59438D01*
X103776Y-62115D01*
Y-64886D01*
X104493Y-67562D01*
X105879Y-69962D01*
X107838Y-71921D01*
X110238Y-73307D01*
X112914Y-74024D01*
X115686D01*
X118362Y-73307D01*
X120762Y-71921D01*
X122162Y-70521D01*
X123686Y-71152D01*
Y-81248D01*
X122162Y-81879D01*
X120762Y-80479D01*
X118362Y-79093D01*
X115686Y-78376D01*
X112914D01*
X110238Y-79093D01*
X107838Y-80479D01*
X105879Y-82438D01*
X104493Y-84838D01*
X103776Y-87514D01*
Y-90286D01*
X104493Y-92962D01*
X105879Y-95362D01*
X107838Y-97321D01*
X110238Y-98707D01*
X112914Y-99424D01*
X115686D01*
X118362Y-98707D01*
X120762Y-97321D01*
X122162Y-95921D01*
X123686Y-96552D01*
Y-106648D01*
X122162Y-107279D01*
X120762Y-105879D01*
X118362Y-104493D01*
X115686Y-103776D01*
X112914D01*
X110238Y-104493D01*
X107838Y-105879D01*
X105879Y-107838D01*
X104493Y-110238D01*
X103776Y-112914D01*
Y-115686D01*
X104493Y-118362D01*
X105879Y-120762D01*
X107838Y-122721D01*
X110238Y-124107D01*
X112914Y-124824D01*
X115686D01*
X118362Y-124107D01*
X120762Y-122721D01*
X122162Y-121321D01*
X123686Y-121952D01*
Y-132048D01*
X122162Y-132679D01*
X120762Y-131279D01*
X118362Y-129893D01*
X115686Y-129176D01*
X112914D01*
X110238Y-129893D01*
X107838Y-131279D01*
X105879Y-133238D01*
X104493Y-135638D01*
X103776Y-138315D01*
Y-141086D01*
X104493Y-143762D01*
X105879Y-146162D01*
X107838Y-148121D01*
X110238Y-149507D01*
X112914Y-150224D01*
X115686D01*
X118362Y-149507D01*
X120762Y-148121D01*
X122162Y-146721D01*
X123686Y-147352D01*
Y-157448D01*
X122162Y-158079D01*
X120762Y-156679D01*
X118362Y-155293D01*
X115686Y-154576D01*
X112914D01*
X110238Y-155293D01*
X107838Y-156679D01*
X105879Y-158638D01*
X104493Y-161038D01*
X103776Y-163715D01*
Y-166486D01*
X104493Y-169162D01*
X105879Y-171562D01*
X107838Y-173521D01*
X110238Y-174907D01*
X112914Y-175624D01*
X115686D01*
X118362Y-174907D01*
X120762Y-173521D01*
X122162Y-172121D01*
X123686Y-172752D01*
Y-182848D01*
X122162Y-183479D01*
X120762Y-182079D01*
X118362Y-180693D01*
X115686Y-179976D01*
X112914D01*
X110238Y-180693D01*
X107838Y-182079D01*
X105879Y-184038D01*
X104493Y-186438D01*
X103776Y-189114D01*
Y-191886D01*
X104493Y-194562D01*
X105879Y-196962D01*
X107838Y-198921D01*
X110238Y-200307D01*
X112914Y-201024D01*
X115686D01*
X118362Y-200307D01*
X120762Y-198921D01*
X122162Y-197521D01*
X123686Y-198152D01*
Y-208248D01*
X122162Y-208879D01*
X120762Y-207479D01*
X118362Y-206093D01*
X115686Y-205376D01*
X112914D01*
X110238Y-206093D01*
X107838Y-207479D01*
X105879Y-209438D01*
X104493Y-211838D01*
X103776Y-214515D01*
Y-217285D01*
X104493Y-219962D01*
X105879Y-222362D01*
X107838Y-224321D01*
X110238Y-225707D01*
X112914Y-226424D01*
X115686D01*
X118362Y-225707D01*
X120762Y-224321D01*
X122162Y-222921D01*
X123686Y-223552D01*
Y-233648D01*
X122162Y-234279D01*
X120762Y-232879D01*
X118362Y-231493D01*
X115686Y-230776D01*
X112914D01*
X110238Y-231493D01*
X107838Y-232879D01*
X105879Y-234838D01*
X104493Y-237238D01*
X103776Y-239914D01*
Y-242686D01*
X104493Y-245362D01*
X105879Y-247762D01*
X107838Y-249721D01*
X110238Y-251107D01*
X112914Y-251824D01*
X115686D01*
X118362Y-251107D01*
X120762Y-249721D01*
X122162Y-248321D01*
X123686Y-248952D01*
Y-259048D01*
X122162Y-259679D01*
X120762Y-258279D01*
X118362Y-256893D01*
X115686Y-256176D01*
X112914D01*
X110238Y-256893D01*
X107838Y-258279D01*
X105879Y-260238D01*
X104493Y-262638D01*
X103776Y-265315D01*
Y-268085D01*
X104493Y-270762D01*
X105879Y-273162D01*
X107838Y-275121D01*
X110238Y-276507D01*
X112914Y-277224D01*
X115686D01*
X118362Y-276507D01*
X120762Y-275121D01*
X122162Y-273721D01*
X123686Y-274352D01*
Y-284448D01*
X122162Y-285079D01*
X120762Y-283679D01*
X118362Y-282293D01*
X115686Y-281576D01*
X112914D01*
X110238Y-282293D01*
X107838Y-283679D01*
X105879Y-285638D01*
X104493Y-288038D01*
X103776Y-290714D01*
Y-293486D01*
X104493Y-296162D01*
X105879Y-298562D01*
X107838Y-300521D01*
X110238Y-301907D01*
X112914Y-302624D01*
X115686D01*
X118362Y-301907D01*
X120762Y-300521D01*
X122162Y-299121D01*
X123686Y-299752D01*
Y-309848D01*
X122162Y-310479D01*
X120762Y-309079D01*
X118362Y-307693D01*
X115686Y-306976D01*
X112914D01*
X110238Y-307693D01*
X107838Y-309079D01*
X105879Y-311038D01*
X104493Y-313438D01*
X103776Y-316115D01*
Y-318885D01*
X104493Y-321562D01*
X105879Y-323962D01*
X107838Y-325921D01*
X110238Y-327307D01*
X112914Y-328024D01*
X115686D01*
X118362Y-327307D01*
X120762Y-325921D01*
X122162Y-324521D01*
X123686Y-325152D01*
Y-335248D01*
X122162Y-335879D01*
X120762Y-334479D01*
X118362Y-333093D01*
X115686Y-332376D01*
X112914D01*
X110238Y-333093D01*
X107838Y-334479D01*
X105879Y-336438D01*
X104493Y-338838D01*
X103776Y-341515D01*
Y-344286D01*
X104493Y-346962D01*
X105879Y-349362D01*
X107838Y-351321D01*
X110238Y-352707D01*
X112914Y-353424D01*
X115686D01*
X118362Y-352707D01*
X120762Y-351321D01*
X122162Y-349921D01*
X123686Y-350552D01*
Y-360648D01*
X122162Y-361279D01*
X120762Y-359879D01*
X118362Y-358493D01*
X115686Y-357776D01*
X112914D01*
X110238Y-358493D01*
X107838Y-359879D01*
X105879Y-361838D01*
X104493Y-364238D01*
X103776Y-366914D01*
Y-369686D01*
X104493Y-372362D01*
X105879Y-374762D01*
X107838Y-376721D01*
X110238Y-378107D01*
X112914Y-378824D01*
X115686D01*
X118362Y-378107D01*
X120762Y-376721D01*
X122162Y-375321D01*
X123686Y-375952D01*
Y-400050D01*
X123686Y-400050D01*
X123681D01*
X123450Y-401210D01*
X122793Y-402193D01*
X121810Y-402850D01*
X120650Y-403081D01*
Y-403086D01*
X-106648Y-403086D01*
X-107279Y-401562D01*
X-105879Y-400162D01*
X-104493Y-397762D01*
X-103776Y-395085D01*
Y-392314D01*
X-104493Y-389638D01*
X-105879Y-387238D01*
X-107838Y-385279D01*
X-110238Y-383893D01*
X-112914Y-383176D01*
X-115686D01*
X-118362Y-383893D01*
X-120762Y-385279D01*
X-122162Y-386679D01*
X-123686Y-386048D01*
Y-375952D01*
X-122162Y-375321D01*
X-120762Y-376721D01*
X-118362Y-378107D01*
X-115686Y-378824D01*
X-112914D01*
X-110238Y-378107D01*
X-107838Y-376721D01*
X-105879Y-374762D01*
X-104493Y-372362D01*
X-103776Y-369686D01*
Y-366914D01*
X-104493Y-364238D01*
X-105879Y-361838D01*
X-107838Y-359879D01*
X-110238Y-358493D01*
X-112914Y-357776D01*
X-115686D01*
X-118362Y-358493D01*
X-120762Y-359879D01*
X-122162Y-361279D01*
X-123686Y-360648D01*
Y-350552D01*
X-122162Y-349921D01*
X-120762Y-351321D01*
X-118362Y-352707D01*
X-115686Y-353424D01*
X-112914D01*
X-110238Y-352707D01*
X-107838Y-351321D01*
X-105879Y-349362D01*
X-104493Y-346962D01*
X-103776Y-344286D01*
Y-341515D01*
X-104493Y-338838D01*
X-105879Y-336438D01*
X-107838Y-334479D01*
X-110238Y-333093D01*
X-112914Y-332376D01*
X-115686D01*
X-118362Y-333093D01*
X-120762Y-334479D01*
X-122162Y-335879D01*
X-123686Y-335248D01*
Y-325152D01*
X-122162Y-324521D01*
X-120762Y-325921D01*
X-118362Y-327307D01*
X-115686Y-328024D01*
X-112914D01*
X-110238Y-327307D01*
X-107838Y-325921D01*
X-105879Y-323962D01*
X-104493Y-321562D01*
X-103776Y-318885D01*
Y-316115D01*
X-104493Y-313438D01*
X-105879Y-311038D01*
X-107838Y-309079D01*
X-110238Y-307693D01*
X-112914Y-306976D01*
X-115686D01*
X-118362Y-307693D01*
X-120762Y-309079D01*
X-122162Y-310479D01*
X-123686Y-309848D01*
Y-299752D01*
X-122162Y-299121D01*
X-120762Y-300521D01*
X-118362Y-301907D01*
X-115686Y-302624D01*
X-112914D01*
X-110238Y-301907D01*
X-107838Y-300521D01*
X-105879Y-298562D01*
X-104493Y-296162D01*
X-103776Y-293486D01*
Y-290714D01*
X-104493Y-288038D01*
X-105879Y-285638D01*
X-107838Y-283679D01*
X-110238Y-282293D01*
X-112914Y-281576D01*
X-115686D01*
X-118362Y-282293D01*
X-120762Y-283679D01*
X-122162Y-285079D01*
X-123686Y-284448D01*
Y-274352D01*
X-122162Y-273721D01*
X-120762Y-275121D01*
X-118362Y-276507D01*
X-115686Y-277224D01*
X-112914D01*
X-110238Y-276507D01*
X-107838Y-275121D01*
X-105879Y-273162D01*
X-104493Y-270762D01*
X-103776Y-268085D01*
Y-265315D01*
X-104493Y-262638D01*
X-105879Y-260238D01*
X-107838Y-258279D01*
X-110238Y-256893D01*
X-112914Y-256176D01*
X-115686D01*
X-118362Y-256893D01*
X-120762Y-258279D01*
X-122162Y-259679D01*
X-123686Y-259048D01*
Y-248952D01*
X-122162Y-248321D01*
X-120762Y-249721D01*
X-118362Y-251107D01*
X-115686Y-251824D01*
X-112914D01*
X-110238Y-251107D01*
X-107838Y-249721D01*
X-105879Y-247762D01*
X-104493Y-245362D01*
X-103776Y-242686D01*
Y-239914D01*
X-104493Y-237238D01*
X-105879Y-234838D01*
X-107838Y-232879D01*
X-110238Y-231493D01*
X-112914Y-230776D01*
X-115686D01*
X-118362Y-231493D01*
X-120762Y-232879D01*
X-122162Y-234279D01*
X-123686Y-233648D01*
Y-223552D01*
X-122162Y-222921D01*
X-120762Y-224321D01*
X-118362Y-225707D01*
X-115686Y-226424D01*
X-112914D01*
X-110238Y-225707D01*
X-107838Y-224321D01*
X-105879Y-222362D01*
X-104493Y-219962D01*
X-103776Y-217285D01*
Y-214515D01*
X-104493Y-211838D01*
X-105879Y-209438D01*
X-107838Y-207479D01*
X-110238Y-206093D01*
X-112914Y-205376D01*
X-115686D01*
X-118362Y-206093D01*
X-120762Y-207479D01*
X-122162Y-208879D01*
X-123686Y-208248D01*
Y-198152D01*
X-122162Y-197521D01*
X-120762Y-198921D01*
X-118362Y-200307D01*
X-115686Y-201024D01*
X-112914D01*
X-110238Y-200307D01*
X-107838Y-198921D01*
X-105879Y-196962D01*
X-104493Y-194562D01*
X-103776Y-191886D01*
Y-189114D01*
X-104493Y-186438D01*
X-105879Y-184038D01*
X-107838Y-182079D01*
X-110238Y-180693D01*
X-112914Y-179976D01*
X-115686D01*
X-118362Y-180693D01*
X-120762Y-182079D01*
X-122162Y-183479D01*
X-123686Y-182848D01*
Y-172752D01*
X-122162Y-172121D01*
X-120762Y-173521D01*
X-118362Y-174907D01*
X-115686Y-175624D01*
X-112914D01*
X-110238Y-174907D01*
X-107838Y-173521D01*
X-105879Y-171562D01*
X-104493Y-169162D01*
X-103776Y-166486D01*
Y-163715D01*
X-104493Y-161038D01*
X-105879Y-158638D01*
X-107838Y-156679D01*
X-110238Y-155293D01*
X-112914Y-154576D01*
X-115686D01*
X-118362Y-155293D01*
X-120762Y-156679D01*
X-122162Y-158079D01*
X-123686Y-157448D01*
Y-147352D01*
X-122162Y-146721D01*
X-120762Y-148121D01*
X-118362Y-149507D01*
X-115686Y-150224D01*
X-112914D01*
X-110238Y-149507D01*
X-107838Y-148121D01*
X-105879Y-146162D01*
X-104493Y-143762D01*
X-103776Y-141086D01*
Y-138315D01*
X-104493Y-135638D01*
X-105879Y-133238D01*
X-107838Y-131279D01*
X-110238Y-129893D01*
X-112914Y-129176D01*
X-115686D01*
X-118362Y-129893D01*
X-120762Y-131279D01*
X-122162Y-132679D01*
X-123686Y-132048D01*
Y-121952D01*
X-122162Y-121321D01*
X-120762Y-122721D01*
X-118362Y-124107D01*
X-115686Y-124824D01*
X-112914D01*
X-110238Y-124107D01*
X-107838Y-122721D01*
X-105879Y-120762D01*
X-104493Y-118362D01*
X-103776Y-115686D01*
Y-112914D01*
X-104493Y-110238D01*
X-105879Y-107838D01*
X-107838Y-105879D01*
X-110238Y-104493D01*
X-112914Y-103776D01*
X-115686D01*
X-118362Y-104493D01*
X-120762Y-105879D01*
X-122162Y-107279D01*
X-123686Y-106648D01*
Y-96552D01*
X-122162Y-95921D01*
X-120762Y-97321D01*
X-118362Y-98707D01*
X-115686Y-99424D01*
X-112914D01*
X-110238Y-98707D01*
X-107838Y-97321D01*
X-105879Y-95362D01*
X-104493Y-92962D01*
X-103776Y-90286D01*
Y-87514D01*
X-104493Y-84838D01*
X-105879Y-82438D01*
X-107838Y-80479D01*
X-110238Y-79093D01*
X-112914Y-78376D01*
X-115686D01*
X-118362Y-79093D01*
X-120762Y-80479D01*
X-122162Y-81879D01*
X-123686Y-81248D01*
Y-71152D01*
X-122162Y-70521D01*
X-120762Y-71921D01*
X-118362Y-73307D01*
X-115686Y-74024D01*
X-112914D01*
X-110238Y-73307D01*
X-107838Y-71921D01*
X-105879Y-69962D01*
X-104493Y-67562D01*
X-103776Y-64886D01*
Y-62115D01*
X-104493Y-59438D01*
X-105879Y-57038D01*
X-107838Y-55079D01*
X-110238Y-53693D01*
X-112914Y-52976D01*
X-115686D01*
X-118362Y-53693D01*
X-120762Y-55079D01*
X-122162Y-56479D01*
X-123686Y-55848D01*
Y-45752D01*
X-122162Y-45121D01*
X-120762Y-46521D01*
X-118362Y-47907D01*
X-115686Y-48624D01*
X-112914D01*
X-110238Y-47907D01*
X-107838Y-46521D01*
X-105879Y-44562D01*
X-104493Y-42162D01*
X-103776Y-39485D01*
Y-36714D01*
X-104493Y-34038D01*
X-105879Y-31638D01*
X-107838Y-29679D01*
X-110238Y-28293D01*
X-112914Y-27576D01*
X-115686D01*
X-118362Y-28293D01*
X-120762Y-29679D01*
X-122162Y-31079D01*
X-123686Y-30448D01*
Y-20352D01*
X-122162Y-19721D01*
X-120762Y-21121D01*
X-118362Y-22507D01*
X-115686Y-23224D01*
X-112914D01*
X-110238Y-22507D01*
X-107838Y-21121D01*
X-105879Y-19162D01*
X-104493Y-16762D01*
X-103776Y-14086D01*
Y-11315D01*
X-104493Y-8638D01*
X-105879Y-6238D01*
X-107838Y-4279D01*
X-110238Y-2893D01*
X-112914Y-2176D01*
X-115686D01*
X-118362Y-2893D01*
X-120762Y-4279D01*
X-122162Y-5679D01*
X-123686Y-5048D01*
Y5048D01*
X-122162Y5679D01*
X-120762Y4279D01*
X-118362Y2893D01*
X-115686Y2176D01*
X-112914D01*
X-110238Y2893D01*
X-107838Y4279D01*
X-105879Y6238D01*
X-104493Y8638D01*
X-103776Y11315D01*
Y14086D01*
X-104493Y16762D01*
X-105879Y19162D01*
X-107838Y21121D01*
X-110238Y22507D01*
X-112914Y23224D01*
X-115686D01*
X-118362Y22507D01*
X-120762Y21121D01*
X-122162Y19721D01*
X-123686Y20352D01*
Y30448D01*
X-122162Y31079D01*
X-120762Y29679D01*
X-118362Y28293D01*
X-115686Y27576D01*
X-112914D01*
X-110238Y28293D01*
X-107838Y29679D01*
X-105879Y31638D01*
X-104493Y34038D01*
X-103776Y36714D01*
Y39485D01*
X-104493Y42162D01*
X-105879Y44562D01*
X-107838Y46521D01*
X-110238Y47907D01*
X-112914Y48624D01*
X-115686D01*
X-118362Y47907D01*
X-120762Y46521D01*
X-122162Y45121D01*
X-123686Y45752D01*
Y55848D01*
X-122162Y56479D01*
X-120762Y55079D01*
X-118362Y53693D01*
X-115686Y52976D01*
X-112914D01*
X-110238Y53693D01*
X-107838Y55079D01*
X-105879Y57038D01*
X-104493Y59438D01*
X-103776Y62115D01*
Y64886D01*
X-104493Y67562D01*
X-105879Y69962D01*
X-107838Y71921D01*
X-110238Y73307D01*
X-112914Y74024D01*
X-115686D01*
X-118362Y73307D01*
X-120762Y71921D01*
X-122162Y70521D01*
X-123686Y71152D01*
Y81248D01*
X-122162Y81879D01*
X-120762Y80479D01*
X-118362Y79093D01*
X-115686Y78376D01*
X-112914D01*
X-110238Y79093D01*
X-107838Y80479D01*
X-105879Y82438D01*
X-104493Y84838D01*
X-103776Y87514D01*
Y90286D01*
X-104493Y92962D01*
X-105879Y95362D01*
X-107838Y97321D01*
X-110238Y98707D01*
X-112914Y99424D01*
X-115686D01*
X-118362Y98707D01*
X-120762Y97321D01*
X-122162Y95921D01*
X-123686Y96552D01*
Y106648D01*
X-122162Y107279D01*
X-120762Y105879D01*
X-118362Y104493D01*
X-115686Y103776D01*
X-112914D01*
X-110238Y104493D01*
X-107838Y105879D01*
X-105879Y107838D01*
X-104493Y110238D01*
X-103776Y112914D01*
Y115686D01*
X-104493Y118362D01*
X-105879Y120762D01*
X-107838Y122721D01*
X-110238Y124107D01*
X-112914Y124824D01*
X-115686D01*
X-118362Y124107D01*
X-120762Y122721D01*
X-122162Y121321D01*
X-123686Y121952D01*
Y132048D01*
X-122162Y132679D01*
X-120762Y131279D01*
X-118362Y129893D01*
X-115686Y129176D01*
X-112914D01*
X-110238Y129893D01*
X-107838Y131279D01*
X-105879Y133238D01*
X-104493Y135638D01*
X-103776Y138315D01*
Y141086D01*
X-104493Y143762D01*
X-105879Y146162D01*
X-107838Y148121D01*
X-110238Y149507D01*
X-112914Y150224D01*
X-115686D01*
X-118362Y149507D01*
X-120762Y148121D01*
X-122162Y146721D01*
X-123686Y147352D01*
Y157448D01*
X-122162Y158079D01*
X-120762Y156679D01*
X-118362Y155293D01*
X-115686Y154576D01*
X-112914D01*
X-110238Y155293D01*
X-107838Y156679D01*
X-105879Y158638D01*
X-104493Y161038D01*
X-103776Y163715D01*
Y166486D01*
X-104493Y169162D01*
X-105879Y171562D01*
X-107838Y173521D01*
X-110238Y174907D01*
X-112914Y175624D01*
X-115686D01*
X-118362Y174907D01*
X-120762Y173521D01*
X-122162Y172121D01*
X-123686Y172752D01*
Y182848D01*
X-122162Y183479D01*
X-120762Y182079D01*
X-118362Y180693D01*
X-115686Y179976D01*
X-112914D01*
X-110238Y180693D01*
X-107838Y182079D01*
X-105879Y184038D01*
X-104493Y186438D01*
X-103776Y189114D01*
Y191886D01*
X-104493Y194562D01*
X-105879Y196962D01*
X-107838Y198921D01*
X-110238Y200307D01*
X-112914Y201024D01*
X-115686D01*
X-118362Y200307D01*
X-120762Y198921D01*
X-122162Y197521D01*
X-123686Y198152D01*
Y208248D01*
X-122162Y208879D01*
X-120762Y207479D01*
X-118362Y206093D01*
X-115686Y205376D01*
X-112914D01*
X-110238Y206093D01*
X-107838Y207479D01*
X-105879Y209438D01*
X-104493Y211838D01*
X-103776Y214515D01*
Y217285D01*
X-104493Y219962D01*
X-105879Y222362D01*
X-107838Y224321D01*
X-110238Y225707D01*
X-112914Y226424D01*
X-115686D01*
X-118362Y225707D01*
X-120762Y224321D01*
X-122162Y222921D01*
X-123686Y223552D01*
Y233648D01*
X-122162Y234279D01*
X-120762Y232879D01*
X-118362Y231493D01*
X-115686Y230776D01*
X-112914D01*
X-110238Y231493D01*
X-107838Y232879D01*
X-105879Y234838D01*
X-104493Y237238D01*
X-103776Y239914D01*
Y242686D01*
X-104493Y245362D01*
X-105879Y247762D01*
X-107838Y249721D01*
X-110238Y251107D01*
X-112914Y251824D01*
X-115686D01*
X-118362Y251107D01*
X-120762Y249721D01*
X-122162Y248321D01*
X-123686Y248952D01*
Y259048D01*
X-122162Y259679D01*
X-120762Y258279D01*
X-118362Y256893D01*
X-115686Y256176D01*
X-112914D01*
X-110238Y256893D01*
X-107838Y258279D01*
X-105879Y260238D01*
X-104493Y262638D01*
X-103776Y265315D01*
Y268085D01*
X-104493Y270762D01*
X-105879Y273162D01*
X-107838Y275121D01*
X-110238Y276507D01*
X-112914Y277224D01*
X-115686D01*
X-118362Y276507D01*
X-120762Y275121D01*
X-122162Y273721D01*
X-123686Y274352D01*
Y309848D01*
X-122162Y310479D01*
X-120762Y309079D01*
X-118362Y307693D01*
X-115686Y306976D01*
X-112914D01*
X-110238Y307693D01*
X-107838Y309079D01*
X-105879Y311038D01*
X-104493Y313438D01*
X-103776Y316115D01*
Y318885D01*
X-104493Y321562D01*
X-105879Y323962D01*
X-107838Y325921D01*
X-110238Y327307D01*
X-112914Y328024D01*
X-115686D01*
X-118362Y327307D01*
X-120762Y325921D01*
X-122162Y324521D01*
X-123686Y325152D01*
Y335248D01*
X-122162Y335879D01*
X-120762Y334479D01*
X-118362Y333093D01*
X-115686Y332376D01*
X-112914D01*
X-110238Y333093D01*
X-107838Y334479D01*
X-105879Y336438D01*
X-104493Y338838D01*
X-103776Y341515D01*
Y344286D01*
X-104493Y346962D01*
X-105879Y349362D01*
X-107838Y351321D01*
X-110238Y352707D01*
X-112914Y353424D01*
X-115686D01*
X-118362Y352707D01*
X-120762Y351321D01*
X-122162Y349921D01*
X-123686Y350552D01*
Y360648D01*
X-122162Y361279D01*
X-120762Y359879D01*
X-118362Y358493D01*
X-115686Y357776D01*
X-112914D01*
X-110238Y358493D01*
X-107838Y359879D01*
X-105879Y361838D01*
X-104493Y364238D01*
X-103776Y366914D01*
Y369686D01*
X-104493Y372362D01*
X-105879Y374762D01*
X-107838Y376721D01*
X-110238Y378107D01*
X-112914Y378824D01*
X-115686D01*
X-118362Y378107D01*
X-120762Y376721D01*
X-122162Y375321D01*
X-123686Y375952D01*
Y400050D01*
X-123686Y400050D01*
X-123681D01*
X-123450Y401210D01*
X-122793Y402193D01*
X-121810Y402850D01*
X-120650Y403081D01*
Y403086D01*
X-120650Y403086D01*
X-49979D01*
X-49037Y401562D01*
X-49392Y399780D01*
Y391780D01*
X-48924Y389430D01*
X-47593Y387437D01*
X-45600Y386106D01*
X-43250Y385638D01*
X-40900Y386106D01*
X-38907Y387437D01*
X-37576Y389430D01*
X-37108Y391780D01*
Y399780D01*
X-37462Y401562D01*
X-36521Y403086D01*
X36521D01*
X37463Y401562D01*
X37108Y399780D01*
Y391780D01*
X37465Y389987D01*
X36060Y389236D01*
X34648Y390648D01*
X33892Y391153D01*
X33000Y391331D01*
X-25500D01*
X-26392Y391153D01*
X-27148Y390648D01*
X-34465Y383331D01*
X-45000D01*
X-45892Y383153D01*
X-46648Y382648D01*
X-56726Y372571D01*
X-58165Y372063D01*
X-59437Y373335D01*
X-61100Y374024D01*
X-62900D01*
X-64563Y373335D01*
X-65835Y372063D01*
X-66524Y370400D01*
Y368600D01*
X-65835Y366937D01*
X-64563Y365665D01*
X-62900Y364976D01*
X-61100D01*
X-59437Y365665D01*
X-58165Y366937D01*
X-58069Y367169D01*
X-56500D01*
X-55608Y367347D01*
X-54852Y367852D01*
X-50233Y372471D01*
X-49646Y372184D01*
X-48976Y371573D01*
X-49392Y369480D01*
Y354480D01*
X-48924Y352130D01*
X-47593Y350137D01*
X-45600Y348806D01*
X-43250Y348338D01*
X-40900Y348806D01*
X-38907Y350137D01*
X-37576Y352130D01*
X-37108Y354480D01*
Y369480D01*
X-37576Y371830D01*
X-38907Y373823D01*
X-40900Y375154D01*
X-43250Y375622D01*
X-45343Y375206D01*
X-45954Y375877D01*
X-46241Y376463D01*
X-44035Y378669D01*
X-33500D01*
X-32608Y378847D01*
X-31852Y379352D01*
X-24534Y386669D01*
X26634D01*
X27080Y385905D01*
X27361Y385145D01*
X26740Y383646D01*
Y381846D01*
X27429Y380183D01*
X28701Y378911D01*
X30364Y378222D01*
X32164D01*
X33145Y378629D01*
X34669Y377762D01*
Y374625D01*
X34227Y374183D01*
X33722Y373427D01*
X33544Y372535D01*
Y363970D01*
X31145Y361571D01*
X26047D01*
X25565Y362474D01*
X25347Y363095D01*
X26024Y364730D01*
Y366630D01*
X25297Y368384D01*
X23954Y369727D01*
X22200Y370454D01*
X20300D01*
X18546Y369727D01*
X17996Y369177D01*
X17000Y368518D01*
X16004Y369177D01*
X15454Y369727D01*
X13700Y370454D01*
X11800D01*
X10046Y369727D01*
X9496Y369177D01*
X8500Y368518D01*
X7504Y369177D01*
X6954Y369727D01*
X5200Y370454D01*
X3300D01*
X1546Y369727D01*
X996Y369177D01*
X0Y368518D01*
X-996Y369177D01*
X-1546Y369727D01*
X-3300Y370454D01*
X-5200D01*
X-6954Y369727D01*
X-7504Y369177D01*
X-8500Y368518D01*
X-9496Y369177D01*
X-10046Y369727D01*
X-11800Y370454D01*
X-13700D01*
X-15454Y369727D01*
X-16004Y369177D01*
X-17000Y368518D01*
X-17996Y369177D01*
X-18546Y369727D01*
X-20300Y370454D01*
X-22200D01*
X-23954Y369727D01*
X-25297Y368384D01*
X-26024Y366630D01*
Y364730D01*
X-25297Y362976D01*
X-23954Y361633D01*
X-22200Y360906D01*
X-20300D01*
X-18546Y361633D01*
X-17996Y362183D01*
X-17000Y362842D01*
X-16004Y362183D01*
X-15454Y361633D01*
X-13700Y360906D01*
X-11800D01*
X-10046Y361633D01*
X-9496Y362183D01*
X-8500Y362842D01*
X-7504Y362183D01*
X-6954Y361633D01*
X-5200Y360906D01*
X-3300D01*
X-1546Y361633D01*
X-996Y362183D01*
X0Y362842D01*
X996Y362183D01*
X1546Y361633D01*
X3300Y360906D01*
X5200D01*
X6954Y361633D01*
X7504Y362183D01*
X8500Y362842D01*
X9496Y362183D01*
X10046Y361633D01*
X11800Y360906D01*
X13700D01*
X15454Y361633D01*
X15756Y361935D01*
X15943Y361870D01*
X16344Y360582D01*
X16203Y359975D01*
X13182Y356954D01*
X11800D01*
X10046Y356227D01*
X9496Y355677D01*
X8500Y355019D01*
X7504Y355677D01*
X6954Y356227D01*
X5200Y356954D01*
X3300D01*
X1546Y356227D01*
X996Y355677D01*
X0Y355019D01*
X-996Y355677D01*
X-1546Y356227D01*
X-3300Y356954D01*
X-5200D01*
X-6954Y356227D01*
X-7504Y355677D01*
X-8500Y355019D01*
X-9496Y355677D01*
X-10046Y356227D01*
X-11800Y356954D01*
X-13700D01*
X-15454Y356227D01*
X-16004Y355677D01*
X-17000Y355018D01*
X-17996Y355677D01*
X-18546Y356227D01*
X-20300Y356954D01*
X-22200D01*
X-23954Y356227D01*
X-25297Y354884D01*
X-26024Y353130D01*
Y351230D01*
X-25297Y349476D01*
X-23954Y348133D01*
X-22200Y347406D01*
X-20300D01*
X-18546Y348133D01*
X-17996Y348683D01*
X-17000Y349342D01*
X-16004Y348683D01*
X-15454Y348133D01*
X-13700Y347406D01*
X-11800D01*
X-10046Y348133D01*
X-9496Y348683D01*
X-8500Y349342D01*
X-7504Y348683D01*
X-6954Y348133D01*
X-5200Y347406D01*
X-3300D01*
X-1546Y348133D01*
X-996Y348683D01*
X0Y349342D01*
X996Y348683D01*
X1546Y348133D01*
X3300Y347406D01*
X5200D01*
X6954Y348133D01*
X7504Y348683D01*
X8500Y349342D01*
X9496Y348683D01*
X10046Y348133D01*
X11800Y347406D01*
X13700D01*
X15454Y348133D01*
X16004Y348683D01*
X17000Y349342D01*
X17996Y348683D01*
X18546Y348133D01*
X20300Y347406D01*
X22200D01*
X23954Y348133D01*
X25297Y349476D01*
X26024Y351230D01*
Y353130D01*
X25297Y354884D01*
X24796Y355385D01*
X25427Y356909D01*
X32110D01*
X33002Y357087D01*
X33758Y357592D01*
X35700Y359534D01*
X37108Y358951D01*
Y354480D01*
X37576Y352130D01*
X38907Y350137D01*
X40900Y348806D01*
X43250Y348338D01*
X45601Y348806D01*
X47593Y350137D01*
X48924Y352130D01*
X49392Y354480D01*
Y369480D01*
X48924Y371830D01*
X47593Y373823D01*
X45601Y375154D01*
X43250Y375622D01*
X40900Y375154D01*
X40675Y375004D01*
X39331Y375723D01*
Y385000D01*
X39257Y385370D01*
X40546Y386342D01*
X40900Y386106D01*
X43250Y385638D01*
X45601Y386106D01*
X47593Y387437D01*
X48924Y389430D01*
X49392Y391780D01*
Y399780D01*
X49037Y401562D01*
X49979Y403086D01*
X106648D01*
X107279Y401562D01*
D02*
G37*
%LPC*%
G36*
X-55188Y364442D02*
X-56988D01*
X-58651Y363753D01*
X-59923Y362481D01*
X-60612Y360818D01*
Y359018D01*
X-59923Y357355D01*
X-58651Y356083D01*
X-56988Y355394D01*
X-55188D01*
X-53525Y356083D01*
X-52253Y357355D01*
X-51564Y359018D01*
Y360818D01*
X-52253Y362481D01*
X-53525Y363753D01*
X-55188Y364442D01*
D02*
G37*
G36*
X-52784Y309038D02*
X-54584D01*
X-56247Y308349D01*
X-57184Y307412D01*
X-58121Y308349D01*
X-59784Y309038D01*
X-61584D01*
X-63247Y308349D01*
X-64519Y307077D01*
X-65208Y305414D01*
Y303614D01*
X-64519Y301951D01*
X-63247Y300679D01*
X-61584Y299990D01*
X-59784D01*
X-58121Y300679D01*
X-57184Y301616D01*
X-56247Y300679D01*
X-54584Y299990D01*
X-52784D01*
X-51121Y300679D01*
X-49849Y301951D01*
X-49160Y303614D01*
Y305414D01*
X-49849Y307077D01*
X-51121Y308349D01*
X-52784Y309038D01*
D02*
G37*
G36*
X-8622Y307150D02*
X-10422D01*
X-12085Y306461D01*
X-13357Y305189D01*
X-14046Y303526D01*
Y301726D01*
X-13357Y300063D01*
X-12085Y298791D01*
X-10422Y298102D01*
X-8622D01*
X-6959Y298791D01*
X-5687Y300063D01*
X-4998Y301726D01*
Y303526D01*
X-5687Y305189D01*
X-6959Y306461D01*
X-8622Y307150D01*
D02*
G37*
G36*
X-22100Y304524D02*
X-23900D01*
X-25563Y303835D01*
X-26835Y302563D01*
X-27524Y300900D01*
Y299100D01*
X-26835Y297437D01*
X-25563Y296165D01*
X-23900Y295476D01*
X-22100D01*
X-20437Y296165D01*
X-19165Y297437D01*
X-18476Y299100D01*
Y300900D01*
X-19165Y302563D01*
X-20437Y303835D01*
X-22100Y304524D01*
D02*
G37*
G36*
X-14100Y335524D02*
X-15900D01*
X-17563Y334835D01*
X-18835Y333563D01*
X-19524Y331900D01*
Y330100D01*
X-18835Y328437D01*
X-17563Y327165D01*
X-15900Y326476D01*
X-14100D01*
X-12437Y327165D01*
X-11165Y328437D01*
X-11069Y328669D01*
X-6965D01*
X29352Y292352D01*
X30108Y291847D01*
X31000Y291669D01*
X59069D01*
X59165Y291437D01*
X60437Y290165D01*
X62100Y289476D01*
X63900D01*
X65563Y290165D01*
X66835Y291437D01*
X67524Y293100D01*
Y294900D01*
X66835Y296563D01*
X65563Y297835D01*
X63900Y298524D01*
X62100D01*
X60437Y297835D01*
X59165Y296563D01*
X59069Y296331D01*
X31965D01*
X-4352Y332648D01*
X-5108Y333153D01*
X-6000Y333331D01*
X-11069D01*
X-11165Y333563D01*
X-12437Y334835D01*
X-14100Y335524D01*
D02*
G37*
G36*
X9960Y256826D02*
X8040D01*
X6266Y256091D01*
X4909Y254734D01*
X4174Y252960D01*
Y251040D01*
X4909Y249266D01*
X6266Y247909D01*
X8040Y247174D01*
X9960D01*
X11734Y247909D01*
X13091Y249266D01*
X13826Y251040D01*
Y252960D01*
X13091Y254734D01*
X11734Y256091D01*
X9960Y256826D01*
D02*
G37*
G36*
X-7040D02*
X-8960D01*
X-10734Y256091D01*
X-12091Y254734D01*
X-12826Y252960D01*
Y251040D01*
X-12091Y249266D01*
X-10734Y247909D01*
X-8960Y247174D01*
X-7040D01*
X-5266Y247909D01*
X-3909Y249266D01*
X-3174Y251040D01*
Y252960D01*
X-3909Y254734D01*
X-5266Y256091D01*
X-7040Y256826D01*
D02*
G37*
G36*
X38900Y230524D02*
X37100D01*
X35437Y229835D01*
X34165Y228563D01*
X33476Y226900D01*
Y225100D01*
X34165Y223437D01*
X35211Y222391D01*
X35341Y221500D01*
X35211Y220609D01*
X34165Y219563D01*
X33476Y217900D01*
Y216100D01*
X34165Y214437D01*
X35437Y213165D01*
X37100Y212476D01*
X38900D01*
X40563Y213165D01*
X41835Y214437D01*
X42524Y216100D01*
Y217900D01*
X41835Y219563D01*
X40789Y220609D01*
X40659Y221500D01*
X40789Y222391D01*
X41835Y223437D01*
X42524Y225100D01*
Y226900D01*
X41835Y228563D01*
X40563Y229835D01*
X38900Y230524D01*
D02*
G37*
G36*
X392Y201882D02*
X-1408D01*
X-3071Y201193D01*
X-4343Y199921D01*
X-5032Y198258D01*
Y196458D01*
X-4343Y194795D01*
X-3071Y193523D01*
X-1408Y192834D01*
X392D01*
X2055Y193523D01*
X3327Y194795D01*
X4016Y196458D01*
Y198258D01*
X3327Y199921D01*
X2055Y201193D01*
X392Y201882D01*
D02*
G37*
G36*
X40900Y195524D02*
X39100D01*
X37437Y194835D01*
X36165Y193563D01*
X35476Y191900D01*
Y190100D01*
X36165Y188437D01*
X37437Y187165D01*
X39100Y186476D01*
X40900D01*
X42563Y187165D01*
X43835Y188437D01*
X44524Y190100D01*
Y191900D01*
X43835Y193563D01*
X42563Y194835D01*
X40900Y195524D01*
D02*
G37*
G36*
X-52440Y188166D02*
X-54240D01*
X-55903Y187477D01*
X-57175Y186205D01*
X-57864Y184542D01*
Y182742D01*
X-57834Y182670D01*
X-59183Y182111D01*
X-60455Y180839D01*
X-61144Y179176D01*
Y177376D01*
X-60455Y175713D01*
X-59183Y174441D01*
X-57520Y173752D01*
X-55720D01*
X-54057Y174441D01*
X-53313Y175185D01*
X-52601Y174473D01*
X-50938Y173784D01*
X-49138D01*
X-47475Y174473D01*
X-46203Y175745D01*
X-45514Y177408D01*
Y179208D01*
X-46203Y180871D01*
X-47475Y182143D01*
X-48831Y182705D01*
X-48816Y182742D01*
Y184542D01*
X-49505Y186205D01*
X-50777Y187477D01*
X-52440Y188166D01*
D02*
G37*
G36*
X-7100Y153524D02*
X-8900D01*
X-10563Y152835D01*
X-11835Y151563D01*
X-12524Y149900D01*
Y148100D01*
X-11835Y146437D01*
X-10563Y145165D01*
X-8900Y144476D01*
X-7100D01*
X-5437Y145165D01*
X-4165Y146437D01*
X-3476Y148100D01*
Y149900D01*
X-4165Y151563D01*
X-5437Y152835D01*
X-7100Y153524D01*
D02*
G37*
G36*
X-68100Y145524D02*
X-69900D01*
X-71563Y144835D01*
X-72004Y144394D01*
X-73000Y143681D01*
X-73996Y144394D01*
X-74437Y144835D01*
X-76100Y145524D01*
X-77900D01*
X-79563Y144835D01*
X-80835Y143563D01*
X-81524Y141900D01*
Y140100D01*
X-80835Y138437D01*
X-79563Y137165D01*
X-77900Y136476D01*
X-76100D01*
X-74437Y137165D01*
X-73996Y137606D01*
X-73000Y138319D01*
X-72004Y137606D01*
X-71563Y137165D01*
X-69900Y136476D01*
X-68100D01*
X-66437Y137165D01*
X-65165Y138437D01*
X-64476Y140100D01*
Y141900D01*
X-65165Y143563D01*
X-66437Y144835D01*
X-68100Y145524D01*
D02*
G37*
G36*
X5900Y146524D02*
X4100D01*
X2437Y145835D01*
X1165Y144563D01*
X476Y142900D01*
Y141100D01*
X1165Y139437D01*
X2437Y138165D01*
X4100Y137476D01*
X5900D01*
X7563Y138165D01*
X8835Y139437D01*
X9524Y141100D01*
Y142900D01*
X8835Y144563D01*
X7563Y145835D01*
X5900Y146524D01*
D02*
G37*
G36*
X-49100Y138524D02*
X-50900D01*
X-52563Y137835D01*
X-53835Y136563D01*
X-54524Y134900D01*
Y133100D01*
X-53835Y131437D01*
X-52563Y130165D01*
X-50900Y129476D01*
X-49100D01*
X-47437Y130165D01*
X-46165Y131437D01*
X-45476Y133100D01*
Y134900D01*
X-46165Y136563D01*
X-47437Y137835D01*
X-49100Y138524D01*
D02*
G37*
G36*
X-24600Y133024D02*
X-26400D01*
X-28063Y132335D01*
X-29335Y131063D01*
X-30024Y129400D01*
Y127600D01*
X-29335Y125937D01*
X-28063Y124665D01*
X-26400Y123976D01*
X-24600D01*
X-22937Y124665D01*
X-21665Y125937D01*
X-20976Y127600D01*
Y129400D01*
X-21665Y131063D01*
X-22937Y132335D01*
X-24600Y133024D01*
D02*
G37*
G36*
X53900Y121524D02*
X52100D01*
X50437Y120835D01*
X49165Y119563D01*
X48476Y117900D01*
Y116100D01*
X49165Y114437D01*
X50437Y113165D01*
X52100Y112476D01*
X53900D01*
X55563Y113165D01*
X56835Y114437D01*
X57524Y116100D01*
Y117900D01*
X56835Y119563D01*
X55563Y120835D01*
X53900Y121524D01*
D02*
G37*
G36*
X-24600Y120524D02*
X-26400D01*
X-28063Y119835D01*
X-29335Y118563D01*
X-30024Y116900D01*
Y115100D01*
X-29335Y113437D01*
X-28063Y112165D01*
X-26400Y111476D01*
X-24600D01*
X-22937Y112165D01*
X-21665Y113437D01*
X-20976Y115100D01*
Y116900D01*
X-21665Y118563D01*
X-22937Y119835D01*
X-24600Y120524D01*
D02*
G37*
G36*
X-69850Y120274D02*
X-71650D01*
X-73313Y119585D01*
X-74585Y118313D01*
X-75274Y116650D01*
Y114850D01*
X-74585Y113187D01*
X-73313Y111915D01*
X-71650Y111226D01*
X-69850D01*
X-68187Y111915D01*
X-66915Y113187D01*
X-66226Y114850D01*
Y116650D01*
X-66915Y118313D01*
X-68187Y119585D01*
X-69850Y120274D01*
D02*
G37*
G36*
X73900Y109524D02*
X72100D01*
X70437Y108835D01*
X69165Y107563D01*
X68476Y105900D01*
Y104100D01*
X69165Y102437D01*
X70437Y101165D01*
X72100Y100476D01*
X73900D01*
X75563Y101165D01*
X76835Y102437D01*
X77524Y104100D01*
Y105900D01*
X76835Y107563D01*
X75563Y108835D01*
X73900Y109524D01*
D02*
G37*
G36*
X-62070Y107616D02*
X-63870D01*
X-65533Y106927D01*
X-66805Y105655D01*
X-67494Y103992D01*
Y102192D01*
X-66805Y100529D01*
X-65533Y99257D01*
X-63870Y98568D01*
X-62070D01*
X-60407Y99257D01*
X-59135Y100529D01*
X-58446Y102192D01*
Y103992D01*
X-59135Y105655D01*
X-60407Y106927D01*
X-62070Y107616D01*
D02*
G37*
G36*
X-24600Y107524D02*
X-26400D01*
X-28063Y106835D01*
X-29335Y105563D01*
X-30024Y103900D01*
Y102100D01*
X-29335Y100437D01*
X-28063Y99165D01*
X-26400Y98476D01*
X-24600D01*
X-22937Y99165D01*
X-21665Y100437D01*
X-20976Y102100D01*
Y103900D01*
X-21665Y105563D01*
X-22937Y106835D01*
X-24600Y107524D01*
D02*
G37*
G36*
X1650Y97524D02*
X-150D01*
X-1813Y96835D01*
X-3085Y95563D01*
X-3774Y93900D01*
Y92100D01*
X-3085Y90437D01*
X-1813Y89165D01*
X-150Y88476D01*
X1650D01*
X3313Y89165D01*
X4585Y90437D01*
X5274Y92100D01*
Y93900D01*
X4585Y95563D01*
X3313Y96835D01*
X1650Y97524D01*
D02*
G37*
G36*
X-74610Y86470D02*
X-76410D01*
X-78073Y85781D01*
X-79345Y84508D01*
X-80034Y82846D01*
Y81046D01*
X-79345Y79383D01*
X-78073Y78111D01*
X-76410Y77422D01*
X-74610D01*
X-72947Y78111D01*
X-71675Y79383D01*
X-70986Y81046D01*
Y82846D01*
X-71675Y84508D01*
X-72947Y85781D01*
X-74610Y86470D01*
D02*
G37*
G36*
X-48850Y95024D02*
X-50650D01*
X-52313Y94335D01*
X-53585Y93063D01*
X-54274Y91400D01*
Y89600D01*
X-53585Y87937D01*
X-52313Y86665D01*
X-50650Y85976D01*
X-50824Y84524D01*
X-50900D01*
X-52563Y83835D01*
X-53835Y82563D01*
X-54524Y80900D01*
Y79100D01*
X-53835Y77437D01*
X-52563Y76165D01*
X-50900Y75476D01*
X-49100D01*
X-47437Y76165D01*
X-46500Y77102D01*
X-45563Y76165D01*
X-43900Y75476D01*
X-42100D01*
X-40437Y76165D01*
X-39165Y77437D01*
X-38476Y79100D01*
Y80900D01*
X-39165Y82563D01*
X-40437Y83835D01*
X-42100Y84524D01*
X-43900D01*
X-45563Y83835D01*
X-46500Y82898D01*
X-47437Y83835D01*
X-49100Y84524D01*
X-48926Y85976D01*
X-48850D01*
X-47187Y86665D01*
X-45915Y87937D01*
X-45226Y89600D01*
Y91400D01*
X-45915Y93063D01*
X-47187Y94335D01*
X-48850Y95024D01*
D02*
G37*
G36*
X77900Y81524D02*
X76100D01*
X74437Y80835D01*
X73165Y79563D01*
X72476Y77900D01*
Y76100D01*
X73165Y74437D01*
X74437Y73165D01*
X76100Y72476D01*
X77900D01*
X79563Y73165D01*
X80835Y74437D01*
X81524Y76100D01*
Y77900D01*
X80835Y79563D01*
X79563Y80835D01*
X77900Y81524D01*
D02*
G37*
G36*
X-348Y73298D02*
X-2148D01*
X-3811Y72609D01*
X-5083Y71337D01*
X-5772Y69674D01*
Y67874D01*
X-5083Y66211D01*
X-3811Y64939D01*
X-2148Y64250D01*
X-348D01*
X1315Y64939D01*
X2587Y66211D01*
X3276Y67874D01*
Y69674D01*
X2587Y71337D01*
X1315Y72609D01*
X-348Y73298D01*
D02*
G37*
G36*
X24150Y90524D02*
X22350D01*
X20687Y89835D01*
X19415Y88563D01*
X18726Y86900D01*
Y85100D01*
X19350Y83593D01*
Y82157D01*
X18726Y80650D01*
Y78850D01*
X19415Y77187D01*
X20108Y76495D01*
X20517Y75500D01*
X20108Y74505D01*
X19415Y73813D01*
X18726Y72150D01*
Y70350D01*
X19350Y68843D01*
Y67407D01*
X18726Y65900D01*
Y64100D01*
X19415Y62437D01*
X20687Y61165D01*
X22350Y60476D01*
X24150D01*
X25813Y61165D01*
X27085Y62437D01*
X27774Y64100D01*
Y65900D01*
X27150Y67407D01*
Y68843D01*
X27774Y70350D01*
Y72150D01*
X27085Y73813D01*
X26393Y74505D01*
X25983Y75500D01*
X26393Y76495D01*
X27085Y77187D01*
X27774Y78850D01*
Y80650D01*
X27150Y82157D01*
Y83593D01*
X27774Y85100D01*
Y86900D01*
X27085Y88563D01*
X25813Y89835D01*
X24150Y90524D01*
D02*
G37*
G36*
X49900Y49774D02*
X48100D01*
X46437Y49085D01*
X45165Y47813D01*
X44476Y46150D01*
Y44350D01*
X45165Y42687D01*
X46437Y41415D01*
X48100Y40726D01*
X49900D01*
X51563Y41415D01*
X52835Y42687D01*
X53524Y44350D01*
Y46150D01*
X52835Y47813D01*
X51563Y49085D01*
X49900Y49774D01*
D02*
G37*
G36*
X-18100Y43524D02*
X-19900D01*
X-21563Y42835D01*
X-22835Y41563D01*
X-23524Y39900D01*
Y38100D01*
X-22835Y36437D01*
X-21563Y35165D01*
X-19900Y34476D01*
X-18100D01*
X-16437Y35165D01*
X-15165Y36437D01*
X-14476Y38100D01*
Y39900D01*
X-15165Y41563D01*
X-16437Y42835D01*
X-18100Y43524D01*
D02*
G37*
G36*
X18448Y42592D02*
X16648D01*
X14985Y41903D01*
X13713Y40631D01*
X13024Y38968D01*
Y37168D01*
X13713Y35505D01*
X14985Y34233D01*
X16648Y33544D01*
X18448D01*
X20111Y34233D01*
X21383Y35505D01*
X22072Y37168D01*
Y38968D01*
X21383Y40631D01*
X20111Y41903D01*
X18448Y42592D01*
D02*
G37*
G36*
X-75024Y39290D02*
X-76824D01*
X-78487Y38601D01*
X-79759Y37329D01*
X-80448Y35666D01*
Y33866D01*
X-79759Y32203D01*
X-78487Y30931D01*
X-76824Y30242D01*
X-75024D01*
X-73361Y30931D01*
X-72089Y32203D01*
X-71400Y33866D01*
Y35666D01*
X-72089Y37329D01*
X-73361Y38601D01*
X-75024Y39290D01*
D02*
G37*
G36*
X28900Y34524D02*
X27100D01*
X25437Y33835D01*
X24165Y32563D01*
X23476Y30900D01*
Y29100D01*
X24165Y27437D01*
X25437Y26165D01*
X27100Y25476D01*
X28900D01*
X30563Y26165D01*
X31835Y27437D01*
X32524Y29100D01*
Y30900D01*
X31835Y32563D01*
X30563Y33835D01*
X28900Y34524D01*
D02*
G37*
G36*
X71424Y16653D02*
X69624D01*
X67961Y15965D01*
X66689Y14692D01*
X66000Y13029D01*
Y11230D01*
X66689Y9567D01*
X67961Y8294D01*
X69624Y7606D01*
X71424D01*
X73087Y8294D01*
X74359Y9567D01*
X75048Y11230D01*
Y13029D01*
X74359Y14692D01*
X73087Y15965D01*
X71424Y16653D01*
D02*
G37*
G36*
X-66134Y2206D02*
X-67934D01*
X-69597Y1517D01*
X-70869Y245D01*
X-71558Y-1418D01*
Y-3218D01*
X-70869Y-4881D01*
X-69597Y-6153D01*
X-67934Y-6842D01*
X-66134D01*
X-64471Y-6153D01*
X-63199Y-4881D01*
X-62510Y-3218D01*
Y-1418D01*
X-63199Y245D01*
X-64471Y1517D01*
X-66134Y2206D01*
D02*
G37*
G36*
X71280Y-7731D02*
X69480D01*
X67817Y-8419D01*
X66545Y-9692D01*
X65856Y-11355D01*
Y-13154D01*
X66545Y-14817D01*
X67817Y-16090D01*
X69480Y-16779D01*
X71280D01*
X72943Y-16090D01*
X74215Y-14817D01*
X74904Y-13154D01*
Y-11355D01*
X74215Y-9692D01*
X72943Y-8419D01*
X71280Y-7731D01*
D02*
G37*
G36*
X24776Y-28496D02*
X22976D01*
X21313Y-29185D01*
X20041Y-30457D01*
X19748Y-31165D01*
X18098D01*
X17805Y-30457D01*
X16533Y-29185D01*
X14870Y-28496D01*
X13070D01*
X11407Y-29185D01*
X10135Y-30457D01*
X9446Y-32120D01*
Y-33920D01*
X10135Y-35583D01*
X11407Y-36855D01*
X13070Y-37544D01*
X14870D01*
X16533Y-36855D01*
X17805Y-35583D01*
X18098Y-34875D01*
X19748D01*
X20041Y-35583D01*
X21313Y-36855D01*
X22976Y-37544D01*
X24776D01*
X26439Y-36855D01*
X27711Y-35583D01*
X28400Y-33920D01*
Y-32120D01*
X27711Y-30457D01*
X26439Y-29185D01*
X24776Y-28496D01*
D02*
G37*
G36*
X-74386Y-27858D02*
X-76186D01*
X-77849Y-28547D01*
X-79121Y-29819D01*
X-79810Y-31482D01*
Y-33282D01*
X-79121Y-34945D01*
X-77849Y-36217D01*
X-76186Y-36906D01*
X-74386D01*
X-72723Y-36217D01*
X-71451Y-34945D01*
X-70762Y-33282D01*
Y-31482D01*
X-71451Y-29819D01*
X-72723Y-28547D01*
X-74386Y-27858D01*
D02*
G37*
G36*
X-3418Y-28496D02*
X-5218D01*
X-6881Y-29185D01*
X-8153Y-30457D01*
X-8842Y-32120D01*
Y-33920D01*
X-8153Y-35583D01*
X-6881Y-36855D01*
X-5218Y-37544D01*
X-3418D01*
X-1755Y-36855D01*
X-483Y-35583D01*
X206Y-33920D01*
Y-32120D01*
X-483Y-30457D01*
X-1755Y-29185D01*
X-3418Y-28496D01*
D02*
G37*
G36*
X83218Y-40466D02*
X81418D01*
X79755Y-41155D01*
X78483Y-42427D01*
X77794Y-44090D01*
Y-45890D01*
X78483Y-47553D01*
X79755Y-48825D01*
X81418Y-49514D01*
X83218D01*
X84881Y-48825D01*
X86153Y-47553D01*
X86842Y-45890D01*
Y-44090D01*
X86153Y-42427D01*
X84881Y-41155D01*
X83218Y-40466D01*
D02*
G37*
G36*
X-44036Y-63072D02*
X-45836D01*
X-47499Y-63761D01*
X-48771Y-65033D01*
X-49460Y-66696D01*
Y-68496D01*
X-48771Y-70159D01*
X-47499Y-71431D01*
X-45836Y-72120D01*
X-44036D01*
X-42373Y-71431D01*
X-41101Y-70159D01*
X-40412Y-68496D01*
Y-66696D01*
X-41101Y-65033D01*
X-42373Y-63761D01*
X-44036Y-63072D01*
D02*
G37*
G36*
X26068Y-63834D02*
X24268D01*
X22605Y-64523D01*
X21333Y-65795D01*
X20644Y-67458D01*
Y-69258D01*
X21333Y-70921D01*
X22605Y-72193D01*
X24268Y-72882D01*
X26068D01*
X27731Y-72193D01*
X29003Y-70921D01*
X29692Y-69258D01*
Y-67458D01*
X29003Y-65795D01*
X27731Y-64523D01*
X26068Y-63834D01*
D02*
G37*
G36*
X-10762Y-88472D02*
X-12562D01*
X-14225Y-89161D01*
X-15497Y-90433D01*
X-16186Y-92096D01*
Y-93896D01*
X-15497Y-95559D01*
X-14225Y-96831D01*
X-12562Y-97520D01*
X-10762D01*
X-9099Y-96831D01*
X-7827Y-95559D01*
X-7138Y-93896D01*
Y-92096D01*
X-7827Y-90433D01*
X-9099Y-89161D01*
X-10762Y-88472D01*
D02*
G37*
G36*
X64900Y-109476D02*
X63100D01*
X61437Y-110165D01*
X60165Y-111437D01*
X59476Y-113100D01*
Y-114900D01*
X60165Y-116563D01*
X61437Y-117835D01*
X63100Y-118524D01*
X64900D01*
X66563Y-117835D01*
X67835Y-116563D01*
X68524Y-114900D01*
Y-113100D01*
X67835Y-111437D01*
X66563Y-110165D01*
X64900Y-109476D01*
D02*
G37*
G36*
X-59026Y-228476D02*
X-60826D01*
X-62489Y-229165D01*
X-63761Y-230437D01*
X-64450Y-232100D01*
Y-233900D01*
X-63761Y-235563D01*
X-62489Y-236835D01*
X-60826Y-237524D01*
X-59026D01*
X-57363Y-236835D01*
X-56091Y-235563D01*
X-55402Y-233900D01*
Y-232100D01*
X-56091Y-230437D01*
X-57363Y-229165D01*
X-59026Y-228476D01*
D02*
G37*
G36*
X-53100Y-267476D02*
X-54900D01*
X-56563Y-268165D01*
X-57835Y-269437D01*
X-58524Y-271100D01*
Y-272900D01*
X-57835Y-274563D01*
X-56563Y-275835D01*
X-54900Y-276524D01*
X-53100D01*
X-51437Y-275835D01*
X-50165Y-274563D01*
X-49476Y-272900D01*
Y-271100D01*
X-50165Y-269437D01*
X-51437Y-268165D01*
X-53100Y-267476D01*
D02*
G37*
G36*
X-67100D02*
X-68900D01*
X-70563Y-268165D01*
X-71835Y-269437D01*
X-72524Y-271100D01*
Y-272900D01*
X-71835Y-274563D01*
X-70563Y-275835D01*
X-68900Y-276524D01*
X-67100D01*
X-65437Y-275835D01*
X-64165Y-274563D01*
X-63476Y-272900D01*
Y-271100D01*
X-64165Y-269437D01*
X-65437Y-268165D01*
X-67100Y-267476D01*
D02*
G37*
G36*
X-45600Y-326226D02*
X-47400D01*
X-49063Y-326915D01*
X-50335Y-328187D01*
X-51024Y-329850D01*
Y-331650D01*
X-50335Y-333313D01*
X-49063Y-334585D01*
X-47400Y-335274D01*
X-45600D01*
X-43937Y-334585D01*
X-42665Y-333313D01*
X-41976Y-331650D01*
Y-329850D01*
X-42665Y-328187D01*
X-43937Y-326915D01*
X-45600Y-326226D01*
D02*
G37*
G36*
X59066Y-339900D02*
X57266D01*
X55603Y-340589D01*
X54331Y-341861D01*
X53642Y-343524D01*
Y-345324D01*
X54331Y-346987D01*
X55603Y-348259D01*
X57266Y-348948D01*
X59066D01*
X60729Y-348259D01*
X62001Y-346987D01*
X62690Y-345324D01*
Y-343524D01*
X62001Y-341861D01*
X60729Y-340589D01*
X59066Y-339900D01*
D02*
G37*
G36*
X77900Y-356476D02*
X76100D01*
X74437Y-357165D01*
X73165Y-358437D01*
X72476Y-360100D01*
Y-361900D01*
X73165Y-363563D01*
X74437Y-364835D01*
X76100Y-365524D01*
X77900D01*
X79563Y-364835D01*
X80835Y-363563D01*
X81524Y-361900D01*
Y-360100D01*
X80835Y-358437D01*
X79563Y-357165D01*
X77900Y-356476D01*
D02*
G37*
%LPD*%
D14*
X-62000Y369500D02*
X-56500D01*
X-15000Y331000D02*
X-6000D01*
X31000Y294000D01*
X63000D01*
X12750Y352180D02*
Y353226D01*
X18764Y359240D01*
X32110D01*
X35875Y363005D01*
Y372535D01*
X37000Y373660D01*
Y385000D01*
X33000Y389000D02*
X37000Y385000D01*
X-25500Y389000D02*
X33000D01*
X-33500Y381000D02*
X-25500Y389000D01*
X-45000Y381000D02*
X-33500D01*
X-56500Y369500D02*
X-45000Y381000D01*
D60*
X43250Y395780D02*
D03*
X-43250D02*
D03*
D61*
X43250Y361980D02*
D03*
X-43250D02*
D03*
D62*
X29750Y352180D02*
D03*
X21250D02*
D03*
X12750D02*
D03*
X4250D02*
D03*
X-4250D02*
D03*
X-12750D02*
D03*
X-21250D02*
D03*
X-29750D02*
D03*
Y365680D02*
D03*
X-21250D02*
D03*
X-12750D02*
D03*
X-4250D02*
D03*
X4250D02*
D03*
X12750D02*
D03*
X21250D02*
D03*
X29750D02*
D03*
D76*
X77000Y-373250D02*
D03*
X68500Y-344250D02*
D03*
X0Y-367000D02*
D03*
X-70250Y-320750D02*
D03*
X-46500Y-330750D02*
D03*
X7750Y133000D02*
D03*
X5000Y142000D02*
D03*
X13500Y0D02*
D03*
X-13500D02*
D03*
X0Y-13500D02*
D03*
Y13500D02*
D03*
X-13500D02*
D03*
X13500D02*
D03*
Y-13500D02*
D03*
X-13500D02*
D03*
X0Y0D02*
D03*
X49000Y45250D02*
D03*
X38000Y226000D02*
D03*
Y217000D02*
D03*
X23250Y65000D02*
D03*
Y71250D02*
D03*
Y79750D02*
D03*
Y86000D02*
D03*
X-69000Y141000D02*
D03*
X750Y93000D02*
D03*
X-49750Y90500D02*
D03*
X-25500Y128500D02*
D03*
Y116000D02*
D03*
Y103000D02*
D03*
X-70750Y115750D02*
D03*
Y128500D02*
D03*
X-77000Y141000D02*
D03*
X52000Y76000D02*
D03*
X56000Y88000D02*
D03*
X69000Y43000D02*
D03*
X71000Y68000D02*
D03*
X77000Y77000D02*
D03*
X-9522Y302626D02*
D03*
X-23000Y300000D02*
D03*
X8626Y294022D02*
D03*
X-7022Y284426D02*
D03*
X-33000Y276000D02*
D03*
X63000Y294000D02*
D03*
X40000Y191000D02*
D03*
X-15000Y331000D02*
D03*
X49250Y329750D02*
D03*
X-56088Y359918D02*
D03*
X-8000Y149000D02*
D03*
X-50000Y134000D02*
D03*
Y80000D02*
D03*
X-43000D02*
D03*
X-75510Y81946D02*
D03*
X-59000Y68000D02*
D03*
X73000Y114000D02*
D03*
X-62000Y369500D02*
D03*
X19000Y-157000D02*
D03*
X47000Y-102000D02*
D03*
Y-128516D02*
D03*
X-10000Y-102305D02*
D03*
Y-129000D02*
D03*
X64000Y-114000D02*
D03*
X-68000Y-272000D02*
D03*
X-54000D02*
D03*
X77000Y-361000D02*
D03*
X61000Y396000D02*
D03*
X28000Y30000D02*
D03*
X53000Y117000D02*
D03*
X-53684Y304514D02*
D03*
X-19000Y39000D02*
D03*
X17780Y221488D02*
D03*
X44450D02*
D03*
X-1270Y381508D02*
D03*
X-64262Y181102D02*
D03*
X-53340Y183642D02*
D03*
X-50038Y178308D02*
D03*
X8978Y284526D02*
D03*
X-82804Y196850D02*
D03*
X-17000Y318000D02*
D03*
X17780Y25400D02*
D03*
X-4318Y-33020D02*
D03*
X4572D02*
D03*
X23876D02*
D03*
X13970D02*
D03*
X-508Y197358D02*
D03*
X58166Y-344424D02*
D03*
X-72000Y-294000D02*
D03*
X34000Y-267000D02*
D03*
X-34780Y-233000D02*
D03*
X-59926D02*
D03*
X58166Y166878D02*
D03*
X31264Y382746D02*
D03*
X-60684Y304514D02*
D03*
X-56620Y178276D02*
D03*
X-18656Y236692D02*
D03*
X-46080Y248380D02*
D03*
X-20514Y198676D02*
D03*
X-61954Y398406D02*
D03*
X-61000Y330000D02*
D03*
X79524Y12160D02*
D03*
Y-12224D02*
D03*
X73000Y105000D02*
D03*
X6118Y85058D02*
D03*
X64538Y-61754D02*
D03*
X74190D02*
D03*
X82318Y-44990D02*
D03*
X17548Y38068D02*
D03*
X70524Y12129D02*
D03*
X70380Y-12255D02*
D03*
X26438Y-93250D02*
D03*
X25168Y-68358D02*
D03*
Y-76486D02*
D03*
X-3280Y-67088D02*
D03*
X-20552Y-92996D02*
D03*
X-82906Y-32382D02*
D03*
X-75286D02*
D03*
X-83544Y4794D02*
D03*
X-67034Y-2318D02*
D03*
X-83544Y26384D02*
D03*
X-75924Y34766D02*
D03*
X-1248Y68774D02*
D03*
X-5566Y166338D02*
D03*
X-62970Y103092D02*
D03*
X-11662Y-92996D02*
D03*
X-43158Y-78010D02*
D03*
X-44936Y-67596D02*
D03*
D77*
X9000Y252000D02*
D03*
X-8000D02*
D03*
D78*
X23250Y82250D02*
D03*
Y67500D02*
D03*
D79*
X-114300Y393700D02*
D03*
Y368300D02*
D03*
Y342900D02*
D03*
Y317500D02*
D03*
Y292100D02*
D03*
Y266700D02*
D03*
Y241300D02*
D03*
Y215900D02*
D03*
Y190500D02*
D03*
Y165100D02*
D03*
Y139700D02*
D03*
Y114300D02*
D03*
Y88900D02*
D03*
Y63500D02*
D03*
Y38100D02*
D03*
Y12700D02*
D03*
Y-12700D02*
D03*
Y-38100D02*
D03*
Y-63500D02*
D03*
Y-88900D02*
D03*
X114300D02*
D03*
Y-63500D02*
D03*
Y-38100D02*
D03*
Y-12700D02*
D03*
Y12700D02*
D03*
Y38100D02*
D03*
Y63500D02*
D03*
Y88900D02*
D03*
Y114300D02*
D03*
Y139700D02*
D03*
Y165100D02*
D03*
Y190500D02*
D03*
Y215900D02*
D03*
Y241300D02*
D03*
Y266700D02*
D03*
Y292100D02*
D03*
Y317500D02*
D03*
Y342900D02*
D03*
Y368300D02*
D03*
Y393700D02*
D03*
Y-114300D02*
D03*
Y-139700D02*
D03*
Y-165100D02*
D03*
Y-190500D02*
D03*
Y-215900D02*
D03*
Y-241300D02*
D03*
Y-266700D02*
D03*
Y-292100D02*
D03*
Y-317500D02*
D03*
Y-342900D02*
D03*
Y-368300D02*
D03*
Y-393700D02*
D03*
X-114300D02*
D03*
Y-368300D02*
D03*
Y-342900D02*
D03*
Y-317500D02*
D03*
Y-292100D02*
D03*
Y-266700D02*
D03*
Y-241300D02*
D03*
Y-215900D02*
D03*
Y-190500D02*
D03*
Y-165100D02*
D03*
Y-139700D02*
D03*
Y-114300D02*
D03*
M02*
