G04*
G04 #@! TF.GenerationSoftware,Altium Limited,Altium Designer,25.5.2 (35)*
G04*
G04 Layer_Color=16711935*
%FSLAX44Y44*%
%MOMM*%
G71*
G04*
G04 #@! TF.SameCoordinates,D8F344CF-23F0-4092-AEBD-71A9FCF73610*
G04*
G04*
G04 #@! TF.FilePolarity,Positive*
G04*
G01*
G75*
%ADD11C,0.1000*%
%ADD97C,0.0500*%
%ADD98C,0.1270*%
G36*
X-3500Y314000D02*
X-8000D01*
Y322000D01*
X-3500D01*
Y314000D01*
D02*
G37*
G36*
X75050Y-260000D02*
X69050D01*
Y-245500D01*
X75050D01*
Y-260000D01*
D02*
G37*
G36*
X64250Y-378950D02*
X59750D01*
Y-373875D01*
X64250D01*
Y-378950D01*
D02*
G37*
G36*
X-2608Y220644D02*
X-13108D01*
Y227144D01*
X-2608D01*
Y220644D01*
D02*
G37*
G36*
X-66000Y309000D02*
X-77500D01*
Y319500D01*
X-66000D01*
Y309000D01*
D02*
G37*
G36*
X17156Y172588D02*
X6656D01*
Y179088D01*
X17156D01*
Y172588D01*
D02*
G37*
G36*
X44000Y309000D02*
X32500D01*
Y319500D01*
X44000D01*
Y309000D01*
D02*
G37*
G36*
X-20250Y283250D02*
X-26750D01*
Y293750D01*
X-20250D01*
Y283250D01*
D02*
G37*
G36*
X-59750Y-373875D02*
Y-378950D01*
X-64250D01*
Y-373875D01*
X-59750D01*
D02*
G37*
G36*
X-30950Y-260000D02*
X-36950D01*
Y-245500D01*
X-30950D01*
Y-260000D01*
D02*
G37*
%LPC*%
G36*
X-4313Y319594D02*
X-4956D01*
Y318634D01*
X-5474Y318098D01*
X-6355Y319594D01*
X-5692D01*
X-7187D01*
X-5919Y317646D01*
X-7125Y316406D01*
X-6258D01*
X-4956Y317822D01*
Y316406D01*
X-5824D01*
X-4313D01*
Y319594D01*
D02*
G37*
G36*
X73032Y-252322D02*
X71068D01*
Y-253178D01*
X73032D01*
Y-252873D01*
X72999Y-252861D01*
X72966Y-252845D01*
X72907Y-252810D01*
X72854Y-252772D01*
X72806Y-252731D01*
X72770Y-252695D01*
X72752Y-252680D01*
X72740Y-252665D01*
X72729Y-252652D01*
X72722Y-252645D01*
X72719Y-252640D01*
X72717Y-252637D01*
X72671Y-252574D01*
X72633Y-252515D01*
X72600Y-252462D01*
X72577Y-252416D01*
X72559Y-252378D01*
X72552Y-252360D01*
X72547Y-252347D01*
X72541Y-252337D01*
X72539Y-252330D01*
X72536Y-252325D01*
Y-252322D01*
X73032D01*
D02*
G37*
%LPD*%
G36*
X72234Y-252421D02*
X72280Y-252515D01*
X72303Y-252556D01*
X72326Y-252596D01*
X72348Y-252634D01*
X72371Y-252668D01*
X72394Y-252698D01*
X72412Y-252726D01*
X72432Y-252749D01*
X72448Y-252769D01*
X72460Y-252784D01*
X72470Y-252794D01*
X72475Y-252802D01*
X72478Y-252805D01*
X71068D01*
Y-252322D01*
X72196D01*
X72234Y-252421D01*
D02*
G37*
%LPC*%
G36*
X63278Y-375261D02*
X60722D01*
Y-377564D01*
X63278D01*
Y-375261D01*
D02*
G37*
%LPD*%
G36*
X61716Y-376277D02*
X60722Y-375311D01*
Y-375261D01*
X63278D01*
X61716Y-376277D01*
D02*
G37*
G36*
X63278Y-377049D02*
X62508D01*
X62079Y-376634D01*
X63278Y-375928D01*
Y-377049D01*
D02*
G37*
G36*
X61857D02*
X60722D01*
Y-376006D01*
X61857Y-377049D01*
D02*
G37*
%LPC*%
G36*
X-7430Y224876D02*
Y223748D01*
X-7529Y223710D01*
X-7623Y223664D01*
X-7664Y223641D01*
X-7704Y223618D01*
X-7742Y223596D01*
X-7775Y223573D01*
X-7806Y223550D01*
X-7834Y223532D01*
X-7857Y223512D01*
X-7877Y223496D01*
X-7892Y223484D01*
X-7902Y223474D01*
X-7910Y223468D01*
X-7913Y223466D01*
Y224876D01*
X-7430D01*
X-8286D01*
Y222912D01*
X-7981D01*
X-7969Y222945D01*
X-7953Y222978D01*
X-7918Y223037D01*
X-7880Y223090D01*
X-7839Y223138D01*
X-7803Y223174D01*
X-7788Y223192D01*
X-7773Y223204D01*
X-7760Y223214D01*
X-7753Y223222D01*
X-7747Y223225D01*
X-7745Y223227D01*
X-7681Y223273D01*
X-7623Y223311D01*
X-7570Y223344D01*
X-7524Y223367D01*
X-7486Y223385D01*
X-7468Y223392D01*
X-7455Y223397D01*
X-7445Y223402D01*
X-7438Y223405D01*
X-7433Y223407D01*
X-7430D01*
Y223225D01*
Y223407D01*
Y224876D01*
D02*
G37*
G36*
X-70245Y316854D02*
X-73255D01*
X-71736D01*
X-71764Y316847D01*
X-71833D01*
X-71847Y316840D01*
X-71854D01*
X-71896Y316826D01*
X-71909Y316819D01*
X-71916D01*
X-71944Y316812D01*
X-71951Y316805D01*
X-73144Y316042D01*
X-73185Y316008D01*
X-73192Y315994D01*
X-73199Y315987D01*
X-73227Y315952D01*
X-73234Y315938D01*
Y315931D01*
X-73241Y315911D01*
X-73248Y315883D01*
X-73255Y315862D01*
Y315675D01*
X-73248Y315626D01*
Y315599D01*
Y315585D01*
X-73241Y315550D01*
X-73227Y315522D01*
X-73220Y315509D01*
X-73213Y315502D01*
X-73192Y315488D01*
X-73165Y315481D01*
X-73137D01*
X-73095Y315495D01*
X-73054Y315515D01*
X-73026Y315529D01*
X-73012Y315536D01*
X-72014Y316133D01*
Y312201D01*
X-73116D01*
X-73130Y312194D01*
X-73144Y312187D01*
X-73151Y312180D01*
X-73185Y312146D01*
X-73192Y312132D01*
X-73199Y312125D01*
X-73206Y312097D01*
X-73220Y312069D01*
X-73227Y312041D01*
Y312034D01*
X-73234Y311993D01*
Y311958D01*
Y311931D01*
Y311917D01*
Y311861D01*
X-73227Y311820D01*
Y311792D01*
Y311785D01*
X-73213Y311750D01*
X-73206Y311723D01*
X-73192Y311709D01*
Y311702D01*
X-73165Y311674D01*
X-73151Y311660D01*
X-73109Y311646D01*
X-73255D01*
X-70391D01*
X-70356Y311653D01*
X-70342Y311660D01*
X-70308Y311688D01*
X-70294Y311695D01*
Y311702D01*
X-70266Y311757D01*
X-70259Y311778D01*
Y311785D01*
X-70252Y311826D01*
X-70245Y311875D01*
Y311965D01*
X-70252Y312000D01*
X-70259Y312028D01*
Y312034D01*
X-70266Y312069D01*
X-70273Y312104D01*
X-70280Y312118D01*
X-70287Y312125D01*
X-70321Y312166D01*
X-70328Y312173D01*
X-70335Y312180D01*
X-70356Y312194D01*
X-70370Y312201D01*
X-71327D01*
Y316736D01*
X-71334Y316771D01*
X-71341Y316784D01*
X-71355Y316798D01*
X-71369Y316812D01*
X-71382Y316819D01*
X-71389D01*
X-71417Y316826D01*
X-71452Y316833D01*
X-71480Y316840D01*
X-71493D01*
X-71542Y316847D01*
X-71597Y316854D01*
X-70245D01*
D02*
G37*
G36*
X12334Y176820D02*
X12029D01*
X12017Y176787D01*
X12001Y176754D01*
X11966Y176695D01*
X11928Y176642D01*
X11887Y176594D01*
X11851Y176558D01*
X11836Y176540D01*
X11821Y176528D01*
X11808Y176518D01*
X11801Y176510D01*
X11796Y176507D01*
X11793Y176505D01*
X11729Y176459D01*
X11671Y176421D01*
X11618Y176388D01*
X11572Y176365D01*
X11534Y176347D01*
X11516Y176340D01*
X11503Y176335D01*
X11493Y176329D01*
X11486Y176327D01*
X11480Y176324D01*
X11478D01*
Y175984D01*
X11577Y176022D01*
X11671Y176068D01*
X11712Y176091D01*
X11752Y176114D01*
X11790Y176136D01*
X11823Y176159D01*
X11854Y176182D01*
X11882Y176200D01*
X11905Y176220D01*
X11925Y176236D01*
X11940Y176248D01*
X11950Y176258D01*
X11958Y176264D01*
X11961Y176266D01*
Y174856D01*
X11478D01*
D01*
X12334D01*
Y176820D01*
D02*
G37*
G36*
X39755Y316854D02*
X36745D01*
Y311646D01*
D01*
Y315675D01*
X36752Y315626D01*
Y315599D01*
Y315585D01*
X36759Y315550D01*
X36773Y315522D01*
X36780Y315509D01*
X36787Y315502D01*
X36808Y315488D01*
X36835Y315481D01*
X36863D01*
X36905Y315495D01*
X36946Y315515D01*
X36974Y315529D01*
X36988Y315536D01*
X37987Y316133D01*
Y312201D01*
X36884D01*
X36870Y312194D01*
X36856Y312187D01*
X36849Y312180D01*
X36815Y312146D01*
X36808Y312132D01*
X36801Y312125D01*
X36794Y312097D01*
X36780Y312069D01*
X36773Y312041D01*
Y312034D01*
X36766Y311993D01*
Y311958D01*
Y311931D01*
Y311917D01*
Y311861D01*
X36773Y311820D01*
Y311792D01*
Y311785D01*
X36787Y311750D01*
X36794Y311723D01*
X36808Y311709D01*
Y311702D01*
X36835Y311674D01*
X36849Y311660D01*
X36891Y311646D01*
X36745D01*
X39609D01*
X39644Y311653D01*
X39658Y311660D01*
X39692Y311688D01*
X39706Y311695D01*
Y311702D01*
X39734Y311757D01*
X39741Y311778D01*
Y311785D01*
X39748Y311826D01*
X39755Y311875D01*
Y311965D01*
X39748Y312000D01*
X39741Y312028D01*
Y312034D01*
X39734Y312069D01*
X39727Y312104D01*
X39720Y312118D01*
X39713Y312125D01*
X39678Y312166D01*
X39671Y312173D01*
X39665Y312180D01*
X39644Y312194D01*
X39630Y312201D01*
X38673D01*
Y316736D01*
X38666Y316771D01*
X38659Y316784D01*
X38645Y316798D01*
X38631Y316812D01*
X38617Y316819D01*
X38611D01*
X38583Y316826D01*
X38548Y316833D01*
X38520Y316840D01*
X38507D01*
X38458Y316847D01*
X38403Y316854D01*
X39755D01*
D02*
G37*
%LPD*%
G36*
X38236Y316847D02*
X38167D01*
X38153Y316840D01*
X38146D01*
X38104Y316826D01*
X38091Y316819D01*
X38084D01*
X38056Y316812D01*
X38049Y316805D01*
X36856Y316042D01*
X36815Y316008D01*
X36808Y315994D01*
X36801Y315987D01*
X36773Y315952D01*
X36766Y315938D01*
Y315931D01*
X36759Y315911D01*
X36752Y315883D01*
X36745Y315862D01*
Y316854D01*
X38264D01*
X38236Y316847D01*
D02*
G37*
%LPC*%
G36*
X-23014Y288928D02*
X-23354D01*
X-23316Y288829D01*
X-23270Y288735D01*
X-23247Y288694D01*
X-23224Y288654D01*
X-23201Y288616D01*
X-23179Y288583D01*
X-23156Y288552D01*
X-23138Y288524D01*
X-23118Y288501D01*
X-23103Y288481D01*
X-23090Y288466D01*
X-23080Y288456D01*
X-23075Y288448D01*
X-23072Y288445D01*
X-24482D01*
Y288456D01*
Y288072D01*
X-22518D01*
Y288377D01*
X-22551Y288389D01*
X-22584Y288405D01*
X-22643Y288440D01*
X-22696Y288478D01*
X-22744Y288519D01*
X-22780Y288555D01*
X-22798Y288570D01*
X-22810Y288585D01*
X-22820Y288598D01*
X-22828Y288605D01*
X-22831Y288610D01*
X-22833Y288613D01*
X-22879Y288676D01*
X-22917Y288735D01*
X-22950Y288788D01*
X-22973Y288834D01*
X-22991Y288872D01*
X-22998Y288890D01*
X-23003Y288903D01*
X-23008Y288913D01*
X-23011Y288920D01*
X-23014Y288925D01*
Y288928D01*
D02*
G37*
G36*
X-60722Y-375261D02*
X-63278D01*
Y-377564D01*
X-60722D01*
Y-375261D01*
D02*
G37*
%LPD*%
G36*
X-62284Y-376277D02*
X-63278Y-375311D01*
Y-375261D01*
X-60722D01*
X-62284Y-376277D01*
D02*
G37*
G36*
X-60722Y-377049D02*
X-61492D01*
X-61921Y-376634D01*
X-60722Y-375928D01*
Y-377049D01*
D02*
G37*
G36*
X-62143D02*
X-63278D01*
Y-376006D01*
X-62143Y-377049D01*
D02*
G37*
%LPC*%
G36*
X-32968Y-252322D02*
D01*
Y-252873D01*
X-33001Y-252861D01*
X-33034Y-252845D01*
X-33093Y-252810D01*
X-33146Y-252772D01*
X-33194Y-252731D01*
X-33230Y-252695D01*
X-33248Y-252680D01*
X-33260Y-252665D01*
X-33270Y-252652D01*
X-33278Y-252645D01*
X-33281Y-252640D01*
X-33283Y-252637D01*
X-33329Y-252574D01*
X-33367Y-252515D01*
X-33400Y-252462D01*
X-33423Y-252416D01*
X-33441Y-252378D01*
X-33448Y-252360D01*
X-33453Y-252347D01*
X-33458Y-252337D01*
X-33461Y-252330D01*
X-33464Y-252325D01*
Y-252322D01*
X-32968D01*
X-34932D01*
X-33804D01*
X-33766Y-252421D01*
X-33720Y-252515D01*
X-33697Y-252556D01*
X-33674Y-252596D01*
X-33651Y-252634D01*
X-33629Y-252667D01*
X-33606Y-252698D01*
X-33588Y-252726D01*
X-33568Y-252749D01*
X-33552Y-252769D01*
X-33540Y-252784D01*
X-33530Y-252794D01*
X-33524Y-252802D01*
X-33522Y-252805D01*
X-34932D01*
Y-253178D01*
X-32968D01*
Y-252322D01*
D02*
G37*
%LPD*%
D11*
X-8001Y313999D02*
X7999Y313999D01*
X-8001Y321999D02*
X-8001Y313999D01*
X-8001Y321999D02*
X7999Y321999D01*
X7999Y313999D02*
X7999Y321999D01*
D97*
X33985Y-365000D02*
G03*
X33985Y-365000I-33985J0D01*
G01*
X59750Y-351050D02*
X59750Y-353500D01*
X59750Y-351050D02*
X64250Y-351050D01*
X59750Y-374250D02*
X64250Y-374250D01*
X64250Y-378950D02*
X64250Y-374250D01*
X59750Y-378950D02*
X64250Y-378950D01*
X59750Y-378950D02*
X59750Y-374250D01*
X55750Y-374000D02*
X55750Y-356000D01*
X68250Y-374000D02*
X68250Y-356000D01*
X55750Y-374000D02*
X68250Y-374000D01*
X55750Y-356000D02*
X68250Y-356000D01*
X64250Y-353500D02*
Y-351050D01*
X64250Y-356000D02*
X64250Y-353500D01*
X59750Y-356000D02*
X64250Y-356000D01*
X59750Y-356000D02*
X59750Y-353500D01*
X-50000Y-50000D02*
X50000D01*
X-50000Y50000D02*
X50000D01*
Y-50000D02*
Y50000D01*
X-50000Y-50000D02*
Y50000D01*
X-26750Y258250D02*
Y268750D01*
X-20250Y258250D02*
X-20250Y268750D01*
X-26750Y258250D02*
X-20250D01*
X-26750Y268750D02*
X-20250Y268750D01*
X-45750Y258250D02*
X-45750Y268750D01*
X-39250Y268750D02*
X-39250Y258250D01*
X-45750Y258250D02*
X-39250Y258250D01*
X-45750Y268750D02*
X-39250Y268750D01*
X-45750Y293750D02*
X-45750Y283250D01*
X-39250Y293750D02*
X-39250Y283250D01*
X-45750Y283250D02*
X-39250Y283250D01*
X-45750Y293750D02*
X-39250Y293750D01*
X-36250Y283250D02*
Y293750D01*
X-29750Y283250D02*
X-29750Y293750D01*
X-36250Y283250D02*
X-29750Y283250D01*
X-36250Y293750D02*
X-29750D01*
X-26750Y283250D02*
Y293750D01*
X-20250Y283250D02*
X-20250Y293750D01*
X-26750Y283250D02*
X-20250Y283250D01*
X-26750Y293750D02*
X-20250D01*
X-18558Y262009D02*
X-18558Y290008D01*
X-47558D02*
X-47558Y262009D01*
X-18558Y262009D01*
X-47558Y290008D02*
X-18558D01*
X-38250Y319500D02*
X-32500D01*
X-32500Y309000D02*
X-32500Y319500D01*
X-44000Y309000D02*
X-32500Y309000D01*
X-44000Y309000D02*
Y319500D01*
X-38250Y319500D01*
X-38250Y335000D02*
X-32500D01*
X-32500Y324500D01*
X-44000Y324500D02*
X-32500Y324500D01*
X-44000Y335000D02*
X-44000Y324500D01*
X-44000Y335000D02*
X-38250Y335000D01*
X-71750D02*
X-66000Y335000D01*
Y324500D02*
Y335000D01*
X-77500Y324500D02*
X-66000Y324500D01*
X-77500Y324500D02*
X-77500Y335000D01*
X-71750Y335000D01*
X-71750Y319500D02*
X-66000D01*
X-66000Y309000D01*
X-77500Y309000D02*
X-66000Y309000D01*
X-77500Y319500D02*
X-77500Y309000D01*
X-77500Y319500D02*
X-71750Y319500D01*
X-76500Y337546D02*
X-33500D01*
Y306454D02*
Y337546D01*
X-76500Y306454D02*
X-33500D01*
X-76500D02*
Y337546D01*
X30950Y-314500D02*
Y-300000D01*
X36950Y-314500D02*
X36950Y-300000D01*
X30950Y-314500D02*
X36950Y-314500D01*
X30950Y-300000D02*
X36950Y-300000D01*
X43650D02*
X43650Y-314500D01*
X49650Y-314500D02*
X49650Y-300000D01*
X43650Y-314500D02*
X49650Y-314500D01*
X43650Y-300000D02*
X49650D01*
X56350Y-314500D02*
Y-300000D01*
X62350Y-314500D02*
X62350Y-300000D01*
X56350Y-314500D02*
X62350D01*
X56350Y-300000D02*
X62350Y-300000D01*
X69050Y-300000D02*
X69050Y-314500D01*
X75050Y-300000D02*
X75050Y-314500D01*
X69050Y-314500D02*
X75050Y-314500D01*
X69050Y-300000D02*
X75050Y-300000D01*
X30950Y-245500D02*
X30950Y-260000D01*
X36950Y-245500D02*
X36950Y-260000D01*
X30950Y-260000D02*
X36950Y-260000D01*
X30950Y-245500D02*
X36950Y-245500D01*
X43650Y-260000D02*
Y-245500D01*
X49650D02*
X49650Y-260000D01*
X43650Y-260000D02*
X49650Y-260000D01*
X43650Y-245500D02*
X49650D01*
X56350Y-260000D02*
X56350Y-245500D01*
X62350Y-260000D02*
Y-245500D01*
X56350Y-260000D02*
X62350Y-260000D01*
X56350Y-245500D02*
X62350D01*
X69050Y-260000D02*
X69050Y-245500D01*
X75050Y-260000D02*
Y-245500D01*
X69050Y-260000D02*
X75050Y-260000D01*
X69050Y-245500D02*
X75050Y-245500D01*
X78001Y-311001D02*
X78001Y-249001D01*
X28001Y-311001D02*
X28001Y-249001D01*
X28001Y-311001D02*
X78001Y-311001D01*
X28001Y-249001D02*
X78001Y-249001D01*
X-75050Y-314500D02*
Y-300000D01*
X-69050Y-314500D02*
X-69050Y-300000D01*
X-75050Y-314500D02*
X-69050Y-314500D01*
X-75050Y-300000D02*
X-69050Y-300000D01*
X-62350D02*
X-62350Y-314500D01*
X-56350Y-314500D02*
X-56350Y-300000D01*
X-62350Y-314500D02*
X-56350Y-314500D01*
X-62350Y-300000D02*
X-56350D01*
X-49650Y-314500D02*
X-49650Y-300000D01*
X-43650Y-300000D02*
X-43650Y-314500D01*
X-49650Y-314500D02*
X-43650Y-314500D01*
X-49650Y-300000D02*
X-43650Y-300000D01*
X-36950Y-314500D02*
X-36950Y-300000D01*
X-30950Y-300000D02*
X-30950Y-314500D01*
X-36950D02*
X-30950D01*
X-36950Y-300000D02*
X-30950Y-300000D01*
X-75050Y-245500D02*
X-75050Y-260000D01*
X-69050Y-245500D02*
X-69050Y-260000D01*
X-75050D02*
X-69050D01*
X-75050Y-245500D02*
X-69050Y-245500D01*
X-62350D02*
X-62350Y-260000D01*
X-56350Y-245500D02*
X-56350Y-260000D01*
X-62350Y-260000D02*
X-56350Y-260000D01*
X-62350Y-245500D02*
X-56350D01*
X-49650Y-260000D02*
X-49650Y-245500D01*
X-43650Y-245500D02*
X-43650Y-260000D01*
X-49650Y-260000D02*
X-43650Y-260000D01*
X-49650Y-245500D02*
X-43650Y-245500D01*
X-36950Y-260000D02*
X-36950Y-245500D01*
X-30950Y-260000D02*
Y-245500D01*
X-36950Y-260000D02*
X-30950Y-260000D01*
X-36950Y-245500D02*
X-30950Y-245500D01*
X-27999Y-311001D02*
X-27999Y-249001D01*
X-77999Y-311001D02*
X-77999Y-249001D01*
X-77999Y-311001D02*
X-27999Y-311001D01*
X-77999Y-249001D02*
X-27999Y-249001D01*
X-64250Y-356000D02*
Y-353500D01*
Y-356000D02*
X-59750Y-356000D01*
X-59750Y-353500D01*
X-59750Y-351050D01*
X-68250Y-356000D02*
X-55750Y-356000D01*
X-68250Y-374000D02*
X-55750Y-374000D01*
X-55750Y-356000D01*
X-68250Y-374000D02*
X-68250Y-356000D01*
X-64250Y-378950D02*
X-64250Y-374250D01*
X-64250Y-378950D02*
X-59750Y-378950D01*
X-59750Y-374250D01*
X-64250D02*
X-59750D01*
X-64250Y-351050D02*
X-59750Y-351050D01*
X-64250Y-353500D02*
Y-351050D01*
X-45000Y-355497D02*
X-45000Y-364998D01*
X-45000Y-355497D02*
X-32750Y-355497D01*
X47000Y-349997D02*
X47000Y-364997D01*
X30500Y-349997D02*
X47000Y-349997D01*
X-45000Y-365000D02*
X-45000Y-374500D01*
X-32750Y-374500D01*
X47000Y-380000D02*
Y-365000D01*
X30500Y-380000D02*
X47000Y-380000D01*
X-76252Y238742D02*
X-46252D01*
X-76252Y208741D02*
Y238742D01*
X-46252Y208741D02*
Y238742D01*
X-76252Y208741D02*
X-46252D01*
X34630Y92552D02*
Y108552D01*
X42630Y92552D02*
Y108552D01*
Y92552D02*
X48630D01*
X28630D02*
Y108552D01*
X48630D01*
Y92552D02*
Y108552D01*
X28630Y92552D02*
X48630D01*
X10398Y180780D02*
X10398Y151780D01*
X38397Y180780D02*
X38397Y151780D01*
X10398D02*
X38397D01*
X10398Y180780D02*
X38397D01*
X6656Y172588D02*
Y179088D01*
X17156Y179088D02*
X17156Y172588D01*
X6656Y179088D02*
X17156Y179088D01*
X6656Y172588D02*
X17156D01*
X6656Y169588D02*
X6656Y163088D01*
X17156D02*
X17156Y169588D01*
X6656Y169588D02*
X17156Y169588D01*
X6656Y163088D02*
X17156D01*
X6656Y153588D02*
Y160088D01*
X17156Y153588D02*
Y160088D01*
X6656D02*
X17156D01*
X6656Y153588D02*
X17156Y153588D01*
X31656Y153588D02*
Y160088D01*
X42156Y153588D02*
Y160088D01*
X31656D02*
X42156D01*
X31656Y153588D02*
X42156D01*
X31656Y172588D02*
X31656Y179088D01*
X42156Y172588D02*
Y179088D01*
X31656Y179088D02*
X42156Y179088D01*
X31656Y172588D02*
X42156D01*
X-13108Y227144D02*
X-2608D01*
X-13108Y220644D02*
X-2608Y220644D01*
X-13108Y227144D02*
X-13108Y220644D01*
X-2608Y220644D02*
Y227144D01*
X-13108Y236644D02*
X-2608Y236644D01*
X-13108Y230144D02*
X-2608D01*
X-13108Y236644D02*
X-13108Y230144D01*
X-2608Y236644D02*
X-2608Y230144D01*
X-13108Y246144D02*
X-2608D01*
X-13108Y239644D02*
X-2608D01*
X-13108D02*
Y246144D01*
X-2608Y239644D02*
X-2608Y246144D01*
X-38108D02*
X-27608Y246144D01*
X-38108Y239644D02*
X-27608Y239644D01*
X-38108Y239644D02*
X-38108Y246144D01*
X-27608Y239644D02*
X-27608Y246144D01*
X-38108Y236644D02*
X-27608D01*
X-38108Y230144D02*
X-27608Y230144D01*
X-38108Y236644D02*
X-38108Y230144D01*
X-27608Y236644D02*
X-27608Y230144D01*
X-38108Y227144D02*
X-27608D01*
X-38108Y220644D02*
X-27608Y220644D01*
X-38108Y220644D02*
Y227144D01*
X-27608Y220644D02*
X-27608Y227144D01*
X-34358Y218893D02*
X-6359Y218893D01*
X-34358Y247893D02*
X-6358D01*
X-34358Y218893D02*
Y247893D01*
X-6359Y218893D02*
X-6358Y247893D01*
X33500Y306454D02*
Y337546D01*
Y306454D02*
X76500D01*
Y337546D01*
X33500D02*
X76500D01*
X32500Y319500D02*
X38250Y319500D01*
X32500Y319500D02*
X32500Y309000D01*
X44000Y309000D01*
X44000Y319500D02*
X44000Y309000D01*
X38250Y319500D02*
X44000D01*
X32500Y335000D02*
X38250Y335000D01*
X32500Y324500D02*
X32500Y335000D01*
X32500Y324500D02*
X44000Y324500D01*
Y335000D01*
X38250Y335000D02*
X44000Y335000D01*
X66000Y335000D02*
X71750Y335000D01*
X66000Y335000D02*
X66000Y324500D01*
X77500Y324500D01*
X77500Y335000D02*
X77500Y324500D01*
X71750Y335000D02*
X77500D01*
X66000Y319500D02*
X71750Y319500D01*
X66000Y309000D02*
Y319500D01*
Y309000D02*
X77500Y309000D01*
X77500Y319500D01*
X71750D02*
X77500D01*
X-45750Y345080D02*
Y439780D01*
X45750D01*
Y345080D02*
Y439780D01*
X-48750Y413180D02*
X48750D01*
X-45750Y345080D02*
X45750D01*
D98*
X730Y-102904D02*
X730Y-134904D01*
X25730Y-134904D01*
X25730Y-102904D02*
X25730Y-134904D01*
X730Y-102904D02*
X25730Y-102904D01*
M02*
