G04*
G04 #@! TF.GenerationSoftware,Altium Limited,Altium Designer,25.5.2 (35)*
G04*
G04 Layer_Color=32896*
%FSLAX44Y44*%
%MOMM*%
G71*
G04*
G04 #@! TF.SameCoordinates,D8F344CF-23F0-4092-AEBD-71A9FCF73610*
G04*
G04*
G04 #@! TF.FilePolarity,Positive*
G04*
G01*
G75*
%ADD97C,0.0500*%
D97*
X83166Y350000D02*
G03*
X83166Y350000I-12166J0D01*
G01*
X-69834Y322000D02*
G03*
X-69834Y322000I-12166J0D01*
G01*
X70332Y-328422D02*
G03*
X70332Y-328422I-12166J0D01*
G01*
X-46834Y-111000D02*
G03*
X-46834Y-111000I-12166J0D01*
G01*
X-3135Y41049D02*
G03*
X-3135Y65380I0J12166D01*
G01*
X-8865D02*
G03*
X-8865Y41049I0J-12166D01*
G01*
X-31500Y-404750D02*
Y-344250D01*
Y-404750D02*
X31500D01*
Y-344250D01*
X-31500D02*
X31500D01*
X0Y-384000D02*
Y-374000D01*
X-5000Y-379000D02*
X5000D01*
X-93760Y94174D02*
X-92010Y90424D01*
X-93760Y86674D02*
X-92010Y90424D01*
X-93760Y80474D02*
X-2760D01*
X-93760Y138474D02*
X-2760D01*
Y80474D02*
Y138474D01*
X-93760Y80474D02*
Y138474D01*
X-48259Y104473D02*
Y109473D01*
Y114473D01*
Y109473D02*
X-43259D01*
X-53259D02*
X-48259D01*
X-8865Y41049D02*
X-3135D01*
X-8865Y65380D02*
X-3135D01*
X60500Y51250D02*
X64250Y53000D01*
X56750Y53000D02*
X60500Y51250D01*
X53000Y15000D02*
Y53000D01*
X87250Y15000D02*
Y53000D01*
X53000Y15000D02*
X87250Y15000D01*
X53000Y53000D02*
X87250Y53000D01*
X65000Y34000D02*
X70000D01*
X75000D01*
X70000Y29000D02*
Y34000D01*
Y39000D01*
X-53260Y167894D02*
X-48260Y167894D01*
X-43260Y167894D01*
X-48260Y167894D02*
X-48260Y172894D01*
X-48260Y162894D02*
X-48260Y167894D01*
X-85260Y195394D02*
X-85260Y140144D01*
X-11260Y195394D02*
X-11260Y140144D01*
X-85260Y195394D02*
X-11260Y195394D01*
X-85260Y140144D02*
X-11260D01*
X-85260Y145094D02*
X-83510Y148844D01*
X-85260Y152594D02*
X-83510Y148844D01*
X-27250Y400580D02*
X11345D01*
X-27250Y369080D02*
Y400580D01*
Y369080D02*
X27500D01*
Y398080D01*
Y400580D01*
X11345D02*
X27500D01*
X0Y386080D02*
X2500D01*
X0D02*
X0Y383580D01*
X-2500Y386080D02*
X0D01*
X0Y388580D02*
X0Y386080D01*
X-48750Y344080D02*
X48750D01*
X-48750D02*
Y440780D01*
X48750D01*
Y344080D02*
Y440780D01*
M02*
