G04*
G04 #@! TF.GenerationSoftware,Altium Limited,Altium Designer,25.5.2 (35)*
G04*
G04 Layer_Color=128*
%FSLAX44Y44*%
%MOMM*%
G71*
G04*
G04 #@! TF.SameCoordinates,D8F344CF-23F0-4092-AEBD-71A9FCF73610*
G04*
G04*
G04 #@! TF.FilePolarity,Positive*
G04*
G01*
G75*
G04:AMPARAMS|DCode=80|XSize=0.6mm|YSize=1.55mm|CornerRadius=0.05mm|HoleSize=0mm|Usage=FLASHONLY|Rotation=180.000|XOffset=0mm|YOffset=0mm|HoleType=Round|Shape=RoundedRectangle|*
%AMROUNDEDRECTD80*
21,1,0.6000,1.4500,0,0,180.0*
21,1,0.5000,1.5500,0,0,180.0*
1,1,0.1000,-0.2500,0.7250*
1,1,0.1000,0.2500,0.7250*
1,1,0.1000,0.2500,-0.7250*
1,1,0.1000,-0.2500,-0.7250*
%
%ADD80ROUNDEDRECTD80*%
G04:AMPARAMS|DCode=81|XSize=1.2mm|YSize=1.8mm|CornerRadius=0.05mm|HoleSize=0mm|Usage=FLASHONLY|Rotation=180.000|XOffset=0mm|YOffset=0mm|HoleType=Round|Shape=RoundedRectangle|*
%AMROUNDEDRECTD81*
21,1,1.2000,1.7000,0,0,180.0*
21,1,1.1000,1.8000,0,0,180.0*
1,1,0.1000,-0.5500,0.8500*
1,1,0.1000,0.5500,0.8500*
1,1,0.1000,0.5500,-0.8500*
1,1,0.1000,-0.5500,-0.8500*
%
%ADD81ROUNDEDRECTD81*%
G04:AMPARAMS|DCode=82|XSize=0.6mm|YSize=1.45mm|CornerRadius=0.075mm|HoleSize=0mm|Usage=FLASHONLY|Rotation=270.000|XOffset=0mm|YOffset=0mm|HoleType=Round|Shape=RoundedRectangle|*
%AMROUNDEDRECTD82*
21,1,0.6000,1.3000,0,0,270.0*
21,1,0.4500,1.4500,0,0,270.0*
1,1,0.1500,-0.6500,-0.2250*
1,1,0.1500,-0.6500,0.2250*
1,1,0.1500,0.6500,0.2250*
1,1,0.1500,0.6500,-0.2250*
%
%ADD82ROUNDEDRECTD82*%
G04:AMPARAMS|DCode=83|XSize=1mm|YSize=0.6mm|CornerRadius=0.075mm|HoleSize=0mm|Usage=FLASHONLY|Rotation=270.000|XOffset=0mm|YOffset=0mm|HoleType=Round|Shape=RoundedRectangle|*
%AMROUNDEDRECTD83*
21,1,1.0000,0.4500,0,0,270.0*
21,1,0.8500,0.6000,0,0,270.0*
1,1,0.1500,-0.2250,-0.4250*
1,1,0.1500,-0.2250,0.4250*
1,1,0.1500,0.2250,0.4250*
1,1,0.1500,0.2250,-0.4250*
%
%ADD83ROUNDEDRECTD83*%
G04:AMPARAMS|DCode=84|XSize=1.05mm|YSize=1.4mm|CornerRadius=0.05mm|HoleSize=0mm|Usage=FLASHONLY|Rotation=90.000|XOffset=0mm|YOffset=0mm|HoleType=Round|Shape=RoundedRectangle|*
%AMROUNDEDRECTD84*
21,1,1.0500,1.3000,0,0,90.0*
21,1,0.9500,1.4000,0,0,90.0*
1,1,0.1000,0.6500,0.4750*
1,1,0.1000,0.6500,-0.4750*
1,1,0.1000,-0.6500,-0.4750*
1,1,0.1000,-0.6500,0.4750*
%
%ADD84ROUNDEDRECTD84*%
D80*
X10000Y-354500D02*
D03*
X0D02*
D03*
X-10000D02*
D03*
D81*
X-23000Y-393250D02*
D03*
X23000D02*
D03*
D82*
X-84010Y90424D02*
D03*
Y103124D02*
D03*
Y115824D02*
D03*
Y128524D02*
D03*
X-12510Y90424D02*
D03*
Y103124D02*
D03*
Y115824D02*
D03*
Y128524D02*
D03*
X-21010Y186944D02*
D03*
X-21010Y174244D02*
D03*
X-21010Y161544D02*
D03*
Y148844D02*
D03*
X-75510Y186944D02*
D03*
X-75510Y174244D02*
D03*
Y161544D02*
D03*
Y148844D02*
D03*
D83*
X60500Y45500D02*
D03*
X79500Y45500D02*
D03*
X70000Y22500D02*
D03*
D84*
X-18000Y393330D02*
D03*
Y378830D02*
D03*
X18000Y393330D02*
D03*
Y378830D02*
D03*
M02*
