G04*
G04 #@! TF.GenerationSoftware,Altium Limited,Altium Designer,25.5.2 (35)*
G04*
G04 Layer_Color=255*
%FSLAX44Y44*%
%MOMM*%
G71*
G04*
G04 #@! TF.SameCoordinates,D8F344CF-23F0-4092-AEBD-71A9FCF73610*
G04*
G04*
G04 #@! TF.FilePolarity,Positive*
G04*
G01*
G75*
G04:AMPARAMS|DCode=60|XSize=0.9mm|YSize=1.7mm|CornerRadius=0.45mm|HoleSize=0mm|Usage=FLASHONLY|Rotation=180.000|XOffset=0mm|YOffset=0mm|HoleType=Round|Shape=RoundedRectangle|*
%AMROUNDEDRECTD60*
21,1,0.9000,0.8000,0,0,180.0*
21,1,0.0000,1.7000,0,0,180.0*
1,1,0.9000,0.0000,0.4000*
1,1,0.9000,0.0000,0.4000*
1,1,0.9000,0.0000,-0.4000*
1,1,0.9000,0.0000,-0.4000*
%
%ADD60ROUNDEDRECTD60*%
G04:AMPARAMS|DCode=61|XSize=0.9mm|YSize=2.4mm|CornerRadius=0.45mm|HoleSize=0mm|Usage=FLASHONLY|Rotation=180.000|XOffset=0mm|YOffset=0mm|HoleType=Round|Shape=RoundedRectangle|*
%AMROUNDEDRECTD61*
21,1,0.9000,1.5000,0,0,180.0*
21,1,0.0000,2.4000,0,0,180.0*
1,1,0.9000,0.0000,0.7500*
1,1,0.9000,0.0000,0.7500*
1,1,0.9000,0.0000,-0.7500*
1,1,0.9000,0.0000,-0.7500*
%
%ADD61ROUNDEDRECTD61*%
%ADD62C,0.6500*%
%ADD79C,1.8000*%
G04:AMPARAMS|DCode=80|XSize=0.6mm|YSize=1.55mm|CornerRadius=0.05mm|HoleSize=0mm|Usage=FLASHONLY|Rotation=180.000|XOffset=0mm|YOffset=0mm|HoleType=Round|Shape=RoundedRectangle|*
%AMROUNDEDRECTD80*
21,1,0.6000,1.4500,0,0,180.0*
21,1,0.5000,1.5500,0,0,180.0*
1,1,0.1000,-0.2500,0.7250*
1,1,0.1000,0.2500,0.7250*
1,1,0.1000,0.2500,-0.7250*
1,1,0.1000,-0.2500,-0.7250*
%
%ADD80ROUNDEDRECTD80*%
G04:AMPARAMS|DCode=81|XSize=1.2mm|YSize=1.8mm|CornerRadius=0.05mm|HoleSize=0mm|Usage=FLASHONLY|Rotation=180.000|XOffset=0mm|YOffset=0mm|HoleType=Round|Shape=RoundedRectangle|*
%AMROUNDEDRECTD81*
21,1,1.2000,1.7000,0,0,180.0*
21,1,1.1000,1.8000,0,0,180.0*
1,1,0.1000,-0.5500,0.8500*
1,1,0.1000,0.5500,0.8500*
1,1,0.1000,0.5500,-0.8500*
1,1,0.1000,-0.5500,-0.8500*
%
%ADD81ROUNDEDRECTD81*%
G04:AMPARAMS|DCode=82|XSize=0.6mm|YSize=1.45mm|CornerRadius=0.075mm|HoleSize=0mm|Usage=FLASHONLY|Rotation=270.000|XOffset=0mm|YOffset=0mm|HoleType=Round|Shape=RoundedRectangle|*
%AMROUNDEDRECTD82*
21,1,0.6000,1.3000,0,0,270.0*
21,1,0.4500,1.4500,0,0,270.0*
1,1,0.1500,-0.6500,-0.2250*
1,1,0.1500,-0.6500,0.2250*
1,1,0.1500,0.6500,0.2250*
1,1,0.1500,0.6500,-0.2250*
%
%ADD82ROUNDEDRECTD82*%
G04:AMPARAMS|DCode=83|XSize=1mm|YSize=0.6mm|CornerRadius=0.075mm|HoleSize=0mm|Usage=FLASHONLY|Rotation=270.000|XOffset=0mm|YOffset=0mm|HoleType=Round|Shape=RoundedRectangle|*
%AMROUNDEDRECTD83*
21,1,1.0000,0.4500,0,0,270.0*
21,1,0.8500,0.6000,0,0,270.0*
1,1,0.1500,-0.2250,-0.4250*
1,1,0.1500,-0.2250,0.4250*
1,1,0.1500,0.2250,0.4250*
1,1,0.1500,0.2250,-0.4250*
%
%ADD83ROUNDEDRECTD83*%
G04:AMPARAMS|DCode=84|XSize=1.05mm|YSize=1.4mm|CornerRadius=0.05mm|HoleSize=0mm|Usage=FLASHONLY|Rotation=90.000|XOffset=0mm|YOffset=0mm|HoleType=Round|Shape=RoundedRectangle|*
%AMROUNDEDRECTD84*
21,1,1.0500,1.3000,0,0,90.0*
21,1,0.9500,1.4000,0,0,90.0*
1,1,0.1000,0.6500,0.4750*
1,1,0.1000,0.6500,-0.4750*
1,1,0.1000,-0.6500,-0.4750*
1,1,0.1000,-0.6500,0.4750*
%
%ADD84ROUNDEDRECTD84*%
G36*
G01X61326Y350000D02*
G03X69626Y341700I8300J0D01*
G03X70238Y342312I0J612D01*
G01Y357688D01*
G03X69626Y358300I-612J0D01*
G03X61326Y350000I0J-8300D01*
D02*
G37*
G36*
G01X80674D02*
G02X72374Y341700I-8300J0D01*
G02X71762Y342312I0J612D01*
G01Y357688D01*
G02X72374Y358300I612J0D01*
G02X80674Y350000I0J-8300D01*
D02*
G37*
G36*
G01X-82000Y331674D02*
G03X-90300Y323374I0J-8300D01*
G03X-89688Y322762I612J0D01*
G01X-74312D01*
G03X-73700Y323374I0J612D01*
G03X-82000Y331674I-8300J0D01*
D02*
G37*
G36*
G01X-82000Y312326D02*
G02X-90300Y320626I0J8300D01*
G02X-89688Y321238I612J0D01*
G01X-74312D01*
G02X-73700Y320626I0J-612D01*
G02X-82000Y312326I-8300J0D01*
D02*
G37*
G36*
G01X58166Y-338096D02*
G03X66466Y-329796I0J8300D01*
G03X65854Y-329184I-612J0D01*
G01X50478D01*
G03X49866Y-329796I0J-612D01*
G03X58166Y-338096I8300J0D01*
D02*
G37*
G36*
G01X58166Y-318748D02*
G02X66466Y-327048I0J-8300D01*
G02X65854Y-327660I-612J0D01*
G01X50478D01*
G02X49866Y-327048I0J612D01*
G02X58166Y-318748I8300J0D01*
D02*
G37*
G36*
G01X-49326Y-111000D02*
G03X-57626Y-102700I-8300J0D01*
G03X-58238Y-103312I0J-612D01*
G01Y-118688D01*
G03X-57626Y-119300I612J0D01*
G03X-49326Y-111000I0J8300D01*
D02*
G37*
G36*
G01X-68674D02*
G02X-60374Y-102700I8300J0D01*
G02X-59762Y-103312I0J-612D01*
G01Y-118688D01*
G02X-60374Y-119300I-612J0D01*
G02X-68674Y-111000I0J8300D01*
D02*
G37*
G36*
G01X-18624Y53152D02*
G03X-10324Y44852I8300J0D01*
G03X-9712Y45464I0J612D01*
G01Y60840D01*
G03X-10324Y61452I-612J0D01*
G03X-18624Y53152I0J-8300D01*
D02*
G37*
G36*
G01X6624Y53278D02*
G02X-1676Y44978I-8300J-0D01*
G02X-2288Y45590I0J612D01*
G01Y60966D01*
G02X-1676Y61578I612J0D01*
G02X6624Y53278I0J-8300D01*
D02*
G37*
G36*
G01X-3812Y61152D02*
G03X-4257Y61597I-445J0D01*
G01X-7685D01*
G03X-8130Y61152I0J-445D01*
G01Y45692D01*
G03X-7524Y45087I606J0D01*
G01X-4383D01*
G03X-3812Y45658I0J571D01*
G01X-3812Y61152D01*
D02*
G37*
D60*
X43250Y395780D02*
D03*
X-43250D02*
D03*
D61*
X43250Y361980D02*
D03*
X-43250D02*
D03*
D62*
X29750Y352180D02*
D03*
X21250D02*
D03*
X12750D02*
D03*
X4250D02*
D03*
X-4250D02*
D03*
X-12750D02*
D03*
X-21250D02*
D03*
X-29750D02*
D03*
Y365680D02*
D03*
X-21250D02*
D03*
X-12750D02*
D03*
X-4250D02*
D03*
X4250D02*
D03*
X12750D02*
D03*
X21250D02*
D03*
X29750D02*
D03*
D79*
X-114300Y393700D02*
D03*
Y368300D02*
D03*
Y342900D02*
D03*
Y317500D02*
D03*
Y292100D02*
D03*
Y266700D02*
D03*
Y241300D02*
D03*
Y215900D02*
D03*
Y190500D02*
D03*
Y165100D02*
D03*
Y139700D02*
D03*
Y114300D02*
D03*
Y88900D02*
D03*
Y63500D02*
D03*
Y38100D02*
D03*
Y12700D02*
D03*
Y-12700D02*
D03*
Y-38100D02*
D03*
Y-63500D02*
D03*
Y-88900D02*
D03*
X114300D02*
D03*
Y-63500D02*
D03*
Y-38100D02*
D03*
Y-12700D02*
D03*
Y12700D02*
D03*
Y38100D02*
D03*
Y63500D02*
D03*
Y88900D02*
D03*
Y114300D02*
D03*
Y139700D02*
D03*
Y165100D02*
D03*
Y190500D02*
D03*
Y215900D02*
D03*
Y241300D02*
D03*
Y266700D02*
D03*
Y292100D02*
D03*
Y317500D02*
D03*
Y342900D02*
D03*
Y368300D02*
D03*
Y393700D02*
D03*
Y-114300D02*
D03*
Y-139700D02*
D03*
Y-165100D02*
D03*
Y-190500D02*
D03*
Y-215900D02*
D03*
Y-241300D02*
D03*
Y-266700D02*
D03*
Y-292100D02*
D03*
Y-317500D02*
D03*
Y-342900D02*
D03*
Y-368300D02*
D03*
Y-393700D02*
D03*
X-114300D02*
D03*
Y-368300D02*
D03*
Y-342900D02*
D03*
Y-317500D02*
D03*
Y-292100D02*
D03*
Y-266700D02*
D03*
Y-241300D02*
D03*
Y-215900D02*
D03*
Y-190500D02*
D03*
Y-165100D02*
D03*
Y-139700D02*
D03*
Y-114300D02*
D03*
D80*
X10000Y-354500D02*
D03*
X0D02*
D03*
X-10000D02*
D03*
D81*
X-23000Y-393250D02*
D03*
X23000D02*
D03*
D82*
X-84010Y90424D02*
D03*
Y103124D02*
D03*
Y115824D02*
D03*
Y128524D02*
D03*
X-12510Y90424D02*
D03*
Y103124D02*
D03*
Y115824D02*
D03*
Y128524D02*
D03*
X-21010Y186944D02*
D03*
X-21010Y174244D02*
D03*
X-21010Y161544D02*
D03*
Y148844D02*
D03*
X-75510Y186944D02*
D03*
X-75510Y174244D02*
D03*
Y161544D02*
D03*
Y148844D02*
D03*
D83*
X60500Y45500D02*
D03*
X79500Y45500D02*
D03*
X70000Y22500D02*
D03*
D84*
X-18000Y393330D02*
D03*
Y378830D02*
D03*
X18000Y393330D02*
D03*
Y378830D02*
D03*
M02*
