G04*
G04 #@! TF.GenerationSoftware,Altium Limited,Altium Designer,25.5.2 (35)*
G04*
G04 Layer_Color=8388736*
%FSLAX44Y44*%
%MOMM*%
G71*
G04*
G04 #@! TF.SameCoordinates,D8F344CF-23F0-4092-AEBD-71A9FCF73610*
G04*
G04*
G04 #@! TF.FilePolarity,Negative*
G04*
G01*
G75*
G04:AMPARAMS|DCode=36|XSize=0.7mm|YSize=0.75mm|CornerRadius=0.1438mm|HoleSize=0mm|Usage=FLASHONLY|Rotation=0.000|XOffset=0mm|YOffset=0mm|HoleType=Round|Shape=RoundedRectangle|*
%AMROUNDEDRECTD36*
21,1,0.7000,0.4625,0,0,0.0*
21,1,0.4125,0.7500,0,0,0.0*
1,1,0.2875,0.2063,-0.2313*
1,1,0.2875,-0.2063,-0.2313*
1,1,0.2875,-0.2063,0.2313*
1,1,0.2875,0.2063,0.2313*
%
%ADD36ROUNDEDRECTD36*%
G04:AMPARAMS|DCode=37|XSize=0.69mm|YSize=0.55mm|CornerRadius=0.15mm|HoleSize=0mm|Usage=FLASHONLY|Rotation=90.000|XOffset=0mm|YOffset=0mm|HoleType=Round|Shape=RoundedRectangle|*
%AMROUNDEDRECTD37*
21,1,0.6900,0.2500,0,0,90.0*
21,1,0.3900,0.5500,0,0,90.0*
1,1,0.3000,0.1250,0.1950*
1,1,0.3000,0.1250,-0.1950*
1,1,0.3000,-0.1250,-0.1950*
1,1,0.3000,-0.1250,0.1950*
%
%ADD37ROUNDEDRECTD37*%
G04:AMPARAMS|DCode=38|XSize=0.7mm|YSize=0.75mm|CornerRadius=0.1438mm|HoleSize=0mm|Usage=FLASHONLY|Rotation=90.000|XOffset=0mm|YOffset=0mm|HoleType=Round|Shape=RoundedRectangle|*
%AMROUNDEDRECTD38*
21,1,0.7000,0.4625,0,0,90.0*
21,1,0.4125,0.7500,0,0,90.0*
1,1,0.2875,0.2313,0.2063*
1,1,0.2875,0.2313,-0.2063*
1,1,0.2875,-0.2313,-0.2063*
1,1,0.2875,-0.2313,0.2063*
%
%ADD38ROUNDEDRECTD38*%
G04:AMPARAMS|DCode=39|XSize=3.5mm|YSize=3.5mm|CornerRadius=0.1mm|HoleSize=0mm|Usage=FLASHONLY|Rotation=0.000|XOffset=0mm|YOffset=0mm|HoleType=Round|Shape=RoundedRectangle|*
%AMROUNDEDRECTD39*
21,1,3.5000,3.3000,0,0,0.0*
21,1,3.3000,3.5000,0,0,0.0*
1,1,0.2000,1.6500,-1.6500*
1,1,0.2000,-1.6500,-1.6500*
1,1,0.2000,-1.6500,1.6500*
1,1,0.2000,1.6500,1.6500*
%
%ADD39ROUNDEDRECTD39*%
G04:AMPARAMS|DCode=40|XSize=0.3mm|YSize=0.95mm|CornerRadius=0.1mm|HoleSize=0mm|Usage=FLASHONLY|Rotation=0.000|XOffset=0mm|YOffset=0mm|HoleType=Round|Shape=RoundedRectangle|*
%AMROUNDEDRECTD40*
21,1,0.3000,0.7500,0,0,0.0*
21,1,0.1000,0.9500,0,0,0.0*
1,1,0.2000,0.0500,-0.3750*
1,1,0.2000,-0.0500,-0.3750*
1,1,0.2000,-0.0500,0.3750*
1,1,0.2000,0.0500,0.3750*
%
%ADD40ROUNDEDRECTD40*%
G04:AMPARAMS|DCode=41|XSize=0.3mm|YSize=0.95mm|CornerRadius=0.1mm|HoleSize=0mm|Usage=FLASHONLY|Rotation=90.000|XOffset=0mm|YOffset=0mm|HoleType=Round|Shape=RoundedRectangle|*
%AMROUNDEDRECTD41*
21,1,0.3000,0.7500,0,0,90.0*
21,1,0.1000,0.9500,0,0,90.0*
1,1,0.2000,0.3750,0.0500*
1,1,0.2000,0.3750,-0.0500*
1,1,0.2000,-0.3750,-0.0500*
1,1,0.2000,-0.3750,0.0500*
%
%ADD41ROUNDEDRECTD41*%
G04:AMPARAMS|DCode=42|XSize=1.2mm|YSize=0.7mm|CornerRadius=0.1438mm|HoleSize=0mm|Usage=FLASHONLY|Rotation=270.000|XOffset=0mm|YOffset=0mm|HoleType=Round|Shape=RoundedRectangle|*
%AMROUNDEDRECTD42*
21,1,1.2000,0.4125,0,0,270.0*
21,1,0.9125,0.7000,0,0,270.0*
1,1,0.2875,-0.2063,-0.4563*
1,1,0.2875,-0.2063,0.4563*
1,1,0.2875,0.2063,0.4563*
1,1,0.2875,0.2063,-0.4563*
%
%ADD42ROUNDEDRECTD42*%
G04:AMPARAMS|DCode=43|XSize=1.3mm|YSize=1.2mm|CornerRadius=0.2063mm|HoleSize=0mm|Usage=FLASHONLY|Rotation=0.000|XOffset=0mm|YOffset=0mm|HoleType=Round|Shape=RoundedRectangle|*
%AMROUNDEDRECTD43*
21,1,1.3000,0.7875,0,0,0.0*
21,1,0.8875,1.2000,0,0,0.0*
1,1,0.4125,0.4438,-0.3938*
1,1,0.4125,-0.4438,-0.3938*
1,1,0.4125,-0.4438,0.3938*
1,1,0.4125,0.4438,0.3938*
%
%ADD43ROUNDEDRECTD43*%
%ADD44R,1.3000X1.2000*%
G04:AMPARAMS|DCode=45|XSize=0.75mm|YSize=1.6mm|CornerRadius=0.15mm|HoleSize=0mm|Usage=FLASHONLY|Rotation=0.000|XOffset=0mm|YOffset=0mm|HoleType=Round|Shape=RoundedRectangle|*
%AMROUNDEDRECTD45*
21,1,0.7500,1.3000,0,0,0.0*
21,1,0.4500,1.6000,0,0,0.0*
1,1,0.3000,0.2250,-0.6500*
1,1,0.3000,-0.2250,-0.6500*
1,1,0.3000,-0.2250,0.6500*
1,1,0.3000,0.2250,0.6500*
%
%ADD45ROUNDEDRECTD45*%
G04:AMPARAMS|DCode=46|XSize=0.87mm|YSize=1.14mm|CornerRadius=0.165mm|HoleSize=0mm|Usage=FLASHONLY|Rotation=90.000|XOffset=0mm|YOffset=0mm|HoleType=Round|Shape=RoundedRectangle|*
%AMROUNDEDRECTD46*
21,1,0.8700,0.8100,0,0,90.0*
21,1,0.5400,1.1400,0,0,90.0*
1,1,0.3300,0.4050,0.2700*
1,1,0.3300,0.4050,-0.2700*
1,1,0.3300,-0.4050,-0.2700*
1,1,0.3300,-0.4050,0.2700*
%
%ADD46ROUNDEDRECTD46*%
G04:AMPARAMS|DCode=47|XSize=1.55mm|YSize=1.2mm|CornerRadius=0.2063mm|HoleSize=0mm|Usage=FLASHONLY|Rotation=180.000|XOffset=0mm|YOffset=0mm|HoleType=Round|Shape=RoundedRectangle|*
%AMROUNDEDRECTD47*
21,1,1.5500,0.7875,0,0,180.0*
21,1,1.1375,1.2000,0,0,180.0*
1,1,0.4125,-0.5688,0.3938*
1,1,0.4125,0.5688,0.3938*
1,1,0.4125,0.5688,-0.3938*
1,1,0.4125,-0.5688,-0.3938*
%
%ADD47ROUNDEDRECTD47*%
G04:AMPARAMS|DCode=48|XSize=2.7mm|YSize=2.5mm|CornerRadius=0.25mm|HoleSize=0mm|Usage=FLASHONLY|Rotation=180.000|XOffset=0mm|YOffset=0mm|HoleType=Round|Shape=RoundedRectangle|*
%AMROUNDEDRECTD48*
21,1,2.7000,2.0000,0,0,180.0*
21,1,2.2000,2.5000,0,0,180.0*
1,1,0.5000,-1.1000,1.0000*
1,1,0.5000,1.1000,1.0000*
1,1,0.5000,1.1000,-1.0000*
1,1,0.5000,-1.1000,-1.0000*
%
%ADD48ROUNDEDRECTD48*%
G04:AMPARAMS|DCode=49|XSize=1.7mm|YSize=3.5mm|CornerRadius=0.25mm|HoleSize=0mm|Usage=FLASHONLY|Rotation=180.000|XOffset=0mm|YOffset=0mm|HoleType=Round|Shape=RoundedRectangle|*
%AMROUNDEDRECTD49*
21,1,1.7000,3.0000,0,0,180.0*
21,1,1.2000,3.5000,0,0,180.0*
1,1,0.5000,-0.6000,1.5000*
1,1,0.5000,0.6000,1.5000*
1,1,0.5000,0.6000,-1.5000*
1,1,0.5000,-0.6000,-1.5000*
%
%ADD49ROUNDEDRECTD49*%
G04:AMPARAMS|DCode=50|XSize=1.3mm|YSize=2.8mm|CornerRadius=0.1mm|HoleSize=0mm|Usage=FLASHONLY|Rotation=90.000|XOffset=0mm|YOffset=0mm|HoleType=Round|Shape=RoundedRectangle|*
%AMROUNDEDRECTD50*
21,1,1.3000,2.6000,0,0,90.0*
21,1,1.1000,2.8000,0,0,90.0*
1,1,0.2000,1.3000,0.5500*
1,1,0.2000,1.3000,-0.5500*
1,1,0.2000,-1.3000,-0.5500*
1,1,0.2000,-1.3000,0.5500*
%
%ADD50ROUNDEDRECTD50*%
G04:AMPARAMS|DCode=51|XSize=0.9mm|YSize=0.9mm|CornerRadius=0.1mm|HoleSize=0mm|Usage=FLASHONLY|Rotation=0.000|XOffset=0mm|YOffset=0mm|HoleType=Round|Shape=RoundedRectangle|*
%AMROUNDEDRECTD51*
21,1,0.9000,0.7000,0,0,0.0*
21,1,0.7000,0.9000,0,0,0.0*
1,1,0.2000,0.3500,-0.3500*
1,1,0.2000,-0.3500,-0.3500*
1,1,0.2000,-0.3500,0.3500*
1,1,0.2000,0.3500,0.3500*
%
%ADD51ROUNDEDRECTD51*%
G04:AMPARAMS|DCode=52|XSize=0.87mm|YSize=1.14mm|CornerRadius=0.165mm|HoleSize=0mm|Usage=FLASHONLY|Rotation=0.000|XOffset=0mm|YOffset=0mm|HoleType=Round|Shape=RoundedRectangle|*
%AMROUNDEDRECTD52*
21,1,0.8700,0.8100,0,0,0.0*
21,1,0.5400,1.1400,0,0,0.0*
1,1,0.3300,0.2700,-0.4050*
1,1,0.3300,-0.2700,-0.4050*
1,1,0.3300,-0.2700,0.4050*
1,1,0.3300,0.2700,0.4050*
%
%ADD52ROUNDEDRECTD52*%
G04:AMPARAMS|DCode=53|XSize=0.7mm|YSize=0.75mm|CornerRadius=0.1438mm|HoleSize=0mm|Usage=FLASHONLY|Rotation=225.000|XOffset=0mm|YOffset=0mm|HoleType=Round|Shape=RoundedRectangle|*
%AMROUNDEDRECTD53*
21,1,0.7000,0.4625,0,0,225.0*
21,1,0.4125,0.7500,0,0,225.0*
1,1,0.2875,-0.3094,0.0177*
1,1,0.2875,-0.0177,0.3094*
1,1,0.2875,0.3094,-0.0177*
1,1,0.2875,0.0177,-0.3094*
%
%ADD53ROUNDEDRECTD53*%
G04:AMPARAMS|DCode=54|XSize=0.9mm|YSize=1.7mm|CornerRadius=0.1mm|HoleSize=0mm|Usage=FLASHONLY|Rotation=0.000|XOffset=0mm|YOffset=0mm|HoleType=Round|Shape=RoundedRectangle|*
%AMROUNDEDRECTD54*
21,1,0.9000,1.5000,0,0,0.0*
21,1,0.7000,1.7000,0,0,0.0*
1,1,0.2000,0.3500,-0.7500*
1,1,0.2000,-0.3500,-0.7500*
1,1,0.2000,-0.3500,0.7500*
1,1,0.2000,0.3500,0.7500*
%
%ADD54ROUNDEDRECTD54*%
G04:AMPARAMS|DCode=55|XSize=1.2mm|YSize=0.7mm|CornerRadius=0.1438mm|HoleSize=0mm|Usage=FLASHONLY|Rotation=0.000|XOffset=0mm|YOffset=0mm|HoleType=Round|Shape=RoundedRectangle|*
%AMROUNDEDRECTD55*
21,1,1.2000,0.4125,0,0,0.0*
21,1,0.9125,0.7000,0,0,0.0*
1,1,0.2875,0.4563,-0.2063*
1,1,0.2875,-0.4563,-0.2063*
1,1,0.2875,-0.4563,0.2063*
1,1,0.2875,0.4563,0.2063*
%
%ADD55ROUNDEDRECTD55*%
G04:AMPARAMS|DCode=56|XSize=1.15mm|YSize=1.4mm|CornerRadius=0.1mm|HoleSize=0mm|Usage=FLASHONLY|Rotation=0.000|XOffset=0mm|YOffset=0mm|HoleType=Round|Shape=RoundedRectangle|*
%AMROUNDEDRECTD56*
21,1,1.1500,1.2000,0,0,0.0*
21,1,0.9500,1.4000,0,0,0.0*
1,1,0.2000,0.4750,-0.6000*
1,1,0.2000,-0.4750,-0.6000*
1,1,0.2000,-0.4750,0.6000*
1,1,0.2000,0.4750,0.6000*
%
%ADD56ROUNDEDRECTD56*%
G04:AMPARAMS|DCode=57|XSize=1.15mm|YSize=0.65mm|CornerRadius=0.1188mm|HoleSize=0mm|Usage=FLASHONLY|Rotation=180.000|XOffset=0mm|YOffset=0mm|HoleType=Round|Shape=RoundedRectangle|*
%AMROUNDEDRECTD57*
21,1,1.1500,0.4125,0,0,180.0*
21,1,0.9125,0.6500,0,0,180.0*
1,1,0.2375,-0.4563,0.2063*
1,1,0.2375,0.4563,0.2063*
1,1,0.2375,0.4563,-0.2063*
1,1,0.2375,-0.4563,-0.2063*
%
%ADD57ROUNDEDRECTD57*%
%ADD58C,0.3000*%
%ADD59C,1.4000*%
G04:AMPARAMS|DCode=60|XSize=0.9mm|YSize=1.7mm|CornerRadius=0.45mm|HoleSize=0mm|Usage=FLASHONLY|Rotation=180.000|XOffset=0mm|YOffset=0mm|HoleType=Round|Shape=RoundedRectangle|*
%AMROUNDEDRECTD60*
21,1,0.9000,0.8000,0,0,180.0*
21,1,0.0000,1.7000,0,0,180.0*
1,1,0.9000,0.0000,0.4000*
1,1,0.9000,0.0000,0.4000*
1,1,0.9000,0.0000,-0.4000*
1,1,0.9000,0.0000,-0.4000*
%
%ADD60ROUNDEDRECTD60*%
G04:AMPARAMS|DCode=61|XSize=0.9mm|YSize=2.4mm|CornerRadius=0.45mm|HoleSize=0mm|Usage=FLASHONLY|Rotation=180.000|XOffset=0mm|YOffset=0mm|HoleType=Round|Shape=RoundedRectangle|*
%AMROUNDEDRECTD61*
21,1,0.9000,1.5000,0,0,180.0*
21,1,0.0000,2.4000,0,0,180.0*
1,1,0.9000,0.0000,0.7500*
1,1,0.9000,0.0000,0.7500*
1,1,0.9000,0.0000,-0.7500*
1,1,0.9000,0.0000,-0.7500*
%
%ADD61ROUNDEDRECTD61*%
%ADD62C,0.6500*%
%ADD63C,0.8032*%
D36*
X71500Y-389500D02*
D03*
X62500Y-389500D02*
D03*
X-67500Y151750D02*
D03*
X-76500Y151750D02*
D03*
X-9500Y294000D02*
D03*
X-500Y294000D02*
D03*
X-16500Y159000D02*
D03*
X-25500D02*
D03*
X-16510Y148844D02*
D03*
X-25510D02*
D03*
X-67500Y80000D02*
D03*
X-58500Y80000D02*
D03*
X-51500Y-233000D02*
D03*
X-42500Y-233000D02*
D03*
X68500Y60000D02*
D03*
X77500Y60000D02*
D03*
X8984Y-144812D02*
D03*
X17984D02*
D03*
X-76106Y26384D02*
D03*
X-67106Y26384D02*
D03*
X-76106Y4794D02*
D03*
X-67106D02*
D03*
X-36034Y210534D02*
D03*
X-27034D02*
D03*
X-64588Y359918D02*
D03*
X-73588Y359918D02*
D03*
X79452Y4763D02*
D03*
X70452Y4764D02*
D03*
X4500Y331000D02*
D03*
X-4500Y331000D02*
D03*
X17730Y-93250D02*
D03*
X8730Y-93250D02*
D03*
X68500Y50000D02*
D03*
X77500Y50000D02*
D03*
X-77500Y-24000D02*
D03*
X-68500Y-24000D02*
D03*
X-49436Y70580D02*
D03*
X-40436D02*
D03*
X79452Y-4888D02*
D03*
X70452D02*
D03*
D37*
X62000Y-376000D02*
D03*
Y-354000D02*
D03*
X-62000D02*
D03*
Y-376000D02*
D03*
D38*
X-70250Y-329000D02*
D03*
Y-338000D02*
D03*
X59000Y48500D02*
D03*
X59000Y57500D02*
D03*
X-11000Y104500D02*
D03*
X-11000Y113500D02*
D03*
X-1000Y104500D02*
D03*
X-1000Y113500D02*
D03*
X63000Y104500D02*
D03*
Y113500D02*
D03*
X77000Y94500D02*
D03*
X77000Y85500D02*
D03*
X67000D02*
D03*
X67000Y94500D02*
D03*
X72000Y-323500D02*
D03*
X72000Y-332500D02*
D03*
X47000Y-332500D02*
D03*
Y-323500D02*
D03*
X34000Y-332500D02*
D03*
Y-323500D02*
D03*
X-59500Y-329000D02*
D03*
X-59500Y-338000D02*
D03*
X-36750Y-339750D02*
D03*
Y-330750D02*
D03*
X-74000Y379000D02*
D03*
Y388000D02*
D03*
X-62000Y379000D02*
D03*
Y388000D02*
D03*
X50038Y166950D02*
D03*
X50038Y175950D02*
D03*
X19072Y189778D02*
D03*
X19072Y198778D02*
D03*
X64507Y-54062D02*
D03*
X64507Y-45062D02*
D03*
X14500Y-72096D02*
D03*
X14500Y-63096D02*
D03*
X35074Y-114658D02*
D03*
Y-123658D02*
D03*
X-73000Y90500D02*
D03*
X-73000Y99500D02*
D03*
X29534Y189806D02*
D03*
X29534Y198806D02*
D03*
X9000Y242500D02*
D03*
X9000Y233500D02*
D03*
X59000Y76500D02*
D03*
X59000Y67500D02*
D03*
X74159Y-54062D02*
D03*
X74159Y-45062D02*
D03*
X-3788Y84958D02*
D03*
X-3788Y75958D02*
D03*
X6118Y75814D02*
D03*
X6118Y66814D02*
D03*
D39*
X0Y0D02*
D03*
D40*
X-38000Y49000D02*
D03*
X-34000D02*
D03*
X-30000D02*
D03*
X-26000D02*
D03*
X-22000D02*
D03*
X-18000D02*
D03*
X-14000D02*
D03*
X-10000D02*
D03*
X-6000D02*
D03*
X-2000D02*
D03*
X2000D02*
D03*
X6000D02*
D03*
X10000D02*
D03*
X14000D02*
D03*
X18000D02*
D03*
X22000D02*
D03*
X26000D02*
D03*
X30000D02*
D03*
X34000D02*
D03*
X38000D02*
D03*
Y-49000D02*
D03*
X34000D02*
D03*
X30000D02*
D03*
X26000D02*
D03*
X22000D02*
D03*
X18000D02*
D03*
X14000D02*
D03*
X10000D02*
D03*
X6000D02*
D03*
X2000D02*
D03*
X-2000D02*
D03*
X-6000D02*
D03*
X-10000D02*
D03*
X-14000D02*
D03*
X-18000D02*
D03*
X-22000D02*
D03*
X-26000D02*
D03*
X-30000D02*
D03*
X-34000D02*
D03*
X-38000D02*
D03*
D41*
X49000Y38000D02*
D03*
Y34000D02*
D03*
Y30000D02*
D03*
Y26000D02*
D03*
Y22000D02*
D03*
Y18000D02*
D03*
Y14000D02*
D03*
Y10000D02*
D03*
Y6000D02*
D03*
Y2000D02*
D03*
Y-2000D02*
D03*
Y-6000D02*
D03*
Y-10000D02*
D03*
Y-14000D02*
D03*
Y-18000D02*
D03*
Y-22000D02*
D03*
Y-26000D02*
D03*
Y-30000D02*
D03*
Y-34000D02*
D03*
Y-38000D02*
D03*
X-49000D02*
D03*
Y-34000D02*
D03*
Y-30000D02*
D03*
Y-26000D02*
D03*
Y-22000D02*
D03*
Y-18000D02*
D03*
Y-14000D02*
D03*
Y-10000D02*
D03*
Y-6000D02*
D03*
Y-2000D02*
D03*
Y2000D02*
D03*
Y6000D02*
D03*
Y10000D02*
D03*
Y14000D02*
D03*
Y18000D02*
D03*
Y22000D02*
D03*
Y26000D02*
D03*
Y30000D02*
D03*
Y34000D02*
D03*
Y38000D02*
D03*
D42*
X-23500Y288500D02*
D03*
X-33000Y288500D02*
D03*
X-42500Y288500D02*
D03*
Y263500D02*
D03*
X-23500Y263500D02*
D03*
D43*
X-71750Y329750D02*
D03*
X-38250Y314250D02*
D03*
Y329750D02*
D03*
X71750D02*
D03*
Y314250D02*
D03*
X38250Y329750D02*
D03*
D44*
X-71750Y314250D02*
D03*
X38250D02*
D03*
D45*
X72050Y-252750D02*
D03*
X59350Y-252750D02*
D03*
X46650Y-252750D02*
D03*
X33950Y-252750D02*
D03*
X72050Y-307250D02*
D03*
X59350D02*
D03*
X46650Y-307250D02*
D03*
X33950Y-307250D02*
D03*
X-33950Y-252750D02*
D03*
X-46650Y-252750D02*
D03*
X-59350D02*
D03*
X-72050Y-252750D02*
D03*
X-33950Y-307250D02*
D03*
X-46650D02*
D03*
X-59350Y-307250D02*
D03*
X-72050Y-307250D02*
D03*
D46*
X77000Y369100D02*
D03*
Y382900D02*
D03*
X9000Y275900D02*
D03*
X9000Y262100D02*
D03*
X-7000Y275800D02*
D03*
Y262000D02*
D03*
D47*
X60000Y366500D02*
D03*
Y385500D02*
D03*
D48*
X-34250Y-365000D02*
D03*
D49*
X41875D02*
D03*
D50*
X-61252Y212742D02*
D03*
Y234742D02*
D03*
D51*
X-7501Y317999D02*
D03*
X7499Y317999D02*
D03*
D52*
X-30222Y196818D02*
D03*
X-44022D02*
D03*
X-73740D02*
D03*
X-59940D02*
D03*
X44768Y83026D02*
D03*
X30968D02*
D03*
X44768Y68040D02*
D03*
X30968D02*
D03*
D53*
X-15606Y-82462D02*
D03*
X-9242Y-76098D02*
D03*
X-36688Y-72048D02*
D03*
X-30324Y-65684D02*
D03*
D54*
X30630Y100552D02*
D03*
X46630D02*
D03*
D55*
X36906Y175838D02*
D03*
Y156838D02*
D03*
X11906Y156838D02*
D03*
X11906Y166338D02*
D03*
X11906Y175838D02*
D03*
D56*
X21980Y-130404D02*
D03*
X21980Y-107404D02*
D03*
X4480D02*
D03*
X4480Y-130404D02*
D03*
D57*
X-32858Y223894D02*
D03*
Y233394D02*
D03*
X-32858Y242894D02*
D03*
X-7858Y242894D02*
D03*
Y233394D02*
D03*
X-7858Y223894D02*
D03*
D58*
X-1000Y-93002D02*
Y-73928D01*
X-5278Y-97280D02*
X-1000Y-93002D01*
X-5278Y-129082D02*
Y-97280D01*
Y-141722D02*
Y-129082D01*
Y-141722D02*
X5178Y-152178D01*
X14255D01*
X42440Y-139224D02*
Y-92488D01*
X14255Y-152178D02*
X19332D01*
X29486D01*
X42440Y-139224D01*
X31899Y-81947D02*
X42440Y-92488D01*
X18437Y-81947D02*
X25168D01*
X31899D01*
X9178Y-152178D02*
X14255D01*
D59*
X-114300Y393700D02*
D03*
Y368300D02*
D03*
Y342900D02*
D03*
Y317500D02*
D03*
Y292100D02*
D03*
Y266700D02*
D03*
Y241300D02*
D03*
Y215900D02*
D03*
Y190500D02*
D03*
Y165100D02*
D03*
Y139700D02*
D03*
Y114300D02*
D03*
Y88900D02*
D03*
Y63500D02*
D03*
Y38100D02*
D03*
Y12700D02*
D03*
Y-12700D02*
D03*
Y-38100D02*
D03*
Y-63500D02*
D03*
Y-88900D02*
D03*
X114300D02*
D03*
Y-63500D02*
D03*
Y-38100D02*
D03*
Y-12700D02*
D03*
Y12700D02*
D03*
Y38100D02*
D03*
Y63500D02*
D03*
Y88900D02*
D03*
Y114300D02*
D03*
Y139700D02*
D03*
Y165100D02*
D03*
Y190500D02*
D03*
Y215900D02*
D03*
Y241300D02*
D03*
Y266700D02*
D03*
Y292100D02*
D03*
Y317500D02*
D03*
Y342900D02*
D03*
Y368300D02*
D03*
Y393700D02*
D03*
Y-114300D02*
D03*
Y-139700D02*
D03*
Y-165100D02*
D03*
Y-190500D02*
D03*
Y-215900D02*
D03*
Y-241300D02*
D03*
Y-266700D02*
D03*
Y-292100D02*
D03*
Y-317500D02*
D03*
Y-342900D02*
D03*
Y-368300D02*
D03*
Y-393700D02*
D03*
X-114300D02*
D03*
Y-368300D02*
D03*
Y-342900D02*
D03*
Y-317500D02*
D03*
Y-292100D02*
D03*
Y-266700D02*
D03*
Y-241300D02*
D03*
Y-215900D02*
D03*
Y-190500D02*
D03*
Y-165100D02*
D03*
Y-139700D02*
D03*
Y-114300D02*
D03*
D60*
X43250Y395780D02*
D03*
X-43250D02*
D03*
D61*
X43250Y361980D02*
D03*
X-43250D02*
D03*
D62*
X29750Y352180D02*
D03*
X21250D02*
D03*
X12750D02*
D03*
X4250D02*
D03*
X-4250D02*
D03*
X-12750D02*
D03*
X-21250D02*
D03*
X-29750D02*
D03*
Y365680D02*
D03*
X-21250D02*
D03*
X-12750D02*
D03*
X-4250D02*
D03*
X4250D02*
D03*
X12750D02*
D03*
X21250D02*
D03*
X29750D02*
D03*
D63*
X13500Y0D02*
D03*
X-13500D02*
D03*
X0Y-13500D02*
D03*
Y13500D02*
D03*
X-13500D02*
D03*
X13500D02*
D03*
Y-13500D02*
D03*
X-13500D02*
D03*
X0Y0D02*
D03*
M02*
