G04*
G04 #@! TF.GenerationSoftware,Altium Limited,Altium Designer,25.5.2 (35)*
G04*
G04 Layer_Physical_Order=3*
G04 Layer_Color=32768*
%FSLAX44Y44*%
%MOMM*%
G71*
G04*
G04 #@! TF.SameCoordinates,D8F344CF-23F0-4092-AEBD-71A9FCF73610*
G04*
G04*
G04 #@! TF.FilePolarity,Positive*
G04*
G01*
G75*
%ADD14C,0.1524*%
G04:AMPARAMS|DCode=60|XSize=0.9mm|YSize=1.7mm|CornerRadius=0.45mm|HoleSize=0mm|Usage=FLASHONLY|Rotation=180.000|XOffset=0mm|YOffset=0mm|HoleType=Round|Shape=RoundedRectangle|*
%AMROUNDEDRECTD60*
21,1,0.9000,0.8000,0,0,180.0*
21,1,0.0000,1.7000,0,0,180.0*
1,1,0.9000,0.0000,0.4000*
1,1,0.9000,0.0000,0.4000*
1,1,0.9000,0.0000,-0.4000*
1,1,0.9000,0.0000,-0.4000*
%
%ADD60ROUNDEDRECTD60*%
G04:AMPARAMS|DCode=61|XSize=0.9mm|YSize=2.4mm|CornerRadius=0.45mm|HoleSize=0mm|Usage=FLASHONLY|Rotation=180.000|XOffset=0mm|YOffset=0mm|HoleType=Round|Shape=RoundedRectangle|*
%AMROUNDEDRECTD61*
21,1,0.9000,1.5000,0,0,180.0*
21,1,0.0000,2.4000,0,0,180.0*
1,1,0.9000,0.0000,0.7500*
1,1,0.9000,0.0000,0.7500*
1,1,0.9000,0.0000,-0.7500*
1,1,0.9000,0.0000,-0.7500*
%
%ADD61ROUNDEDRECTD61*%
%ADD62C,0.6500*%
%ADD66C,0.5000*%
%ADD76C,0.6000*%
%ADD77C,0.6604*%
%ADD79C,1.8000*%
G36*
X107279Y401562D02*
X105879Y400162D01*
X104493Y397762D01*
X103776Y395085D01*
Y392314D01*
X104493Y389638D01*
X105879Y387238D01*
X107838Y385279D01*
X110238Y383893D01*
X112914Y383176D01*
X115686D01*
X118362Y383893D01*
X120762Y385279D01*
X122162Y386679D01*
X123686Y386048D01*
Y375952D01*
X122162Y375321D01*
X120762Y376721D01*
X118362Y378107D01*
X115686Y378824D01*
X112914D01*
X110238Y378107D01*
X107838Y376721D01*
X105879Y374762D01*
X104493Y372362D01*
X103776Y369686D01*
Y366914D01*
X104493Y364238D01*
X105879Y361838D01*
X107838Y359879D01*
X110238Y358493D01*
X112914Y357776D01*
X115686D01*
X118362Y358493D01*
X120762Y359879D01*
X122162Y361279D01*
X123686Y360648D01*
Y350552D01*
X122162Y349921D01*
X120762Y351321D01*
X118362Y352707D01*
X115686Y353424D01*
X112914D01*
X110238Y352707D01*
X107838Y351321D01*
X105879Y349362D01*
X104493Y346962D01*
X103776Y344286D01*
Y341515D01*
X104493Y338838D01*
X105879Y336438D01*
X107838Y334479D01*
X110238Y333093D01*
X112914Y332376D01*
X115686D01*
X118362Y333093D01*
X120762Y334479D01*
X122162Y335879D01*
X123686Y335248D01*
Y299752D01*
X122162Y299121D01*
X120762Y300521D01*
X118362Y301907D01*
X115686Y302624D01*
X112914D01*
X110238Y301907D01*
X107838Y300521D01*
X105879Y298562D01*
X104493Y296162D01*
X103776Y293486D01*
Y290714D01*
X104493Y288038D01*
X105879Y285638D01*
X107838Y283679D01*
X110238Y282293D01*
X112914Y281576D01*
X115686D01*
X118362Y282293D01*
X120762Y283679D01*
X122162Y285079D01*
X123686Y284448D01*
Y274352D01*
X122162Y273721D01*
X120762Y275121D01*
X118362Y276507D01*
X115686Y277224D01*
X112914D01*
X110238Y276507D01*
X107838Y275121D01*
X105879Y273162D01*
X104493Y270762D01*
X103776Y268085D01*
Y265315D01*
X104493Y262638D01*
X105879Y260238D01*
X107838Y258279D01*
X110238Y256893D01*
X112914Y256176D01*
X115686D01*
X118362Y256893D01*
X120762Y258279D01*
X122162Y259679D01*
X123686Y259048D01*
Y248952D01*
X122162Y248321D01*
X120762Y249721D01*
X118362Y251107D01*
X115686Y251824D01*
X112914D01*
X110238Y251107D01*
X107838Y249721D01*
X105879Y247762D01*
X104493Y245362D01*
X103776Y242686D01*
Y239914D01*
X104493Y237238D01*
X105879Y234838D01*
X107838Y232879D01*
X110238Y231493D01*
X112914Y230776D01*
X115686D01*
X118362Y231493D01*
X120762Y232879D01*
X122162Y234279D01*
X123686Y233648D01*
Y223552D01*
X122162Y222921D01*
X120762Y224321D01*
X118362Y225707D01*
X115686Y226424D01*
X112914D01*
X110238Y225707D01*
X107838Y224321D01*
X105879Y222362D01*
X104493Y219962D01*
X103776Y217285D01*
Y214515D01*
X104493Y211838D01*
X105879Y209438D01*
X107838Y207479D01*
X110238Y206093D01*
X112914Y205376D01*
X115686D01*
X118362Y206093D01*
X120762Y207479D01*
X122162Y208879D01*
X123686Y208248D01*
Y198152D01*
X122162Y197521D01*
X120762Y198921D01*
X118362Y200307D01*
X115686Y201024D01*
X112914D01*
X110238Y200307D01*
X107838Y198921D01*
X105879Y196962D01*
X104493Y194562D01*
X103776Y191886D01*
Y189114D01*
X104493Y186438D01*
X105879Y184038D01*
X107838Y182079D01*
X110238Y180693D01*
X112914Y179976D01*
X115686D01*
X118362Y180693D01*
X120762Y182079D01*
X122162Y183479D01*
X123686Y182848D01*
Y172752D01*
X122162Y172121D01*
X120762Y173521D01*
X118362Y174907D01*
X115686Y175624D01*
X112914D01*
X110238Y174907D01*
X107838Y173521D01*
X105879Y171562D01*
X104493Y169162D01*
X103776Y166486D01*
Y163715D01*
X104493Y161038D01*
X105879Y158638D01*
X107838Y156679D01*
X110238Y155293D01*
X112914Y154576D01*
X115686D01*
X118362Y155293D01*
X120762Y156679D01*
X122162Y158079D01*
X123686Y157448D01*
Y147352D01*
X122162Y146721D01*
X120762Y148121D01*
X118362Y149507D01*
X115686Y150224D01*
X112914D01*
X110238Y149507D01*
X107838Y148121D01*
X105879Y146162D01*
X104493Y143762D01*
X103776Y141086D01*
Y138315D01*
X104493Y135638D01*
X105879Y133238D01*
X107838Y131279D01*
X110238Y129893D01*
X112914Y129176D01*
X115686D01*
X118362Y129893D01*
X120762Y131279D01*
X122162Y132679D01*
X123686Y132048D01*
Y121952D01*
X122162Y121321D01*
X120762Y122721D01*
X118362Y124107D01*
X115686Y124824D01*
X112914D01*
X110238Y124107D01*
X107838Y122721D01*
X105879Y120762D01*
X104493Y118362D01*
X103776Y115686D01*
Y112914D01*
X104493Y110238D01*
X105879Y107838D01*
X107838Y105879D01*
X110238Y104493D01*
X112914Y103776D01*
X115686D01*
X118362Y104493D01*
X120762Y105879D01*
X122162Y107279D01*
X123686Y106648D01*
Y96552D01*
X122162Y95921D01*
X120762Y97321D01*
X118362Y98707D01*
X115686Y99424D01*
X112914D01*
X110238Y98707D01*
X107838Y97321D01*
X105879Y95362D01*
X104493Y92962D01*
X103776Y90286D01*
Y87514D01*
X104493Y84838D01*
X105879Y82438D01*
X107838Y80479D01*
X110238Y79093D01*
X112914Y78376D01*
X115686D01*
X118362Y79093D01*
X120762Y80479D01*
X122162Y81879D01*
X123686Y81248D01*
Y71152D01*
X122162Y70521D01*
X120762Y71921D01*
X118362Y73307D01*
X115686Y74024D01*
X112914D01*
X110238Y73307D01*
X107838Y71921D01*
X105879Y69962D01*
X104493Y67562D01*
X103776Y64886D01*
Y62115D01*
X104493Y59438D01*
X105879Y57038D01*
X107838Y55079D01*
X110238Y53693D01*
X112914Y52976D01*
X115686D01*
X118362Y53693D01*
X120762Y55079D01*
X122162Y56479D01*
X123686Y55848D01*
Y45752D01*
X122162Y45121D01*
X120762Y46521D01*
X118362Y47907D01*
X115686Y48624D01*
X112914D01*
X110238Y47907D01*
X107838Y46521D01*
X105879Y44562D01*
X104493Y42162D01*
X103776Y39485D01*
Y36714D01*
X104493Y34038D01*
X105879Y31638D01*
X107838Y29679D01*
X110238Y28293D01*
X112914Y27576D01*
X115686D01*
X118362Y28293D01*
X120762Y29679D01*
X122162Y31079D01*
X123686Y30448D01*
Y20352D01*
X122162Y19721D01*
X120762Y21121D01*
X118362Y22507D01*
X115686Y23224D01*
X112914D01*
X110238Y22507D01*
X107838Y21121D01*
X105879Y19162D01*
X104493Y16762D01*
X103776Y14086D01*
Y11315D01*
X104493Y8638D01*
X105879Y6238D01*
X107838Y4279D01*
X110238Y2893D01*
X112914Y2176D01*
X115686D01*
X118362Y2893D01*
X120762Y4279D01*
X122162Y5679D01*
X123686Y5048D01*
X123686Y-5048D01*
X122162Y-5679D01*
X120762Y-4279D01*
X118362Y-2893D01*
X115686Y-2176D01*
X112914D01*
X110238Y-2893D01*
X107838Y-4279D01*
X105879Y-6238D01*
X104493Y-8638D01*
X103776Y-11315D01*
Y-14086D01*
X104493Y-16762D01*
X105879Y-19162D01*
X107838Y-21121D01*
X110238Y-22507D01*
X112914Y-23224D01*
X115686D01*
X118362Y-22507D01*
X120762Y-21121D01*
X122162Y-19721D01*
X123686Y-20352D01*
Y-30448D01*
X122162Y-31079D01*
X120762Y-29679D01*
X118362Y-28293D01*
X115686Y-27576D01*
X112914D01*
X110238Y-28293D01*
X107838Y-29679D01*
X105879Y-31638D01*
X104493Y-34038D01*
X103776Y-36714D01*
Y-39485D01*
X104493Y-42162D01*
X105879Y-44562D01*
X107838Y-46521D01*
X110238Y-47907D01*
X112914Y-48624D01*
X115686D01*
X118362Y-47907D01*
X120762Y-46521D01*
X122162Y-45121D01*
X123686Y-45752D01*
Y-55848D01*
X122162Y-56479D01*
X120762Y-55079D01*
X118362Y-53693D01*
X115686Y-52976D01*
X112914D01*
X110238Y-53693D01*
X107838Y-55079D01*
X105879Y-57038D01*
X104493Y-59438D01*
X103776Y-62115D01*
Y-64886D01*
X104493Y-67562D01*
X105879Y-69962D01*
X107838Y-71921D01*
X110238Y-73307D01*
X112914Y-74024D01*
X115686D01*
X118362Y-73307D01*
X120762Y-71921D01*
X122162Y-70521D01*
X123686Y-71152D01*
Y-81248D01*
X122162Y-81879D01*
X120762Y-80479D01*
X118362Y-79093D01*
X115686Y-78376D01*
X112914D01*
X110238Y-79093D01*
X107838Y-80479D01*
X105879Y-82438D01*
X104493Y-84838D01*
X103776Y-87514D01*
Y-90286D01*
X104493Y-92962D01*
X105879Y-95362D01*
X107838Y-97321D01*
X110238Y-98707D01*
X112914Y-99424D01*
X115686D01*
X118362Y-98707D01*
X120762Y-97321D01*
X122162Y-95921D01*
X123686Y-96552D01*
Y-106648D01*
X122162Y-107279D01*
X120762Y-105879D01*
X118362Y-104493D01*
X115686Y-103776D01*
X112914D01*
X110238Y-104493D01*
X107838Y-105879D01*
X105879Y-107838D01*
X104493Y-110238D01*
X103776Y-112914D01*
Y-115686D01*
X104493Y-118362D01*
X105879Y-120762D01*
X107838Y-122721D01*
X110238Y-124107D01*
X112914Y-124824D01*
X115686D01*
X118362Y-124107D01*
X120762Y-122721D01*
X122162Y-121321D01*
X123686Y-121952D01*
Y-132048D01*
X122162Y-132679D01*
X120762Y-131279D01*
X118362Y-129893D01*
X115686Y-129176D01*
X112914D01*
X110238Y-129893D01*
X107838Y-131279D01*
X105879Y-133238D01*
X104493Y-135638D01*
X103776Y-138315D01*
Y-141086D01*
X104493Y-143762D01*
X105879Y-146162D01*
X107838Y-148121D01*
X110238Y-149507D01*
X112914Y-150224D01*
X115686D01*
X118362Y-149507D01*
X120762Y-148121D01*
X122162Y-146721D01*
X123686Y-147352D01*
Y-157448D01*
X122162Y-158079D01*
X120762Y-156679D01*
X118362Y-155293D01*
X115686Y-154576D01*
X112914D01*
X110238Y-155293D01*
X107838Y-156679D01*
X105879Y-158638D01*
X104493Y-161038D01*
X103776Y-163715D01*
Y-166486D01*
X104493Y-169162D01*
X105879Y-171562D01*
X107838Y-173521D01*
X110238Y-174907D01*
X112914Y-175624D01*
X115686D01*
X118362Y-174907D01*
X120762Y-173521D01*
X122162Y-172121D01*
X123686Y-172752D01*
Y-182848D01*
X122162Y-183479D01*
X120762Y-182079D01*
X118362Y-180693D01*
X115686Y-179976D01*
X112914D01*
X110238Y-180693D01*
X107838Y-182079D01*
X105879Y-184038D01*
X104493Y-186438D01*
X103776Y-189114D01*
Y-191886D01*
X104493Y-194562D01*
X105879Y-196962D01*
X107838Y-198921D01*
X110238Y-200307D01*
X112914Y-201024D01*
X115686D01*
X118362Y-200307D01*
X120762Y-198921D01*
X122162Y-197521D01*
X123686Y-198152D01*
Y-208248D01*
X122162Y-208879D01*
X120762Y-207479D01*
X118362Y-206093D01*
X115686Y-205376D01*
X112914D01*
X110238Y-206093D01*
X107838Y-207479D01*
X105879Y-209438D01*
X104493Y-211838D01*
X103776Y-214515D01*
Y-217285D01*
X104493Y-219962D01*
X105879Y-222362D01*
X107838Y-224321D01*
X110238Y-225707D01*
X112914Y-226424D01*
X115686D01*
X118362Y-225707D01*
X120762Y-224321D01*
X122162Y-222921D01*
X123686Y-223552D01*
Y-233648D01*
X122162Y-234279D01*
X120762Y-232879D01*
X118362Y-231493D01*
X115686Y-230776D01*
X112914D01*
X110238Y-231493D01*
X107838Y-232879D01*
X105879Y-234838D01*
X104493Y-237238D01*
X103776Y-239914D01*
Y-242686D01*
X104493Y-245362D01*
X105879Y-247762D01*
X107838Y-249721D01*
X110238Y-251107D01*
X112914Y-251824D01*
X115686D01*
X118362Y-251107D01*
X120762Y-249721D01*
X122162Y-248321D01*
X123686Y-248952D01*
Y-259048D01*
X122162Y-259679D01*
X120762Y-258279D01*
X118362Y-256893D01*
X115686Y-256176D01*
X112914D01*
X110238Y-256893D01*
X107838Y-258279D01*
X105879Y-260238D01*
X104493Y-262638D01*
X103776Y-265315D01*
Y-268085D01*
X104493Y-270762D01*
X105879Y-273162D01*
X107838Y-275121D01*
X110238Y-276507D01*
X112914Y-277224D01*
X115686D01*
X118362Y-276507D01*
X120762Y-275121D01*
X122162Y-273721D01*
X123686Y-274352D01*
Y-284448D01*
X122162Y-285079D01*
X120762Y-283679D01*
X118362Y-282293D01*
X115686Y-281576D01*
X112914D01*
X110238Y-282293D01*
X107838Y-283679D01*
X107109Y-284407D01*
X106929Y-284447D01*
X99298Y-289769D01*
X94234D01*
X93342Y-289947D01*
X92586Y-290452D01*
X82934Y-300104D01*
X82429Y-300860D01*
X82251Y-301752D01*
Y-317043D01*
X60238Y-339056D01*
X57703Y-339850D01*
X57643Y-339900D01*
X57266D01*
X55603Y-340589D01*
X54331Y-341861D01*
X53642Y-343524D01*
Y-345324D01*
X54331Y-346987D01*
X55603Y-348259D01*
X57266Y-348948D01*
X59066D01*
X60729Y-348259D01*
X62001Y-346987D01*
X62568Y-345618D01*
X63801Y-345478D01*
X64131Y-345524D01*
X64665Y-346813D01*
X65937Y-348085D01*
X67600Y-348774D01*
X69400D01*
X71063Y-348085D01*
X72335Y-346813D01*
X73024Y-345150D01*
Y-343350D01*
X72335Y-341687D01*
X71063Y-340415D01*
X69400Y-339726D01*
X68316D01*
X67684Y-338202D01*
X86230Y-319656D01*
X86735Y-318900D01*
X86913Y-318008D01*
Y-302717D01*
X95199Y-294431D01*
X99298D01*
X106929Y-299753D01*
X107109Y-299793D01*
X107838Y-300521D01*
X110238Y-301907D01*
X112914Y-302624D01*
X115686D01*
X118362Y-301907D01*
X120762Y-300521D01*
X122162Y-299121D01*
X123686Y-299752D01*
Y-309848D01*
X122162Y-310479D01*
X120762Y-309079D01*
X118362Y-307693D01*
X115686Y-306976D01*
X112914D01*
X110238Y-307693D01*
X107838Y-309079D01*
X105879Y-311038D01*
X104493Y-313438D01*
X103776Y-316115D01*
Y-318885D01*
X104493Y-321562D01*
X105879Y-323962D01*
X107838Y-325921D01*
X110238Y-327307D01*
X112914Y-328024D01*
X115686D01*
X118362Y-327307D01*
X120762Y-325921D01*
X122162Y-324521D01*
X123686Y-325152D01*
Y-335248D01*
X122162Y-335879D01*
X120762Y-334479D01*
X118362Y-333093D01*
X115686Y-332376D01*
X112914D01*
X110238Y-333093D01*
X107838Y-334479D01*
X105879Y-336438D01*
X104493Y-338838D01*
X103776Y-341515D01*
Y-344286D01*
X104493Y-346962D01*
X105879Y-349362D01*
X107838Y-351321D01*
X110238Y-352707D01*
X112914Y-353424D01*
X115686D01*
X118362Y-352707D01*
X120762Y-351321D01*
X122162Y-349921D01*
X123686Y-350552D01*
Y-360648D01*
X122162Y-361279D01*
X120762Y-359879D01*
X118362Y-358493D01*
X115686Y-357776D01*
X112914D01*
X110238Y-358493D01*
X107838Y-359879D01*
X105879Y-361838D01*
X104493Y-364238D01*
X103776Y-366914D01*
Y-369686D01*
X104493Y-372362D01*
X105879Y-374762D01*
X107838Y-376721D01*
X110238Y-378107D01*
X112914Y-378824D01*
X115686D01*
X118362Y-378107D01*
X120762Y-376721D01*
X122162Y-375321D01*
X123686Y-375952D01*
Y-386048D01*
X122162Y-386679D01*
X120762Y-385279D01*
X118362Y-383893D01*
X115686Y-383176D01*
X112914D01*
X110238Y-383893D01*
X107838Y-385279D01*
X105879Y-387238D01*
X104493Y-389638D01*
X103776Y-392314D01*
Y-395085D01*
X104493Y-397762D01*
X105879Y-400162D01*
X107279Y-401562D01*
X106648Y-403086D01*
X-120650Y-403086D01*
Y-403081D01*
X-121810Y-402850D01*
X-122793Y-402193D01*
X-123450Y-401210D01*
X-123681Y-400050D01*
X-123686Y-400050D01*
Y-375952D01*
X-122162Y-375321D01*
X-120762Y-376721D01*
X-118362Y-378107D01*
X-115686Y-378824D01*
X-112914D01*
X-110238Y-378107D01*
X-107838Y-376721D01*
X-105879Y-374762D01*
X-104493Y-372362D01*
X-103776Y-369686D01*
Y-366914D01*
X-104493Y-364238D01*
X-105879Y-361838D01*
X-107838Y-359879D01*
X-110238Y-358493D01*
X-112914Y-357776D01*
X-115686D01*
X-118362Y-358493D01*
X-120762Y-359879D01*
X-122162Y-361279D01*
X-123686Y-360648D01*
Y-350552D01*
X-122162Y-349921D01*
X-120762Y-351321D01*
X-118362Y-352707D01*
X-115686Y-353424D01*
X-112914D01*
X-110238Y-352707D01*
X-107838Y-351321D01*
X-105879Y-349362D01*
X-104493Y-346962D01*
X-103776Y-344286D01*
Y-341515D01*
X-104493Y-338838D01*
X-105879Y-336438D01*
X-107838Y-334479D01*
X-110238Y-333093D01*
X-112914Y-332376D01*
X-115686D01*
X-118362Y-333093D01*
X-120762Y-334479D01*
X-122162Y-335879D01*
X-123686Y-335248D01*
Y-325152D01*
X-122162Y-324521D01*
X-120762Y-325921D01*
X-118362Y-327307D01*
X-115686Y-328024D01*
X-112914D01*
X-110238Y-327307D01*
X-107838Y-325921D01*
X-105879Y-323962D01*
X-104493Y-321562D01*
X-103776Y-318885D01*
Y-316115D01*
X-104493Y-313438D01*
X-105879Y-311038D01*
X-107838Y-309079D01*
X-110238Y-307693D01*
X-112914Y-306976D01*
X-115686D01*
X-118362Y-307693D01*
X-120762Y-309079D01*
X-122162Y-310479D01*
X-123686Y-309848D01*
Y-299752D01*
X-122162Y-299121D01*
X-120762Y-300521D01*
X-118362Y-301907D01*
X-115686Y-302624D01*
X-112914D01*
X-110238Y-301907D01*
X-107838Y-300521D01*
X-105879Y-298562D01*
X-104493Y-296162D01*
X-103776Y-293486D01*
Y-290714D01*
X-104493Y-288038D01*
X-105879Y-285638D01*
X-107838Y-283679D01*
X-110238Y-282293D01*
X-112914Y-281576D01*
X-115686D01*
X-118362Y-282293D01*
X-120762Y-283679D01*
X-122162Y-285079D01*
X-123686Y-284448D01*
Y-274352D01*
X-122162Y-273721D01*
X-120762Y-275121D01*
X-118362Y-276507D01*
X-115686Y-277224D01*
X-112914D01*
X-110238Y-276507D01*
X-107838Y-275121D01*
X-105879Y-273162D01*
X-104493Y-270762D01*
X-103776Y-268085D01*
Y-265315D01*
X-104493Y-262638D01*
X-105879Y-260238D01*
X-107838Y-258279D01*
X-110238Y-256893D01*
X-112914Y-256176D01*
X-115686D01*
X-118362Y-256893D01*
X-120762Y-258279D01*
X-122162Y-259679D01*
X-123686Y-259048D01*
Y-248952D01*
X-122162Y-248321D01*
X-120762Y-249721D01*
X-118362Y-251107D01*
X-115686Y-251824D01*
X-112914D01*
X-110238Y-251107D01*
X-107838Y-249721D01*
X-105879Y-247762D01*
X-104493Y-245362D01*
X-103776Y-242686D01*
Y-239914D01*
X-104493Y-237238D01*
X-105879Y-234838D01*
X-107838Y-232879D01*
X-110238Y-231493D01*
X-112914Y-230776D01*
X-115686D01*
X-118362Y-231493D01*
X-120762Y-232879D01*
X-122162Y-234279D01*
X-123686Y-233648D01*
Y-223552D01*
X-122162Y-222921D01*
X-120762Y-224321D01*
X-118362Y-225707D01*
X-115686Y-226424D01*
X-112914D01*
X-110238Y-225707D01*
X-107838Y-224321D01*
X-105879Y-222362D01*
X-104493Y-219962D01*
X-103776Y-217285D01*
Y-214515D01*
X-104493Y-211838D01*
X-105879Y-209438D01*
X-107838Y-207479D01*
X-110238Y-206093D01*
X-112914Y-205376D01*
X-115686D01*
X-118362Y-206093D01*
X-120762Y-207479D01*
X-122162Y-208879D01*
X-123686Y-208248D01*
Y-198152D01*
X-122162Y-197521D01*
X-120762Y-198921D01*
X-118362Y-200307D01*
X-115686Y-201024D01*
X-112914D01*
X-110238Y-200307D01*
X-107838Y-198921D01*
X-105879Y-196962D01*
X-104493Y-194562D01*
X-103776Y-191886D01*
Y-189114D01*
X-104493Y-186438D01*
X-105879Y-184038D01*
X-107838Y-182079D01*
X-110238Y-180693D01*
X-112914Y-179976D01*
X-115686D01*
X-118362Y-180693D01*
X-120762Y-182079D01*
X-122162Y-183479D01*
X-123686Y-182848D01*
Y-172752D01*
X-122162Y-172121D01*
X-120762Y-173521D01*
X-118362Y-174907D01*
X-115686Y-175624D01*
X-112914D01*
X-110238Y-174907D01*
X-107838Y-173521D01*
X-105879Y-171562D01*
X-104493Y-169162D01*
X-103776Y-166486D01*
Y-163715D01*
X-104493Y-161038D01*
X-105879Y-158638D01*
X-107838Y-156679D01*
X-110238Y-155293D01*
X-112914Y-154576D01*
X-115686D01*
X-118362Y-155293D01*
X-120762Y-156679D01*
X-122162Y-158079D01*
X-123686Y-157448D01*
Y-147352D01*
X-122162Y-146721D01*
X-120762Y-148121D01*
X-118362Y-149507D01*
X-115686Y-150224D01*
X-112914D01*
X-110238Y-149507D01*
X-107838Y-148121D01*
X-105879Y-146162D01*
X-104493Y-143762D01*
X-103776Y-141086D01*
Y-138315D01*
X-104493Y-135638D01*
X-105879Y-133238D01*
X-107838Y-131279D01*
X-110238Y-129893D01*
X-112914Y-129176D01*
X-115686D01*
X-118362Y-129893D01*
X-120762Y-131279D01*
X-122162Y-132679D01*
X-123686Y-132048D01*
Y-121952D01*
X-122162Y-121321D01*
X-120762Y-122721D01*
X-118362Y-124107D01*
X-115686Y-124824D01*
X-112914D01*
X-110238Y-124107D01*
X-107838Y-122721D01*
X-105879Y-120762D01*
X-104493Y-118362D01*
X-103776Y-115686D01*
Y-112914D01*
X-104493Y-110238D01*
X-105879Y-107838D01*
X-107838Y-105879D01*
X-110238Y-104493D01*
X-112914Y-103776D01*
X-115686D01*
X-118362Y-104493D01*
X-120762Y-105879D01*
X-122162Y-107279D01*
X-123686Y-106648D01*
Y-96552D01*
X-122162Y-95921D01*
X-120762Y-97321D01*
X-118362Y-98707D01*
X-115686Y-99424D01*
X-112914D01*
X-110238Y-98707D01*
X-107838Y-97321D01*
X-105879Y-95362D01*
X-104493Y-92962D01*
X-103776Y-90286D01*
Y-87514D01*
X-104493Y-84838D01*
X-105879Y-82438D01*
X-107838Y-80479D01*
X-110238Y-79093D01*
X-112914Y-78376D01*
X-115686D01*
X-118362Y-79093D01*
X-120762Y-80479D01*
X-122162Y-81879D01*
X-123686Y-81248D01*
Y-71152D01*
X-122162Y-70521D01*
X-120762Y-71921D01*
X-118362Y-73307D01*
X-115686Y-74024D01*
X-112914D01*
X-110238Y-73307D01*
X-107838Y-71921D01*
X-105879Y-69962D01*
X-104493Y-67562D01*
X-103776Y-64886D01*
Y-62115D01*
X-104493Y-59438D01*
X-105879Y-57038D01*
X-107838Y-55079D01*
X-110238Y-53693D01*
X-112914Y-52976D01*
X-115686D01*
X-118362Y-53693D01*
X-120762Y-55079D01*
X-122162Y-56479D01*
X-123686Y-55848D01*
Y-45752D01*
X-122162Y-45121D01*
X-120762Y-46521D01*
X-118362Y-47907D01*
X-115686Y-48624D01*
X-112914D01*
X-110238Y-47907D01*
X-107838Y-46521D01*
X-105879Y-44562D01*
X-104493Y-42162D01*
X-103776Y-39485D01*
Y-36714D01*
X-104493Y-34038D01*
X-105879Y-31638D01*
X-107838Y-29679D01*
X-110238Y-28293D01*
X-112914Y-27576D01*
X-115686D01*
X-118362Y-28293D01*
X-120762Y-29679D01*
X-122162Y-31079D01*
X-123686Y-30448D01*
Y-20352D01*
X-122162Y-19721D01*
X-120762Y-21121D01*
X-118362Y-22507D01*
X-115686Y-23224D01*
X-112914D01*
X-110238Y-22507D01*
X-107838Y-21121D01*
X-105879Y-19162D01*
X-104493Y-16762D01*
X-103776Y-14086D01*
Y-11315D01*
X-104493Y-8638D01*
X-105879Y-6238D01*
X-107838Y-4279D01*
X-110238Y-2893D01*
X-112914Y-2176D01*
X-115686D01*
X-118362Y-2893D01*
X-120762Y-4279D01*
X-122162Y-5679D01*
X-123686Y-5048D01*
Y5048D01*
X-122162Y5679D01*
X-120762Y4279D01*
X-118362Y2893D01*
X-115686Y2176D01*
X-112914D01*
X-110238Y2893D01*
X-107838Y4279D01*
X-105879Y6238D01*
X-104493Y8638D01*
X-103776Y11315D01*
Y14086D01*
X-104493Y16762D01*
X-105879Y19162D01*
X-107838Y21121D01*
X-110238Y22507D01*
X-112914Y23224D01*
X-115686D01*
X-118362Y22507D01*
X-120762Y21121D01*
X-122162Y19721D01*
X-123686Y20352D01*
Y30448D01*
X-122162Y31079D01*
X-120762Y29679D01*
X-118362Y28293D01*
X-115686Y27576D01*
X-112914D01*
X-110238Y28293D01*
X-107838Y29679D01*
X-105879Y31638D01*
X-104493Y34038D01*
X-103776Y36714D01*
Y39485D01*
X-104493Y42162D01*
X-105879Y44562D01*
X-107838Y46521D01*
X-110238Y47907D01*
X-112914Y48624D01*
X-115686D01*
X-118362Y47907D01*
X-120762Y46521D01*
X-122162Y45121D01*
X-123686Y45752D01*
Y55848D01*
X-122162Y56479D01*
X-120762Y55079D01*
X-118362Y53693D01*
X-115686Y52976D01*
X-112914D01*
X-110238Y53693D01*
X-107838Y55079D01*
X-105879Y57038D01*
X-104493Y59438D01*
X-103776Y62115D01*
Y64886D01*
X-104493Y67562D01*
X-105879Y69962D01*
X-107838Y71921D01*
X-110238Y73307D01*
X-112914Y74024D01*
X-115686D01*
X-118362Y73307D01*
X-120762Y71921D01*
X-122162Y70521D01*
X-123686Y71152D01*
Y81248D01*
X-122162Y81879D01*
X-120762Y80479D01*
X-118362Y79093D01*
X-115686Y78376D01*
X-112914D01*
X-110238Y79093D01*
X-107838Y80479D01*
X-105879Y82438D01*
X-104493Y84838D01*
X-103776Y87514D01*
Y90286D01*
X-104493Y92962D01*
X-105879Y95362D01*
X-107838Y97321D01*
X-110238Y98707D01*
X-112914Y99424D01*
X-115686D01*
X-118362Y98707D01*
X-120762Y97321D01*
X-122162Y95921D01*
X-123686Y96552D01*
Y106648D01*
X-122162Y107279D01*
X-120762Y105879D01*
X-118362Y104493D01*
X-115686Y103776D01*
X-112914D01*
X-110238Y104493D01*
X-107838Y105879D01*
X-105879Y107838D01*
X-104493Y110238D01*
X-103776Y112914D01*
Y115686D01*
X-104493Y118362D01*
X-105879Y120762D01*
X-107838Y122721D01*
X-110238Y124107D01*
X-112914Y124824D01*
X-115686D01*
X-118362Y124107D01*
X-120762Y122721D01*
X-122162Y121321D01*
X-123686Y121952D01*
Y132048D01*
X-122162Y132679D01*
X-120762Y131279D01*
X-118362Y129893D01*
X-115686Y129176D01*
X-112914D01*
X-110238Y129893D01*
X-107838Y131279D01*
X-105879Y133238D01*
X-104493Y135638D01*
X-103776Y138315D01*
Y141086D01*
X-104493Y143762D01*
X-105879Y146162D01*
X-107838Y148121D01*
X-110238Y149507D01*
X-112914Y150224D01*
X-115686D01*
X-118362Y149507D01*
X-120762Y148121D01*
X-122162Y146721D01*
X-123686Y147352D01*
Y157448D01*
X-122162Y158079D01*
X-120762Y156679D01*
X-118362Y155293D01*
X-115686Y154576D01*
X-112914D01*
X-110238Y155293D01*
X-107838Y156679D01*
X-105879Y158638D01*
X-104493Y161038D01*
X-103776Y163715D01*
Y166486D01*
X-104493Y169162D01*
X-105879Y171562D01*
X-107838Y173521D01*
X-110238Y174907D01*
X-112914Y175624D01*
X-115686D01*
X-118362Y174907D01*
X-120762Y173521D01*
X-122162Y172121D01*
X-123686Y172752D01*
Y182848D01*
X-122162Y183479D01*
X-120762Y182079D01*
X-118362Y180693D01*
X-115686Y179976D01*
X-112914D01*
X-110238Y180693D01*
X-107838Y182079D01*
X-105879Y184038D01*
X-104493Y186438D01*
X-103776Y189114D01*
Y191886D01*
X-104493Y194562D01*
X-105879Y196962D01*
X-107838Y198921D01*
X-110238Y200307D01*
X-112914Y201024D01*
X-115686D01*
X-118362Y200307D01*
X-120762Y198921D01*
X-122162Y197521D01*
X-123686Y198152D01*
Y208248D01*
X-122162Y208879D01*
X-120762Y207479D01*
X-118362Y206093D01*
X-115686Y205376D01*
X-112914D01*
X-110238Y206093D01*
X-107838Y207479D01*
X-105879Y209438D01*
X-104493Y211838D01*
X-103776Y214515D01*
Y217285D01*
X-104493Y219962D01*
X-105879Y222362D01*
X-107838Y224321D01*
X-110238Y225707D01*
X-112914Y226424D01*
X-115686D01*
X-118362Y225707D01*
X-120762Y224321D01*
X-122162Y222921D01*
X-123686Y223552D01*
Y233648D01*
X-122162Y234279D01*
X-120762Y232879D01*
X-118362Y231493D01*
X-115686Y230776D01*
X-112914D01*
X-110238Y231493D01*
X-107838Y232879D01*
X-105879Y234838D01*
X-104493Y237238D01*
X-103776Y239914D01*
Y242686D01*
X-104493Y245362D01*
X-105879Y247762D01*
X-107838Y249721D01*
X-110238Y251107D01*
X-112914Y251824D01*
X-115686D01*
X-118362Y251107D01*
X-120762Y249721D01*
X-122162Y248321D01*
X-123686Y248952D01*
Y259048D01*
X-122162Y259679D01*
X-120762Y258279D01*
X-118362Y256893D01*
X-115686Y256176D01*
X-112914D01*
X-110238Y256893D01*
X-107838Y258279D01*
X-105879Y260238D01*
X-104493Y262638D01*
X-103776Y265315D01*
Y268085D01*
X-104493Y270762D01*
X-105879Y273162D01*
X-107838Y275121D01*
X-110238Y276507D01*
X-112914Y277224D01*
X-115686D01*
X-118362Y276507D01*
X-120762Y275121D01*
X-122162Y273721D01*
X-123686Y274352D01*
Y284448D01*
X-122162Y285079D01*
X-120762Y283679D01*
X-118362Y282293D01*
X-115686Y281576D01*
X-112914D01*
X-110238Y282293D01*
X-107838Y283679D01*
X-105879Y285638D01*
X-104493Y288038D01*
X-103776Y290714D01*
Y293486D01*
X-104493Y296162D01*
X-105879Y298562D01*
X-107838Y300521D01*
X-110238Y301907D01*
X-112914Y302624D01*
X-115686D01*
X-118362Y301907D01*
X-120762Y300521D01*
X-122162Y299121D01*
X-123686Y299752D01*
Y309848D01*
X-122162Y310479D01*
X-120762Y309079D01*
X-118362Y307693D01*
X-115686Y306976D01*
X-112914D01*
X-110238Y307693D01*
X-107838Y309079D01*
X-105879Y311038D01*
X-104493Y313438D01*
X-103776Y316115D01*
Y318885D01*
X-104493Y321562D01*
X-105879Y323962D01*
X-107838Y325921D01*
X-110238Y327307D01*
X-112914Y328024D01*
X-115686D01*
X-118362Y327307D01*
X-120762Y325921D01*
X-122162Y324521D01*
X-123686Y325152D01*
Y335248D01*
X-122162Y335879D01*
X-120762Y334479D01*
X-118362Y333093D01*
X-115686Y332376D01*
X-112914D01*
X-110238Y333093D01*
X-107838Y334479D01*
X-105879Y336438D01*
X-104493Y338838D01*
X-103776Y341515D01*
Y344286D01*
X-103817Y344439D01*
X-102451Y345228D01*
X-100710Y343487D01*
Y224060D01*
X-100226Y222894D01*
X-64483Y187150D01*
X-65114Y185626D01*
X-65162D01*
X-66825Y184937D01*
X-68097Y183665D01*
X-68786Y182002D01*
Y180202D01*
X-68097Y178539D01*
X-66825Y177267D01*
X-65162Y176578D01*
X-63362D01*
X-62610Y176890D01*
X-61340Y176802D01*
X-60807Y176112D01*
X-60602Y175618D01*
X-59078Y174094D01*
X-57912Y173610D01*
X-48768D01*
X-47602Y174094D01*
X-46078Y175618D01*
X-45594Y176784D01*
Y177214D01*
X-45514Y177408D01*
Y179208D01*
X-45594Y179402D01*
Y202946D01*
X-46078Y204112D01*
X-64874Y222908D01*
X-67438Y225473D01*
Y359918D01*
X-67922Y361084D01*
X-85194Y378356D01*
X-86360Y378840D01*
X-114300D01*
X-114338Y378824D01*
X-115686D01*
X-118362Y378107D01*
X-120762Y376721D01*
X-122162Y375321D01*
X-123686Y375952D01*
Y386048D01*
X-122162Y386679D01*
X-120762Y385279D01*
X-118362Y383893D01*
X-115686Y383176D01*
X-112914D01*
X-110238Y383893D01*
X-107838Y385279D01*
X-105879Y387238D01*
X-104493Y389638D01*
X-103776Y392314D01*
Y395085D01*
X-104493Y397762D01*
X-105879Y400162D01*
X-107279Y401562D01*
X-106648Y403086D01*
X-65827D01*
X-65195Y401562D01*
X-65789Y400969D01*
X-66478Y399306D01*
Y397506D01*
X-65789Y395843D01*
X-64517Y394571D01*
X-62854Y393882D01*
X-61054D01*
X-59391Y394571D01*
X-58119Y395843D01*
X-57430Y397506D01*
Y399306D01*
X-58119Y400969D01*
X-58713Y401562D01*
X-58081Y403086D01*
X-49979D01*
X-49037Y401562D01*
X-49392Y399780D01*
Y391780D01*
X-48924Y389430D01*
X-47593Y387437D01*
X-45600Y386106D01*
X-43250Y385638D01*
X-40900Y386106D01*
X-38907Y387437D01*
X-37576Y389430D01*
X-37108Y391780D01*
Y399780D01*
X-37462Y401562D01*
X-36521Y403086D01*
X36521D01*
X37463Y401562D01*
X37108Y399780D01*
Y391780D01*
X37576Y389430D01*
X38907Y387437D01*
X40900Y386106D01*
X43250Y385638D01*
X45601Y386106D01*
X47593Y387437D01*
X48924Y389430D01*
X49392Y391780D01*
Y399780D01*
X49037Y401562D01*
X49979Y403086D01*
X106648D01*
X107279Y401562D01*
D02*
G37*
G36*
X-69088Y359918D02*
Y224790D01*
X-66040Y221742D01*
X-47244Y202946D01*
Y176784D01*
X-48768Y175260D01*
X-57912D01*
X-59436Y176784D01*
Y184436D01*
X-99060Y224060D01*
Y344170D01*
X-114300Y359410D01*
Y377190D01*
X-86360D01*
X-69088Y359918D01*
D02*
G37*
G36*
X107873Y-298400D02*
X99932Y-292862D01*
Y-291338D01*
X107873Y-285800D01*
Y-298400D01*
D02*
G37*
G36*
X62029Y-341638D02*
X61166Y-344394D01*
X58196Y-341424D01*
X60952Y-340561D01*
X62029Y-341638D01*
D02*
G37*
%LPC*%
G36*
X61900Y400524D02*
X60100D01*
X58437Y399835D01*
X57165Y398563D01*
X56476Y396900D01*
Y395100D01*
X57165Y393437D01*
X58437Y392165D01*
X60100Y391476D01*
X61900D01*
X63563Y392165D01*
X64835Y393437D01*
X65524Y395100D01*
Y396900D01*
X64835Y398563D01*
X63563Y399835D01*
X61900Y400524D01*
D02*
G37*
G36*
X32164Y387270D02*
X30364D01*
X28701Y386581D01*
X27429Y385309D01*
X26740Y383646D01*
Y382748D01*
X25216Y382117D01*
X21166Y386166D01*
X20000Y386650D01*
X-18000Y386650D01*
X-19167Y386166D01*
X-35166Y370166D01*
X-35650Y369000D01*
X-37108Y369158D01*
Y369480D01*
X-37576Y371830D01*
X-38907Y373823D01*
X-40900Y375154D01*
X-43250Y375622D01*
X-45600Y375154D01*
X-47593Y373823D01*
X-48924Y371830D01*
X-49392Y369480D01*
Y354480D01*
X-48924Y352130D01*
X-47593Y350137D01*
X-45600Y348806D01*
X-43250Y348338D01*
X-40900Y348806D01*
X-38907Y350137D01*
X-37576Y352130D01*
X-37174Y354150D01*
X-35650Y354000D01*
Y346000D01*
X-35166Y344834D01*
X-21967Y331634D01*
X-21811Y331569D01*
X-21717Y331429D01*
X-21245Y331335D01*
X-20800Y331151D01*
X-19524Y330345D01*
Y330100D01*
X-18835Y328437D01*
X-17563Y327165D01*
X-15900Y326476D01*
X-14100D01*
X-12437Y327165D01*
X-12145Y326709D01*
X-11923Y326263D01*
X-11781Y326140D01*
X-11666Y325960D01*
X-11613Y325834D01*
X-11259Y325687D01*
X-10969Y325435D01*
X-10698Y325454D01*
X-10447Y325350D01*
X2317D01*
X4350Y323317D01*
Y295521D01*
X4102Y294922D01*
Y293122D01*
X4350Y292522D01*
X4350Y257631D01*
X4415Y257474D01*
X4382Y257309D01*
X4649Y256909D01*
X4834Y256464D01*
X5167Y254991D01*
X4909Y254734D01*
X4174Y252960D01*
Y251040D01*
X4909Y249266D01*
X5167Y249009D01*
X4834Y247536D01*
X4649Y247091D01*
X4382Y246691D01*
X4415Y246526D01*
X4350Y246369D01*
Y226000D01*
X4834Y224834D01*
X21834Y207833D01*
X23000Y207350D01*
X47000D01*
X48166Y207833D01*
X52166Y211834D01*
X52650Y213000D01*
Y228000D01*
X52166Y229166D01*
X46166Y235166D01*
X45000Y235650D01*
X38433D01*
X30649Y243433D01*
X30650Y330317D01*
X37166Y336834D01*
X37650Y338000D01*
Y349484D01*
X39174Y349959D01*
X40900Y348806D01*
X43250Y348338D01*
X45601Y348806D01*
X47593Y350137D01*
X48924Y352130D01*
X49392Y354480D01*
Y369480D01*
X48924Y371830D01*
X47593Y373823D01*
X45601Y375154D01*
X43250Y375622D01*
X40900Y375154D01*
X38907Y373823D01*
X37608Y371880D01*
X37567Y371828D01*
X35935Y371397D01*
X30635Y376698D01*
X31266Y378222D01*
X32164D01*
X33827Y378911D01*
X35099Y380183D01*
X35788Y381846D01*
Y383646D01*
X35099Y385309D01*
X33827Y386581D01*
X32164Y387270D01*
D02*
G37*
G36*
X-61100Y374024D02*
X-62900D01*
X-64563Y373335D01*
X-65835Y372063D01*
X-66524Y370400D01*
Y368600D01*
X-65835Y366937D01*
X-64563Y365665D01*
X-62900Y364976D01*
X-61100D01*
X-59437Y365665D01*
X-58165Y366937D01*
X-57476Y368600D01*
Y370400D01*
X-58165Y372063D01*
X-59437Y373335D01*
X-61100Y374024D01*
D02*
G37*
G36*
X-60100Y334524D02*
X-61900D01*
X-63563Y333835D01*
X-64835Y332563D01*
X-65524Y330900D01*
Y329100D01*
X-64835Y327437D01*
X-63563Y326165D01*
X-61900Y325476D01*
X-60100D01*
X-58437Y326165D01*
X-57165Y327437D01*
X-56476Y329100D01*
Y330900D01*
X-57165Y332563D01*
X-58437Y333835D01*
X-60100Y334524D01*
D02*
G37*
G36*
X50150Y334274D02*
X48350D01*
X46687Y333585D01*
X45415Y332313D01*
X44726Y330650D01*
Y328850D01*
X45415Y327187D01*
X46687Y325915D01*
X48350Y325226D01*
X50150D01*
X51813Y325915D01*
X53085Y327187D01*
X53774Y328850D01*
Y330650D01*
X53085Y332313D01*
X51813Y333585D01*
X50150Y334274D01*
D02*
G37*
G36*
X-16100Y322524D02*
X-17900D01*
X-19563Y321835D01*
X-20835Y320563D01*
X-21524Y318900D01*
Y317100D01*
X-20835Y315437D01*
X-19563Y314165D01*
X-17900Y313476D01*
X-16100D01*
X-14437Y314165D01*
X-13165Y315437D01*
X-12476Y317100D01*
Y318900D01*
X-13165Y320563D01*
X-14437Y321835D01*
X-16100Y322524D01*
D02*
G37*
G36*
X-8622Y307150D02*
X-10422D01*
X-12085Y306461D01*
X-13357Y305189D01*
X-14046Y303526D01*
Y301726D01*
X-13357Y300063D01*
X-12085Y298791D01*
X-10422Y298102D01*
X-8622D01*
X-6959Y298791D01*
X-5687Y300063D01*
X-4998Y301726D01*
Y303526D01*
X-5687Y305189D01*
X-6959Y306461D01*
X-8622Y307150D01*
D02*
G37*
G36*
X-22100Y304524D02*
X-23900D01*
X-25563Y303835D01*
X-26835Y302563D01*
X-27524Y300900D01*
Y299100D01*
X-26835Y297437D01*
X-25563Y296165D01*
X-23900Y295476D01*
X-22100D01*
X-20437Y296165D01*
X-19165Y297437D01*
X-18476Y299100D01*
Y300900D01*
X-19165Y302563D01*
X-20437Y303835D01*
X-22100Y304524D01*
D02*
G37*
G36*
X-6122Y288950D02*
X-7922D01*
X-9585Y288261D01*
X-10857Y286989D01*
X-11546Y285326D01*
Y283526D01*
X-10857Y281863D01*
X-9585Y280591D01*
X-7922Y279902D01*
X-6122D01*
X-4459Y280591D01*
X-3187Y281863D01*
X-2498Y283526D01*
Y285326D01*
X-3187Y286989D01*
X-4459Y288261D01*
X-6122Y288950D01*
D02*
G37*
G36*
X-32100Y280524D02*
X-33900D01*
X-35563Y279835D01*
X-36835Y278563D01*
X-37524Y276900D01*
Y275100D01*
X-36835Y273437D01*
X-35563Y272165D01*
X-33900Y271476D01*
X-32100D01*
X-30437Y272165D01*
X-29165Y273437D01*
X-28476Y275100D01*
Y276900D01*
X-29165Y278563D01*
X-30437Y279835D01*
X-32100Y280524D01*
D02*
G37*
G36*
X-7040Y256826D02*
X-8960D01*
X-10734Y256091D01*
X-12091Y254734D01*
X-12826Y252960D01*
Y251040D01*
X-12091Y249266D01*
X-10734Y247909D01*
X-8960Y247174D01*
X-7040D01*
X-5266Y247909D01*
X-3909Y249266D01*
X-3174Y251040D01*
Y252960D01*
X-3909Y254734D01*
X-5266Y256091D01*
X-7040Y256826D01*
D02*
G37*
G36*
X-45180Y252904D02*
X-46980D01*
X-48643Y252215D01*
X-49915Y250943D01*
X-50604Y249280D01*
Y247480D01*
X-49915Y245817D01*
X-48643Y244545D01*
X-46980Y243856D01*
X-45180D01*
X-43517Y244545D01*
X-42245Y245817D01*
X-41556Y247480D01*
Y249280D01*
X-42245Y250943D01*
X-43517Y252215D01*
X-45180Y252904D01*
D02*
G37*
G36*
X-17756Y241216D02*
X-19556D01*
X-21219Y240527D01*
X-22491Y239255D01*
X-23180Y237592D01*
Y235792D01*
X-22491Y234129D01*
X-21219Y232857D01*
X-19556Y232168D01*
X-17756D01*
X-16093Y232857D01*
X-14821Y234129D01*
X-14132Y235792D01*
Y237592D01*
X-14821Y239255D01*
X-16093Y240527D01*
X-17756Y241216D01*
D02*
G37*
G36*
X-19614Y203200D02*
X-21414D01*
X-23077Y202511D01*
X-24349Y201239D01*
X-25038Y199576D01*
Y197776D01*
X-24349Y196113D01*
X-23077Y194841D01*
X-21414Y194152D01*
X-19614D01*
X-17951Y194841D01*
X-16679Y196113D01*
X-15990Y197776D01*
Y199576D01*
X-16679Y201239D01*
X-17951Y202511D01*
X-19614Y203200D01*
D02*
G37*
G36*
X-81904Y201374D02*
X-83704D01*
X-85367Y200685D01*
X-86639Y199413D01*
X-87328Y197750D01*
Y195950D01*
X-86639Y194287D01*
X-85367Y193015D01*
X-83704Y192326D01*
X-81904D01*
X-80241Y193015D01*
X-78969Y194287D01*
X-78280Y195950D01*
Y197750D01*
X-78969Y199413D01*
X-80241Y200685D01*
X-81904Y201374D01*
D02*
G37*
G36*
X392Y201882D02*
X-1408D01*
X-3071Y201193D01*
X-4343Y199921D01*
X-5032Y198258D01*
Y196458D01*
X-4343Y194795D01*
X-3071Y193523D01*
X-1408Y192834D01*
X392D01*
X2055Y193523D01*
X3327Y194795D01*
X3423Y195027D01*
X32677D01*
X35572Y192132D01*
X35476Y191900D01*
Y190100D01*
X36165Y188437D01*
X37437Y187165D01*
X39100Y186476D01*
X40900D01*
X42563Y187165D01*
X43835Y188437D01*
X44524Y190100D01*
Y191900D01*
X43835Y193563D01*
X42563Y194835D01*
X40900Y195524D01*
X39100D01*
X38868Y195428D01*
X35290Y199006D01*
X34534Y199511D01*
X33642Y199689D01*
X3423D01*
X3327Y199921D01*
X2055Y201193D01*
X392Y201882D01*
D02*
G37*
G36*
X59066Y171402D02*
X57266D01*
X55603Y170713D01*
X54331Y169441D01*
X53642Y167778D01*
Y165978D01*
X54331Y164315D01*
X55603Y163043D01*
X57266Y162354D01*
X59066D01*
X60729Y163043D01*
X62001Y164315D01*
X62690Y165978D01*
Y167778D01*
X62001Y169441D01*
X60729Y170713D01*
X59066Y171402D01*
D02*
G37*
G36*
X-4666Y170862D02*
X-6466D01*
X-8129Y170173D01*
X-9401Y168901D01*
X-10090Y167238D01*
Y165438D01*
X-9401Y163775D01*
X-8129Y162503D01*
X-6466Y161814D01*
X-4666D01*
X-3003Y162503D01*
X-1731Y163775D01*
X-1042Y165438D01*
Y167238D01*
X-1731Y168901D01*
X-3003Y170173D01*
X-4666Y170862D01*
D02*
G37*
G36*
X-68100Y145524D02*
X-69900D01*
X-71563Y144835D01*
X-72835Y143563D01*
X-73524Y141900D01*
Y140100D01*
X-72835Y138437D01*
X-71563Y137165D01*
X-69900Y136476D01*
X-68100D01*
X-66437Y137165D01*
X-65165Y138437D01*
X-64476Y140100D01*
Y141900D01*
X-65165Y143563D01*
X-66437Y144835D01*
X-68100Y145524D01*
D02*
G37*
G36*
X-49100Y138524D02*
X-50900D01*
X-52563Y137835D01*
X-53835Y136563D01*
X-54524Y134900D01*
Y133100D01*
X-53835Y131437D01*
X-52563Y130165D01*
X-50900Y129476D01*
X-49100D01*
X-47437Y130165D01*
X-46165Y131437D01*
X-45476Y133100D01*
Y134900D01*
X-46165Y136563D01*
X-47437Y137835D01*
X-49100Y138524D01*
D02*
G37*
G36*
X5900Y146524D02*
X4100D01*
X2437Y145835D01*
X1165Y144563D01*
X476Y142900D01*
Y141100D01*
X572Y140868D01*
X-12570Y127727D01*
X-13075Y126970D01*
X-13252Y126079D01*
Y102715D01*
X-20648Y95320D01*
X-21153Y94564D01*
X-21331Y93672D01*
Y42931D01*
X-21563Y42835D01*
X-22835Y41563D01*
X-23524Y39900D01*
Y38100D01*
X-22835Y36437D01*
X-21563Y35165D01*
X-19900Y34476D01*
X-18100D01*
X-16437Y35165D01*
X-15165Y36437D01*
X-14476Y38100D01*
Y39900D01*
X-15165Y41563D01*
X-16437Y42835D01*
X-16669Y42931D01*
Y92706D01*
X-9273Y100102D01*
X-8768Y100858D01*
X-8591Y101750D01*
Y125113D01*
X2767Y136471D01*
X3915Y135563D01*
X3226Y133900D01*
Y132100D01*
X3915Y130437D01*
X5187Y129165D01*
X6850Y128476D01*
X8650D01*
X10313Y129165D01*
X11585Y130437D01*
X12274Y132100D01*
Y133900D01*
X11585Y135563D01*
X10313Y136835D01*
X8952Y137399D01*
X8526Y138448D01*
X8446Y139048D01*
X8835Y139437D01*
X9524Y141100D01*
Y142900D01*
X8835Y144563D01*
X7563Y145835D01*
X5900Y146524D01*
D02*
G37*
G36*
X-24600Y133024D02*
X-26400D01*
X-28063Y132335D01*
X-29335Y131063D01*
X-30024Y129400D01*
Y127600D01*
X-29335Y125937D01*
X-28063Y124665D01*
X-26400Y123976D01*
X-24600D01*
X-22937Y124665D01*
X-21665Y125937D01*
X-20976Y127600D01*
Y129400D01*
X-21665Y131063D01*
X-22937Y132335D01*
X-24600Y133024D01*
D02*
G37*
G36*
X-69850D02*
X-71650D01*
X-73313Y132335D01*
X-74585Y131063D01*
X-75274Y129400D01*
Y127600D01*
X-74585Y125937D01*
X-73313Y124665D01*
X-71650Y123976D01*
X-69850D01*
X-68187Y124665D01*
X-66915Y125937D01*
X-66226Y127600D01*
Y129400D01*
X-66915Y131063D01*
X-68187Y132335D01*
X-69850Y133024D01*
D02*
G37*
G36*
X-24600Y120524D02*
X-26400D01*
X-28063Y119835D01*
X-29335Y118563D01*
X-30024Y116900D01*
Y115100D01*
X-29335Y113437D01*
X-28063Y112165D01*
X-26400Y111476D01*
X-24600D01*
X-22937Y112165D01*
X-21665Y113437D01*
X-20976Y115100D01*
Y116900D01*
X-21665Y118563D01*
X-22937Y119835D01*
X-24600Y120524D01*
D02*
G37*
G36*
X-69850Y120274D02*
X-71650D01*
X-73313Y119585D01*
X-74585Y118313D01*
X-75274Y116650D01*
Y114850D01*
X-74585Y113187D01*
X-73313Y111915D01*
X-71650Y111226D01*
X-69850D01*
X-68187Y111915D01*
X-66915Y113187D01*
X-66226Y114850D01*
Y116650D01*
X-66915Y118313D01*
X-68187Y119585D01*
X-69850Y120274D01*
D02*
G37*
G36*
X73900Y118524D02*
X72100D01*
X70437Y117835D01*
X69165Y116563D01*
X68476Y114900D01*
Y113100D01*
X69165Y111437D01*
X70437Y110165D01*
X72100Y109476D01*
X73900D01*
X75563Y110165D01*
X76835Y111437D01*
X77524Y113100D01*
Y114900D01*
X76835Y116563D01*
X75563Y117835D01*
X73900Y118524D01*
D02*
G37*
G36*
X-62070Y107616D02*
X-63870D01*
X-65533Y106927D01*
X-66805Y105655D01*
X-67494Y103992D01*
Y102192D01*
X-66805Y100529D01*
X-65533Y99257D01*
X-63870Y98568D01*
X-62070D01*
X-60407Y99257D01*
X-59135Y100529D01*
X-58446Y102192D01*
Y103992D01*
X-59135Y105655D01*
X-60407Y106927D01*
X-62070Y107616D01*
D02*
G37*
G36*
X-24600Y107524D02*
X-26400D01*
X-28063Y106835D01*
X-29335Y105563D01*
X-30024Y103900D01*
Y102100D01*
X-29335Y100437D01*
X-28063Y99165D01*
X-26400Y98476D01*
X-24600D01*
X-22937Y99165D01*
X-21665Y100437D01*
X-20976Y102100D01*
Y103900D01*
X-21665Y105563D01*
X-22937Y106835D01*
X-24600Y107524D01*
D02*
G37*
G36*
X24000Y90650D02*
X16000D01*
X14834Y90166D01*
X11607Y86940D01*
X10112Y87237D01*
X9953Y87621D01*
X8681Y88893D01*
X7018Y89582D01*
X5218D01*
X3555Y88893D01*
X2283Y87621D01*
X1594Y85958D01*
Y84158D01*
X2283Y82495D01*
X3555Y81223D01*
X3939Y81064D01*
X4236Y79569D01*
X1834Y77166D01*
X1350Y76000D01*
Y70340D01*
X1476Y70037D01*
Y69709D01*
X1626Y69346D01*
Y68202D01*
X1476Y67839D01*
Y67511D01*
X1350Y67208D01*
Y40683D01*
X-13683Y25650D01*
X-47000Y25650D01*
X-48166Y25166D01*
X-72166Y1166D01*
X-72650Y-0D01*
Y-9000D01*
X-72167Y-10166D01*
X-32166Y-50166D01*
X-31000Y-50650D01*
X-7683D01*
X13834Y-72166D01*
X15000Y-72650D01*
X20451D01*
X20844Y-73217D01*
X21229Y-74174D01*
X20644Y-75586D01*
Y-77386D01*
X21333Y-79049D01*
X22605Y-80321D01*
X24268Y-81010D01*
X26068D01*
X27731Y-80321D01*
X29003Y-79049D01*
X29692Y-77386D01*
Y-75586D01*
X29003Y-73923D01*
X28975Y-73895D01*
X28912Y-73230D01*
X29167Y-72166D01*
X39166Y-62166D01*
X39650Y-61000D01*
Y-27683D01*
X75166Y7834D01*
X75205Y7926D01*
X76961Y8325D01*
X78624Y7636D01*
X80424D01*
X82087Y8325D01*
X83359Y9597D01*
X84048Y11260D01*
Y13060D01*
X83359Y14723D01*
X82087Y15995D01*
X80424Y16684D01*
X78624D01*
X76961Y15995D01*
X76616Y15650D01*
X75197Y15177D01*
X74654Y15679D01*
X73166Y17166D01*
X72000Y17650D01*
X27683D01*
X22055Y23277D01*
X21835Y23369D01*
X22304Y24500D01*
Y26300D01*
X21615Y27963D01*
X20343Y29235D01*
X18680Y29924D01*
X16880D01*
X15749Y29455D01*
X15658Y29675D01*
X13650Y31683D01*
Y33413D01*
X14349Y33842D01*
X15174Y34155D01*
X16648Y33544D01*
X18448D01*
X20111Y34233D01*
X21383Y35505D01*
X22072Y37168D01*
Y38968D01*
X21383Y40631D01*
X20111Y41903D01*
X18448Y42592D01*
X16648D01*
X15174Y41981D01*
X14349Y42294D01*
X13650Y42723D01*
Y68317D01*
X19683Y74350D01*
X24000D01*
X25166Y74834D01*
X27166Y76834D01*
X27650Y78000D01*
Y78550D01*
X27774Y78850D01*
Y80650D01*
X27650Y80950D01*
Y84800D01*
X27774Y85100D01*
Y86900D01*
X27085Y88563D01*
X25813Y89835D01*
X25275Y90058D01*
X25166Y90166D01*
X24000Y90650D01*
D02*
G37*
G36*
X-48850Y95024D02*
X-50650D01*
X-52313Y94335D01*
X-53585Y93063D01*
X-54274Y91400D01*
Y89600D01*
X-53585Y87937D01*
X-52313Y86665D01*
X-50650Y85976D01*
X-48850D01*
X-47187Y86665D01*
X-45915Y87937D01*
X-45226Y89600D01*
Y91400D01*
X-45915Y93063D01*
X-47187Y94335D01*
X-48850Y95024D01*
D02*
G37*
G36*
X56900Y92524D02*
X55100D01*
X53437Y91835D01*
X52165Y90563D01*
X51476Y88900D01*
Y87100D01*
X52165Y85437D01*
X53437Y84165D01*
X55100Y83476D01*
X56900D01*
X58563Y84165D01*
X59835Y85437D01*
X60524Y87100D01*
Y88900D01*
X59835Y90563D01*
X58563Y91835D01*
X56900Y92524D01*
D02*
G37*
G36*
X-74610Y86470D02*
X-76410D01*
X-78073Y85781D01*
X-79345Y84508D01*
X-80034Y82846D01*
Y81046D01*
X-79345Y79383D01*
X-78073Y78111D01*
X-76410Y77422D01*
X-74610D01*
X-72947Y78111D01*
X-71675Y79383D01*
X-70986Y81046D01*
Y82846D01*
X-71675Y84508D01*
X-72947Y85781D01*
X-74610Y86470D01*
D02*
G37*
G36*
X53900Y121524D02*
X52100D01*
X50437Y120835D01*
X49165Y119563D01*
X48476Y117900D01*
Y116100D01*
X49165Y114437D01*
X50437Y113165D01*
X52100Y112476D01*
X53900D01*
X54132Y112572D01*
X60669Y106035D01*
Y103500D01*
X60847Y102608D01*
X61352Y101852D01*
X74669Y88535D01*
Y80931D01*
X74437Y80835D01*
X73165Y79563D01*
X72476Y77900D01*
Y76100D01*
X73165Y74437D01*
X74437Y73165D01*
X76100Y72476D01*
X77900D01*
X79563Y73165D01*
X80835Y74437D01*
X81524Y76100D01*
Y77900D01*
X80835Y79563D01*
X79563Y80835D01*
X79331Y80931D01*
Y89500D01*
X79153Y90392D01*
X78648Y91148D01*
X65331Y104465D01*
Y107000D01*
X65153Y107892D01*
X64648Y108648D01*
X57428Y115868D01*
X57524Y116100D01*
Y117900D01*
X56835Y119563D01*
X55563Y120835D01*
X53900Y121524D01*
D02*
G37*
G36*
X52900Y80524D02*
X51100D01*
X49437Y79835D01*
X48165Y78563D01*
X47476Y76900D01*
Y75100D01*
X48165Y73437D01*
X49437Y72165D01*
X51100Y71476D01*
X52900D01*
X54563Y72165D01*
X55835Y73437D01*
X56524Y75100D01*
Y76900D01*
X55835Y78563D01*
X54563Y79835D01*
X52900Y80524D01*
D02*
G37*
G36*
X71900Y72524D02*
X70100D01*
X68437Y71835D01*
X67165Y70563D01*
X66476Y68900D01*
Y67100D01*
X67165Y65437D01*
X68437Y64165D01*
X70100Y63476D01*
X71900D01*
X73563Y64165D01*
X74835Y65437D01*
X75524Y67100D01*
Y68900D01*
X74835Y70563D01*
X73563Y71835D01*
X71900Y72524D01*
D02*
G37*
G36*
X-58100D02*
X-59900D01*
X-61563Y71835D01*
X-62835Y70563D01*
X-63524Y68900D01*
Y67100D01*
X-62835Y65437D01*
X-61563Y64165D01*
X-59900Y63476D01*
X-58100D01*
X-56437Y64165D01*
X-55165Y65437D01*
X-54476Y67100D01*
Y68900D01*
X-55165Y70563D01*
X-56437Y71835D01*
X-58100Y72524D01*
D02*
G37*
G36*
X69900Y47524D02*
X68100D01*
X66437Y46835D01*
X65165Y45563D01*
X64476Y43900D01*
Y42100D01*
X65165Y40437D01*
X66437Y39165D01*
X68100Y38476D01*
X69900D01*
X71563Y39165D01*
X72835Y40437D01*
X73524Y42100D01*
Y43900D01*
X72835Y45563D01*
X71563Y46835D01*
X69900Y47524D01*
D02*
G37*
G36*
X28900Y34524D02*
X27100D01*
X25437Y33835D01*
X24165Y32563D01*
X23476Y30900D01*
Y29100D01*
X24165Y27437D01*
X25437Y26165D01*
X27100Y25476D01*
X28900D01*
X30563Y26165D01*
X31835Y27437D01*
X32524Y29100D01*
Y30900D01*
X31835Y32563D01*
X30563Y33835D01*
X28900Y34524D01*
D02*
G37*
G36*
X-82644Y30908D02*
X-84444D01*
X-86107Y30219D01*
X-87379Y28947D01*
X-88068Y27284D01*
Y25484D01*
X-87379Y23821D01*
X-86107Y22549D01*
X-84444Y21860D01*
X-82644D01*
X-80981Y22549D01*
X-79709Y23821D01*
X-79020Y25484D01*
Y27284D01*
X-79709Y28947D01*
X-80981Y30219D01*
X-82644Y30908D01*
D02*
G37*
G36*
X-82644Y9318D02*
X-84444D01*
X-86107Y8629D01*
X-87379Y7357D01*
X-88068Y5694D01*
Y3894D01*
X-87379Y2231D01*
X-86107Y959D01*
X-84444Y270D01*
X-82644D01*
X-80981Y959D01*
X-79709Y2231D01*
X-79020Y3894D01*
Y5694D01*
X-79709Y7357D01*
X-80981Y8629D01*
X-82644Y9318D01*
D02*
G37*
G36*
X80424Y-7700D02*
X78624D01*
X76961Y-8389D01*
X75689Y-9661D01*
X75000Y-11324D01*
Y-13124D01*
X75689Y-14787D01*
X76961Y-16059D01*
X78624Y-16748D01*
X80424D01*
X82087Y-16059D01*
X83359Y-14787D01*
X84048Y-13124D01*
Y-11324D01*
X83359Y-9661D01*
X82087Y-8389D01*
X80424Y-7700D01*
D02*
G37*
G36*
X-82006Y-27858D02*
X-83806D01*
X-85469Y-28547D01*
X-86741Y-29819D01*
X-87430Y-31482D01*
Y-33282D01*
X-86741Y-34945D01*
X-85469Y-36217D01*
X-83806Y-36906D01*
X-82006D01*
X-80343Y-36217D01*
X-79071Y-34945D01*
X-78382Y-33282D01*
Y-31482D01*
X-79071Y-29819D01*
X-80343Y-28547D01*
X-82006Y-27858D01*
D02*
G37*
G36*
X75090Y-57230D02*
X73290D01*
X71627Y-57919D01*
X70355Y-59191D01*
X70189Y-59592D01*
X68539D01*
X68373Y-59191D01*
X67101Y-57919D01*
X65438Y-57230D01*
X63638D01*
X61975Y-57919D01*
X60703Y-59191D01*
X60014Y-60854D01*
Y-62654D01*
X60703Y-64317D01*
X61975Y-65589D01*
X63638Y-66278D01*
X65438D01*
X67101Y-65589D01*
X68373Y-64317D01*
X68539Y-63916D01*
X70189D01*
X70355Y-64317D01*
X71627Y-65589D01*
X73290Y-66278D01*
X75090D01*
X76753Y-65589D01*
X78025Y-64317D01*
X78714Y-62654D01*
Y-60854D01*
X78025Y-59191D01*
X76753Y-57919D01*
X75090Y-57230D01*
D02*
G37*
G36*
X-2380Y-62564D02*
X-4180D01*
X-5843Y-63253D01*
X-7115Y-64525D01*
X-7804Y-66188D01*
Y-67988D01*
X-7115Y-69651D01*
X-5843Y-70923D01*
X-4180Y-71612D01*
X-2380D01*
X-717Y-70923D01*
X555Y-69651D01*
X1244Y-67988D01*
Y-66188D01*
X555Y-64525D01*
X-717Y-63253D01*
X-2380Y-62564D01*
D02*
G37*
G36*
X-42258Y-73486D02*
X-44058D01*
X-45721Y-74175D01*
X-46993Y-75447D01*
X-47682Y-77110D01*
Y-78910D01*
X-46993Y-80573D01*
X-45721Y-81845D01*
X-44058Y-82534D01*
X-42258D01*
X-40595Y-81845D01*
X-39323Y-80573D01*
X-38634Y-78910D01*
Y-77110D01*
X-39323Y-75447D01*
X-40595Y-74175D01*
X-42258Y-73486D01*
D02*
G37*
G36*
X-19652Y-88472D02*
X-21452D01*
X-23115Y-89161D01*
X-24387Y-90433D01*
X-25076Y-92096D01*
Y-93896D01*
X-24387Y-95559D01*
X-23115Y-96831D01*
X-21452Y-97520D01*
X-19652D01*
X-17989Y-96831D01*
X-16717Y-95559D01*
X-16028Y-93896D01*
Y-92096D01*
X-16717Y-90433D01*
X-17989Y-89161D01*
X-19652Y-88472D01*
D02*
G37*
G36*
X27338Y-88726D02*
X25538D01*
X23875Y-89415D01*
X22603Y-90687D01*
X21914Y-92350D01*
Y-94150D01*
X22603Y-95813D01*
X23875Y-97085D01*
X25538Y-97774D01*
X27338D01*
X29001Y-97085D01*
X30273Y-95813D01*
X30962Y-94150D01*
Y-92350D01*
X30273Y-90687D01*
X29001Y-89415D01*
X27338Y-88726D01*
D02*
G37*
G36*
X47900Y-97476D02*
X46100D01*
X44437Y-98165D01*
X43165Y-99437D01*
X42476Y-101100D01*
Y-102900D01*
X43165Y-104563D01*
X44437Y-105835D01*
X46100Y-106524D01*
X47900D01*
X49563Y-105835D01*
X50835Y-104563D01*
X51524Y-102900D01*
Y-101100D01*
X50835Y-99437D01*
X49563Y-98165D01*
X47900Y-97476D01*
D02*
G37*
G36*
X-9100Y-97781D02*
X-10900D01*
X-12563Y-98470D01*
X-13835Y-99742D01*
X-14524Y-101405D01*
Y-103205D01*
X-13835Y-104867D01*
X-12563Y-106140D01*
X-10900Y-106829D01*
X-9100D01*
X-7437Y-106140D01*
X-6165Y-104867D01*
X-5476Y-103205D01*
Y-101405D01*
X-6165Y-99742D01*
X-7437Y-98470D01*
X-9100Y-97781D01*
D02*
G37*
G36*
X63900Y298524D02*
X62100D01*
X60437Y297835D01*
X59165Y296563D01*
X58476Y294900D01*
Y293100D01*
X59165Y291437D01*
X60437Y290165D01*
X62100Y289476D01*
X63900D01*
X65563Y290165D01*
X66835Y291437D01*
X66931Y291669D01*
X83035D01*
X92179Y282525D01*
Y-82525D01*
X65132Y-109572D01*
X64900Y-109476D01*
X63100D01*
X61437Y-110165D01*
X60165Y-111437D01*
X59476Y-113100D01*
Y-114900D01*
X60165Y-116563D01*
X61437Y-117835D01*
X63100Y-118524D01*
X64900D01*
X66563Y-117835D01*
X67835Y-116563D01*
X68524Y-114900D01*
Y-113100D01*
X68428Y-112868D01*
X96158Y-85138D01*
X96663Y-84382D01*
X96841Y-83490D01*
Y283490D01*
X96663Y284382D01*
X96158Y285138D01*
X85648Y295648D01*
X84892Y296153D01*
X84000Y296331D01*
X66931D01*
X66835Y296563D01*
X65563Y297835D01*
X63900Y298524D01*
D02*
G37*
G36*
X47900Y-123992D02*
X46100D01*
X44437Y-124681D01*
X43165Y-125953D01*
X42476Y-127616D01*
Y-129416D01*
X43165Y-131079D01*
X44437Y-132351D01*
X46100Y-133040D01*
X47900D01*
X49563Y-132351D01*
X50835Y-131079D01*
X51524Y-129416D01*
Y-127616D01*
X50835Y-125953D01*
X49563Y-124681D01*
X47900Y-123992D01*
D02*
G37*
G36*
X-9100Y-124476D02*
X-10900D01*
X-12563Y-125165D01*
X-13835Y-126437D01*
X-14524Y-128100D01*
Y-129900D01*
X-13835Y-131563D01*
X-12563Y-132835D01*
X-10900Y-133524D01*
X-9100D01*
X-7437Y-132835D01*
X-6165Y-131563D01*
X-5476Y-129900D01*
Y-128100D01*
X-6165Y-126437D01*
X-7437Y-125165D01*
X-9100Y-124476D01*
D02*
G37*
G36*
X19900Y-152476D02*
X18100D01*
X16437Y-153165D01*
X15165Y-154437D01*
X14476Y-156100D01*
Y-157900D01*
X15165Y-159563D01*
X16437Y-160835D01*
X18100Y-161524D01*
X19900D01*
X21563Y-160835D01*
X22835Y-159563D01*
X23524Y-157900D01*
Y-156100D01*
X22835Y-154437D01*
X21563Y-153165D01*
X19900Y-152476D01*
D02*
G37*
G36*
X-33880Y-228476D02*
X-35680D01*
X-37343Y-229165D01*
X-38615Y-230437D01*
X-39304Y-232100D01*
Y-233900D01*
X-38615Y-235563D01*
X-37343Y-236835D01*
X-35680Y-237524D01*
X-33880D01*
X-32217Y-236835D01*
X-30945Y-235563D01*
X-30256Y-233900D01*
Y-232100D01*
X-30945Y-230437D01*
X-32217Y-229165D01*
X-33880Y-228476D01*
D02*
G37*
G36*
X34900Y-262476D02*
X33100D01*
X31437Y-263165D01*
X30165Y-264437D01*
X29476Y-266100D01*
Y-267900D01*
X30165Y-269563D01*
X31437Y-270835D01*
X33100Y-271524D01*
X34900D01*
X36563Y-270835D01*
X37835Y-269563D01*
X38524Y-267900D01*
Y-266100D01*
X37835Y-264437D01*
X36563Y-263165D01*
X34900Y-262476D01*
D02*
G37*
G36*
X-53100Y-267476D02*
X-54900D01*
X-56563Y-268165D01*
X-57835Y-269437D01*
X-58524Y-271100D01*
Y-272900D01*
X-57835Y-274563D01*
X-56563Y-275835D01*
X-54900Y-276524D01*
X-53100D01*
X-51437Y-275835D01*
X-50165Y-274563D01*
X-49476Y-272900D01*
Y-271100D01*
X-50165Y-269437D01*
X-51437Y-268165D01*
X-53100Y-267476D01*
D02*
G37*
G36*
X-67100D02*
X-68900D01*
X-70563Y-268165D01*
X-71835Y-269437D01*
X-72524Y-271100D01*
Y-272900D01*
X-71835Y-274563D01*
X-70563Y-275835D01*
X-68900Y-276524D01*
X-67100D01*
X-65437Y-275835D01*
X-64165Y-274563D01*
X-63476Y-272900D01*
Y-271100D01*
X-64165Y-269437D01*
X-65437Y-268165D01*
X-67100Y-267476D01*
D02*
G37*
G36*
X-71100Y-289476D02*
X-72900D01*
X-74563Y-290165D01*
X-75835Y-291437D01*
X-76524Y-293100D01*
Y-294900D01*
X-75835Y-296563D01*
X-74563Y-297835D01*
X-72900Y-298524D01*
X-71100D01*
X-69437Y-297835D01*
X-68165Y-296563D01*
X-67476Y-294900D01*
Y-293100D01*
X-68165Y-291437D01*
X-69437Y-290165D01*
X-71100Y-289476D01*
D02*
G37*
G36*
X-69350Y-316226D02*
X-71150D01*
X-72813Y-316915D01*
X-74085Y-318187D01*
X-74774Y-319850D01*
Y-321650D01*
X-74085Y-323313D01*
X-72813Y-324585D01*
X-71150Y-325274D01*
X-69350D01*
X-67687Y-324585D01*
X-66415Y-323313D01*
X-65726Y-321650D01*
Y-319850D01*
X-66415Y-318187D01*
X-67687Y-316915D01*
X-69350Y-316226D01*
D02*
G37*
G36*
X900Y-362476D02*
X-900D01*
X-2563Y-363165D01*
X-3835Y-364437D01*
X-4524Y-366100D01*
Y-367900D01*
X-3835Y-369563D01*
X-2563Y-370835D01*
X-900Y-371524D01*
X900D01*
X2563Y-370835D01*
X3835Y-369563D01*
X4524Y-367900D01*
Y-366100D01*
X3835Y-364437D01*
X2563Y-363165D01*
X900Y-362476D01*
D02*
G37*
G36*
X77900Y-368726D02*
X76100D01*
X74437Y-369415D01*
X73165Y-370687D01*
X72476Y-372350D01*
Y-374150D01*
X73165Y-375813D01*
X74437Y-377085D01*
X76100Y-377774D01*
X77900D01*
X79563Y-377085D01*
X80835Y-375813D01*
X81524Y-374150D01*
Y-372350D01*
X80835Y-370687D01*
X79563Y-369415D01*
X77900Y-368726D01*
D02*
G37*
%LPD*%
G36*
X36000Y369000D02*
Y338000D01*
X29000Y331000D01*
X29000Y242750D01*
X37750Y234000D01*
X45000D01*
X51000Y228000D01*
Y213000D01*
X47000Y209000D01*
X23000D01*
X6000Y226000D01*
Y246369D01*
X7524Y247388D01*
X8040Y247174D01*
X9960D01*
X11734Y247909D01*
X13091Y249266D01*
X13826Y251040D01*
Y252960D01*
X13091Y254734D01*
X11734Y256091D01*
X9960Y256826D01*
X8040D01*
X7524Y256612D01*
X6000Y257631D01*
X6000Y324000D01*
X3000Y327000D01*
X-10447D01*
X-11165Y328437D01*
X-10476Y330100D01*
Y331900D01*
X-11165Y333563D01*
X-12437Y334835D01*
X-14100Y335524D01*
X-15900D01*
X-17563Y334835D01*
X-18835Y333563D01*
X-19003Y333158D01*
X-20800Y332800D01*
X-34000Y346000D01*
Y369000D01*
X-18000Y385000D01*
X20000Y385000D01*
X36000Y369000D01*
D02*
G37*
%LPC*%
G36*
X22200Y370454D02*
X20300D01*
X18546Y369727D01*
X17996Y369177D01*
X17000Y368518D01*
X16004Y369177D01*
X15454Y369727D01*
X13700Y370454D01*
X11800D01*
X10046Y369727D01*
X9496Y369177D01*
X8500Y368518D01*
X7504Y369177D01*
X6954Y369727D01*
X5200Y370454D01*
X3300D01*
X1546Y369727D01*
X996Y369177D01*
X0Y368518D01*
X-996Y369177D01*
X-1546Y369727D01*
X-3300Y370454D01*
X-5200D01*
X-6954Y369727D01*
X-7504Y369177D01*
X-8500Y368518D01*
X-9496Y369177D01*
X-10046Y369727D01*
X-11800Y370454D01*
X-13700D01*
X-15454Y369727D01*
X-16004Y369177D01*
X-17000Y368518D01*
X-17996Y369177D01*
X-18546Y369727D01*
X-20300Y370454D01*
X-22200D01*
X-23954Y369727D01*
X-25297Y368384D01*
X-26024Y366630D01*
Y364730D01*
X-25297Y362976D01*
X-23954Y361633D01*
X-22200Y360906D01*
X-20300D01*
X-18546Y361633D01*
X-17996Y362183D01*
X-17000Y362842D01*
X-16004Y362183D01*
X-15454Y361633D01*
X-13700Y360906D01*
X-11800D01*
X-10046Y361633D01*
X-9496Y362183D01*
X-8500Y362842D01*
X-7504Y362183D01*
X-6954Y361633D01*
X-5200Y360906D01*
X-3300D01*
X-1546Y361633D01*
X-996Y362183D01*
X0Y362842D01*
X996Y362183D01*
X1546Y361633D01*
X3300Y360906D01*
X5200D01*
X6954Y361633D01*
X7504Y362183D01*
X8500Y362842D01*
X9496Y362183D01*
X10046Y361633D01*
X11800Y360906D01*
X13700D01*
X15454Y361633D01*
X16004Y362183D01*
X17000Y362842D01*
X17996Y362183D01*
X18546Y361633D01*
X20300Y360906D01*
X22200D01*
X23954Y361633D01*
X25297Y362976D01*
X26024Y364730D01*
Y366630D01*
X25297Y368384D01*
X23954Y369727D01*
X22200Y370454D01*
D02*
G37*
G36*
Y356954D02*
X20300D01*
X18546Y356227D01*
X17996Y355677D01*
X17000Y355018D01*
X16004Y355677D01*
X15454Y356227D01*
X13700Y356954D01*
X11800D01*
X10046Y356227D01*
X9496Y355677D01*
X8500Y355019D01*
X7504Y355677D01*
X6954Y356227D01*
X5200Y356954D01*
X3300D01*
X1546Y356227D01*
X996Y355677D01*
X0Y355019D01*
X-996Y355677D01*
X-1546Y356227D01*
X-3300Y356954D01*
X-5200D01*
X-6954Y356227D01*
X-7504Y355677D01*
X-8500Y355019D01*
X-9496Y355677D01*
X-10046Y356227D01*
X-11800Y356954D01*
X-13700D01*
X-15454Y356227D01*
X-16004Y355677D01*
X-17000Y355018D01*
X-17996Y355677D01*
X-18546Y356227D01*
X-20300Y356954D01*
X-22200D01*
X-23954Y356227D01*
X-25297Y354884D01*
X-26024Y353130D01*
Y351230D01*
X-25297Y349476D01*
X-23954Y348133D01*
X-22200Y347406D01*
X-20300D01*
X-18546Y348133D01*
X-17996Y348683D01*
X-17000Y349342D01*
X-16004Y348683D01*
X-15454Y348133D01*
X-13700Y347406D01*
X-11800D01*
X-10046Y348133D01*
X-9496Y348683D01*
X-8500Y349342D01*
X-7504Y348683D01*
X-6954Y348133D01*
X-5200Y347406D01*
X-3300D01*
X-1546Y348133D01*
X-996Y348683D01*
X0Y349342D01*
X996Y348683D01*
X1546Y348133D01*
X3300Y347406D01*
X5200D01*
X6954Y348133D01*
X7504Y348683D01*
X8500Y349342D01*
X9496Y348683D01*
X10046Y348133D01*
X11800Y347406D01*
X13700D01*
X15454Y348133D01*
X16004Y348683D01*
X17000Y349342D01*
X17996Y348683D01*
X18546Y348133D01*
X20300Y347406D01*
X22200D01*
X23954Y348133D01*
X25297Y349476D01*
X26024Y351230D01*
Y353130D01*
X25297Y354884D01*
X23954Y356227D01*
X22200Y356954D01*
D02*
G37*
G36*
X38900Y230524D02*
X37100D01*
X35437Y229835D01*
X34165Y228563D01*
X33476Y226900D01*
Y225100D01*
X34165Y223437D01*
X35211Y222391D01*
X35341Y221500D01*
X35211Y220609D01*
X34165Y219563D01*
X33476Y217900D01*
Y216100D01*
X34165Y214437D01*
X35437Y213165D01*
X37100Y212476D01*
X38900D01*
X40563Y213165D01*
X41835Y214437D01*
X42524Y216100D01*
Y217900D01*
X41835Y219563D01*
X40789Y220609D01*
X40659Y221500D01*
X40789Y222391D01*
X41835Y223437D01*
X42524Y225100D01*
Y226900D01*
X41835Y228563D01*
X40563Y229835D01*
X38900Y230524D01*
D02*
G37*
%LPD*%
G36*
X26000Y87000D02*
Y78000D01*
X24000Y76000D01*
X19000D01*
X12000Y69000D01*
Y31000D01*
X14491Y28509D01*
X13945Y27963D01*
X13256Y26300D01*
Y24500D01*
X13945Y22837D01*
X15217Y21565D01*
X16880Y20876D01*
X18680D01*
X20343Y21565D01*
X20889Y22111D01*
X27000Y16000D01*
X72000D01*
X74000Y14000D01*
Y9000D01*
X38000Y-27000D01*
Y-61000D01*
X28000Y-71000D01*
X15000D01*
X-7000Y-49000D01*
X-31000D01*
X-71000Y-9000D01*
Y-0D01*
X-47000Y24000D01*
X-13000Y24000D01*
X3000Y40000D01*
Y67208D01*
X3276Y67874D01*
Y69674D01*
X3000Y70340D01*
Y76000D01*
X7899Y80899D01*
X8681Y81223D01*
X9953Y82495D01*
X10277Y83277D01*
X16000Y89000D01*
X24000D01*
X26000Y87000D01*
D02*
G37*
%LPC*%
G36*
X14400Y18024D02*
X12600D01*
X10937Y17335D01*
X9665Y16063D01*
X8976Y14400D01*
Y12600D01*
X9665Y10937D01*
X10937Y9665D01*
X12600Y8976D01*
X14400D01*
X16063Y9665D01*
X17335Y10937D01*
X18024Y12600D01*
Y14400D01*
X17335Y16063D01*
X16063Y17335D01*
X14400Y18024D01*
D02*
G37*
G36*
X900D02*
X-900D01*
X-2563Y17335D01*
X-3835Y16063D01*
X-4524Y14400D01*
Y12600D01*
X-3835Y10937D01*
X-2563Y9665D01*
X-900Y8976D01*
X900D01*
X2563Y9665D01*
X3835Y10937D01*
X4524Y12600D01*
Y14400D01*
X3835Y16063D01*
X2563Y17335D01*
X900Y18024D01*
D02*
G37*
G36*
X-12600D02*
X-14400D01*
X-16063Y17335D01*
X-17335Y16063D01*
X-18024Y14400D01*
Y12600D01*
X-17335Y10937D01*
X-16063Y9665D01*
X-14400Y8976D01*
X-12600D01*
X-10937Y9665D01*
X-9665Y10937D01*
X-8976Y12600D01*
Y14400D01*
X-9665Y16063D01*
X-10937Y17335D01*
X-12600Y18024D01*
D02*
G37*
G36*
X14400Y4524D02*
X12600D01*
X10937Y3835D01*
X9665Y2563D01*
X8976Y900D01*
Y-900D01*
X9665Y-2563D01*
X10937Y-3835D01*
X12600Y-4524D01*
X14400D01*
X16063Y-3835D01*
X17335Y-2563D01*
X18024Y-900D01*
Y900D01*
X17335Y2563D01*
X16063Y3835D01*
X14400Y4524D01*
D02*
G37*
G36*
X900D02*
X-900D01*
X-2563Y3835D01*
X-3835Y2563D01*
X-4524Y900D01*
Y-900D01*
X-3835Y-2563D01*
X-2563Y-3835D01*
X-900Y-4524D01*
X900D01*
X2563Y-3835D01*
X3835Y-2563D01*
X4524Y-900D01*
Y900D01*
X3835Y2563D01*
X2563Y3835D01*
X900Y4524D01*
D02*
G37*
G36*
X-12600D02*
X-14400D01*
X-16063Y3835D01*
X-17335Y2563D01*
X-18024Y900D01*
Y-900D01*
X-17335Y-2563D01*
X-16063Y-3835D01*
X-14400Y-4524D01*
X-12600D01*
X-10937Y-3835D01*
X-9665Y-2563D01*
X-8976Y-900D01*
Y900D01*
X-9665Y2563D01*
X-10937Y3835D01*
X-12600Y4524D01*
D02*
G37*
G36*
X14400Y-8976D02*
X12600D01*
X10937Y-9665D01*
X9665Y-10937D01*
X8976Y-12600D01*
Y-14400D01*
X9665Y-16063D01*
X10937Y-17335D01*
X12600Y-18024D01*
X14400D01*
X16063Y-17335D01*
X17335Y-16063D01*
X18024Y-14400D01*
Y-12600D01*
X17335Y-10937D01*
X16063Y-9665D01*
X14400Y-8976D01*
D02*
G37*
G36*
X900D02*
X-900D01*
X-2563Y-9665D01*
X-3835Y-10937D01*
X-4524Y-12600D01*
Y-14400D01*
X-3835Y-16063D01*
X-2563Y-17335D01*
X-900Y-18024D01*
X900D01*
X2563Y-17335D01*
X3835Y-16063D01*
X4524Y-14400D01*
Y-12600D01*
X3835Y-10937D01*
X2563Y-9665D01*
X900Y-8976D01*
D02*
G37*
G36*
X-12600D02*
X-14400D01*
X-16063Y-9665D01*
X-17335Y-10937D01*
X-18024Y-12600D01*
Y-14400D01*
X-17335Y-16063D01*
X-16063Y-17335D01*
X-14400Y-18024D01*
X-12600D01*
X-10937Y-17335D01*
X-9665Y-16063D01*
X-8976Y-14400D01*
Y-12600D01*
X-9665Y-10937D01*
X-10937Y-9665D01*
X-12600Y-8976D01*
D02*
G37*
G36*
X24776Y-28496D02*
X22976D01*
X21313Y-29185D01*
X20041Y-30457D01*
X19748Y-31165D01*
X18098D01*
X17805Y-30457D01*
X16533Y-29185D01*
X14870Y-28496D01*
X13070D01*
X11407Y-29185D01*
X10135Y-30457D01*
X10096Y-30551D01*
X8446D01*
X8407Y-30457D01*
X7135Y-29185D01*
X5472Y-28496D01*
X3672D01*
X2009Y-29185D01*
X1041Y-30153D01*
X127Y-30336D01*
X-787Y-30153D01*
X-1755Y-29185D01*
X-3418Y-28496D01*
X-5218D01*
X-6881Y-29185D01*
X-8153Y-30457D01*
X-8842Y-32120D01*
Y-33920D01*
X-8153Y-35583D01*
X-6881Y-36855D01*
X-5218Y-37544D01*
X-3418D01*
X-1755Y-36855D01*
X-787Y-35887D01*
X127Y-35704D01*
X1041Y-35887D01*
X2009Y-36855D01*
X3672Y-37544D01*
X5472D01*
X7135Y-36855D01*
X8407Y-35583D01*
X8446Y-35489D01*
X10096D01*
X10135Y-35583D01*
X11407Y-36855D01*
X13070Y-37544D01*
X14870D01*
X16533Y-36855D01*
X17805Y-35583D01*
X18098Y-34875D01*
X19748D01*
X20041Y-35583D01*
X21313Y-36855D01*
X22976Y-37544D01*
X24776D01*
X26439Y-36855D01*
X27711Y-35583D01*
X28400Y-33920D01*
Y-32120D01*
X27711Y-30457D01*
X26439Y-29185D01*
X24776Y-28496D01*
D02*
G37*
%LPD*%
D14*
X-10921Y101750D02*
Y126079D01*
X5000Y142000D01*
X63000Y103500D02*
Y107000D01*
X77000Y77000D02*
Y89500D01*
X63000Y103500D02*
X77000Y89500D01*
X-19000Y93672D02*
X-10921Y101750D01*
X-19000Y39000D02*
Y93672D01*
X63000Y294000D02*
X84000D01*
X94510Y283490D01*
Y-83490D02*
Y283490D01*
X33642Y197358D02*
X40000Y191000D01*
X-508Y197358D02*
X33642D01*
X53000Y117000D02*
X63000Y107000D01*
X64000Y-114000D02*
X94510Y-83490D01*
X94234Y-292100D02*
X114300D01*
X84582Y-301752D02*
X94234Y-292100D01*
X84582Y-318008D02*
Y-301752D01*
X58166Y-344424D02*
X84582Y-318008D01*
D60*
X43250Y395780D02*
D03*
X-43250D02*
D03*
D61*
X43250Y361980D02*
D03*
X-43250D02*
D03*
D62*
X29750Y352180D02*
D03*
X21250D02*
D03*
X12750D02*
D03*
X4250D02*
D03*
X-4250D02*
D03*
X-12750D02*
D03*
X-21250D02*
D03*
X-29750D02*
D03*
Y365680D02*
D03*
X-21250D02*
D03*
X-12750D02*
D03*
X-4250D02*
D03*
X4250D02*
D03*
X12750D02*
D03*
X21250D02*
D03*
X29750D02*
D03*
D66*
X-53453Y183529D02*
X-53340Y183642D01*
X-53453Y183031D02*
Y183529D01*
X-56508Y179976D02*
X-53453Y183031D01*
X-53340Y183642D02*
Y189079D01*
X-76686Y212425D02*
X-53340Y189079D01*
X-56508Y178389D02*
Y179976D01*
X-114300Y368300D02*
X-94244D01*
X-76686Y350742D01*
Y212425D02*
Y350742D01*
X-56620Y178276D02*
X-56508Y178389D01*
D76*
X77000Y-373250D02*
D03*
X68500Y-344250D02*
D03*
X0Y-367000D02*
D03*
X-70250Y-320750D02*
D03*
X-46500Y-330750D02*
D03*
X7750Y133000D02*
D03*
X5000Y142000D02*
D03*
X13500Y0D02*
D03*
X-13500D02*
D03*
X0Y-13500D02*
D03*
Y13500D02*
D03*
X-13500D02*
D03*
X13500D02*
D03*
Y-13500D02*
D03*
X-13500D02*
D03*
X0Y0D02*
D03*
X49000Y45250D02*
D03*
X38000Y226000D02*
D03*
Y217000D02*
D03*
X23250Y65000D02*
D03*
Y71250D02*
D03*
Y79750D02*
D03*
Y86000D02*
D03*
X-69000Y141000D02*
D03*
X750Y93000D02*
D03*
X-49750Y90500D02*
D03*
X-25500Y128500D02*
D03*
Y116000D02*
D03*
Y103000D02*
D03*
X-70750Y115750D02*
D03*
Y128500D02*
D03*
X-77000Y141000D02*
D03*
X52000Y76000D02*
D03*
X56000Y88000D02*
D03*
X69000Y43000D02*
D03*
X71000Y68000D02*
D03*
X77000Y77000D02*
D03*
X-9522Y302626D02*
D03*
X-23000Y300000D02*
D03*
X8626Y294022D02*
D03*
X-7022Y284426D02*
D03*
X-33000Y276000D02*
D03*
X63000Y294000D02*
D03*
X40000Y191000D02*
D03*
X-15000Y331000D02*
D03*
X49250Y329750D02*
D03*
X-56088Y359918D02*
D03*
X-8000Y149000D02*
D03*
X-50000Y134000D02*
D03*
Y80000D02*
D03*
X-43000D02*
D03*
X-75510Y81946D02*
D03*
X-59000Y68000D02*
D03*
X73000Y114000D02*
D03*
X-62000Y369500D02*
D03*
X19000Y-157000D02*
D03*
X47000Y-102000D02*
D03*
Y-128516D02*
D03*
X-10000Y-102305D02*
D03*
Y-129000D02*
D03*
X64000Y-114000D02*
D03*
X-68000Y-272000D02*
D03*
X-54000D02*
D03*
X77000Y-361000D02*
D03*
X61000Y396000D02*
D03*
X28000Y30000D02*
D03*
X53000Y117000D02*
D03*
X-53684Y304514D02*
D03*
X-19000Y39000D02*
D03*
X17780Y221488D02*
D03*
X44450D02*
D03*
X-1270Y381508D02*
D03*
X-64262Y181102D02*
D03*
X-53340Y183642D02*
D03*
X-50038Y178308D02*
D03*
X8978Y284526D02*
D03*
X-82804Y196850D02*
D03*
X-17000Y318000D02*
D03*
X17780Y25400D02*
D03*
X-4318Y-33020D02*
D03*
X4572D02*
D03*
X23876D02*
D03*
X13970D02*
D03*
X-508Y197358D02*
D03*
X58166Y-344424D02*
D03*
X-72000Y-294000D02*
D03*
X34000Y-267000D02*
D03*
X-34780Y-233000D02*
D03*
X-59926D02*
D03*
X58166Y166878D02*
D03*
X31264Y382746D02*
D03*
X-60684Y304514D02*
D03*
X-56620Y178276D02*
D03*
X-18656Y236692D02*
D03*
X-46080Y248380D02*
D03*
X-20514Y198676D02*
D03*
X-61954Y398406D02*
D03*
X-61000Y330000D02*
D03*
X79524Y12160D02*
D03*
Y-12224D02*
D03*
X73000Y105000D02*
D03*
X6118Y85058D02*
D03*
X64538Y-61754D02*
D03*
X74190D02*
D03*
X82318Y-44990D02*
D03*
X17548Y38068D02*
D03*
X70524Y12129D02*
D03*
X70380Y-12255D02*
D03*
X26438Y-93250D02*
D03*
X25168Y-68358D02*
D03*
Y-76486D02*
D03*
X-3280Y-67088D02*
D03*
X-20552Y-92996D02*
D03*
X-82906Y-32382D02*
D03*
X-75286D02*
D03*
X-83544Y4794D02*
D03*
X-67034Y-2318D02*
D03*
X-83544Y26384D02*
D03*
X-75924Y34766D02*
D03*
X-1248Y68774D02*
D03*
X-5566Y166338D02*
D03*
X-62970Y103092D02*
D03*
X-11662Y-92996D02*
D03*
X-43158Y-78010D02*
D03*
X-44936Y-67596D02*
D03*
D77*
X9000Y252000D02*
D03*
X-8000D02*
D03*
D79*
X-114300Y393700D02*
D03*
Y368300D02*
D03*
Y342900D02*
D03*
Y317500D02*
D03*
Y292100D02*
D03*
Y266700D02*
D03*
Y241300D02*
D03*
Y215900D02*
D03*
Y190500D02*
D03*
Y165100D02*
D03*
Y139700D02*
D03*
Y114300D02*
D03*
Y88900D02*
D03*
Y63500D02*
D03*
Y38100D02*
D03*
Y12700D02*
D03*
Y-12700D02*
D03*
Y-38100D02*
D03*
Y-63500D02*
D03*
Y-88900D02*
D03*
X114300D02*
D03*
Y-63500D02*
D03*
Y-38100D02*
D03*
Y-12700D02*
D03*
Y12700D02*
D03*
Y38100D02*
D03*
Y63500D02*
D03*
Y88900D02*
D03*
Y114300D02*
D03*
Y139700D02*
D03*
Y165100D02*
D03*
Y190500D02*
D03*
Y215900D02*
D03*
Y241300D02*
D03*
Y266700D02*
D03*
Y292100D02*
D03*
Y317500D02*
D03*
Y342900D02*
D03*
Y368300D02*
D03*
Y393700D02*
D03*
Y-114300D02*
D03*
Y-139700D02*
D03*
Y-165100D02*
D03*
Y-190500D02*
D03*
Y-215900D02*
D03*
Y-241300D02*
D03*
Y-266700D02*
D03*
Y-292100D02*
D03*
Y-317500D02*
D03*
Y-342900D02*
D03*
Y-368300D02*
D03*
Y-393700D02*
D03*
X-114300D02*
D03*
Y-368300D02*
D03*
Y-342900D02*
D03*
Y-317500D02*
D03*
Y-292100D02*
D03*
Y-266700D02*
D03*
Y-241300D02*
D03*
Y-215900D02*
D03*
Y-190500D02*
D03*
Y-165100D02*
D03*
Y-139700D02*
D03*
Y-114300D02*
D03*
M02*
