M48
;Layer_Color=9474304
;FILE_FORMAT=4:4
METRIC,LZ
;TYPE=PLATED
T01F00S00C0.3000
T02F00S00C0.4000
T04F00S00C0.8000
%
T01
X0Y-00367
X00058166Y-00344424
X000685Y-0034425
X00077Y-00361
Y-0037325
X00034Y-00267
X00019Y-00157
X00047Y-00128516
Y-00102
X00064Y-00114
X00064538Y-00061754
X0007419
X00082318Y-0004499
X00079524Y-00012224
X0007038Y-00012255
X00070524Y00012129
X00079524Y0001216
X000135Y000135
Y0
Y-000135
X0
X-000135
Y0
Y000135
X0
Y0
X-00004318Y-0003302
X00004572
X0001397
X00023876
X00025168Y-00068358
Y-00076486
X00026438Y-0009325
X-00011662Y-00092996
X-00020552
X-0001Y-00102305
Y-00129
X-0000328Y-00067088
X-00044936Y-00067596
X-00043158Y-0007801
X-00075286Y-00032382
X-00082906
X-00083544Y00004794
X-00067034Y-00002318
X-00059926Y-00233
X-0003478
X-00054Y-00272
X-00068
X-00072Y-00294
X-0007025Y-0032075
X-000465Y-0033075
X-00083544Y00026384
X-00075924Y00034766
X-0007551Y00081946
X-0005Y0008
X-00043
X-0004975Y000905
X-0006297Y00103092
X-0007075Y0011575
Y001285
X-00069Y00141
X-00077
X-0005Y00134
X-00050038Y00178308
X-0005662Y00178276
X-0005334Y00183642
X-00064262Y00181102
X-00082804Y0019685
X-0004608Y0024838
X-00033Y00276
X-00053684Y00304514
X-00060684
X-00061Y0033
X-00056088Y00359918
X-00062Y003695
X-00061954Y00398406
X-00059Y00068
X-00001248Y00068774
X00006118Y00085058
X0000075Y00093
X0002325Y00086
Y0007975
Y0007125
Y00065
X00017548Y00038068
X0001778Y000254
X00028Y0003
X00049Y0004525
X00069Y00043
X00071Y00068
X00077Y00077
X00052Y00076
X00056Y00088
X00053Y00117
X00073Y00114
Y00105
X00058166Y00166878
X0004Y00191
X00038Y00217
Y00226
X0004445Y00221488
X0001778
X00009Y00252
X-00008
X-00018656Y00236692
X-00020514Y00198676
X-00000508Y00197358
X-00005566Y00166338
X-00008Y00149
X00005Y00142
X0000775Y00133
X-000255Y001285
Y00116
Y00103
X-00019Y00039
X-00007022Y00284426
X00008978Y00284526
X00008626Y00294022
X-00009522Y00302626
X-00023Y003
X-00017Y00318
X-00015Y00331
X-0000127Y00381508
X00031264Y00382746
X00061Y00396
X0004925Y0032975
X00063Y00294
T02
X-0002975Y0035218
X-0002125
X-0001275
X-0000425
X0000425
X0001275
X0002125
X0002975
Y0036568
X0002125
X0001275
X0000425
X-0000425
X-0001275
X-0002125
X-0002975
T04
X-001143Y-003937
X001143
Y-003683
Y-003429
Y-003175
Y-002921
Y-002667
Y-002413
Y-002159
Y-001905
Y-001651
Y-001397
Y-001143
Y-000889
Y-000635
Y-000381
Y-000127
Y000127
X-001143
Y-000127
Y-000381
Y-000635
Y-000889
Y-001143
Y-001397
Y-001651
Y-001905
Y-002159
Y-002413
Y-002667
Y-002921
Y-003175
Y-003429
Y-003683
Y000381
Y000635
Y000889
Y001143
Y001397
Y001651
Y001905
Y002159
Y002413
Y002667
Y002921
Y003175
Y003429
Y003683
Y003937
X001143
Y003683
Y003429
Y003175
Y002921
Y002667
Y002413
Y002159
Y001905
Y001651
Y001397
Y001143
Y000889
Y000635
Y000381
M30
