M48
;Layer_Color=9474304
;FILE_FORMAT=4:4
METRIC,LZ
;TYPE=PLATED
T01F00S00C0.2000
T02F00S00C0.3000
T03F00S00C0.4000
T05F00S00C0.8000
%
T01
X-00011Y-00011
X-00011Y0
X-00011Y00011
X0Y00011
X00011Y00011
X00011Y0
X0
Y-00011
X00011Y-00011
T02
X00019Y-00314
Y-00303
X0004318Y-00295656
Y-0027051
X00063754Y-00258318
Y-00245872
X00054356Y-00230378
X00042672Y-0021336
X00001524Y-00174244
X-00023622
X-0001524Y-00187706
X-00014Y-00277
X00058166Y-00344424
X00101114Y-0035487
X00044704Y-00121412
X00059436Y-00099314
X00026438Y-0009325
X00025168Y-00076486
Y-00068358
X-0000328Y-00067088
X-00011662Y-00092996
X-00020552
X-00004318Y-0003302
X00004572
X0001397
X00023876
X0007038Y-00012255
X00079524Y-00012224
Y0001216
X00070524Y00012129
X00082318Y-0004499
X0007419Y-00061754
X00064538
X-00044936Y-00067596
X-00043158Y-0007801
X-00075286Y-00032382
X-00082906
X-00083544Y00004794
X-00067034Y-00002318
X-00063754Y-00251206
X-00038862Y-00245872
X-00063253Y-00303276
X-00075Y-003
X-00083544Y00026384
X-00075924Y00034766
X-00059922Y0007058
X-0005535Y00083788
X-00048492
X-0006297Y00090646
Y00103092
Y00116046
Y00128492
X-00049Y00136
X-00033252Y00128492
Y00116046
Y00103092
X-00050038Y00178308
X-0005662Y00178276
X-0005334Y00183642
X-00064262Y00181102
X-00094466Y0017853
X-00082804Y0019685
X-00063732Y00260572
X-0004392Y0024838
X-00034768Y00281526
X-00035538Y0031569
X-00053684Y00304514
X-00060684
X-00061954Y00392906
X-0000127Y00381508
X00031264Y00382746
X00061Y00396
Y00331
X00049258Y00313404
X0005715Y00278892
X0006423Y00253724
X0004445Y00221488
X00038Y00217
Y00226
X0001778Y00221488
X-00000508Y00197358
X-00020514Y00198676
X-00018656Y00236692
X-00026512Y00254352
Y00262726
X-00018034Y00281178
X-00007112Y0033147
X-00005566Y00166338
X-00003Y00141
X00000022Y00106394
X00006118Y00085058
X0002212Y00086074
Y00079724
Y00071342
Y00064992
X-00001248Y00068774
X-00019Y00039
X00017548Y00038068
X0001778Y000254
X00028Y0003
X0004Y00038
X00053108Y00058896
Y0006804
Y00083026
X00053Y00117
X00073428Y00118586
Y00109442
X0007747Y00068834
X0007419Y00058896
X00065046
X00058166Y00166878
T03
X-0002975Y0035218
X-0002125
X-0001275
X-0000425
X0000425
X0001275
X0002125
X0002975
Y0036568
X0002125
X0001275
X0000425
X-0000425
X-0001275
X-0002125
X-0002975
T05
X-001143Y-003937
X001143
Y-003683
Y-003429
Y-003175
Y-002921
Y-002667
Y-002413
Y-002159
Y-001905
Y-001651
Y-001397
Y-001143
Y-000889
Y-000635
Y-000381
Y-000127
Y000127
X-001143
Y-000127
Y-000381
Y-000635
Y-000889
Y-001143
Y-001397
Y-001651
Y-001905
Y-002159
Y-002413
Y-002667
Y-002921
Y-003175
Y-003429
Y-003683
Y000381
Y000635
Y000889
Y001143
Y001397
Y001651
Y001905
Y002159
Y002413
Y002667
Y002921
Y003175
Y003429
Y003683
Y003937
X001143
Y003683
Y003429
Y003175
Y002921
Y002667
Y002413
Y002159
Y001905
Y001651
Y001397
Y001143
Y000889
Y000635
Y000381
M30
